<svg width="14" height="110" viewBox="0 0 14 110" fill="none" xmlns="http://www.w3.org/2000/svg">
<path d="M1.40039 11.9678C1.4004 15.8666 2.37439 17.8627 3.75391 18.9307C5.17604 20.0314 7.20801 20.2998 9.7002 20.2998H12.7002C13.0867 20.2999 13.4004 20.6135 13.4004 21C13.4004 21.3865 13.0867 21.7001 12.7002 21.7002H9.7002C7.19266 21.7002 4.72432 21.4521 2.89648 20.0371C2.31399 19.5861 1.81363 19.0308 1.40039 18.3564V55.9678C1.4004 59.8666 2.37439 61.8627 3.75391 62.9307C5.17604 64.0314 7.20801 64.2998 9.7002 64.2998H12.7002C13.0867 64.2999 13.4004 64.6135 13.4004 65C13.4004 65.3865 13.0867 65.7001 12.7002 65.7002H9.7002C7.19266 65.7002 4.72432 65.4521 2.89648 64.0371C2.31399 63.5861 1.81363 63.0308 1.40039 62.3564V99.9678C1.4004 103.867 2.37439 105.863 3.75391 106.931C5.17605 108.032 7.20794 108.3 9.7002 108.3H12.7002C13.0868 108.3 13.4004 108.613 13.4004 109C13.4004 109.387 13.0868 109.7 12.7002 109.7H9.7002C7.19261 109.7 4.72433 109.452 2.89648 108.037C1.02617 106.589 5.72572e-06 104.069 0 99.9678V0H1.40039V11.9678Z" fill="white" fill-opacity="0.16"/>
</svg>
