<?xml version="1.0" encoding="UTF-8"?>
<svg version="1.1" xmlns="http://www.w3.org/2000/svg" width="527" height="471">
<path d="M0 0 C11.92266794 11.27763704 19.5110647 26.75545056 27.59082031 40.81054688 C29.95362627 44.90741851 32.34534462 48.98700044 34.73730469 53.06689453 C39.86111624 61.80995166 44.90674774 70.59076364 49.86328125 79.4296875 C55.08109087 88.73176601 60.53056595 97.87869739 66.04833984 107.00537109 C70.06102395 113.66199935 73.92739977 120.37443741 77.65795898 127.19238281 C81.05341726 133.37907586 84.60250411 139.46925563 88.17578125 145.5546875 C93.04711388 153.85490293 97.81121577 162.2060238 102.48828125 170.6171875 C107.33090855 179.31968547 112.30259366 187.92944401 117.39746094 196.48632812 C121.75501111 203.81957472 126.01364399 211.2066935 130.23828125 218.6171875 C130.57341736 219.20505035 130.90855347 219.79291321 131.25384521 220.39859009 C132.96268132 223.39701052 134.6703061 226.39611879 136.37744141 229.39550781 C139.38817121 234.68401352 142.40921994 239.96662052 145.42962646 245.24960327 C146.42615326 246.99283826 147.4223641 248.7362534 148.41845703 250.47973633 C151.44515699 255.7774336 154.47258742 261.07470927 157.50273132 266.37043762 C165.12433711 279.69063682 172.72685067 293.02110028 180.26171875 306.390625 C182.44188713 310.25726175 184.63631207 314.11538178 186.83984375 317.96875 C191.74758808 326.56500595 196.64398909 335.15763795 201.11328125 343.9921875 C201.58568237 344.91632446 201.58568237 344.91632446 202.06762695 345.85913086 C207.31098627 356.45622051 208.05887083 368.46504864 205.84375 380.03125 C200.81238959 394.13743855 188.79587593 405.03717343 175.90625 411.86328125 C171.10809073 414.04701043 166.59506267 414.18873937 161.37475586 414.28881836 C160.52295557 414.30808695 159.67115528 414.32735554 158.79354286 414.34720802 C155.825997 414.41106112 152.85837468 414.46601128 149.890625 414.51953125 C148.81693098 414.53994917 147.74323696 414.56036709 146.63700676 414.58140373 C104.09448091 415.37075928 61.53655169 415.37598999 18.98828125 415.5546875 C16.66465756 415.56453027 14.34103391 415.57437984 12.01741028 415.58423615 C-9.00132469 415.67316931 -30.02006982 415.75934275 -51.03884888 415.83721924 C-55.58888778 415.85414267 -60.13892645 415.87112508 -64.68896484 415.88818359 C-65.79836528 415.89234189 -66.90776572 415.89650019 -68.05078435 415.90078449 C-83.90921791 415.96077051 -99.76747309 416.03798343 -115.62574446 416.13118637 C-129.12384586 416.21050325 -142.62191532 416.27500996 -156.12018108 416.31881809 C-163.79527894 416.34425095 -171.47001668 416.3835107 -179.14493269 416.4423539 C-184.86032564 416.48460653 -190.57554703 416.50059459 -196.29108238 416.50607872 C-198.56566109 416.5123071 -200.84023693 416.52697053 -203.1146946 416.55124855 C-214.97012498 416.67334934 -224.85677079 416.61730144 -235.57421875 410.9921875 C-236.49189026 410.52606049 -237.40956177 410.05993347 -238.3550415 409.5796814 C-250.28822873 403.25779469 -259.34863483 392.33451418 -263.7421875 379.609375 C-268.82615417 357.50724762 -257.95755557 339.84454703 -246.76171875 321.7421875 C-246.12878906 320.73285156 -245.49585938 319.72351563 -244.84375 318.68359375 C-239.84038332 310.62888783 -235.17850481 302.35916665 -230.41650391 294.16064453 C-228.64349933 291.11133982 -226.86583328 288.06481776 -225.0859375 285.01953125 C-218.41306675 273.60232689 -211.78060699 262.16270556 -205.17993164 250.70361328 C-201.00094238 243.45296688 -196.79679599 236.21752606 -192.57421875 228.9921875 C-182.54587412 211.82768985 -172.62441188 194.60231245 -162.78076172 177.33129883 C-159.35876198 171.33788428 -155.87590434 165.38303286 -152.36206055 159.44311523 C-149.04501845 153.82350795 -145.80304598 148.16286012 -142.57421875 142.4921875 C-138.19361724 134.80153642 -133.74967521 127.15267984 -129.25 119.53125 C-121.10682172 105.73437058 -113.07211254 91.87366088 -105.07421875 77.9921875 C-99.07866464 67.58734001 -93.06112413 57.19589779 -86.98828125 46.8359375 C-84.68857383 42.91159383 -82.41587752 38.9732145 -80.16015625 35.0234375 C-69.13122668 15.82896599 -56.76865626 -2.09479098 -34.57421875 -9.0078125 C-21.74055241 -11.91354828 -10.19248933 -7.94983234 0 0 Z M-35.57421875 24.9921875 C-40.73158945 30.60462032 -44.49403267 37.35121556 -48.02734375 44.06640625 C-52.92084865 53.32205061 -58.3348209 62.31121698 -63.65356445 71.32714844 C-68.67912971 79.85203145 -73.62462512 88.423052 -78.57421875 96.9921875 C-84.28571281 106.88038646 -90.01301684 116.75781932 -95.8137207 126.59399414 C-99.30054297 132.51249712 -102.74468932 138.45508454 -106.1809082 144.40307617 C-110.02194979 151.04821906 -113.88999269 157.67738544 -117.76171875 164.3046875 C-123.40859815 173.97475991 -128.9945376 183.67552681 -134.515625 193.41796875 C-137.96275958 199.48810706 -141.46677462 205.51572157 -145.07421875 211.4921875 C-148.54340204 217.2399468 -151.90550956 223.03940265 -155.21875 228.87890625 C-158.24816162 234.19420797 -161.35676162 239.46342743 -164.44921875 244.7421875 C-168.55757315 251.75909222 -172.60865306 258.7965837 -176.51171875 265.9296875 C-180.43274645 273.08503231 -184.59906437 280.07518751 -188.82421875 287.0546875 C-194.63193892 296.65072197 -200.20027933 306.35526682 -205.64648438 316.16040039 C-210.48072172 324.85803123 -215.48388034 333.44269127 -220.57421875 341.9921875 C-222.43200325 345.11505673 -224.28538513 348.24049073 -226.13671875 351.3671875 C-226.56694336 352.08777344 -226.99716797 352.80835938 -227.44042969 353.55078125 C-231.22252177 359.93940872 -232.3247731 364.64347624 -231.57421875 371.9921875 C-229.42023279 377.86669466 -226.20145759 380.62919821 -220.82589722 383.72854614 C-213.97589301 386.39054016 -206.53609646 385.73150535 -199.296875 385.61328125 C-197.40828912 385.60491962 -195.51968983 385.59924008 -193.63108826 385.59597778 C-188.40888472 385.57924516 -183.18764557 385.5246956 -177.96578979 385.46428299 C-172.28331067 385.40523104 -166.60067021 385.38134232 -160.91796875 385.35327148 C-150.75647889 385.29842463 -140.59532148 385.22124808 -130.43408203 385.13183594 C-118.76066424 385.02956157 -107.08726419 384.94790463 -95.41357422 384.88378906 C-94.64257126 384.87955272 -93.87156829 384.87531637 -93.0772016 384.87095165 C-89.12618262 384.84935483 -85.1751619 384.82809401 -81.22414017 384.80700684 C-59.87814449 384.69298913 -38.53224684 384.57061443 -17.18652344 384.41308594 C-16.36679731 384.40704188 -15.54707119 384.40099783 -14.70250487 384.39477062 C-7.2807978 384.33993495 0.140904 384.28440237 7.562603 384.22848511 C28.7672264 384.0691391 49.97156963 383.94757793 71.1766454 383.8694666 C80.35027363 383.83501787 89.52383648 383.78717862 98.69739342 383.73750591 C105.26603866 383.70252089 111.83458455 383.67513785 118.40332031 383.66433716 C124.44152489 383.65439061 130.47937117 383.62653381 136.51743507 383.58449936 C138.70260793 383.57261336 140.88783035 383.56752244 143.07303429 383.56985855 C146.0363408 383.57218299 148.99851732 383.55021756 151.96166992 383.5222168 C152.81186958 383.528816 153.66206924 383.53541521 154.53803253 383.54221439 C161.07169871 383.43993639 166.64104468 381.7997031 171.3359375 377.06640625 C172.60805107 374.64528688 173.3026078 372.48431991 173.86328125 369.8046875 C174.17072266 368.48404297 174.17072266 368.48404297 174.484375 367.13671875 C174.34841742 359.84032855 169.44678235 352.96643183 165.92578125 346.7421875 C165.4963623 345.97624268 165.06694336 345.21029785 164.62451172 344.42114258 C159.78441077 335.80832948 154.87274442 327.23589184 149.95800781 318.66552734 C147.44272517 314.27700839 144.9345744 309.88441841 142.42578125 305.4921875 C141.42581632 303.74216746 140.4258163 301.99216747 139.42578125 300.2421875 C133.42578125 289.7421875 133.42578125 289.7421875 131.92553711 287.11669922 C130.92642104 285.36828675 129.92723494 283.61991429 128.92797852 281.87158203 C126.41387612 277.47261975 123.90102873 273.07294923 121.390625 268.671875 C114.78002525 257.08602437 108.1211346 245.52924195 101.42578125 233.9921875 C92.09992905 217.92240613 82.8013193 201.83704526 73.73828125 185.6171875 C70.91121324 180.56005243 67.99394836 175.5701237 64.98828125 170.6171875 C61.77991142 165.32795669 58.71851474 159.97559312 55.73828125 154.5546875 C50.55586661 145.13117711 45.12552046 135.85808057 39.69140625 126.578125 C35.88557535 120.07776583 32.14604403 113.54182973 28.42578125 106.9921875 C22.82156131 97.15001344 17.16635503 87.33786851 11.49804688 77.5324707 C8.01459603 71.50060509 4.54832494 65.45969847 1.109375 59.40234375 C0.39259044 58.1414318 -0.32420633 56.88052679 -1.04101562 55.61962891 C-2.40403757 53.22160638 -3.76274465 50.82120859 -5.11914062 48.41943359 C-13.23972613 32.60061089 -13.23972613 32.60061089 -26.57421875 21.9921875 C-30.38908565 21.9921875 -32.30097491 23.05496155 -35.57421875 24.9921875 Z " fill="#F6BE07" transform="translate(287.57421875,39.0078125)"/>
<path d="M0 0 C0.7381041 0.0141243 1.47620819 0.0282486 2.23667908 0.0428009 C3.79075308 0.07578849 5.34475924 0.11212258 6.89868164 0.15161133 C9.27298738 0.20692975 11.64672293 0.23542138 14.02148438 0.26367188 C15.53519606 0.29912032 17.04887115 0.33617522 18.5625 0.375 C19.26987808 0.37936569 19.97725616 0.38373138 20.70606995 0.38822937 C24.07654271 0.50465873 25.92378862 0.79630565 28.63061523 2.87231445 C30.87908713 5.91982721 31.3413864 8.37805891 31.34078979 12.06085205 C31.34180254 12.87411327 31.34281528 13.6873745 31.34385872 14.52528 C31.33850546 15.40929111 31.3331522 16.29330223 31.32763672 17.20410156 C31.3244235 18.13503254 31.32121029 19.06596352 31.3178997 20.02510452 C31.24789829 31.04651335 30.8388791 42.05417913 30.41015625 53.06640625 C30.32515325 55.30169247 30.24026588 57.5369831 30.15548706 59.77227783 C29.97845278 64.41112734 29.79812275 69.0498351 29.61572266 73.68847656 C29.38319937 79.61566937 29.16208096 85.5432298 28.94371223 91.47095871 C28.77260932 96.06779289 28.59401535 100.6643139 28.41332626 105.26078033 C28.32855803 107.44703333 28.24643495 109.63339066 28.16708755 111.81984711 C28.05559494 114.86952085 27.93361005 117.91860784 27.80908203 120.96777344 C27.77886963 121.85619934 27.74865723 122.74462524 27.7175293 123.65997314 C27.10755098 137.73857638 27.10755098 137.73857638 22.77734375 142.95703125 C17.24260471 147.41182121 13.83693472 147.38515596 6.96484375 147.39453125 C6.03542969 147.41902344 5.10601562 147.44351563 4.1484375 147.46875 C-2.03033653 147.49496828 -5.85864626 146.86118801 -10.78515625 143.01953125 C-13.2996721 138.82422403 -14.19748543 135.51359552 -14.43652344 130.6550293 C-14.50550842 129.38448196 -14.57449341 128.11393463 -14.64556885 126.80488586 C-14.70802957 125.40118752 -14.77017237 123.997475 -14.83203125 122.59375 C-14.90758196 121.09871471 -14.98425515 119.60373579 -15.06195068 118.10881042 C-15.22896878 114.84028181 -15.38692476 111.57147365 -15.53833008 108.30218506 C-15.74863192 103.76262232 -15.97309107 99.22388185 -16.20149994 94.68519783 C-16.69927885 84.79076544 -17.16970106 74.89531409 -17.61739349 64.99849129 C-17.85025802 59.85174399 -18.08789825 54.70531983 -18.33691406 49.55932617 C-18.58285954 44.47609338 -18.81754913 39.39245958 -19.04405975 34.30832481 C-19.13107158 32.39644964 -19.22196616 30.48474677 -19.3169632 28.57325172 C-19.44773589 25.92525476 -19.56397555 23.27698964 -19.67675781 20.62817383 C-19.71820923 19.85583908 -19.75966064 19.08350433 -19.80236816 18.2877655 C-19.98708742 13.50000449 -19.47355214 9.5809436 -17.78515625 5.01953125 C-12.57406472 -0.33240059 -7.10081939 -0.14583954 0 0 Z " fill="#F9BF04" transform="translate(252.78515625,177.98046875)"/>
<path d="M0 0 C1.07317474 0.02474396 1.07317474 0.02474396 2.16802979 0.04998779 C3.66727954 0.08721614 5.16645117 0.12772431 6.66552734 0.17138672 C8.96052346 0.23457871 11.25528888 0.2757564 13.55078125 0.31640625 C15.01305741 0.35542322 16.47529955 0.39574176 17.9375 0.4375 C18.96408722 0.45179047 18.96408722 0.45179047 20.01141357 0.46636963 C22.70024669 0.5634152 24.77689521 0.7383465 27.13012695 2.09667969 C28.76371153 4.97059913 28.61050544 7.44839531 28.63671875 10.734375 C28.6419606 11.38889648 28.64720245 12.04341797 28.65260315 12.71777344 C28.65901763 14.09959496 28.65769366 15.48147113 28.64916992 16.86328125 C28.64065249 18.97755024 28.66943231 21.08912255 28.70117188 23.203125 C28.70278388 24.54687419 28.70220637 25.89062816 28.69921875 27.234375 C28.70199829 29.06742187 28.70199829 29.06742187 28.70483398 30.9375 C28.203125 33.984375 28.203125 33.984375 26.70727539 35.88134766 C23.06530493 37.48556161 19.54870587 37.41255219 15.640625 37.3828125 C14.81232178 37.38568268 13.98401855 37.38855286 13.13061523 37.39151001 C11.38231725 37.39354818 9.63399633 37.38803556 7.88574219 37.37548828 C5.21237107 37.35943054 2.5405117 37.37534471 -0.1328125 37.39453125 C-1.83333666 37.39254877 -3.53385989 37.38870501 -5.234375 37.3828125 C-6.43139038 37.39192154 -6.43139038 37.39192154 -7.65258789 37.4012146 C-10.81293113 37.36123774 -13.3917384 37.16282944 -16.30102539 35.88134766 C-18.53964243 33.04242903 -18.29839491 30.81280698 -18.29296875 27.234375 C-18.29442398 26.57985352 -18.29587921 25.92533203 -18.29737854 25.25097656 C-18.29572079 23.86909528 -18.28417293 22.4871953 -18.26342773 21.10546875 C-18.23447107 18.99138908 -18.24281792 16.87981764 -18.25585938 14.765625 C-18.24962157 13.42186282 -18.24123028 12.07810856 -18.23046875 10.734375 C-18.22072021 9.51234375 -18.21097168 8.2903125 -18.20092773 7.03125 C-17.796875 3.984375 -17.796875 3.984375 -16.70727539 2.125 C-11.80787996 -0.80023648 -5.53487103 -0.144236 0 0 Z " fill="#F6BF06" transform="translate(254.796875,337.015625)"/>
<path d="M0 0 C0.66 0 1.32 0 2 0 C0.54485951 5.12877386 -1.76193359 9.21455744 -4.5625 13.6875 C-8.92172363 20.70728265 -10.86031218 25.68786613 -10 34 C-8.75633291 38.3780443 -6.24529527 41.18502954 -2.47607422 43.66650391 C4.81843215 47.52560924 13.1592493 46.62989734 21.1796875 46.5234375 C23.06970621 46.51696273 24.95973353 46.51269589 26.84976196 46.51042175 C32.08006524 46.49759555 37.30969814 46.45303267 42.5397644 46.40343094 C48.22889679 46.3549344 53.91814054 46.33550709 59.60742188 46.31225586 C69.7797708 46.26643054 79.95186932 46.20095899 90.12402344 46.12353516 C101.8043052 46.034744 113.4845913 45.95936053 125.16503906 45.89599609 C125.93608062 45.89179834 126.70712217 45.88760059 127.50152862 45.88327563 C130.65519161 45.86612274 133.80885492 45.8490285 136.96251863 45.83200914 C159.10428692 45.71244797 181.24595723 45.58384895 203.38745117 45.4206543 C204.20718458 45.41461752 205.02691798 45.40858074 205.87149179 45.40236104 C213.29327856 45.34759909 220.71506066 45.29221888 228.13683891 45.23631477 C249.34145681 45.07697346 270.54579388 44.95539041 291.75086415 44.8772791 C300.92449238 44.84283037 310.09805523 44.79499112 319.27161217 44.74531841 C325.84025741 44.71033339 332.4088033 44.68295035 338.97753906 44.67214966 C345.01574364 44.66220311 351.05358992 44.63434631 357.09165382 44.59231186 C359.27682668 44.58042586 361.4620491 44.57533494 363.64725304 44.57767105 C366.61055955 44.57999549 369.57273607 44.55803006 372.53588867 44.5300293 C373.38608833 44.5366285 374.23628799 44.54322771 375.11225128 44.55002689 C380.78411235 44.46123959 385.30058467 43.29070356 390 40 C393.39104433 35.18690483 394.5987272 29.50854138 393.609375 23.7109375 C393.1344807 21.79100771 392.57451174 19.89250925 392 18 C392.66 18.33 393.32 18.66 394 19 C394.33 19.99 394.66 20.98 395 22 C395.66 22.33 396.32 22.66 397 23 C397.60094227 35.30818802 397.60094227 35.30818802 394 41 C391.75037957 42.62217527 389.49684022 43.75157989 387 45 C386.67 45.66 386.34 46.32 386 47 C352.55027394 47.28298449 319.10047929 47.55548646 285.65056671 47.81542987 C281.62886034 47.84669133 277.60715459 47.87803273 273.58544922 47.90942383 C272.78537845 47.91566737 271.98530769 47.92191091 271.16099235 47.92834365 C260.04750647 48.01523453 248.93406303 48.10637738 237.82064146 48.20112471 C113.69385396 49.25894781 113.69385396 49.25894781 53.64330292 48.96343803 C48.95961919 48.94091658 44.27621163 48.9314581 39.59247589 48.93400764 C34.21257975 48.93593597 28.8336276 48.90904368 23.45397472 48.85855222 C21.51576528 48.84485785 19.57745562 48.84099483 17.6392107 48.84806705 C6.24992593 48.88155624 -1.92245908 48.50515647 -10.69801712 40.43930721 C-13.4696782 37.3753101 -13.67029804 32.97956046 -14 29 C-13.56762901 23.40677528 -11.60498785 18.68897812 -8.90234375 13.82421875 C-7.95213182 11.90322753 -7.44758562 10.09027097 -7 8 C-6.01 8 -5.02 8 -4 8 C-3.67 6.02 -3.34 4.04 -3 2 C-2.34 2 -1.68 2 -1 2 C-0.67 1.34 -0.34 0.68 0 0 Z " fill="#E5C34D" transform="translate(67,377)"/>
<path d="M0 0 C1.9375 0.3125 1.9375 0.3125 4 1 C4.33 1.99 4.66 2.98 5 4 C5.99 4 6.98 4 8 4 C8 4.66 8 5.32 8 6 C8.66 6 9.32 6 10 6 C13.04395069 8.73955562 15.44396229 11.18063472 17 15 C17.73905626 14.94922125 18.47811252 14.8984425 19.23956442 14.84612501 C22.36530088 15.02036297 23.59985295 15.74118731 26.1669693 17.46199989 C31.29503502 20.4569033 35.48239412 20.69599011 41.32849121 20.60800171 C42.83517781 20.61546824 42.83517781 20.61546824 44.37230253 20.62308562 C47.72455705 20.63362304 51.0755712 20.60853919 54.42773438 20.58349609 C56.84354261 20.58372306 59.25935147 20.58614183 61.67515564 20.59057617 C67.57612767 20.59570102 73.47676502 20.57766334 79.37764645 20.54941289 C86.37150911 20.5171419 93.36531159 20.51313594 100.35923785 20.51022096 C112.99038384 20.50414054 125.62137107 20.47504769 138.25244141 20.43212891 C150.21696254 20.39151489 162.1814113 20.36251683 174.14599609 20.35009766 C175.22880193 20.34895659 175.22880193 20.34895659 176.33348262 20.34779248 C179.24445899 20.34475208 182.15543541 20.34177323 185.06641191 20.33887367 C221.31673447 20.30236877 257.56652889 20.18384427 293.8164444 20.010432 C296.01331041 19.99993641 298.2101769 19.98954655 300.40704346 19.97916603 C319.70057512 19.88759964 338.99389532 19.77666058 358.28717342 19.64185699 C362.90554816 19.60996751 367.52393559 19.58265166 372.14234924 19.55707932 C378.28340922 19.52262161 384.4243288 19.47865871 390.56526947 19.42723227 C392.79347755 19.40998901 395.02171245 19.39586082 397.24996185 19.38522196 C408.99846299 19.32670026 420.40043193 18.98708588 432 17 C428.0683172 21.11057198 424.96268165 21.10565057 419.30859947 21.25139427 C418.52992327 21.26632235 417.75124706 21.28125042 416.94897461 21.29663086 C415.67127418 21.32553374 415.67127418 21.32553374 414.36776161 21.35502052 C411.40021575 21.41887362 408.43259343 21.47382378 405.46484375 21.52734375 C404.39114973 21.54776167 403.31745571 21.56817959 402.21122551 21.58921623 C359.66869966 22.37857178 317.11077044 22.38380249 274.5625 22.5625 C272.23887631 22.57234277 269.91525266 22.58219234 267.59162903 22.59204865 C246.57289406 22.68098181 225.55414893 22.76715525 204.53536987 22.84503174 C199.98533097 22.86195517 195.4352923 22.87893758 190.88525391 22.89599609 C189.77585347 22.90015439 188.66645303 22.90431269 187.5234344 22.90859699 C171.66500084 22.96858301 155.80674566 23.04579593 139.94847429 23.13899887 C126.45037289 23.21831575 112.95230343 23.28282246 99.45403767 23.32663059 C91.77893981 23.35206345 84.10420207 23.3913232 76.42928606 23.4501664 C70.71389311 23.49241903 64.99867172 23.50840709 59.28313637 23.51389122 C57.00855766 23.5201196 54.73398182 23.53478303 52.45952415 23.55906105 C40.60409377 23.68116184 30.71744796 23.62511394 20 18 C19.08176453 17.53306732 18.16352905 17.06613464 17.21746826 16.58505249 C10.44359856 13.00076204 4.93071562 7.83293167 0 2 C0 1.34 0 0.68 0 0 Z " fill="#E5C342" transform="translate(32,432)"/>
<path d="M0 0 C0.99 0.495 0.99 0.495 2 1 C2.33 1.99 2.66 2.98 3 4 C3.99 4.495 3.99 4.495 5 5 C5.60094227 17.30818802 5.60094227 17.30818802 2 23 C-0.24962043 24.62217527 -2.50315978 25.75157989 -5 27 C-5.33 27.66 -5.66 28.32 -6 29 C-48.57 29 -91.14 29 -135 29 C-135 28.67 -135 28.34 -135 28 C-131.57245295 27.22714236 -128.40778716 26.87377232 -124.89689636 26.86869812 C-123.89188583 26.86468994 -122.88687531 26.86068176 -121.85140991 26.85655212 C-120.75986603 26.85708084 -119.66832214 26.85760956 -118.54370117 26.8581543 C-116.80623878 26.85294266 -116.80623878 26.85294266 -115.03367615 26.84762573 C-112.51990933 26.84027827 -110.00613606 26.83492751 -107.49236107 26.83133507 C-103.51173614 26.82416247 -99.53119555 26.80884181 -95.5506134 26.78999329 C-94.18528657 26.78365651 -92.81995969 26.77733088 -91.45463276 26.77101612 C-90.7710292 26.76785031 -90.08742564 26.7646845 -89.38310683 26.76142275 C-80.12154966 26.71942288 -70.86003478 26.68637791 -61.59838867 26.67407227 C-55.34325256 26.66567612 -49.08833678 26.64313053 -42.8333109 26.6047166 C-39.52760478 26.58501202 -36.22229915 26.57475438 -32.91652489 26.57755089 C-29.22550776 26.5799052 -25.53537939 26.55772576 -21.84448242 26.5300293 C-20.75901123 26.53663071 -19.67354004 26.54323212 -18.55517578 26.55003357 C-12.2847532 26.47289518 -7.15638937 25.80911778 -2 22 C1.39104433 17.18690483 2.5987272 11.50854138 1.609375 5.7109375 C1.1344807 3.79100771 0.57451174 1.89250925 0 0 Z " fill="#EDCA3C" transform="translate(459,395)"/>
<path d="M0 0 C0.66 0.33 1.32 0.66 2 1 C-7.91521262 18.61358044 -17.9459698 36.15178254 -28.21582031 53.56103516 C-31.95755761 59.91006271 -35.65050879 66.28694809 -39.33398438 72.66992188 C-41.52566057 76.46558036 -43.72832548 80.25136218 -46 84 C-47.75402334 80.49195332 -45.98937179 76.65500408 -45 73 C-44.38103371 71.31503622 -43.73882078 69.63596029 -43 68 C-42.34 68 -41.68 68 -41 68 C-40.89042969 67.43410156 -40.78085938 66.86820312 -40.66796875 66.28515625 C-40.50941406 65.55167969 -40.35085937 64.81820312 -40.1875 64.0625 C-40.03667969 63.33160156 -39.88585937 62.60070312 -39.73046875 61.84765625 C-39.48941406 61.23792969 -39.24835938 60.62820312 -39 60 C-37.515 59.505 -37.515 59.505 -36 59 C-35.67 58.34 -35.34 57.68 -35 57 C-34.01 57 -33.02 57 -32 57 C-32 56.01 -32 55.02 -32 54 C-31.34 54 -30.68 54 -30 54 C-29.87882812 53.38511719 -29.75765625 52.77023438 -29.6328125 52.13671875 C-29.46523437 51.32847656 -29.29765625 50.52023438 -29.125 49.6875 C-28.96257812 48.88699219 -28.80015625 48.08648437 -28.6328125 47.26171875 C-28 45 -28 45 -26 42 C-25.855625 41.154375 -25.71125 40.30875 -25.5625 39.4375 C-25 37 -25 37 -22 35 C-20.7811879 31.44327821 -20.7811879 31.44327821 -20 28 C-19.34 28 -18.68 28 -18 28 C-17.566875 27.1028125 -17.566875 27.1028125 -17.125 26.1875 C-16 24 -16 24 -14 21 C-13.01 21 -12.02 21 -11 21 C-11 19.68 -11 18.36 -11 17 C-10.34 17 -9.68 17 -9 17 C-9 15.35 -9 13.7 -9 12 C-8.01 12 -7.02 12 -6 12 C-5.34 9.03 -4.68 6.06 -4 3 C-2.68 2.67 -1.36 2.34 0 2 C0 1.34 0 0.68 0 0 Z " fill="#E6BF28" transform="translate(221,112)"/>
<path d="M0 0 C0.495 0.99 0.495 0.99 1 2 C-0.17263165 4.39155138 -1.40385386 6.64502053 -2.75 8.9375 C-3.36355347 10.00387695 -3.36355347 10.00387695 -3.98950195 11.09179688 C-5.31912461 13.39878113 -6.65962247 15.69925136 -8 18 C-8.85371983 19.47997573 -9.70659018 20.96044182 -10.55859375 22.44140625 C-14.49892306 29.28019 -18.47093551 36.10024406 -22.4609375 42.91015625 C-28.27456083 52.83849869 -34.03325758 62.78239402 -39.57202148 72.86694336 C-43.16793491 79.38127927 -47.02263408 85.71176225 -51 92 C-52.52491998 88.95016004 -52.23562548 86.3576631 -52 83 C-50.625 81.0625 -50.625 81.0625 -49 80 C-48.34 80 -47.68 80 -47 80 C-47 79.34 -47 78.68 -47 78 C-45.7934375 76.824375 -45.7934375 76.824375 -44.5625 75.625 C-42.18189674 73.18633325 -41.36364082 72.2727674 -41 69 C-40.34 69 -39.68 69 -39 69 C-38.9175 68.34 -38.835 67.68 -38.75 67 C-37.75240209 63.00960837 -35.92833317 59.61450357 -34 56 C-33.34 56 -32.68 56 -32 56 C-32.12375 54.948125 -32.12375 54.948125 -32.25 53.875 C-31.91765135 50.05299049 -30.16887918 48.12573764 -28 45 C-27.4740625 43.3603125 -27.4740625 43.3603125 -26.9375 41.6875 C-26.628125 40.800625 -26.31875 39.91375 -26 39 C-24.515 38.505 -24.515 38.505 -23 38 C-21.98245132 36.1346755 -21.98245132 36.1346755 -21.3125 33.9375 C-21.06113281 33.20402344 -20.80976563 32.47054687 -20.55078125 31.71484375 C-20.36902344 31.14894531 -20.18726563 30.58304687 -20 30 C-19.01 30 -18.02 30 -17 30 C-17 28.35 -17 26.7 -17 25 C-16.01 24.67 -15.02 24.34 -14 24 C-14.061875 22.906875 -14.12375 21.81375 -14.1875 20.6875 C-14 17 -14 17 -12.6875 15.375 C-12.130625 14.92125 -11.57375 14.4675 -11 14 C-10.525625 13.154375 -10.05125 12.30875 -9.5625 11.4375 C-8 9 -8 9 -6.0625 8.125 C-2.73911353 6.31224374 -1.71841817 3.31409218 0 0 Z " fill="#E3BF30" transform="translate(150,235)"/>
<path d="M0 0 C4.64323819 4.5103509 8.63012974 9.50543734 12.3203125 14.81640625 C11.9903125 15.47640625 11.6603125 16.13640625 11.3203125 16.81640625 C10.8871875 16.34203125 10.4540625 15.86765625 10.0078125 15.37890625 C8.29721637 13.57953668 8.29721637 13.57953668 5.3203125 12.81640625 C4.8253125 11.33140625 4.8253125 11.33140625 4.3203125 9.81640625 C3.6396875 9.13578125 2.9590625 8.45515625 2.2578125 7.75390625 C1.29875 6.79484375 1.29875 6.79484375 0.3203125 5.81640625 C0.3203125 5.15640625 0.3203125 4.49640625 0.3203125 3.81640625 C-0.2984375 3.73390625 -0.9171875 3.65140625 -1.5546875 3.56640625 C-3.6796875 2.81640625 -3.6796875 2.81640625 -4.6171875 0.87890625 C-5.55248053 -1.44811766 -5.55248053 -1.44811766 -8.3046875 -2.43359375 C-9.0884375 -2.68109375 -9.8721875 -2.92859375 -10.6796875 -3.18359375 C-10.6796875 -3.84359375 -10.6796875 -4.50359375 -10.6796875 -5.18359375 C-11.9996875 -4.85359375 -13.3196875 -4.52359375 -14.6796875 -4.18359375 C-15.1746875 -5.17359375 -15.1746875 -5.17359375 -15.6796875 -6.18359375 C-23.99457047 -8.95522141 -32.76055334 -7.40493646 -40.6796875 -4.18359375 C-40.6796875 -3.52359375 -40.6796875 -2.86359375 -40.6796875 -2.18359375 C-42.1028125 -2.05984375 -42.1028125 -2.05984375 -43.5546875 -1.93359375 C-46.71747839 -1.55929306 -46.71747839 -1.55929306 -47.7421875 0.50390625 C-48.0515625 1.26703125 -48.3609375 2.03015625 -48.6796875 2.81640625 C-50.20280292 5.06533841 -51.78161904 6.82795357 -53.6796875 8.81640625 C-54.9996875 8.81640625 -56.3196875 8.81640625 -57.6796875 8.81640625 C-58.02 9.96109375 -58.02 9.96109375 -58.3671875 11.12890625 C-59.95745204 14.38516221 -61.5480469 15.13013824 -64.6796875 16.81640625 C-65.0096875 17.47640625 -65.3396875 18.13640625 -65.6796875 18.81640625 C-66.6696875 18.81640625 -67.6596875 18.81640625 -68.6796875 18.81640625 C-68.6796875 19.47640625 -68.6796875 20.13640625 -68.6796875 20.81640625 C-69.3396875 20.81640625 -69.9996875 20.81640625 -70.6796875 20.81640625 C-66.47504833 8.71214198 -53.62595451 -0.43985875 -42.6796875 -6.18359375 C-27.6609797 -13.13820259 -12.66705954 -10.32199167 0 0 Z " fill="#E3C641" transform="translate(287.6796875,39.18359375)"/>
<path d="M0 0 C0.99 0.33 1.98 0.66 3 1 C3.309375 1.78375 3.61875 2.5675 3.9375 3.375 C5.16772776 6.41438624 6.39478578 7.12750228 9 9 C10.66189865 11.65903784 11 12.80366562 11 16 C11.66 16 12.32 16 13 16 C13.33 17.98 13.66 19.96 14 22 C14.66 22 15.32 22 16 22 C17.4606285 24.64738916 18 25.89448334 18 29 C18.66 29 19.32 29 20 29 C20.33 30.98 20.66 32.96 21 35 C22.32 35.33 23.64 35.66 25 36 C25.33 37.98 25.66 39.96 26 42 C26.66 42 27.32 42 28 42 C28.33 43.98 28.66 45.96 29 48 C29.66 48 30.32 48 31 48 C31.67408308 49.26691507 32.33900497 50.53870749 33 51.8125 C33.37125 52.52019531 33.7425 53.22789062 34.125 53.95703125 C35 56 35 56 35 59 C35.66 59 36.32 59 37 59 C44 68.48387097 44 68.48387097 44 73 C44.66 73 45.32 73 46 73 C46.495 77.455 46.495 77.455 47 82 C43.94131858 78.94131858 42.10223632 75.86979613 40.0625 72.125 C39.25862115 70.67272917 38.45389007 69.22092985 37.6484375 67.76953125 C37.22014648 66.99561035 36.79185547 66.22168945 36.35058594 65.42431641 C33.99755946 61.20060836 31.59105367 57.00759498 29.1875 52.8125 C28.16141697 51.01955492 27.13537575 49.22658591 26.109375 47.43359375 C25.59568359 46.53624512 25.08199219 45.63889648 24.55273438 44.71435547 C23.01757975 42.0307314 21.48490843 39.34570578 19.953125 36.66015625 C19.45369385 35.78488281 18.9542627 34.90960938 18.43969727 34.0078125 C17.44503543 32.26452739 16.45072706 30.52104055 15.45678711 28.77734375 C12.92753578 24.34707584 10.37958668 19.92897603 7.80078125 15.52734375 C7.28845947 14.65094238 6.7761377 13.77454102 6.24829102 12.87158203 C5.2694793 11.19977098 4.28704711 9.53007296 3.30053711 7.86279297 C2.86620361 7.1204541 2.43187012 6.37811523 1.984375 5.61328125 C1.59991211 4.96141846 1.21544922 4.30955566 0.81933594 3.63793945 C0 2 0 2 0 0 Z " fill="#E2C130" transform="translate(412,313)"/>
<path d="M0 0 C0.72256485 0.02361099 1.4451297 0.04722198 2.18959045 0.07154846 C4.47168452 0.14742616 6.75337193 0.23177069 9.03515625 0.31640625 C10.59307981 0.36970321 12.15102255 0.42244292 13.70898438 0.47460938 C17.50546026 0.60293681 21.30159561 0.73885248 25.09765625 0.87890625 C25.09765625 1.20890625 25.09765625 1.53890625 25.09765625 1.87890625 C24.39680908 1.9039624 23.69596191 1.92901855 22.97387695 1.95483398 C19.78580137 2.0711717 16.59799383 2.19372669 13.41015625 2.31640625 C11.7559668 2.37538086 11.7559668 2.37538086 10.06835938 2.43554688 C9.00166016 2.47744141 7.93496094 2.51933594 6.8359375 2.5625 C5.85665283 2.59915771 4.87736816 2.63581543 3.8684082 2.67358398 C1.20198592 2.87117506 -1.28713444 3.34347423 -3.90234375 3.87890625 C-6.578125 3.7578125 -6.578125 3.7578125 -9.21484375 3.44140625 C-10.09785156 3.33957031 -10.98085937 3.23773438 -11.890625 3.1328125 C-12.88642578 3.00712891 -12.88642578 3.00712891 -13.90234375 2.87890625 C-14.68814168 7.02813683 -15.02089358 10.93184056 -15 15.15234375 C-14.99750244 16.19310059 -14.99500488 17.23385742 -14.99243164 18.30615234 C-14.98332764 19.60891113 -14.97422363 20.91166992 -14.96484375 22.25390625 C-14.94421875 26.42015625 -14.92359375 30.58640625 -14.90234375 34.87890625 C-1.70234375 34.87890625 11.49765625 34.87890625 25.09765625 34.87890625 C25.09765625 34.21890625 25.09765625 33.55890625 25.09765625 32.87890625 C25.75765625 32.87890625 26.41765625 32.87890625 27.09765625 32.87890625 C26.76765625 22.64890625 26.43765625 12.41890625 26.09765625 1.87890625 C29.48398315 5.26523315 28.43537766 9.99913332 28.46875 14.57226562 C28.4685083 15.6167688 28.4685083 15.6167688 28.46826172 16.68237305 C28.47263346 18.80534158 28.50894063 20.92622793 28.546875 23.04882812 C28.55274358 24.3971283 28.5567127 25.74543836 28.55859375 27.09375 C28.56681152 28.322146 28.5750293 29.55054199 28.58349609 30.81616211 C28.09765625 33.87890625 28.09765625 33.87890625 26.60400391 35.77807617 C22.96049862 37.37836502 19.44339291 37.30708462 15.53515625 37.27734375 C14.70685303 37.28021393 13.8785498 37.28308411 13.02514648 37.28604126 C11.2768485 37.28807943 9.52852758 37.28256681 7.78027344 37.27001953 C5.10690232 37.25396179 2.43504295 37.26987596 -0.23828125 37.2890625 C-1.93880541 37.28708002 -3.63932864 37.28323626 -5.33984375 37.27734375 C-6.53685913 37.28645279 -6.53685913 37.28645279 -7.75805664 37.29574585 C-10.91839988 37.25576899 -13.49720715 37.05736069 -16.40649414 35.77587891 C-18.64511118 32.93696028 -18.40386366 30.70733823 -18.3984375 27.12890625 C-18.39989273 26.47438477 -18.40134796 25.81986328 -18.40284729 25.14550781 C-18.40118954 23.76362653 -18.38964168 22.38172655 -18.36889648 21 C-18.33993982 18.88592033 -18.34828667 16.77434889 -18.36132812 14.66015625 C-18.35509032 13.31639407 -18.34669903 11.97263981 -18.3359375 10.62890625 C-18.32618896 9.406875 -18.31644043 8.18484375 -18.30639648 6.92578125 C-17.90234375 3.87890625 -17.90234375 3.87890625 -16.81274414 2.01953125 C-11.85650341 -0.93964532 -5.58269574 -0.22010687 0 0 Z " fill="#E1C13E" transform="translate(254.90234375,337.12109375)"/>
<path d="M0 0 C0.7381041 0.0141243 1.47620819 0.0282486 2.23667908 0.0428009 C3.79075308 0.07578849 5.34475924 0.11212258 6.89868164 0.15161133 C9.27298738 0.20692975 11.64672293 0.23542138 14.02148438 0.26367188 C15.53519606 0.29912032 17.04887115 0.33617522 18.5625 0.375 C19.26987808 0.37936569 19.97725616 0.38373138 20.70606995 0.38822937 C24.07654271 0.50465873 25.92378862 0.79630565 28.63061523 2.87231445 C31.04286996 6.14181366 31.33760597 8.74586267 31.3125 12.6875 C31.30927734 13.58017578 31.30605469 14.47285156 31.30273438 15.39257812 C31.29016602 16.78573242 31.29016602 16.78573242 31.27734375 18.20703125 C31.27283203 19.14740234 31.26832031 20.08777344 31.26367188 21.05664062 C31.25189001 23.37766837 31.23543933 25.69856769 31.21484375 28.01953125 C30.88484375 28.01953125 30.55484375 28.01953125 30.21484375 28.01953125 C30.21484375 21.74953125 30.21484375 15.47953125 30.21484375 9.01953125 C29.22484375 8.68953125 28.23484375 8.35953125 27.21484375 8.01953125 C26.55484375 6.36953125 25.89484375 4.71953125 25.21484375 3.01953125 C12.34484375 3.34953125 -0.52515625 3.67953125 -13.78515625 4.01953125 C-15.95100925 8.35123724 -16.02864015 10.40919995 -16.01220703 15.17480469 C-16.01249908 15.88739944 -16.01279114 16.5999942 -16.01309204 17.33418274 C-16.01170202 19.68254906 -15.99615647 22.03059556 -15.98046875 24.37890625 C-15.97673745 26.00986559 -15.97389103 27.64082717 -15.97189331 29.27178955 C-15.96426605 33.55932836 -15.94462537 37.84673115 -15.92248535 42.13421631 C-15.90200737 46.51133382 -15.89288742 50.88847337 -15.8828125 55.265625 C-15.8613786 63.85032276 -15.82725364 72.43491007 -15.78515625 81.01953125 C-16.11515625 81.01953125 -16.44515625 81.01953125 -16.78515625 81.01953125 C-17.22452214 72.14456137 -17.65130503 63.26910019 -18.06223488 54.39276791 C-18.25345708 50.27071663 -18.44893426 46.14896081 -18.65429688 42.02758789 C-18.85248982 38.04689994 -19.03929475 34.06582282 -19.21836472 30.08423042 C-19.28850126 28.56867917 -19.36267241 27.05330884 -19.44102859 25.53816032 C-19.5504585 23.40851695 -19.64525062 21.27866963 -19.73681641 19.14819336 C-19.79455231 17.93796005 -19.85228821 16.72772675 -19.91177368 15.4808197 C-19.72574413 10.3954066 -19.07867487 6.34800984 -15.47265625 2.64453125 C-10.56031618 -0.32572089 -5.60427188 -0.11510284 0 0 Z " fill="#EDC63E" transform="translate(252.78515625,177.98046875)"/>
<path d="M0 0 C2.68135426 2.40997627 4.26439235 4.98341193 6.00390625 8.12890625 C6.57512207 9.15540283 7.14633789 10.18189941 7.73486328 11.23950195 C8.63954346 12.88438599 8.63954346 12.88438599 9.5625 14.5625 C10.82147632 16.83861815 12.0805918 19.11465933 13.33984375 21.390625 C13.95972168 22.51404297 14.57959961 23.63746094 15.21826172 24.79492188 C16.79011358 27.62244603 18.38702808 30.43244545 20.00390625 33.234375 C28.59340078 48.15763136 34.69302642 62.97605053 30.09375 80.44140625 C29.1822839 82.72983721 28.22804132 84.86737467 27 87 C26.67 87 26.34 87 26 87 C26.41260416 83.56163204 26.85221627 80.41390768 28.01953125 77.14453125 C30.78556606 68.27338375 29.20828277 58.55542071 26 50 C25.04710343 48.30596166 24.06639644 46.62498505 23 45 C23 44.01 23 43.02 23 42 C22.360625 41.855625 21.72125 41.71125 21.0625 41.5625 C19 41 19 41 18 40 C17.896875 38.906875 17.79375 37.81375 17.6875 36.6875 C16.9192115 32.56667984 15.99989997 31.71865935 13 29 C12.64830932 27.67139075 12.31229724 26.33841672 12 25 C11.01 24.34 10.02 23.68 9 23 C8.05078125 20.8359375 8.05078125 20.8359375 7.3125 18.375 C6.93544922 17.14910156 6.93544922 17.14910156 6.55078125 15.8984375 C6.36902344 15.27195312 6.18726563 14.64546875 6 14 C5.01 14.66 4.02 15.32 3 16 C3 15.01 3 14.02 3 13 C2.34 12.67 1.68 12.34 1 12 C1.20625 11.236875 1.4125 10.47375 1.625 9.6875 C2.33391203 6.78114056 2.33391203 6.78114056 0 4 C0 2.68 0 1.36 0 0 Z " fill="#E5BE32" transform="translate(463,339)"/>
<path d="M0 0 C2.36340769 2.18180525 3.92246638 4.34943697 5.49609375 7.1484375 C5.9660376 7.97811035 6.43598145 8.8077832 6.92016602 9.66259766 C7.42088623 10.55769043 7.92160645 11.4527832 8.4375 12.375 C9.51811868 14.2865208 10.59885101 16.19797735 11.6796875 18.109375 C12.23108398 19.08841797 12.78248047 20.06746094 13.35058594 21.07617188 C15.90392839 25.60234553 18.48307828 30.11365527 21.0625 34.625 C21.79472778 35.9092688 21.79472778 35.9092688 22.54174805 37.21948242 C25.07112855 41.65101724 27.61982547 46.07002059 30.19921875 50.47265625 C30.71154053 51.34905762 31.2238623 52.22545898 31.75170898 53.12841797 C32.7305207 54.80022902 33.71295289 56.46992704 34.69946289 58.13720703 C35.13379639 58.8795459 35.56812988 59.62188477 36.015625 60.38671875 C36.40008789 61.03858154 36.78455078 61.69044434 37.18066406 62.36206055 C38 64 38 64 38 66 C35 65 35 65 33.90234375 62.96875 C33.58394531 62.1540625 33.26554687 61.339375 32.9375 60.5 C31.77297997 57.03943188 31.77297997 57.03943188 29 55 C28.9175 54.38125 28.835 53.7625 28.75 53.125 C28.1304373 50.63198048 28.1304373 50.63198048 24.9375 49.25 C23.4834375 48.63125 23.4834375 48.63125 22 48 C22.33 45.69 22.66 43.38 23 41 C22.01 41 21.02 41 20 41 C19.34 38.36 18.68 35.72 18 33 C16.02 33.495 16.02 33.495 14 34 C13.80664062 33.37351563 13.61328125 32.74703125 13.4140625 32.1015625 C13.15367187 31.28429687 12.89328125 30.46703125 12.625 29.625 C12.36976563 28.81289062 12.11453125 28.00078125 11.8515625 27.1640625 C11.10145717 24.83540815 11.10145717 24.83540815 9 23 C8.875 19.875 8.875 19.875 9 17 C8.34 17 7.68 17 7 17 C6.67 16.01 6.34 15.02 6 14 C5.34 13.67 4.68 13.34 4 13 C3.375 9.9375 3.375 9.9375 3 7 C2.34 7 1.68 7 1 7 C0.67 4.69 0.34 2.38 0 0 Z " fill="#ECC328" transform="translate(350,142)"/>
<path d="M0 0 C2.5365999 2.31627058 4.15337626 4.72811942 5.86328125 7.69921875 C6.4137915 8.64982178 6.96430176 9.6004248 7.53149414 10.57983398 C8.11922607 11.60536377 8.70695801 12.63089355 9.3125 13.6875 C10.56753892 15.8594729 11.82275245 18.03134491 13.078125 20.203125 C13.72330078 21.32267578 14.36847656 22.44222656 15.03320312 23.59570312 C18.75848314 30.04373001 22.52922905 36.46529884 26.29223633 42.89135742 C27.86860494 45.59020316 29.4376669 48.29300735 31 51 C31.49870605 51.86383301 31.99741211 52.72766602 32.51123047 53.61767578 C32.97029785 54.42575684 33.42936523 55.23383789 33.90234375 56.06640625 C34.51130493 57.13483765 34.51130493 57.13483765 35.13256836 58.22485352 C36 60 36 60 36 62 C35.01 62 34.02 62 33 62 C32.34 60.02 31.68 58.04 31 56 C30.34 56 29.68 56 29 56 C28.87625 55.360625 28.7525 54.72125 28.625 54.0625 C28.41875 53.381875 28.2125 52.70125 28 52 C27.34 51.67 26.68 51.34 26 51 C25.16178177 49.00319741 24.53424909 46.97355001 23.87890625 44.91015625 C23.04040098 42.64848147 23.04040098 42.64848147 20 41 C19.3125 37.375 19.3125 37.375 19 34 C18.34 34 17.68 34 17 34 C17 32.35 17 30.7 17 29 C16.195625 28.731875 15.39125 28.46375 14.5625 28.1875 C13.716875 27.795625 12.87125 27.40375 12 27 C11.67 26.01 11.34 25.02 11 24 C10.34 23.67 9.68 23.34 9 23 C8.375 20.4375 8.375 20.4375 8 18 C7.34 18 6.68 18 6 18 C0 3.26213592 0 3.26213592 0 0 Z " fill="#E8C32D" transform="translate(300,56)"/>
<path d="M0 0 C0.66 0 1.32 0 2 0 C2.25586561 19.21059702 1.57105482 38.37377275 0.828125 57.56591797 C0.65589572 62.02454834 0.49541771 66.48352132 0.33771706 70.94268608 C0.21299485 74.41918208 0.08070309 77.89536031 -0.05369949 81.37149429 C-0.11613651 83.01627927 -0.17595037 84.66116622 -0.23295212 86.30614853 C-0.51592924 94.3868849 -0.83446617 102.15650126 -3 110 C-4.00353776 106.37655643 -3.97211182 103.43915157 -3.6953125 99.671875 C-3.60685059 98.41036621 -3.51838867 97.14885742 -3.42724609 95.84912109 C-3.37783875 95.18160828 -3.3284314 94.51409546 -3.27752686 93.82635498 C-3.0176762 90.28899623 -2.78385276 86.74988939 -2.546875 83.2109375 C-2.49892792 82.50131866 -2.45098083 81.79169983 -2.40158081 81.06057739 C-1.19243058 63.08360722 -0.89078867 45.17653978 -1.03662109 27.16552734 C-1.09613147 18.05171318 -0.816539 9.08581897 0 0 Z " fill="#E7CA4E" transform="translate(281,208)"/>
<path d="M0 0 C3.24884494 2.59907595 5.42739812 5.13997719 7 9 C7.66 9 8.32 9 9 9 C9 9.66 9 10.32 9 11 C9.66 11 10.32 11 11 11 C11 12.32 11 13.64 11 15 C11.66 15 12.32 15 13 15 C13.31453125 15.67546875 13.6290625 16.3509375 13.953125 17.046875 C16.21184291 21.7548051 18.15410196 25.41049517 22 29 C23.625 31.9375 23.625 31.9375 25 35 C25.61875 36.3303125 25.61875 36.3303125 26.25 37.6875 C27 40 27 40 26 43 C25.38253906 41.94683594 24.76507813 40.89367187 24.12890625 39.80859375 C21.88735329 35.98859535 19.64034888 32.17183718 17.39013672 28.35693359 C16.49514075 26.83949576 15.6008766 25.32162593 14.70751953 23.80322266 C13.51742862 21.78303274 12.3220271 19.76608583 11.125 17.75 C10.76865479 17.14341553 10.41230957 16.53683105 10.04516602 15.91186523 C6.54212864 10.03609508 3.62731724 5.38583421 -3 3 C-7.01590353 3 -8.53167412 3.58878704 -11.5625 6.25 C-12.7690625 7.61125 -12.7690625 7.61125 -14 9 C-15.66666667 10.66666667 -17.33333333 12.33333333 -19 14 C-19 12.02 -19 10.04 -19 8 C-17.68 8 -16.36 8 -15 8 C-14.979375 7.236875 -14.95875 6.47375 -14.9375 5.6875 C-14 3 -14 3 -10.875 1.1875 C-7.12967689 -0.14024774 -3.97759235 -0.58927294 0 0 Z " fill="#E3C544" transform="translate(264,59)"/>
<path d="M0 0 C1 3 1 3 0 6 C-0.66 6 -1.32 6 -2 6 C-2.19142578 6.81597656 -2.19142578 6.81597656 -2.38671875 7.6484375 C-3.09135033 10.35027326 -3.91769354 12.97979525 -4.8125 15.625 C-5.12832031 16.58664062 -5.44414063 17.54828125 -5.76953125 18.5390625 C-7 21 -7 21 -8.96484375 21.953125 C-12.08073803 23.55592667 -12.52555497 25.92783797 -13.75 29.125 C-14.17796875 30.22070312 -14.6059375 31.31640625 -15.046875 32.4453125 C-15.36140625 33.28835938 -15.6759375 34.13140625 -16 35 C-16.66 35 -17.32 35 -18 35 C-18.2475 35.86625 -18.495 36.7325 -18.75 37.625 C-20.07298235 41.19705236 -21.86330876 43.86173474 -24 47 C-24.495 48.2684375 -24.495 48.2684375 -25 49.5625 C-26.22032782 52.53704907 -27.83723479 54.63447556 -30 57 C-30.66 57 -31.32 57 -32 57 C-30.58115482 52.09441826 -28.38598911 47.95951665 -25.75 43.625 C-24.85343507 42.12673963 -23.95764896 40.62801303 -23.0625 39.12890625 C-22.57523438 38.31566895 -22.08796875 37.50243164 -21.5859375 36.66455078 C-18.60287162 31.65266947 -15.68136658 26.60473104 -12.75 21.5625 C-8.55199724 14.34301226 -4.31619387 7.14955366 0 0 Z " fill="#E7C337" transform="translate(83,289)"/>
<path d="M0 0 C2.73811258 3.2848479 5.00530594 6.54483637 7.06640625 10.2890625 C7.62956543 11.30476318 8.19272461 12.32046387 8.77294922 13.36694336 C9.36350098 14.44210205 9.95405273 15.51726074 10.5625 16.625 C15.52895442 25.59748324 20.56395193 34.517586 25.79907227 43.33642578 C29 48.78607964 29 48.78607964 29 51 C28.01 51 27.02 51 26 51 C25.74605469 50.28972656 25.49210937 49.57945312 25.23046875 48.84765625 C24.88628906 47.92855469 24.54210937 47.00945312 24.1875 46.0625 C23.85105469 45.14597656 23.51460938 44.22945313 23.16796875 43.28515625 C22.16590906 40.6659576 22.16590906 40.6659576 19 40 C17.9375 37.8203125 17.9375 37.8203125 17 35.125 C15.76996861 31.60916028 14.71470657 29.53028357 12 27 C11.67 26.154375 11.34 25.30875 11 24.4375 C10.13727591 21.68761678 10.13727591 21.68761678 7 20 C5.95281202 17.68745988 4.95653635 15.3514852 4 13 C3.195625 11.7934375 3.195625 11.7934375 2.375 10.5625 C0.48113466 7.03302368 0.33727712 3.97987006 0 0 Z " fill="#E6C02E" transform="translate(421,265)"/>
<path d="M0 0 C0.99 0.495 0.99 0.495 2 1 C2 4.96 2 8.92 2 13 C2.66 13 3.32 13 4 13 C4.515625 13.639375 5.03125 14.27875 5.5625 14.9375 C9.15887208 17.98058407 12.406775 17.83692692 17 18 C18.52367187 18.07734375 18.52367187 18.07734375 20.078125 18.15625 C25.93416472 18.32933492 28.97746031 18.1185704 34 15 C35.32 15 36.64 15 38 15 C36.51466482 18.91588365 34.79562436 20.27867226 31 22 C27.53559811 22.4644862 24.11612771 22.46416834 20.625 22.4375 C19.24441406 22.4674707 19.24441406 22.4674707 17.8359375 22.49804688 C11.68588182 22.49365398 8.01414979 21.6099229 3 18 C-1.13076461 12.66998115 -0.28058031 6.42217159 0 0 Z " fill="#EFC014" transform="translate(239,303)"/>
<path d="M0 0 C0 0.66 0 1.32 0 2 C-1.423125 2.12375 -1.423125 2.12375 -2.875 2.25 C-6.03779089 2.62430069 -6.03779089 2.62430069 -7.0625 4.6875 C-7.371875 5.450625 -7.68125 6.21375 -8 7 C-9.52311542 9.24893216 -11.10193154 11.01154732 -13 13 C-14.32 13 -15.64 13 -17 13 C-17.226875 13.763125 -17.45375 14.52625 -17.6875 15.3125 C-19.27776454 18.56875596 -20.8683594 19.31373199 -24 21 C-24.33 21.66 -24.66 22.32 -25 23 C-25.99 23 -26.98 23 -28 23 C-28 23.66 -28 24.32 -28 25 C-28.66 25 -29.32 25 -30 25 C-26.3745989 14.56323926 -11.6760137 -1.11200131 0 0 Z " fill="#EDC226" transform="translate(247,35)"/>
<path d="M0 0 C0.33 0 0.66 0 1 0 C1.15598944 10.43280501 0.66400943 20.77659604 0.0625 31.1875 C-0.02572247 32.75844494 -0.11361428 34.32940849 -0.20117188 35.90039062 C-0.37555985 39.0241168 -0.55368375 42.14760049 -0.73388672 45.27099609 C-0.92033243 48.52857214 -1.09202872 51.78654695 -1.25439453 55.04541016 C-1.29633438 55.86382889 -1.33827423 56.68224762 -1.38148499 57.52546692 C-1.46103858 59.08527461 -1.53757363 60.64524022 -1.61058044 62.20536804 C-1.7853824 65.57556802 -1.98604998 68.76707764 -3 72 C-4.32 71.67 -5.64 71.34 -7 71 C-6.5359375 69.63875 -6.5359375 69.63875 -6.0625 68.25 C-4.65386067 63.94122088 -3.88907874 60.54777179 -4 56 C-4.11154063 51.42683401 -4.11154063 51.42683401 -3.51367188 49.13896179 C-2.95862109 46.82769562 -2.80807167 44.71357421 -2.71875 42.33911133 C-2.68201172 41.42168655 -2.64527344 40.50426178 -2.60742188 39.55903625 C-2.55424805 38.08541878 -2.55424805 38.08541878 -2.5 36.58203125 C-2.41667246 34.50325498 -2.33333895 32.42447894 -2.25 30.34570312 C-2.1237294 27.06686022 -1.99907143 23.78796002 -1.875 20.5090332 C-1.75388829 17.34569945 -1.62715266 14.18262701 -1.5 11.01953125 C-1.46455078 10.03104691 -1.42910156 9.04256256 -1.39257812 8.02412415 C-1.35583984 7.11615585 -1.31910156 6.20818756 -1.28125 5.27270508 C-1.25095703 4.46980545 -1.22066406 3.66690582 -1.18945312 2.8396759 C-1 1 -1 1 0 0 Z " fill="#EBBF18" transform="translate(280,246)"/>
<path d="M0 0 C0.66 0 1.32 0 2 0 C0.54485951 5.12877386 -1.76193359 9.21455744 -4.5625 13.6875 C-8.9148308 20.69618293 -10.81164841 25.69723595 -10 34 C-8.53888984 36.79897943 -8.53888984 36.79897943 -7 39 C-7.3125 41.3125 -7.3125 41.3125 -8 43 C-12.18819086 39.92866003 -13.00690052 36.5506763 -13.8125 31.65234375 C-14.28013367 25.03727576 -12.06916363 19.52449454 -8.90234375 13.82421875 C-7.95213182 11.90322753 -7.44758562 10.09027097 -7 8 C-6.01 8 -5.02 8 -4 8 C-3.67 6.02 -3.34 4.04 -3 2 C-2.34 2 -1.68 2 -1 2 C-0.67 1.34 -0.34 0.68 0 0 Z " fill="#E5C131" transform="translate(67,377)"/>
<path d="M0 0 C0.33 0.66 0.66 1.32 1 2 C-0.16821289 4.45507812 -0.16821289 4.45507812 -1.97265625 7.53125 C-2.62556641 8.65273438 -3.27847656 9.77421875 -3.95117188 10.9296875 C-4.65480608 12.11987553 -5.35858292 13.30997925 -6.0625 14.5 C-6.73965499 15.65843202 -7.41609543 16.81728204 -8.09179688 17.9765625 C-12.01245612 24.68024083 -15.98814779 31.35054214 -20 38 C-21.04449911 34.86650268 -20.93423645 34.01031744 -20 31 C-19.34 31 -18.68 31 -18 31 C-17.87238281 30.42765625 -17.74476562 29.8553125 -17.61328125 29.265625 C-15.78997346 22.52983828 -12.1508537 16.19305726 -9 10 C-8.67 9.34 -8.34 8.68 -8 8 C-7.01 8 -6.02 8 -5 8 C-4.9175 7.4225 -4.835 6.845 -4.75 6.25 C-3.79468987 3.3840696 -2.21530827 2.0009236 0 0 Z " fill="#E5C024" transform="translate(97,327)"/>
<path d="M0 0 C0.66 0.33 1.32 0.66 2 1 C-13.06326022 26.9701529 -13.06326022 26.9701529 -20 38 C-20.33 37.34 -20.66 36.68 -21 36 C-20.38125 34.9790625 -20.38125 34.9790625 -19.75 33.9375 C-17.48964044 30.14332502 -16.29153738 26.20436636 -15 22 C-14.01 22 -13.02 22 -12 22 C-12 19.69 -12 17.38 -12 15 C-11.34 15 -10.68 15 -10 15 C-10 13.02 -10 11.04 -10 9 C-9.01 9 -8.02 9 -7 9 C-6.67 8.34 -6.34 7.68 -6 7 C-5.01 7 -4.02 7 -3 7 C-3.061875 6.21625 -3.12375 5.4325 -3.1875 4.625 C-3.0946875 3.325625 -3.0946875 3.325625 -3 2 C-2.01 1.34 -1.02 0.68 0 0 Z " fill="#E6C230" transform="translate(172,197)"/>
<path d="M0 0 C0.33 0.66 0.66 1.32 1 2 C1.99 1.67 2.98 1.34 4 1 C2.48593576 5.11179882 0.50664139 8.77340318 -1.6875 12.5625 C-2.0369165 13.16658691 -2.38633301 13.77067383 -2.74633789 14.39306641 C-3.46949642 15.6422326 -4.19403272 16.89060218 -4.91992188 18.13818359 C-5.97007977 19.94842413 -7.00986085 21.76423606 -8.046875 23.58203125 C-8.67078125 24.66871094 -9.2946875 25.75539063 -9.9375 26.875 C-10.50339844 27.86242187 -11.06929687 28.84984375 -11.65234375 29.8671875 C-12.09707031 30.57101563 -12.54179687 31.27484375 -13 32 C-13.33 32 -13.66 32 -14 32 C-14.25 26.375 -14.25 26.375 -12 23 C-11.34 23 -10.68 23 -10 23 C-10.35191406 22.16082031 -10.35191406 22.16082031 -10.7109375 21.3046875 C-11 19 -11 19 -9.6015625 16.6328125 C-8.94929687 15.80523437 -8.29703125 14.97765625 -7.625 14.125 C-4.68027837 10.38250518 -3.48584506 7.76128159 -3 3 C-2.01 3 -1.02 3 0 3 C0 2.01 0 1.02 0 0 Z " fill="#EBBC1A" transform="translate(237,80)"/>
<path d="M0 0 C1 2 1 2 0.25 5.5625 C-0.1625 6.696875 -0.575 7.83125 -1 9 C-1.99 9.33 -2.98 9.66 -4 10 C-3.79375 10.7425 -3.5875 11.485 -3.375 12.25 C-2.95591249 15.32330841 -3.38050989 16.42786866 -5 19 C-5.99 19 -6.98 19 -8 19 C-8.0825 19.78375 -8.165 20.5675 -8.25 21.375 C-8.4975 22.24125 -8.745 23.1075 -9 24 C-9.61875 24.28875 -10.2375 24.5775 -10.875 24.875 C-14.16840165 26.61856558 -14.60444394 29.66280073 -16 33 C-17.485 33.495 -17.485 33.495 -19 34 C-17.63140824 30.37612898 -16.00818396 27.06166316 -14.1015625 23.69140625 C-13.53953125 22.69689453 -12.9775 21.70238281 -12.3984375 20.67773438 C-11.81320313 19.64970703 -11.22796875 18.62167969 -10.625 17.5625 C-10.0475 16.53833984 -9.47 15.51417969 -8.875 14.45898438 C-6.07352936 9.51803445 -3.24667356 4.66209529 0 0 Z " fill="#EEBE16" transform="translate(191,103)"/>
<path d="M0 0 C1.98 0.99 1.98 0.99 4 2 C4 2.99 4 3.98 4 5 C4.66 5 5.32 5 6 5 C6 5.99 6 6.98 6 8 C7.32 8 8.64 8 10 8 C10.7933855 10.04099935 11.5846303 12.0828309 12.375 14.125 C12.81585938 15.26195312 13.25671875 16.39890625 13.7109375 17.5703125 C14.53400571 19.76017276 15.31128066 21.9681657 16.02734375 24.1953125 C16.87847442 26.64957683 17.80390183 28.57220649 19.1875 30.75 C20.0846875 32.35875 20.0846875 32.35875 21 34 C20.67 34.66 20.34 35.32 20 36 C14.37285821 27.04563813 9.09047767 17.94306464 3.96240234 8.6953125 C3.09125665 7.16075246 2.16757657 5.65630985 1.23828125 4.15625 C0 2 0 2 0 0 Z " fill="#E9BC17" transform="translate(362,226)"/>
<path d="M0 0 C0.33 1.32 0.66 2.64 1 4 C0.34 4 -0.32 4 -1 4 C-1.12375 4.70125 -1.2475 5.4025 -1.375 6.125 C-2.03838345 9.17656387 -2.97211955 12.05340938 -4 15 C-4.66 15 -5.32 15 -6 15 C-6.268125 16.093125 -6.53625 17.18625 -6.8125 18.3125 C-7.97778762 21.93102471 -8.40169986 22.6015691 -11 25 C-11.68884234 26.1958303 -12.35338867 27.4058168 -13 28.625 C-15 32 -15 32 -18 33 C-19.22520264 36.00847418 -19.22520264 36.00847418 -20 39 C-20.66 38.67 -21.32 38.34 -22 38 C-14.89992648 25.19418264 -7.48680897 12.58298919 0 0 Z " fill="#E6C33D" transform="translate(171,137)"/>
<path d="M0 0 C3.53586014 3.17320782 5.58578031 5.16743695 6 10 C7.32 10.33 8.64 10.66 10 11 C10.33 12.65 10.66 14.3 11 16 C11.66 16 12.32 16 13 16 C13.66 17.98 14.32 19.96 15 22 C15.66 22 16.32 22 17 22 C17.16435547 22.88751953 17.16435547 22.88751953 17.33203125 23.79296875 C18.27346676 28.48483841 19.4059272 31.92359989 22 36 C21.67 36.66 21.34 37.32 21 38 C16.64108792 30.7906348 12.3618471 23.53678116 8.13867188 16.24707031 C7.45396699 15.06697683 6.76739519 13.88796488 6.07910156 12.70996094 C5.07203776 10.98613248 4.07106961 9.2587474 3.0703125 7.53125 C2.48008301 6.51611328 1.88985352 5.50097656 1.28173828 4.45507812 C0 2 0 2 0 0 Z " fill="#E2C53B" transform="translate(331,172)"/>
<path d="M0 0 C0.66 0 1.32 0 2 0 C2.2475 0.5775 2.495 1.155 2.75 1.75 C4.18081368 4.32546462 5.88918881 5.95127149 8 8 C11.67832319 11.88851309 12.58199008 14.67037351 13 20 C13.99 20.33 14.98 20.66 16 21 C17.421875 23.6171875 17.421875 23.6171875 18.75 26.875 C19.19859375 27.94492188 19.6471875 29.01484375 20.109375 30.1171875 C21 33 21 33 20 36 C19.47792969 35.06542969 18.95585937 34.13085938 18.41796875 33.16796875 C13.51244152 24.40801805 8.53184889 15.69640532 3.45581055 7.03393555 C3.0050415 6.26090088 2.55427246 5.48786621 2.08984375 4.69140625 C1.48450806 3.65802124 1.48450806 3.65802124 0.86694336 2.60375977 C0 1 0 1 0 0 Z " fill="#E6C73E" transform="translate(296,112)"/>
<path d="M0 0 C0.99 0.495 0.99 0.495 2 1 C4.04058636 14.39856704 3.10500131 28.49521624 3 42 C2.34 42 1.68 42 1 42 C0.20477867 27.98422414 -0.12800371 14.03774058 0 0 Z " fill="#EAC73E" transform="translate(237,260)"/>
<path d="M0 0 C0.33 0 0.66 0 1 0 C1.28942311 4.35558689 1.57403356 8.71145582 1.85449219 13.06762695 C1.95022625 14.54459792 2.04719732 16.02148931 2.14550781 17.49829102 C2.65611269 25.18081033 3.08526967 32.82251224 3.00390625 40.52661133 C2.99748937 44.58970128 3.24769505 48.63357313 3.5 52.6875 C3.54769531 53.49638672 3.59539062 54.30527344 3.64453125 55.13867188 C3.76014948 57.09261994 3.87964239 59.04633814 4 61 C1.37618194 58.73707041 0.113549 56.83230175 -0.35754395 53.37924194 C-0.46321093 50.00047002 -0.44881744 46.64169155 -0.390625 43.26171875 C-0.38496521 42.02581497 -0.37930542 40.78991119 -0.37347412 39.51655579 C-0.35490285 36.24308402 -0.31901355 32.97040921 -0.2746582 29.69720459 C-0.23361703 26.35224752 -0.21578588 23.00725563 -0.1953125 19.66210938 C-0.15123432 13.10776231 -0.08431234 6.55394631 0 0 Z " fill="#F2C013" transform="translate(236,203)"/>
<path d="M0 0 C2.68231075 2.4155312 4.29949605 5.01284066 6.06640625 8.1484375 C6.9181543 9.65664062 6.9181543 9.65664062 7.78710938 11.1953125 C8.37298828 12.24460938 8.95886719 13.29390625 9.5625 14.375 C10.15224609 15.4165625 10.74199219 16.458125 11.34960938 17.53125 C13.83640709 21.95599588 16.20310529 26.24373519 18 31 C17.34 30.67 16.68 30.34 16 30 C16 29.34 16 28.68 16 28 C14.68 27.67 13.36 27.34 12 27 C11.8453125 26.0409375 11.8453125 26.0409375 11.6875 25.0625 C11.460625 24.381875 11.23375 23.70125 11 23 C10.01 22.67 9.02 22.34 8 22 C7.87625 21.2575 7.7525 20.515 7.625 19.75 C7.12955263 17.04077127 7.12955263 17.04077127 5.9375 14.9375 C5 13 5 13 5 9 C4.34 9 3.68 9 3 9 C1.375 7.875 1.375 7.875 0 6 C-0.1875 2.8125 -0.1875 2.8125 0 0 Z " fill="#E5C134" transform="translate(388,208)"/>
<path d="M0 0 C2.7083445 2.36012878 3.85019927 4.59993115 5.125 7.9375 C5.45757812 8.79214844 5.79015625 9.64679688 6.1328125 10.52734375 C9.46716838 20.03476389 9.81202349 32.82581688 6 42.1875 C5.36788704 43.47586913 4.71612791 44.75636716 4 46 C3.67 46 3.34 46 3 46 C3.41260416 42.56163204 3.85221627 39.41390768 5.01953125 36.14453125 C7.78453448 27.27669222 6.21230851 17.55168617 3 9 C2.03182008 7.31464976 1.04349839 5.63978318 0 4 C0 2.68 0 1.36 0 0 Z " fill="#E4C347" transform="translate(486,380)"/>
<path d="M0 0 C1.48739033 3.9663742 0.86672266 7.95278203 0 12 C-0.33128906 12.70640625 -0.66257812 13.4128125 -1.00390625 14.140625 C-2.45851738 18.3162146 -2.46774738 22.41925482 -2.625 26.8125 C-2.66367187 27.69615234 -2.70234375 28.57980469 -2.7421875 29.49023438 C-2.83600784 31.65982972 -2.91907326 33.82988547 -3 36 C-5.12021119 32.14679707 -5.34626561 28.83223009 -5.3125 24.5 C-5.30976074 23.79456055 -5.30702148 23.08912109 -5.30419922 22.36230469 C-5.150016 14.52554361 -3.73714746 6.95434397 0 0 Z " fill="#DABF46" transform="translate(28,383)"/>
<path d="M0 0 C0.66 0.33 1.32 0.66 2 1 C2.33 1.99 2.66 2.98 3 4 C3.66 4.33 4.32 4.66 5 5 C5.3294553 11.74773258 5.45746347 17.07291976 2 23 C-0.34846909 25.4267514 -1.37111899 25.95712175 -4.75 26.1875 C-5.86375 26.0946875 -5.86375 26.0946875 -7 26 C-6.236875 25.46375 -5.47375 24.9275 -4.6875 24.375 C-0.17279313 20.38525905 1.41604766 16.07427524 2.015625 10.1015625 C1.9890458 6.52666045 1.03522147 3.41014131 0 0 Z " fill="#E3C134" transform="translate(459,395)"/>
<path d="M0 0 C1.15569347 3.46708041 0.79137066 4.24728005 -0.4375 7.5625 C-1.63825498 10.70614518 -1.63825498 10.70614518 -2 14 C-2.99 14 -3.98 14 -5 14 C-5 14.99 -5 15.98 -5 17 C-5.66 17.33 -6.32 17.66 -7 18 C-8.13350534 20.01669827 -8.13350534 20.01669827 -9 22 C-9.66 22 -10.32 22 -11 22 C-11 22.66 -11 23.32 -11 24 C-11.66 24 -12.32 24 -13 24 C-11.20469881 18.95263894 -8.55008635 14.40609448 -5.9375 9.75 C-5.47794922 8.92242187 -5.01839844 8.09484375 -4.54492188 7.2421875 C-1.13705937 1.13705937 -1.13705937 1.13705937 0 0 Z " fill="#E6C439" transform="translate(130,208)"/>
<path d="M0 0 C0.66 0 1.32 0 2 0 C2 7.59 2 15.18 2 23 C1.34 23 0.68 23 0 23 C0 27.95 0 32.9 0 38 C-0.33 38 -0.66 38 -1 38 C-1.20638953 12.23623663 -1.20638953 12.23623663 0 0 Z " fill="#E7C236" transform="translate(281,208)"/>
<path d="M0 0 C1.32 0 2.64 0 4 0 C3.05356442 2.49514834 2.13149957 3.88934792 0.078125 5.6171875 C-4.45026238 7.65151381 -8.65804468 7.39642292 -13.5625 7.3125 C-14.98079102 7.31733398 -14.98079102 7.31733398 -16.42773438 7.32226562 C-24.08082777 7.26277161 -24.08082777 7.26277161 -28 5 C-25.35177988 3.67588994 -23.51061806 3.98107599 -20.5546875 4.12109375 C-19.47832031 4.16943359 -18.40195313 4.21777344 -17.29296875 4.26757812 C-16.16503906 4.32365234 -15.03710938 4.37972656 -13.875 4.4375 C-12.73933594 4.48970703 -11.60367187 4.54191406 -10.43359375 4.59570312 C-7.62213369 4.72564456 -4.81100535 4.86061914 -2 5 C-1.34 3.35 -0.68 1.7 0 0 Z " fill="#E3C445" transform="translate(273,318)"/>
<path d="M0 0 C0.33 0 0.66 0 1 0 C0.91253716 1.43861294 0.80434652 2.87597508 0.6875 4.3125 C0.62949219 5.11300781 0.57148437 5.91351563 0.51171875 6.73828125 C-0.08838825 9.39066259 -0.85708967 10.36503879 -3 12 C-3.66 12 -4.32 12 -5 12 C-5.226875 12.825 -5.45375 13.65 -5.6875 14.5 C-7.24941057 18.66509486 -9.22850107 22.5000943 -12 26 C-12.66 26 -13.32 26 -14 26 C-12.21697508 20.99537324 -9.59335004 16.49116306 -7 11.875 C-6.54882812 11.06417969 -6.09765625 10.25335938 -5.6328125 9.41796875 C-3.83631985 6.20235321 -2.04465346 3.06698019 0 0 Z " fill="#E1C548" transform="translate(116,232)"/>
<path d="M0 0 C0.93423645 3.01031744 1.04449911 3.86650268 0 7 C-0.99 7.495 -0.99 7.495 -2 8 C-2.67784992 10.33010909 -3.34416793 12.66359824 -4 15 C-4.66 15.66 -5.32 16.32 -6 17 C-6.33 17.66 -6.66 18.32 -7 19 C-7.99 19 -8.98 19 -10 19 C-10.33 20.65 -10.66 22.3 -11 24 C-11.66 24 -12.32 24 -13 24 C-11.45196735 18.23684231 -8.51721614 13.62543026 -5.375 8.625 C-4.859375 7.79355469 -4.34375 6.96210937 -3.8125 6.10546875 C-2.54713205 4.06682038 -1.27621134 2.03187118 0 0 Z " fill="#E5C849" transform="translate(216,60)"/>
<path d="M0 0 C2.33469686 2.15685945 3.87521105 4.27740889 5.41015625 7.0546875 C5.84263672 7.83457031 6.27511719 8.61445313 6.72070312 9.41796875 C7.38489258 10.63419922 7.38489258 10.63419922 8.0625 11.875 C8.50916016 12.67808594 8.95582031 13.48117188 9.41601562 14.30859375 C11.5229506 18.13194063 13.5232884 21.87855631 15 26 C14.34 26 13.68 26 13 26 C13 25.01 13 24.02 13 23 C12.01 22.67 11.02 22.34 10 22 C10 20.68 10 19.36 10 18 C9.38125 17.95875 8.7625 17.9175 8.125 17.875 C7.073125 17.441875 7.073125 17.441875 6 17 C4.9375 14.1875 4.9375 14.1875 4 11 C3.484375 10.360625 2.96875 9.72125 2.4375 9.0625 C0.42899643 6.180734 0.33116344 3.44409977 0 0 Z " fill="#E9C23A" transform="translate(406,239)"/>
<path d="M0 0 C0.66 0.33 1.32 0.66 2 1 C-0.11620697 4.81744524 -2.2444131 8.62806456 -4.375 12.4375 C-5.27992188 14.07041992 -5.27992188 14.07041992 -6.203125 15.73632812 C-7.07324219 17.28803711 -7.07324219 17.28803711 -7.9609375 18.87109375 C-8.49509277 19.82943115 -9.02924805 20.78776855 -9.57958984 21.77514648 C-11 24 -11 24 -13 25 C-12.34 22.36 -11.68 19.72 -11 17 C-10.34 17 -9.68 17 -9 17 C-9 15.35 -9 13.7 -9 12 C-8.01 12 -7.02 12 -6 12 C-5.34 9.03 -4.68 6.06 -4 3 C-2.68 2.67 -1.36 2.34 0 2 C0 1.34 0 0.68 0 0 Z " fill="#E3C23A" transform="translate(221,112)"/>
<path d="M0 0 C16.335 0.495 16.335 0.495 33 1 C33 1.33 33 1.66 33 2 C32.29915283 2.02505615 31.59830566 2.0501123 30.8762207 2.07592773 C27.68814512 2.19226545 24.50033758 2.31482044 21.3125 2.4375 C19.65831055 2.49647461 19.65831055 2.49647461 17.97070312 2.55664062 C16.90400391 2.59853516 15.83730469 2.64042969 14.73828125 2.68359375 C13.75899658 2.72025146 12.77971191 2.75690918 11.77075195 2.79467773 C9.10432967 2.99226881 6.61520931 3.46456798 4 4 C1.32421875 3.87890625 1.32421875 3.87890625 -1.3125 3.5625 C-2.19550781 3.46066406 -3.07851562 3.35882813 -3.98828125 3.25390625 C-4.98408203 3.12822266 -4.98408203 3.12822266 -6 3 C-6 2.67 -6 2.34 -6 2 C-4.02 2 -2.04 2 0 2 C0 1.34 0 0.68 0 0 Z " fill="#E6C031" transform="translate(247,337)"/>
<path d="M0 0 C2.52923504 2.26759004 4.01560481 4.03251003 5.5 7.125 C6.67518377 10.11997747 6.67518377 10.11997747 9.0625 10.875 C11 12 11 12 12 15.6875 C12.14050781 16.39648438 12.28101563 17.10546875 12.42578125 17.8359375 C13.03716313 20.14005698 13.93053694 21.79621113 15.1875 23.8125 C15.785625 24.864375 16.38375 25.91625 17 27 C16.67 27.99 16.34 28.98 16 30 C7.015625 14.27734375 7.015625 14.27734375 5.45507812 11.53857422 C4.55142364 9.9620307 3.64006884 8.38984273 2.71679688 6.82470703 C0 2.20447531 0 2.20447531 0 0 Z " fill="#E1C53F" transform="translate(384,264)"/>
<path d="M0 0 C1.60655092 4.81965276 -0.92266773 8.55547514 -3 13 C-5.91091593 18.57646731 -5.91091593 18.57646731 -9.25 19.875 C-9.8275 19.91625 -10.405 19.9575 -11 20 C-9.36047417 15.3606824 -6.93128948 11.36144142 -4.375 7.1875 C-3.95476562 6.49462891 -3.53453125 5.80175781 -3.1015625 5.08789062 C-2.0710533 3.38989252 -1.03598319 1.69466386 0 0 Z " fill="#E6C233" transform="translate(148,177)"/>
<path d="M0 0 C0.66 0.99 1.32 1.98 2 3 C1.21654285 4.17219543 0.42297164 5.33763668 -0.375 6.5 C-0.81585938 7.1496875 -1.25671875 7.799375 -1.7109375 8.46875 C-2.13632813 8.9740625 -2.56171875 9.479375 -3 10 C-3.66 10 -4.32 10 -5 10 C-5 11.98 -5 13.96 -5 16 C-5.99 16 -6.98 16 -8 16 C-7.67 17.65 -7.34 19.3 -7 21 C-8.65 21.33 -10.3 21.66 -12 22 C-11.690625 21.236875 -11.38125 20.47375 -11.0625 19.6875 C-10.32106407 17.81210323 -9.63771783 15.91315348 -9 14 C-8.34 14 -7.68 14 -7 14 C-6.67 12.35 -6.34 10.7 -6 9 C-5.34 9 -4.68 9 -4 9 C-3.71125 7.88625 -3.4225 6.7725 -3.125 5.625 C-2 2 -2 2 0 0 Z " fill="#EFBC17" transform="translate(179,127)"/>
<path d="M0 0 C-1.21816406 -0.03480469 -2.43632812 -0.06960937 -3.69140625 -0.10546875 C-5.31509028 -0.13362512 -6.93878935 -0.16092329 -8.5625 -0.1875 C-9.36236328 -0.21263672 -10.16222656 -0.23777344 -10.98632812 -0.26367188 C-16.50260286 -0.3312181 -20.04103148 0.61969511 -25 3 C-28.4375 3.1875 -28.4375 3.1875 -31 3 C-23.29061623 -3.52332473 -8.64042961 -5.76028641 0 0 Z " fill="#EDCF4D" transform="translate(274,32)"/>
<path d="M0 0 C-2.67057987 6.31613335 -8.82488761 11.33946737 -15.0625 14 C-16.031875 14.33 -17.00125 14.66 -18 15 C-16.96368671 12.17369103 -16.39919994 11.18909471 -13.625 9.875 C-12.00614141 9.33538047 -10.38194393 8.81114954 -8.75 8.3125 C-6.58029686 6.98684471 -6.58029686 6.98684471 -6.25 3.375 C-6.1675 2.26125 -6.085 1.1475 -6 0 C-2.25 -1.125 -2.25 -1.125 0 0 Z " fill="#E7CB40" transform="translate(483,434)"/>
<path d="M0 0 C2.36786432 2.18304282 3.91879546 4.34976838 5.48046875 7.16015625 C5.92197266 7.95357422 6.36347656 8.74699219 6.81835938 9.56445312 C7.27017578 10.38880859 7.72199219 11.21316406 8.1875 12.0625 C8.65091797 12.89072266 9.11433594 13.71894531 9.59179688 14.57226562 C13 20.74116348 13 20.74116348 13 23 C8.97079649 21.65693216 8.1293931 19.60985797 6.0078125 16.078125 C4.80235678 13.59245662 4.57367652 11.72847026 5 9 C4.01 8.67 3.02 8.34 2 8 C1.26953125 6.15234375 1.26953125 6.15234375 0.8125 3.9375 C0.65394531 3.20402344 0.49539063 2.47054688 0.33203125 1.71484375 C0.22246094 1.14894531 0.11289062 0.58304687 0 0 Z " fill="#E5BD38" transform="translate(450,316)"/>
<path d="M0 0 C1.27099045 3.81297136 0.45398157 5.3267834 -1 9 C-1.99 10.485 -1.99 10.485 -3 12 C-3.99 12 -4.98 12 -6 12 C-6 13.65 -6 15.3 -6 17 C-7.98 17.99 -7.98 17.99 -10 19 C-8.62394084 14.23448987 -6.53221934 10.2751447 -3.875 6.125 C-3.50246094 5.53203125 -3.12992188 4.9390625 -2.74609375 4.328125 C-1.83635 2.8818657 -0.91896202 1.44041954 0 0 Z " fill="#E4C34D" transform="translate(202,84)"/>
<path d="M0 0 C0 0.66 0 1.32 0 2 C-0.99 2.33 -1.98 2.66 -3 3 C-4.82202493 5.2451492 -6.43925737 7.5927184 -8.0859375 9.96875 C-10.37421426 12.39712534 -11.77624571 12.52560138 -15 13 C-15.33 13.66 -15.66 14.32 -16 15 C-16.66 14.67 -17.32 14.34 -18 14 C-4.4375 0 -4.4375 0 0 0 Z " fill="#EBC845" transform="translate(243,35)"/>
<path d="M0 0 C1.05794002 3.62400731 0.80092653 4.68250377 -1 8 C-1.69730806 10.3243602 -2.36912152 12.65673706 -3 15 C-4.65 15.33 -6.3 15.66 -8 16 C-6.57250019 12.20950293 -4.83763458 8.72877544 -2.875 5.1875 C-2.33617188 4.21167969 -1.79734375 3.23585938 -1.2421875 2.23046875 C-0.83226563 1.49441406 -0.42234375 0.75835937 0 0 Z " fill="#E6C335" transform="translate(92,273)"/>
<path d="M0 0 C3.47735573 1.03233998 4.1372797 2.23675386 6 5.44921875 C6.67892406 6.85612975 7.34520288 8.2691992 8 9.6875 C8.66465014 11.08819823 9.33130593 12.48794658 10 13.88671875 C10.32355469 14.57169434 10.64710938 15.25666992 10.98046875 15.96240234 C12.00223886 18.00447451 13.1333639 19.93994096 14.3125 21.89453125 C14.869375 22.91933594 15.42625 23.94414062 16 25 C15.67 25.66 15.34 26.32 15 27 C9.39654369 18.23823196 4.49870708 9.37699257 0 0 Z " fill="#DFC550" transform="translate(367,235)"/>
<path d="M0 0 C0.33 0 0.66 0 1 0 C1.33 6.6 1.66 13.2 2 20 C1.01 20.33 0.02 20.66 -1 21 C-1 24.3 -1 27.6 -1 31 C-1.33 31 -1.66 31 -2 31 C-2.02690844 28.37493198 -2.04679404 25.75013827 -2.0625 23.125 C-2.07087891 22.37863281 -2.07925781 21.63226563 -2.08789062 20.86328125 C-2.11328125 15.2265625 -2.11328125 15.2265625 -1 13 C-0.77049681 10.795636 -0.58924067 8.58607827 -0.4375 6.375 C-0.35371094 5.18648437 -0.26992188 3.99796875 -0.18359375 2.7734375 C-0.12300781 1.85820312 -0.06242187 0.94296875 0 0 Z " fill="#F1C115" transform="translate(282,187)"/>
<path d="M0 0 C0.33 0.66 0.66 1.32 1 2 C-2.23044072 4.76894919 -5.05633394 6.46635209 -9 8 C-9.33 8.66 -9.66 9.32 -10 10 C-15.26254237 12.42886571 -20.33744277 12.20143484 -26 12 C-26 11.67 -26 11.34 -26 11 C-25.36191406 10.93941406 -24.72382813 10.87882812 -24.06640625 10.81640625 C-23.24011719 10.73261719 -22.41382813 10.64882813 -21.5625 10.5625 C-20.73878906 10.48128906 -19.91507812 10.40007812 -19.06640625 10.31640625 C-17.01337975 10.21069185 -17.01337975 10.21069185 -16 9 C-14.33382885 8.95936168 -12.66611905 8.957279 -11 9 C-10.67 7.68 -10.34 6.36 -10 5 C-8.35 4.67 -6.7 4.34 -5 4 C-4.67 3.01 -4.34 2.02 -4 1 C-1.9375 0.3125 -1.9375 0.3125 0 0 Z " fill="#EABE17" transform="translate(475,439)"/>
<path d="M0 0 C1 2 1 2 0.44140625 4.1640625 C0.15136719 4.97617187 -0.13867188 5.78828125 -0.4375 6.625 C-0.72496094 7.44226563 -1.01242188 8.25953125 -1.30859375 9.1015625 C-1.53675781 9.72804688 -1.76492187 10.35453125 -2 11 C-2.99 11 -3.98 11 -5 11 C-5.144375 11.78375 -5.28875 12.5675 -5.4375 13.375 C-6 16 -6 16 -7 18 C-7.66 18 -8.32 18 -9 18 C-9 18.66 -9 19.32 -9 20 C-9.66 20 -10.32 20 -11 20 C-9.36047417 15.3606824 -6.93128948 11.36144142 -4.375 7.1875 C-3.95476563 6.49462891 -3.53453125 5.80175781 -3.1015625 5.08789062 C-2.0710533 3.38989252 -1.03598319 1.69466386 0 0 Z " fill="#E6C643" transform="translate(50,346)"/>
<path d="M0 0 C1 2 1 2 0.1875 5.0625 C-1 8 -1 8 -3 9 C-4.43200895 11.66874396 -5.71971607 14.38561762 -6.9765625 17.140625 C-7.31429687 17.85734375 -7.65203125 18.5740625 -8 19.3125 C-8.4640625 20.32763672 -8.4640625 20.32763672 -8.9375 21.36328125 C-10 23 -10 23 -13 24 C-11.71075644 20.59797567 -10.2347924 17.49435446 -8.3984375 14.35546875 C-7.90859375 13.51435547 -7.41875 12.67324219 -6.9140625 11.80664062 C-6.40617188 10.94232422 -5.89828125 10.07800781 -5.375 9.1875 C-4.859375 8.30384766 -4.34375 7.42019531 -3.8125 6.50976562 C-2.54468886 4.33805211 -1.27377652 2.1682182 0 0 Z " fill="#E7C54C" transform="translate(185,113)"/>
<path d="M0 0 C2.95814719 2.61227152 4.71876108 5.66570307 6.6875 9.0625 C7.31011719 10.12597656 7.93273437 11.18945312 8.57421875 12.28515625 C10 15 10 15 10 17 C9.01 17 8.02 17 7 17 C6.67 16.01 6.34 15.02 6 14 C5.34 13.67 4.68 13.34 4 13 C3.375 9.9375 3.375 9.9375 3 7 C2.34 7 1.68 7 1 7 C0.67 4.69 0.34 2.38 0 0 Z " fill="#E4C43A" transform="translate(350,142)"/>
<path d="M0 0 C7.62314474 -0.23576736 14.58569409 0.16282685 22 2 C22 2.33 22 2.66 22 3 C19.47909222 3.0272367 16.95848543 3.04695207 14.4375 3.0625 C13.38079102 3.07506836 13.38079102 3.07506836 12.30273438 3.08789062 C7.75975202 3.10882603 3.48215108 2.74800682 -1 2 C-0.67 1.34 -0.34 0.68 0 0 Z " fill="#EFD02E" transform="translate(170,423)"/>
<path d="M0 0 C3.63820044 -0.33074549 5.3773086 -0.48805542 8.3125 1.8125 C10.83539426 5.08291848 11.12313696 7.66749763 11.09765625 11.66796875 C11.09443359 12.56064453 11.09121094 13.45332031 11.08789062 14.37304688 C11.07951172 15.30181641 11.07113281 16.23058594 11.0625 17.1875 C11.05798828 18.12787109 11.05347656 19.06824219 11.04882812 20.03710938 C11.03704626 22.35813712 11.02059558 24.67903644 11 27 C10.67 27 10.34 27 10 27 C10 20.73 10 14.46 10 8 C9.01 7.67 8.02 7.34 7 7 C6.71125 6.175 6.4225 5.35 6.125 4.5 C5.75375 3.675 5.3825 2.85 5 2 C2.45224694 1.10613836 2.45224694 1.10613836 0 1 C0 0.67 0 0.34 0 0 Z " fill="#ECC54B" transform="translate(273,179)"/>
<path d="M0 0 C0.33 0.66 0.66 1.32 1 2 C0.19555664 3.78759766 0.19555664 3.78759766 -1.08984375 5.9140625 C-1.54423828 6.67460937 -1.99863281 7.43515625 -2.46679688 8.21875 C-2.95212891 9.0128125 -3.43746094 9.806875 -3.9375 10.625 C-4.41896484 11.42679687 -4.90042969 12.22859375 -5.39648438 13.0546875 C-6.59056765 15.04088542 -7.79195201 17.02227542 -9 19 C-10.04449911 15.86650268 -9.93423645 15.01031744 -9 12 C-8.34 12 -7.68 12 -7 12 C-6.7834375 11.071875 -6.7834375 11.071875 -6.5625 10.125 C-6 8 -6 8 -5 6 C-4.34 6 -3.68 6 -3 6 C-3 5.01 -3 4.02 -3 3 C-2.34 3 -1.68 3 -1 3 C-0.67 2.01 -0.34 1.02 0 0 Z " fill="#E2C143" transform="translate(86,346)"/>
<path d="M0 0 C2.52689194 3.21887158 4.61942974 6.59584027 6.6875 10.125 C7.31011719 11.17945313 7.93273437 12.23390625 8.57421875 13.3203125 C10 16 10 16 10 18 C9.01 18 8.02 18 7 18 C6.74605469 17.28972656 6.49210937 16.57945312 6.23046875 15.84765625 C5.88628906 14.92855469 5.54210937 14.00945312 5.1875 13.0625 C4.85105469 12.14597656 4.51460938 11.22945313 4.16796875 10.28515625 C3.16590906 7.6659576 3.16590906 7.6659576 0 7 C0 4.69 0 2.38 0 0 Z " fill="#E4BD3C" transform="translate(440,298)"/>
<path d="M0 0 C0.99 0.495 0.99 0.495 2 1 C2.73075648 3.3140622 3.40138258 5.64828869 4 8 C4.66 8 5.32 8 6 8 C6.33 10.97 6.66 13.94 7 17 C1.60111522 11.60111522 0.46877043 7.41950438 0 0 Z " fill="#EBBF17" transform="translate(452,378)"/>
<path d="M0 0 C1.28840775 3.86522324 0.4223305 5.52380731 -1.03125 9.19140625 C-2 11 -2 11 -4.1875 12.5 C-4.785625 12.665 -5.38375 12.83 -6 13 C-6 13.66 -6 14.32 -6 15 C-6.66 15 -7.32 15 -8 15 C-6.62712658 11.30123909 -4.93644547 8.0485524 -2.875 4.6875 C-2.33617188 3.80449219 -1.79734375 2.92148437 -1.2421875 2.01171875 C-0.83226563 1.34785156 -0.42234375 0.68398438 0 0 Z " fill="#E8C438" transform="translate(101,258)"/>
<path d="M0 0 C0.33 0.99 0.66 1.98 1 3 C-0.23828125 5.35546875 -0.23828125 5.35546875 -2 8 C-2.52980469 8.88300781 -3.05960938 9.76601562 -3.60546875 10.67578125 C-5.0703125 13.1171875 -6.53515625 15.55859375 -8 18 C-9.33332095 15.3333581 -8.67102033 13.83319697 -8 11 C-7.34 11 -6.68 11 -6 11 C-5.71125 10.0925 -5.4225 9.185 -5.125 8.25 C-2.74418605 1.37209302 -2.74418605 1.37209302 0 0 Z " fill="#EABD14" transform="translate(154,225)"/>
<path d="M0 0 C1.9375 0.3125 1.9375 0.3125 4 1 C4.33 1.99 4.66 2.98 5 4 C5.99 4 6.98 4 8 4 C8 4.66 8 5.32 8 6 C8.66 6 9.32 6 10 6 C11.625 8.5 11.625 8.5 13 11 C8.04006781 8.6118845 3.65770294 6.19958486 0 2 C0 1.34 0 0.68 0 0 Z " fill="#E1BF26" transform="translate(32,432)"/>
<path d="M0 0 C0.99 0.495 0.99 0.495 2 1 C2 4.96 2 8.92 2 13 C2.66 13 3.32 13 4 13 C4.33 14.65 4.66 16.3 5 18 C4.34 18 3.68 18 3 18 C-0.81636773 12.27544841 -0.29282789 6.70250505 0 0 Z " fill="#E4C44D" transform="translate(239,303)"/>
<path d="M0 0 C3.24822479 2.77687356 5.12183056 6.39061382 7.1875 10.0625 C7.55552734 10.69994141 7.92355469 11.33738281 8.30273438 11.99414062 C11 16.74312964 11 16.74312964 11 19 C8 18 8 18 6.90234375 15.96875 C6.58394531 15.1540625 6.26554687 14.339375 5.9375 13.5 C4.77297997 10.03943188 4.77297997 10.03943188 2 8 C0.6250851 5.09740189 0 3.23861295 0 0 Z " fill="#E4C93C" transform="translate(377,189)"/>
<path d="M0 0 C0.66 0 1.32 0 2 0 C2 0.99 2 1.98 2 3 C2.66 3 3.32 3 4 3 C7.23568035 5.42039081 8.0143347 8.42528023 9.1875 12.1875 C9.53167969 13.27417969 9.87585938 14.36085937 10.23046875 15.48046875 C10.48441406 16.31191406 10.73835938 17.14335937 11 18 C10.34 18 9.68 18 9 18 C8.32845067 16.71086513 7.66291141 15.41859796 7 14.125 C6.62875 13.40570313 6.2575 12.68640625 5.875 11.9453125 C5 10 5 10 5 8 C4.34 8 3.68 8 3 8 C2.01 5.36 1.02 2.72 0 0 Z " fill="#E8C01A" transform="translate(314,140)"/>
<path d="M0 0 C0.66 0 1.32 0 2 0 C2 0.99 2 1.98 2 3 C1.34 3 0.68 3 0 3 C-0.33 3.99 -0.66 4.98 -1 6 C-1.33 5.01 -1.66 4.02 -2 3 C-1.34 2.01 -0.68 1.02 0 0 Z M-4 6 C-3.34 6 -2.68 6 -2 6 C-2 7.98 -2 9.96 -2 12 C-2.66 12 -3.32 12 -4 12 C-4 12.66 -4 13.32 -4 14 C-4.66 14 -5.32 14 -6 14 C-5.125 7.125 -5.125 7.125 -4 6 Z " fill="#EFBE14" transform="translate(225,100)"/>
<path d="M0 0 C3.70474412 4.10168099 6.38446682 8.70739435 8 14 C7.67 14.99 7.34 15.98 7 17 C0.29612756 6.81093394 0.29612756 6.81093394 0 0 Z " fill="#E5C137" transform="translate(283,85)"/>
<path d="M0 0 C1.13566406 -0.00515625 2.27132813 -0.0103125 3.44140625 -0.015625 C6.4375 0.25 6.4375 0.25 9.4375 2.25 C8.38949219 2.31058594 7.34148437 2.37117188 6.26171875 2.43359375 C4.88279952 2.51801738 3.50389395 2.60266447 2.125 2.6875 C1.08956055 2.74647461 1.08956055 2.74647461 0.03320312 2.80664062 C-3.03411535 2.99927415 -5.63218152 3.27322717 -8.5625 4.25 C-9.2225 3.59 -9.8825 2.93 -10.5625 2.25 C-7.02698834 0.06093627 -4.11111926 -0.01870816 0 0 Z " fill="#EEC117" transform="translate(262.5625,30.75)"/>
<path d="M0 0 C1.32 0 2.64 0 4 0 C4 1.65 4 3.3 4 5 C4.99 5.33 5.98 5.66 7 6 C7.73046875 8.06640625 7.73046875 8.06640625 8.1875 10.5625 C8.34605469 11.38878906 8.50460937 12.21507812 8.66796875 13.06640625 C8.77753906 13.70449219 8.88710938 14.34257812 9 15 C5.96343083 12.4011345 4.53836261 9.37928272 2.8125 5.8125 C2.28269531 4.72582031 1.75289063 3.63914063 1.20703125 2.51953125 C0.80871094 1.68808594 0.41039062 0.85664063 0 0 Z " fill="#E2C341" transform="translate(353,211)"/>
<path d="M0 0 C0 0.33 0 0.66 0 1 C-0.62648437 1.02578125 -1.25296875 1.0515625 -1.8984375 1.078125 C-2.71570313 1.13484375 -3.53296875 1.1915625 -4.375 1.25 C-5.18710938 1.29640625 -5.99921875 1.3428125 -6.8359375 1.390625 C-9.16875907 1.78318441 -9.16875907 1.78318441 -10.1875 3.9375 C-10.455625 4.618125 -10.72375 5.29875 -11 6 C-12.625 7.75 -12.625 7.75 -14 9 C-13.74822234 5.30726098 -13.35705971 3.42197965 -10.9375 0.5625 C-6.81352169 -1.63110548 -4.51999497 -0.91932101 0 0 Z " fill="#EAC63E" transform="translate(248,180)"/>
<path d="M0 0 C2.63520741 2.40502363 4.40302943 5.0185849 6.25 8.0625 C7.06210937 9.37927734 7.06210937 9.37927734 7.890625 10.72265625 C8.25671875 11.47417969 8.6228125 12.22570312 9 13 C8.67 13.66 8.34 14.32 8 15 C7.67 14.01 7.34 13.02 7 12 C6.195625 11.814375 5.39125 11.62875 4.5625 11.4375 C2 10 2 10 1.2265625 7.65234375 C0.73227823 5.10570521 0.31822006 2.57425778 0 0 Z " fill="#E5C444" transform="translate(310,73)"/>
<path d="M0 0 C1.85002358 4.93339622 0.63787457 10.1989424 -1.0625 15 C-1.371875 15.66 -1.68125 16.32 -2 17 C-2.33 17 -2.66 17 -3 17 C-3.3540919 10.48208608 -3.03901852 5.82478551 0 0 Z " fill="#E6C332" transform="translate(28,383)"/>
<path d="M0 0 C0.33 0.99 0.66 1.98 1 3 C0.03126968 4.35622245 -0.97676564 5.68441297 -2 7 C-3.01965427 9.32481174 -4.02059602 11.65794699 -5 14 C-5.99 15.485 -5.99 15.485 -7 17 C-7.66 17 -8.32 17 -9 17 C-7.51481201 12.95698825 -5.57122002 9.38853744 -3.375 5.6875 C-2.74335937 4.61886719 -2.11171875 3.55023438 -1.4609375 2.44921875 C-0.97882812 1.64097656 -0.49671875 0.83273437 0 0 Z " fill="#E6CB49" transform="translate(38,366)"/>
<path d="M0 0 C-0.4682121 4.77576339 -1.24331998 8.04476345 -4 12 C-5.52491998 8.95016004 -5.23562548 6.3576631 -5 3 C-3.37600669 0.7116458 -2.82814211 0 0 0 Z " fill="#E6C023" transform="translate(103,315)"/>
<path d="M0 0 C0.99 0 1.98 0 3 0 C4.33333333 4 5.66666667 8 7 12 C7.66 12 8.32 12 9 12 C8.67 13.32 8.34 14.64 8 16 C7.05096132 14.33918231 6.10237606 12.67810365 5.15625 11.015625 C4.39439116 9.68751972 3.62373474 8.36441678 2.84375 7.046875 C0 2.2125 0 2.2125 0 0 Z " fill="#E8BF18" transform="translate(326,160)"/>
<path d="M0 0 C4.63720719 3.27530896 8.68542782 6.30435607 12 11 C11.67 11.66 11.34 12.32 11 13 C10.566875 12.525625 10.13375 12.05125 9.6875 11.5625 C7.97690387 9.76313043 7.97690387 9.76313043 5 9 C4.67 8.01 4.34 7.02 4 6 C3.319375 5.319375 2.63875 4.63875 1.9375 3.9375 C1.298125 3.298125 0.65875 2.65875 0 2 C0 1.34 0 0.68 0 0 Z " fill="#E6C530" transform="translate(288,43)"/>
<path d="M0 0 C0.99 0.33 1.98 0.66 3 1 C0.36 5.62 -2.28 10.24 -5 15 C-5.33 15 -5.66 15 -6 15 C-6.3125 12.3125 -6.3125 12.3125 -6 9 C-3.5625 6.375 -3.5625 6.375 -1 4 C-0.13880866 1.82653432 -0.13880866 1.82653432 0 0 Z " fill="#E2C93D" transform="translate(109,304)"/>
<path d="M0 0 C0.66 1.32 1.32 2.64 2 4 C0.71937515 5.7074998 -0.61767557 7.37373596 -2 9 C-2.66 9 -3.32 9 -4 9 C-4.66 10.98 -5.32 12.96 -6 15 C-6.66 14.67 -7.32 14.34 -8 14 C-5.36 9.38 -2.72 4.76 0 0 Z " fill="#E6C74B" transform="translate(157,161)"/>
<path d="M0 0 C0.33 0.66 0.66 1.32 1 2 C0 5 0 5 -2 7 C-2.33 7.66 -2.66 8.32 -3 9 C-3.99 9 -4.98 9 -6 9 C-6.33 10.65 -6.66 12.3 -7 14 C-7.66 14 -8.32 14 -9 14 C-7.80086322 9.60316512 -6.5711885 6.90159066 -3 4 C-2.34 4 -1.68 4 -1 4 C-0.67 2.68 -0.34 1.36 0 0 Z " fill="#E7C339" transform="translate(212,70)"/>
<path d="M0 0 C0.66 0 1.32 0 2 0 C3.85776765 3.13498292 4.20140476 5.37471432 4 9 C1.525 8.01 1.525 8.01 -1 7 C-0.67 4.69 -0.34 2.38 0 0 Z " fill="#EDC126" transform="translate(373,183)"/>
<path d="M0 0 C0.33 0.66 0.66 1.32 1 2 C-0.1796875 4.3828125 -0.1796875 4.3828125 -1.875 7.125 C-2.42929688 8.03507813 -2.98359375 8.94515625 -3.5546875 9.8828125 C-4.03164062 10.58148438 -4.50859375 11.28015625 -5 12 C-5.33 12 -5.66 12 -6 12 C-6 9.36 -6 6.72 -6 4 C-4.35 3.67 -2.7 3.34 -1 3 C-0.67 2.01 -0.34 1.02 0 0 Z " fill="#E8BF39" transform="translate(207,137)"/>
<path d="M0 0 C0 4.09459203 -1.96927276 6.76750835 -4 10.1875 C-4.57234375 11.16879883 -4.57234375 11.16879883 -5.15625 12.16992188 C-6.09838932 13.78333545 -7.04844266 15.39212298 -8 17 C-8.33 16.34 -8.66 15.68 -9 15 C-8.14453125 12.5390625 -8.14453125 12.5390625 -6.8125 9.625 C-6.38582031 8.66851562 -5.95914063 7.71203125 -5.51953125 6.7265625 C-3.97937143 3.96298525 -2.33637662 2.11124396 0 0 Z " fill="#DEC447" transform="translate(240,81)"/>
<path d="M0 0 C3 1 3 1 4.625 4.25 C5.71466248 7.22180677 6.52823047 9.88632112 7 13 C3.66366632 10.00880429 1.75472293 7.12359889 0 3 C0 2.01 0 1.02 0 0 Z " fill="#E0C23E" transform="translate(25,419)"/>
<path d="M0 0 C1.10824593 3.32473779 1.26962134 5.69898453 0 9 C-3.0625 10.8125 -3.0625 10.8125 -6 12 C-4.43358249 7.69235185 -2.31663844 3.93828536 0 0 Z " fill="#F1BD13" transform="translate(110,246)"/>
<path d="M0 0 C3 6 3 6 4 9 C4.66 9 5.32 9 6 9 C6.33 10.98 6.66 12.96 7 15 C6.34 15 5.68 15 5 15 C5 13.68 5 12.36 5 11 C4.34 11 3.68 11 3 11 C3 10.01 3 9.02 3 8 C1.68 7.34 0.36 6.68 -1 6 C-0.67 4.02 -0.34 2.04 0 0 Z " fill="#EEC013" transform="translate(387,208)"/>
<path d="M0 0 C0 3.72207387 -1.17964568 5.46395589 -3 8.6875 C-3.8353125 10.17830078 -3.8353125 10.17830078 -4.6875 11.69921875 C-5.3371875 12.83810547 -5.3371875 12.83810547 -6 14 C-6.33 14 -6.66 14 -7 14 C-7.4375 11.5 -7.4375 11.5 -7 8 C-4.91536818 5.08465023 -2.52494637 2.53782875 0 0 Z " fill="#E3C041" transform="translate(230,98)"/>
<path d="M0 0 C2.21875 2.01953125 2.21875 2.01953125 4 4 C1.68690295 3.88658363 -0.62550185 3.75896193 -2.9375 3.625 C-4.86916016 3.52058594 -4.86916016 3.52058594 -6.83984375 3.4140625 C-8.40412109 3.20910156 -8.40412109 3.20910156 -10 3 C-10.33 2.34 -10.66 1.68 -11 1 C-7.28983366 -0.18725323 -3.87209322 -0.34572261 0 0 Z " fill="#E9C329" transform="translate(264,59)"/>
<path d="M0 0 C0.99 0 1.98 0 3 0 C3.99 1.98 4.98 3.96 6 6 C4.125 6.625 4.125 6.625 2 7 C0 5 0 5 -0.125 2.375 C-0.08375 1.59125 -0.0425 0.8075 0 0 Z " fill="#ECC421" transform="translate(481,374)"/>
<path d="M0 0 C1 3 1 3 0 6 C-0.66 6 -1.32 6 -2 6 C-2.12375 6.5775 -2.2475 7.155 -2.375 7.75 C-3.00648824 10.02335767 -3.88858191 11.9253529 -5 14 C-5.66 14 -6.32 14 -7 14 C-5.53967505 8.68972746 -3.01679014 4.53669968 0 0 Z " fill="#E0C445" transform="translate(83,289)"/>
<path d="M0 0 C2 2 2 2 3 5.0625 C3.65752556 8.12150806 3.65752556 8.12150806 6 9 C6 9.66 6 10.32 6 11 C3.525 10.01 3.525 10.01 1 9 C0.67 9.66 0.34 10.32 0 11 C-1.08287842 7.75136475 -0.85269793 7.12655906 0 4 C0 2.68 0 1.36 0 0 Z " fill="#F0BD12" transform="translate(449,316)"/>
<path d="M0 0 C0.66 0.66 1.32 1.32 2 2 C1.5359375 3.1446875 1.5359375 3.1446875 1.0625 4.3125 C0.32106407 6.18789677 -0.36228217 8.08684652 -1 10 C-1.99 9.67 -2.98 9.34 -4 9 C-3.67 7.02 -3.34 5.04 -3 3 C-2.34 3 -1.68 3 -1 3 C-0.67 2.01 -0.34 1.02 0 0 Z " fill="#F1C010" transform="translate(32,380)"/>
<path d="M0 0 C0.33 0 0.66 0 1 0 C0.64989059 8.35010941 0.64989059 8.35010941 -2.0625 11.0625 C-2.701875 11.371875 -3.34125 11.68125 -4 12 C-3.71640113 10.5608866 -3.42278601 9.12374482 -3.125 7.6875 C-2.96257812 6.88699219 -2.80015625 6.08648437 -2.6328125 5.26171875 C-2 3 -2 3 0 0 Z " fill="#E8C034" transform="translate(116,232)"/>
<path d="M0 0 C0.99 0 1.98 0 3 0 C3.33 1.98 3.66 3.96 4 6 C2.35 7.32 0.7 8.64 -1 10 C-1.09978121 6.50765756 -0.77842938 3.40562852 0 0 Z " fill="#EEC214" transform="translate(148,176)"/>
<path d="M0 0 C3.09592835 3.5087188 4.74194623 6.49197399 6 11 C5.01 11 4.02 11 3 11 C0 4.5 0 4.5 0 0 Z " fill="#E0C13E" transform="translate(330,107)"/>
<path d="M0 0 C0.33 0 0.66 0 1 0 C0.88490339 1.41750563 0.75746342 2.83401169 0.625 4.25 C0.55539062 5.03890625 0.48578125 5.8278125 0.4140625 6.640625 C-0.01507113 9.085877 -0.78600638 10.84836903 -2 13 C-2.33 13 -2.66 13 -3 13 C-2.45144652 8.428721 -1.58255197 4.32564205 0 0 Z " fill="#E8C639" transform="translate(492,413)"/>
<path d="M0 0 C0.99 0 1.98 0 3 0 C2.125 4.75 2.125 4.75 1 7 C0.01 7 -0.98 7 -2 7 C-1.125 1.125 -1.125 1.125 0 0 Z " fill="#EAC02E" transform="translate(75,303)"/>
<path d="M0 0 C3.29078593 2.79716804 5.06305458 6.19528578 7 10 C6.67 10.66 6.34 11.32 6 12 C5.67 11.01 5.34 10.02 5 9 C4.34 9 3.68 9 3 9 C1.375 7.875 1.375 7.875 0 6 C-0.1875 2.8125 -0.1875 2.8125 0 0 Z " fill="#E6C444" transform="translate(388,208)"/>
<path d="M0 0 C1.60031344 3.20062687 0.03173691 5.72271806 -1 9 C-2.32 9.33 -3.64 9.66 -5 10 C-3.66511872 6.40608886 -2.03977277 3.24509304 0 0 Z " fill="#E6C545" transform="translate(191,103)"/>
<path d="M0 0 C3.28465896 2.79196011 5.01321958 6.23196817 7 10 C7 10.66 7 11.32 7 12 C6.34 12 5.68 12 5 12 C5 11.01 5 10.02 5 9 C4.01 8.67 3.02 8.34 2 8 C1.26953125 6.15234375 1.26953125 6.15234375 0.8125 3.9375 C0.65394531 3.20402344 0.49539063 2.47054688 0.33203125 1.71484375 C0.22246094 1.14894531 0.11289062 0.58304687 0 0 Z " fill="#E4C645" transform="translate(450,316)"/>
<path d="M0 0 C0.33 0 0.66 0 1 0 C1.125 5.75 1.125 5.75 0 8 C-0.99 8 -1.98 8 -3 8 C-3 8.99 -3 9.98 -3 11 C-3.66 11 -4.32 11 -5 11 C-3.55049545 7.2089881 -1.84827434 3.6125362 0 0 Z " fill="#E2C544" transform="translate(136,197)"/>
<path d="M0 0 C-0.66 1.32 -1.32 2.64 -2 4 C-3.65 4 -5.3 4 -7 4 C-6.67 2.68 -6.34 1.36 -6 0 C-2.25 -1.125 -2.25 -1.125 0 0 Z " fill="#E9C529" transform="translate(483,434)"/>
<path d="M0 0 C1 3 1 3 0.328125 5.0078125 C-0.02765625 5.70648438 -0.3834375 6.40515625 -0.75 7.125 C-1.26820312 8.18074219 -1.26820312 8.18074219 -1.796875 9.2578125 C-3 11 -3 11 -6 12 C-4.43358249 7.69235185 -2.31663844 3.93828536 0 0 Z " fill="#E3C248" transform="translate(62,325)"/>
<path d="M0 0 C0.99 0 1.98 0 3 0 C3 0.99 3 1.98 3 3 C3.99 3.33 4.98 3.66 6 4 C6.33 4.99 6.66 5.98 7 7 C2.25 5.125 2.25 5.125 0 4 C0 2.68 0 1.36 0 0 Z " fill="#F0BE14" transform="translate(376,194)"/>
<path d="M0 0 C1.27099045 3.81297136 0.45398157 5.3267834 -1 9 C-1.99 10.485 -1.99 10.485 -3 12 C-3.66 11.67 -4.32 11.34 -5 11 C-4.35731563 9.35293447 -3.71076198 7.70737825 -3.0625 6.0625 C-2.70285156 5.14597656 -2.34320313 4.22945313 -1.97265625 3.28515625 C-1 1 -1 1 0 0 Z " fill="#EABE30" transform="translate(202,84)"/>
<path d="M0 0 C0.33 0 0.66 0 1 0 C1.3125 2.6875 1.3125 2.6875 1 6 C-1.5 8.875 -1.5 8.875 -4 11 C-3.67 9.02 -3.34 7.04 -3 5 C-2.34 5 -1.68 5 -1 5 C-0.67 3.35 -0.34 1.7 0 0 Z " fill="#EEBF16" transform="translate(206,79)"/>
<path d="M0 0 C2.61724095 2.36797991 4.32861729 4.89600354 6 8 C6 8.66 6 9.32 6 10 C4.125 9.375 4.125 9.375 2 8 C0.85501787 5.2520429 0 2.989803 0 0 Z " fill="#E6C549" transform="translate(300,56)"/>
<path d="M0 0 C3 1 3 1 4.203125 2.99609375 C4.54859375 3.80175781 4.8940625 4.60742188 5.25 5.4375 C5.78367187 6.64212891 5.78367187 6.64212891 6.328125 7.87109375 C7 10 7 10 6 12 C4.99466333 10.37829621 3.99588093 8.75252763 3 7.125 C2.443125 6.22007812 1.88625 5.31515625 1.3125 4.3828125 C0 2 0 2 0 0 Z " fill="#E0C246" transform="translate(412,313)"/>
<path d="M0 0 C0.66 0 1.32 0 2 0 C2 0.66 2 1.32 2 2 C2.66 2 3.32 2 4 2 C4.33 1.34 4.66 0.68 5 0 C5.66 0.66 6.32 1.32 7 2 C6.75 4.5625 6.75 4.5625 6 7 C5.01 7.495 5.01 7.495 4 8 C4 6.35 4 4.7 4 3 C2.35 3 0.7 3 -1 3 C-0.67 2.01 -0.34 1.02 0 0 Z " fill="#EEC210" transform="translate(353,208)"/>
<path d="M0 0 C-1.2491742 3.45925163 -2.67527795 6.14693203 -5 9 C-5.1875 5.625 -5.1875 5.625 -5 2 C-2 0 -2 0 0 0 Z " fill="#E0C03A" transform="translate(188,172)"/>
<path d="M0 0 C0.66 0.33 1.32 0.66 2 1 C1.67 2.65 1.34 4.3 1 6 C0.01 6.33 -0.98 6.66 -2 7 C-2.73323796 9.01508358 -2.73323796 9.01508358 -3 11 C-2.53199289 6.94393835 -2.12046792 3.53411321 0 0 Z " fill="#EEBE1A" transform="translate(51,346)"/>
<path d="M0 0 C1.39195915 4.17587745 -0.17676781 6.13474776 -2 10 C-2.99 10 -3.98 10 -5 10 C-3.66511872 6.40608886 -2.03977277 3.24509304 0 0 Z " fill="#E3C748" transform="translate(142,187)"/>
<path d="M0 0 C1 4 1 4 0 6 C-0.99 6 -1.98 6 -3 6 C-3 7.65 -3 9.3 -3 11 C-3.66 9.68 -4.32 8.36 -5 7 C-3.35 4.69 -1.7 2.38 0 0 Z " fill="#F0BE12" transform="translate(215,118)"/>
<path d="M0 0 C0.99 0 1.98 0 3 0 C3.99 3.3 4.98 6.6 6 10 C3.36335259 7.36335259 1.744776 5.24029829 0 2 C0 1.34 0 0.68 0 0 Z " fill="#EBBE17" transform="translate(277,75)"/>
<path d="M0 0 C0 3 0 3 -2.5 5.6875 C-3.325 6.450625 -4.15 7.21375 -5 8 C-4.67 5.69 -4.34 3.38 -4 1 C-2.68 0.67 -1.36 0.34 0 0 Z " fill="#E9C341" transform="translate(488,426)"/>
<path d="M0 0 C1.485 0.99 1.485 0.99 3 2 C3 2.66 3 3.32 3 4 C3.66 4 4.32 4 5 4 C5.33 5.98 5.66 7.96 6 10 C3.38275905 7.63202009 1.67138271 5.10399646 0 2 C0 1.34 0 0.68 0 0 Z " fill="#E5C343" transform="translate(453,385)"/>
<path d="M0 0 C3.375 -0.125 3.375 -0.125 7 0 C7.66 0.66 8.32 1.32 9 2 C8.67 2.33 8.34 2.66 8 3 C5.30917128 2.82364548 2.67148554 2.38164079 0 2 C0 1.34 0 0.68 0 0 Z " fill="#F6D71F" transform="translate(245,178)"/>
<path d="M0 0 C2.72426311 2.35277269 3.8141763 4.62496331 5 8 C4.01 7.67 3.02 7.34 2 7 C2 6.34 2 5.68 2 5 C1.01 5 0.02 5 -1 5 C-0.67 3.35 -0.34 1.7 0 0 Z " fill="#E3C238" transform="translate(340,125)"/>
<path d="M0 0 C0.99 0 1.98 0 3 0 C3.66 2.97 4.32 5.94 5 9 C1.89448334 5.89448334 1.18676066 4.10801767 0 0 Z " fill="#E2C441" transform="translate(291,102)"/>
<path d="M0 0 C4.42857143 5.14285714 4.42857143 5.14285714 5 9 C4.34 9 3.68 9 3 9 C0.78252188 6.69723426 0.03239994 5.47519908 -0.1875 2.25 C-0.125625 1.5075 -0.06375 0.765 0 0 Z " fill="#E2C641" transform="translate(345,133)"/>
<path d="M0 0 C0.33 0 0.66 0 1 0 C0.38461538 6.52307692 0.38461538 6.52307692 -1.5625 8.9375 C-2.036875 9.288125 -2.51125 9.63875 -3 10 C-2.67 7.69 -2.34 5.38 -2 3 C-1.34 3 -0.68 3 0 3 C0 2.01 0 1.02 0 0 Z " fill="#E1C22D" transform="translate(79,355)"/>
<path d="M0 0 C0.33 0.66 0.66 1.32 1 2 C0.22265625 3.7265625 0.22265625 3.7265625 -0.9375 5.625 C-1.618125 6.73875 -2.29875 7.8525 -3 9 C-3.33 9 -3.66 9 -4 9 C-4.25 6.75 -4.25 6.75 -4 4 C-2 1.6875 -2 1.6875 0 0 Z " fill="#DBBF41" transform="translate(97,327)"/>
<path d="M0 0 C0 3.10551666 -0.5393715 4.35261084 -2 7 C-2.66 7 -3.32 7 -4 7 C-4 5.35 -4 3.7 -4 2 C-2.68 1.34 -1.36 0.68 0 0 Z " fill="#ECBB18" transform="translate(127,273)"/>
<path d="M0 0 C0.66 0 1.32 0 2 0 C5.22265625 5.17578125 5.22265625 5.17578125 6 7 C5.67 7.99 5.34 8.98 5 10 C4.16121545 8.71186658 3.32913217 7.41936744 2.5 6.125 C2.0359375 5.40570313 1.571875 4.68640625 1.09375 3.9453125 C0 2 0 2 0 0 Z " fill="#EABC1B" transform="translate(377,250)"/>
<path d="M0 0 C4 2 4 2 5.25 5.125 C5.4975 6.07375 5.745 7.0225 6 8 C5.01 8.495 5.01 8.495 4 9 C2.68 6.03 1.36 3.06 0 0 Z " fill="#E4C847" transform="translate(367,235)"/>
<path d="M0 0 C4.42857143 5.14285714 4.42857143 5.14285714 5 9 C4.34 9 3.68 9 3 9 C3 8.01 3 7.02 3 6 C2.01 5.67 1.02 5.34 0 5 C0 3.35 0 1.7 0 0 Z " fill="#E3C83A" transform="translate(360,159)"/>
<path d="M0 0 C1.32 0.33 2.64 0.66 4 1 C4.33 2.65 4.66 4.3 5 6 C3.2925002 4.71937515 1.62626404 3.38232443 0 2 C0 1.34 0 0.68 0 0 Z " fill="#E1C23F" transform="translate(32,432)"/>
<path d="M0 0 C0.8125 1.6875 0.8125 1.6875 1 4 C-1.4375 6.75 -1.4375 6.75 -4 9 C-2.94124926 5.59687262 -1.99097846 2.98646769 0 0 Z " fill="#E8BD14" transform="translate(108,304)"/>
<path d="M0 0 C2 1.625 2 1.625 4 4 C4.25 7.25 4.25 7.25 4 10 C1.16625119 6.79663178 0.4794463 4.21912747 0 0 Z " fill="#E8BD16" transform="translate(395,278)"/>
<path d="M0 0 C1.9375 0.5625 1.9375 0.5625 4 2 C4.75 5.625 4.75 5.625 5 9 C0.57142857 3.85714286 0.57142857 3.85714286 0 0 Z " fill="#DDC745" transform="translate(362,226)"/>
</svg>
