<?xml version="1.0" encoding="UTF-8"?>
<svg version="1.1" xmlns="http://www.w3.org/2000/svg" width="500" height="500">
<path d="M0 0 C1.73614815 -0.005476 1.73614815 -0.005476 3.50737 -0.01106262 C7.30576583 -0.01912081 11.10372872 -0.0055977 14.90209961 0.0090332 C17.55668226 0.00955234 20.2112489 0.00908459 22.86582947 0.00752258 C28.41776625 0.00664272 33.96958022 0.01765621 39.52148438 0.03613281 C45.91993588 0.05730617 52.31820781 0.06080622 58.71668726 0.05457085 C64.89967956 0.04885636 71.0826093 0.05454667 77.26559258 0.0657444 C79.88456406 0.06958352 82.50354091 0.07074998 85.12251472 0.06915855 C88.78620684 0.06878627 92.44962973 0.08145395 96.11328125 0.09765625 C97.18730194 0.09517883 98.26132263 0.09270142 99.3678894 0.09014893 C107.98662845 0.15074933 115.79305006 0.39146534 122.36694336 6.49731445 C123.17905273 7.22176758 123.99116211 7.9462207 124.82788086 8.69262695 C130.40950619 15.60417023 130.44293095 22.91605261 130.45605469 31.42871094 C130.46945892 32.61511169 130.48286316 33.80151245 130.49667358 35.02386475 C130.52999558 38.25740455 130.55025812 41.49068753 130.5639174 44.72436023 C130.58084234 48.12214898 130.61289569 51.51980056 130.64274597 54.91749573 C130.69052223 60.62253312 130.72656091 66.32755203 130.75537109 72.03271484 C130.78870937 78.60961181 130.8397558 85.18618692 130.90052778 91.7628836 C130.95885765 98.11238016 131.00537798 104.46190983 131.04633141 110.8115406 C131.06384546 113.50312636 131.08526986 116.1946378 131.10990334 118.88616753 C131.14173955 122.65297492 131.16008571 126.41961525 131.17480469 130.18652344 C131.18663284 131.29173843 131.198461 132.39695343 131.21064758 133.53565979 C131.22456961 144.38292061 130.15242767 151.32716812 122.41381836 159.26293945 C116.71205277 164.22899335 111.11418556 164.86335401 103.69116211 164.67700195 C99.73879264 164.23085895 96.60626511 163.00898845 92.99194336 161.37231445 C92.99194336 160.71231445 92.99194336 160.05231445 92.99194336 159.37231445 C92.38737305 159.13254883 91.78280273 158.8927832 91.15991211 158.64575195 C88.51712791 157.09341385 87.72256847 155.69041008 86.30444336 152.99731445 C85.67989258 151.84102539 85.67989258 151.84102539 85.04272461 150.66137695 C83.13883041 146.51386023 82.85244317 142.86972991 82.78662109 138.31860352 C82.76667587 137.09763977 82.74673065 135.87667603 82.72618103 134.61871338 C82.70111229 132.64823029 82.70111229 132.64823029 82.67553711 130.63793945 C82.65495417 129.27601509 82.63395735 127.91409693 82.61256409 126.55218506 C82.55748171 122.97496573 82.50801172 119.39769008 82.4597168 115.82037354 C82.40940047 112.16706352 82.35376739 108.51383487 82.29858398 104.8605957 C82.19117173 97.69790428 82.08968951 90.535145 81.99194336 83.37231445 C81.20819336 84.19731445 80.42444336 85.02231445 79.61694336 85.87231445 C76.99194336 88.37231445 76.99194336 88.37231445 74.99194336 88.37231445 C74.61707542 89.23564896 74.61707542 89.23564896 74.2346344 90.11642456 C72.81662925 92.6905668 71.19763437 94.39995817 69.10888672 96.46655273 C68.31143539 97.26062531 67.51398407 98.05469788 66.69236755 98.87283325 C65.40013023 100.14488113 65.40013023 100.14488113 64.08178711 101.44262695 C62.75782677 102.75878494 62.75782677 102.75878494 61.40711975 104.10153198 C59.06501497 106.42884142 56.71892652 108.75202712 54.37042236 111.07287598 C51.05624842 114.3490076 47.74729389 117.63038164 44.4410553 120.91452026 C42.68095482 122.66232697 40.91818891 124.4074542 39.15257263 126.14968872 C38.35827347 126.93745697 37.5639743 127.72522522 36.74560547 128.53686523 C36.04326279 129.2309549 35.3409201 129.92504456 34.61729431 130.64016724 C32.9139766 132.28999199 32.9139766 132.28999199 31.99194336 134.37231445 C31.33194336 134.37231445 30.67194336 134.37231445 29.99194336 134.37231445 C29.99194336 135.03231445 29.99194336 135.69231445 29.99194336 136.37231445 C29.33194336 136.37231445 28.67194336 136.37231445 27.99194336 136.37231445 C27.76611572 136.92411377 27.54028809 137.47591309 27.30761719 138.04443359 C25.59422507 141.0760153 23.41766161 143.17006305 20.94116211 145.6184082 C20.44534134 146.11139908 19.94952057 146.60438995 19.43867493 147.11231995 C17.85691605 148.68292841 16.26835651 150.24644731 14.67944336 151.80981445 C13.62234143 152.85687497 12.565696 153.90439658 11.50952148 154.95239258 C9.55553658 156.89010242 7.59847423 158.82449508 5.63916016 160.75683594 C0.22884408 166.00016387 0.22884408 166.00016387 -4.69555664 171.68481445 C-5.45868164 172.57168945 -6.22180664 173.45856445 -7.00805664 174.37231445 C-7.66805664 174.37231445 -8.32805664 174.37231445 -9.00805664 174.37231445 C-9.00805664 175.03231445 -9.00805664 175.69231445 -9.00805664 176.37231445 C-9.66805664 176.37231445 -10.32805664 176.37231445 -11.00805664 176.37231445 C-11.00805664 177.03231445 -11.00805664 177.69231445 -11.00805664 178.37231445 C-11.66805664 178.37231445 -12.32805664 178.37231445 -13.00805664 178.37231445 C-13.00805664 179.03231445 -13.00805664 179.69231445 -13.00805664 180.37231445 C-13.66805664 180.37231445 -14.32805664 180.37231445 -15.00805664 180.37231445 C-15.00805664 181.03231445 -15.00805664 181.69231445 -15.00805664 182.37231445 C-15.66805664 182.37231445 -16.32805664 182.37231445 -17.00805664 182.37231445 C-17.27618164 183.01168945 -17.54430664 183.65106445 -17.82055664 184.30981445 C-19.00805664 186.37231445 -19.00805664 186.37231445 -22.00805664 187.37231445 C-22.00805664 188.03231445 -22.00805664 188.69231445 -22.00805664 189.37231445 C-22.66805664 189.37231445 -23.32805664 189.37231445 -24.00805664 189.37231445 C-24.00805664 190.03231445 -24.00805664 190.69231445 -24.00805664 191.37231445 C-24.66805664 191.37231445 -25.32805664 191.37231445 -26.00805664 191.37231445 C-26.00805664 192.03231445 -26.00805664 192.69231445 -26.00805664 193.37231445 C-26.66805664 193.37231445 -27.32805664 193.37231445 -28.00805664 193.37231445 C-28.33290039 194.18442383 -28.33290039 194.18442383 -28.66430664 195.01293945 C-30.47305661 198.18876789 -32.92529463 200.57959527 -35.50805664 203.12231445 C-36.00692383 203.62891602 -36.50579102 204.13551758 -37.01977539 204.6574707 C-40.75464525 208.37231445 -40.75464525 208.37231445 -43.00805664 208.37231445 C-43.00805664 209.03231445 -43.00805664 209.69231445 -43.00805664 210.37231445 C-50.10890732 214.21432062 -56.40912095 215.94410869 -64.35961914 213.7121582 C-74.39593463 209.72867216 -81.72747958 200.95936666 -88.77758789 193.09887695 C-93.39923794 188.00549022 -98.19996309 183.11399787 -103.08227539 178.27075195 C-103.78313263 177.57540344 -104.48398987 176.88005493 -105.20608521 176.16363525 C-108.11364534 173.28376538 -111.02504425 170.40783661 -113.94042969 167.53588867 C-116.09616729 165.41012793 -118.24582218 163.27836758 -120.39477539 161.14575195 C-121.06022873 160.49375824 -121.72568207 159.84176453 -122.41130066 159.17001343 C-123.01646011 158.56823273 -123.62161957 157.96645203 -124.24511719 157.34643555 C-124.7804155 156.81859467 -125.31571381 156.29075378 -125.86723328 155.74691772 C-127.00805664 154.37231445 -127.00805664 154.37231445 -127.00805664 152.37231445 C-127.66805664 152.37231445 -128.32805664 152.37231445 -129.00805664 152.37231445 C-129.00805664 151.71231445 -129.00805664 151.05231445 -129.00805664 150.37231445 C-129.66805664 150.37231445 -130.32805664 150.37231445 -131.00805664 150.37231445 C-131.00805664 149.71231445 -131.00805664 149.05231445 -131.00805664 148.37231445 C-131.66805664 148.37231445 -132.32805664 148.37231445 -133.00805664 148.37231445 C-133.00805664 147.71231445 -133.00805664 147.05231445 -133.00805664 146.37231445 C-133.66805664 146.37231445 -134.32805664 146.37231445 -135.00805664 146.37231445 C-135.00805664 145.71231445 -135.00805664 145.05231445 -135.00805664 144.37231445 C-135.64743164 144.10418945 -136.28680664 143.83606445 -136.94555664 143.55981445 C-139.00805664 142.37231445 -139.00805664 142.37231445 -140.00805664 139.37231445 C-140.66805664 139.37231445 -141.32805664 139.37231445 -142.00805664 139.37231445 C-142.00805664 138.71231445 -142.00805664 138.05231445 -142.00805664 137.37231445 C-142.66805664 137.37231445 -143.32805664 137.37231445 -144.00805664 137.37231445 C-144.00805664 136.71231445 -144.00805664 136.05231445 -144.00805664 135.37231445 C-144.66805664 135.37231445 -145.32805664 135.37231445 -146.00805664 135.37231445 C-146.00805664 134.71231445 -146.00805664 134.05231445 -146.00805664 133.37231445 C-146.66805664 133.37231445 -147.32805664 133.37231445 -148.00805664 133.37231445 C-149.73461914 131.62231445 -149.73461914 131.62231445 -151.63305664 129.37231445 C-152.26469727 128.62981445 -152.89633789 127.88731445 -153.54711914 127.12231445 C-154.2702832 126.25606445 -154.2702832 126.25606445 -155.00805664 125.37231445 C-163.53971027 132.15885711 -170.7075582 140.46783005 -177.75805664 148.74731445 C-180.69485789 152.16152674 -183.94462255 155.05324754 -187.40649414 157.92700195 C-189.12393479 159.30040463 -189.12393479 159.30040463 -190.00805664 161.37231445 C-190.66805664 161.37231445 -191.32805664 161.37231445 -192.00805664 161.37231445 C-192.00805664 162.03231445 -192.00805664 162.69231445 -192.00805664 163.37231445 C-192.66805664 163.37231445 -193.32805664 163.37231445 -194.00805664 163.37231445 C-194.00805664 164.03231445 -194.00805664 164.69231445 -194.00805664 165.37231445 C-194.66805664 165.37231445 -195.32805664 165.37231445 -196.00805664 165.37231445 C-196.00805664 166.03231445 -196.00805664 166.69231445 -196.00805664 167.37231445 C-196.66805664 167.37231445 -197.32805664 167.37231445 -198.00805664 167.37231445 C-198.22631104 167.91726563 -198.44456543 168.4622168 -198.66943359 169.02368164 C-200.45153323 172.15040032 -202.87004044 174.46131246 -205.42602539 176.95043945 C-205.9614949 177.4807074 -206.49696442 178.01097534 -207.04866028 178.55731201 C-208.75959416 180.25048501 -210.47704432 181.93683654 -212.19555664 183.62231445 C-214.44247304 185.83240666 -216.68615207 188.04570933 -218.92602539 190.26293945 C-219.46803589 190.79940598 -220.01004639 191.3358725 -220.56848145 191.88859558 C-223.99199447 195.2993466 -227.22713919 198.81333301 -230.35986328 202.49487305 C-233.60340132 206.18955643 -237.13816261 209.60505613 -240.63305664 213.05981445 C-241.37040039 213.79264648 -242.10774414 214.52547852 -242.86743164 215.28051758 C-248.02163779 220.40239448 -248.02163779 220.40239448 -250.58447266 222.92236328 C-252.45875576 224.77345235 -254.13866853 226.55130112 -255.69555664 228.68481445 C-256.12868164 229.24168945 -256.56180664 229.79856445 -257.00805664 230.37231445 C-257.66805664 230.37231445 -258.32805664 230.37231445 -259.00805664 230.37231445 C-259.00805664 231.03231445 -259.00805664 231.69231445 -259.00805664 232.37231445 C-259.66805664 232.37231445 -260.32805664 232.37231445 -261.00805664 232.37231445 C-261.00805664 233.03231445 -261.00805664 233.69231445 -261.00805664 234.37231445 C-261.66805664 234.37231445 -262.32805664 234.37231445 -263.00805664 234.37231445 C-263.00805664 235.03231445 -263.00805664 235.69231445 -263.00805664 236.37231445 C-263.66805664 236.37231445 -264.32805664 236.37231445 -265.00805664 236.37231445 C-265.00805664 237.03231445 -265.00805664 237.69231445 -265.00805664 238.37231445 C-265.66805664 238.37231445 -266.32805664 238.37231445 -267.00805664 238.37231445 C-267.00805664 239.03231445 -267.00805664 239.69231445 -267.00805664 240.37231445 C-268.61743164 241.6262207 -268.61743164 241.6262207 -270.75805664 242.93481445 C-271.45415039 243.36922852 -272.15024414 243.80364258 -272.86743164 244.2512207 C-279.21775519 247.57702884 -287.04541104 247.26110813 -293.75805664 245.24731445 C-300.68801333 241.24926252 -304.68744352 237.59660359 -307.34790039 229.88012695 C-309.01672485 223.54056893 -308.31352707 218.21415264 -305.75805664 212.1730957 C-302.58000417 207.08679297 -298.16017196 203.14249391 -293.80883789 199.05981445 C-291.02847094 196.6929244 -291.02847094 196.6929244 -290.00805664 194.37231445 C-289.34805664 194.37231445 -288.68805664 194.37231445 -288.00805664 194.37231445 C-288.00805664 193.71231445 -288.00805664 193.05231445 -288.00805664 192.37231445 C-287.34805664 192.37231445 -286.68805664 192.37231445 -286.00805664 192.37231445 C-285.01805664 190.39231445 -285.01805664 190.39231445 -284.00805664 188.37231445 C-283.34805664 188.37231445 -282.68805664 188.37231445 -282.00805664 188.37231445 C-282.00805664 187.71231445 -282.00805664 187.05231445 -282.00805664 186.37231445 C-281.34805664 186.37231445 -280.68805664 186.37231445 -280.00805664 186.37231445 C-279.76418213 185.80174316 -279.52030762 185.23117187 -279.26904297 184.64331055 C-277.78018986 181.96193367 -276.02511604 180.18022736 -273.83227539 178.03637695 C-273.00405273 177.21911133 -272.17583008 176.4018457 -271.32250977 175.55981445 C-270.45561523 174.71418945 -269.5887207 173.86856445 -268.69555664 172.99731445 C-262.09011431 166.63542077 -262.09011431 166.63542077 -256.02758789 159.77075195 C-255.36114258 158.97926758 -254.69469727 158.1877832 -254.00805664 157.37231445 C-253.34805664 157.37231445 -252.68805664 157.37231445 -252.00805664 157.37231445 C-251.75024414 156.7896582 -251.49243164 156.20700195 -251.22680664 155.60668945 C-249.90971647 153.19202415 -248.4571728 151.55491268 -246.50805664 149.62231445 C-245.89961914 149.0087207 -245.29118164 148.39512695 -244.66430664 147.76293945 C-243.00805664 146.37231445 -243.00805664 146.37231445 -241.00805664 146.37231445 C-241.00805664 145.71231445 -241.00805664 145.05231445 -241.00805664 144.37231445 C-240.34805664 144.37231445 -239.68805664 144.37231445 -239.00805664 144.37231445 C-238.78980225 143.82736328 -238.57154785 143.28241211 -238.34667969 142.72094727 C-236.56458005 139.59422858 -234.14607284 137.28331644 -231.59008789 134.79418945 C-231.05461838 134.26392151 -230.51914886 133.73365356 -229.967453 133.18731689 C-228.25651912 131.4941439 -226.53906896 129.80779237 -224.82055664 128.12231445 C-222.57364023 125.91222224 -220.3299745 123.69890615 -218.09008789 121.48168945 C-217.54934631 120.94653717 -217.00860474 120.41138489 -216.45147705 119.86001587 C-212.990594 116.41229232 -209.71493195 112.86036252 -206.54882812 109.13793945 C-203.90014614 106.1027203 -201.01321744 103.31080487 -198.13305664 100.49731445 C-194.09028158 96.80440809 -194.09028158 96.80440809 -191.00805664 92.37231445 C-190.34805664 92.37231445 -189.68805664 92.37231445 -189.00805664 92.37231445 C-189.00805664 91.71231445 -189.00805664 91.05231445 -189.00805664 90.37231445 C-188.34805664 90.37231445 -187.68805664 90.37231445 -187.00805664 90.37231445 C-187.00805664 89.71231445 -187.00805664 89.05231445 -187.00805664 88.37231445 C-186.34805664 88.37231445 -185.68805664 88.37231445 -185.00805664 88.37231445 C-185.00805664 87.71231445 -185.00805664 87.05231445 -185.00805664 86.37231445 C-184.34805664 86.37231445 -183.68805664 86.37231445 -183.00805664 86.37231445 C-182.77086914 85.8102832 -182.53368164 85.24825195 -182.28930664 84.66918945 C-180.71857967 81.85337404 -178.793342 79.89276029 -176.50805664 77.62231445 C-175.71399414 76.8230957 -174.91993164 76.02387695 -174.10180664 75.20043945 C-172.00805664 73.37231445 -172.00805664 73.37231445 -170.00805664 73.37231445 C-170.00805664 72.71231445 -170.00805664 72.05231445 -170.00805664 71.37231445 C-163.52828872 67.78844281 -157.41892448 66.00105183 -150.00805664 67.37231445 C-142.60044223 70.38642276 -137.81984551 75.0061627 -132.25805664 80.66137695 C-131.35933838 81.56101166 -130.46062012 82.46064636 -129.53466797 83.38754272 C-127.64731729 85.28091205 -125.76421057 87.17752803 -123.88745117 89.08129883 C-121.47893096 91.52404058 -119.0572076 93.95316299 -116.63076782 96.37809181 C-114.3134174 98.69611486 -112.00460025 101.02258337 -109.69555664 103.34887695 C-108.38796387 104.6598082 -108.38796387 104.6598082 -107.05395508 105.9972229 C-106.25892578 106.8050119 -105.46389648 107.6128009 -104.64477539 108.44506836 C-103.94054443 109.15692291 -103.23631348 109.86877747 -102.51074219 110.60220337 C-101.00805664 112.37231445 -101.00805664 112.37231445 -101.00805664 114.37231445 C-100.34805664 114.37231445 -99.68805664 114.37231445 -99.00805664 114.37231445 C-99.00805664 115.03231445 -99.00805664 115.69231445 -99.00805664 116.37231445 C-98.34805664 116.37231445 -97.68805664 116.37231445 -97.00805664 116.37231445 C-97.00805664 117.03231445 -97.00805664 117.69231445 -97.00805664 118.37231445 C-96.42540039 118.63012695 -95.84274414 118.88793945 -95.24243164 119.15356445 C-92.82776634 120.47065462 -91.19065487 121.92319829 -89.25805664 123.87231445 C-88.64446289 124.48075195 -88.03086914 125.08918945 -87.39868164 125.71606445 C-86.00805664 127.37231445 -86.00805664 127.37231445 -86.00805664 129.37231445 C-85.34805664 129.37231445 -84.68805664 129.37231445 -84.00805664 129.37231445 C-84.00805664 130.03231445 -84.00805664 130.69231445 -84.00805664 131.37231445 C-83.34805664 131.37231445 -82.68805664 131.37231445 -82.00805664 131.37231445 C-82.00805664 132.03231445 -82.00805664 132.69231445 -82.00805664 133.37231445 C-81.34805664 133.37231445 -80.68805664 133.37231445 -80.00805664 133.37231445 C-80.00805664 134.03231445 -80.00805664 134.69231445 -80.00805664 135.37231445 C-79.36868164 135.64043945 -78.72930664 135.90856445 -78.07055664 136.18481445 C-76.00805664 137.37231445 -76.00805664 137.37231445 -75.00805664 140.37231445 C-74.34805664 140.37231445 -73.68805664 140.37231445 -73.00805664 140.37231445 C-73.00805664 141.03231445 -73.00805664 141.69231445 -73.00805664 142.37231445 C-72.34805664 142.37231445 -71.68805664 142.37231445 -71.00805664 142.37231445 C-69.49243164 143.91137695 -69.49243164 143.91137695 -67.75805664 145.99731445 C-64.66129112 149.6459145 -61.43261253 153.03128432 -58.00805664 156.37231445 C-54.61117988 154.90669572 -52.40082978 153.00583901 -49.82055664 150.37231445 C-49.12575195 149.67106445 -48.43094727 148.96981445 -47.71508789 148.24731445 C-45.9461634 146.47473113 -45.9461634 146.47473113 -45.00805664 144.37231445 C-44.34805664 144.37231445 -43.68805664 144.37231445 -43.00805664 144.37231445 C-42.75024414 143.7896582 -42.49243164 143.20700195 -42.22680664 142.60668945 C-40.90971647 140.19202415 -39.4571728 138.55491268 -37.50805664 136.62231445 C-36.89961914 136.0087207 -36.29118164 135.39512695 -35.66430664 134.76293945 C-34.00805664 133.37231445 -34.00805664 133.37231445 -32.00805664 133.37231445 C-32.00805664 132.71231445 -32.00805664 132.05231445 -32.00805664 131.37231445 C-31.34805664 131.37231445 -30.68805664 131.37231445 -30.00805664 131.37231445 C-29.75515869 130.79344482 -29.50226074 130.2145752 -29.24169922 129.61816406 C-27.86185733 127.10615821 -26.31049023 125.4475302 -24.26977539 123.4387207 C-23.16279297 122.34140625 -23.16279297 122.34140625 -22.03344727 121.22192383 C-21.26194336 120.46717773 -20.49043945 119.71243164 -19.69555664 118.93481445 C-18.9356543 118.18393555 -18.17575195 117.43305664 -17.39282227 116.65942383 C-14.74875672 114.04751894 -12.09884145 111.44163449 -9.44482422 108.83984375 C-7.25481095 106.67673181 -5.21044328 104.48966871 -3.32055664 102.05981445 C-2.55743164 101.17293945 -1.79430664 100.28606445 -1.00805664 99.37231445 C-0.34805664 99.37231445 0.31194336 99.37231445 0.99194336 99.37231445 C0.99194336 98.71231445 0.99194336 98.05231445 0.99194336 97.37231445 C1.65194336 97.37231445 2.31194336 97.37231445 2.99194336 97.37231445 C2.99194336 96.71231445 2.99194336 96.05231445 2.99194336 95.37231445 C3.65194336 95.37231445 4.31194336 95.37231445 4.99194336 95.37231445 C4.99194336 94.71231445 4.99194336 94.05231445 4.99194336 93.37231445 C5.65194336 93.37231445 6.31194336 93.37231445 6.99194336 93.37231445 C7.22534424 92.8122168 7.45874512 92.25211914 7.69921875 91.67504883 C9.31674311 88.79374765 11.31551866 86.84184322 13.67553711 84.52856445 C14.60301758 83.61204102 15.53049805 82.69551758 16.48608398 81.7512207 C17.46685045 80.79122418 18.44797374 79.83159208 19.42944336 78.87231445 C21.34811326 76.99019367 23.26247263 75.10390463 25.17553711 73.21606445 C26.02688232 72.38268555 26.87822754 71.54930664 27.75537109 70.69067383 C30.00556947 68.46477658 30.00556947 68.46477658 31.66796875 66.06958008 C32.10488037 65.50948242 32.54179199 64.94938477 32.99194336 64.37231445 C33.65194336 64.37231445 34.31194336 64.37231445 34.99194336 64.37231445 C34.99194336 63.71231445 34.99194336 63.05231445 34.99194336 62.37231445 C35.65194336 62.37231445 36.31194336 62.37231445 36.99194336 62.37231445 C36.99194336 61.71231445 36.99194336 61.05231445 36.99194336 60.37231445 C37.65194336 60.37231445 38.31194336 60.37231445 38.99194336 60.37231445 C39.24717773 59.7896582 39.50241211 59.20700195 39.76538086 58.60668945 C41.10935423 56.15843222 42.61004632 54.55488198 44.61694336 52.62231445 C45.24858398 52.0087207 45.88022461 51.39512695 46.53100586 50.76293945 C47.01311523 50.3040332 47.49522461 49.84512695 47.99194336 49.37231445 C47.22266006 49.36866882 46.45337677 49.36502319 45.66078186 49.36126709 C38.37881556 49.32325781 31.09735358 49.26626023 23.81571293 49.18841171 C20.07292599 49.14905419 16.33037019 49.11680891 12.58740234 49.10131836 C8.96906304 49.08607354 5.35135965 49.05149234 1.73330498 49.00400543 C0.35921218 48.98927155 -1.01497146 48.98127807 -2.38914299 48.9804306 C-11.92599174 48.96864384 -19.30740946 48.23729103 -26.82055664 42.05981445 C-33.01792979 34.44589887 -34.85515049 28.13230884 -34.00805664 18.37231445 C-32.30088935 11.90247662 -27.6909878 6.76318727 -22.00805664 3.37231445 C-14.66117943 0.48201856 -7.82904904 -0.05582406 0 0 Z " fill="#09F808" transform="translate(336.008056640625,131.627685546875)"/>
<path d="M0 0 C1.73614815 -0.005476 1.73614815 -0.005476 3.50737 -0.01106262 C7.30576583 -0.01912081 11.10372872 -0.0055977 14.90209961 0.0090332 C17.55668226 0.00955234 20.2112489 0.00908459 22.86582947 0.00752258 C28.41776625 0.00664272 33.96958022 0.01765621 39.52148438 0.03613281 C45.91993588 0.05730617 52.31820781 0.06080622 58.71668726 0.05457085 C64.89967956 0.04885636 71.0826093 0.05454667 77.26559258 0.0657444 C79.88456406 0.06958352 82.50354091 0.07074998 85.12251472 0.06915855 C88.78620684 0.06878627 92.44962973 0.08145395 96.11328125 0.09765625 C97.18730194 0.09517883 98.26132263 0.09270142 99.3678894 0.09014893 C107.98662845 0.15074933 115.79305006 0.39146534 122.36694336 6.49731445 C123.17905273 7.22176758 123.99116211 7.9462207 124.82788086 8.69262695 C130.42752936 15.62648774 130.43914302 22.95354932 130.44018555 31.4921875 C130.45198349 32.68501343 130.46378143 33.87783936 130.47593689 35.10681152 C130.50504786 38.35662258 130.52114539 41.60616997 130.53098583 44.85608649 C130.54415755 48.26642066 130.57328931 51.67662171 130.60040283 55.08686829 C130.64360284 60.80869838 130.67576516 66.53050283 130.70043945 72.25244141 C130.73214232 79.58993666 130.78237633 86.92718389 130.83835983 94.26452923 C130.88641903 100.58624618 130.92569523 106.90801348 130.96371555 113.2297976 C130.97630098 115.25623466 130.99014156 117.28266024 131.00417328 119.30908775 C131.02861456 123.08626294 131.0460483 126.86340285 131.0612793 130.640625 C131.06951218 131.7602211 131.07774506 132.8798172 131.08622742 134.03334045 C131.08893143 135.06359344 131.09163544 136.09384644 131.09442139 137.15531921 C131.09882107 138.047364 131.10322075 138.93940878 131.10775375 139.85848522 C130.98824034 142.45269377 130.56622796 144.84299649 129.99194336 147.37231445 C129.66194336 147.37231445 129.33194336 147.37231445 128.99194336 147.37231445 C128.66194336 104.47231445 128.33194336 61.57231445 127.99194336 17.37231445 C126.34194336 16.71231445 124.69194336 16.05231445 122.99194336 15.37231445 C121.99194336 14.37231445 121.99194336 14.37231445 121.92944336 11.80981445 C121.95006836 11.00543945 121.97069336 10.20106445 121.99194336 9.37231445 C120.34194336 8.71231445 118.69194336 8.05231445 116.99194336 7.37231445 C116.99194336 6.71231445 116.99194336 6.05231445 116.99194336 5.37231445 C113.45953596 4.56890947 110.1980691 4.24512276 106.57839966 4.23860168 C105.50463074 4.2343367 104.43086182 4.23007172 103.32455444 4.22567749 C101.57267319 4.22635727 101.57267319 4.22635727 99.78540039 4.22705078 C98.54745728 4.22369217 97.30951416 4.22033356 96.03405762 4.21687317 C92.64554322 4.20900869 89.2570901 4.20569606 85.8685708 4.20505738 C83.74932119 4.20434556 81.63007795 4.20220873 79.51082993 4.19956017 C72.11113834 4.19031467 64.71146475 4.1862243 57.31176758 4.18701172 C50.42431837 4.18761235 43.53694752 4.17706137 36.64951813 4.16126806 C30.72748482 4.14817445 24.80547707 4.14282858 18.88342941 4.14346713 C15.35036008 4.14372157 11.81736043 4.14089994 8.28430557 4.13028908 C4.34193128 4.1187716 0.39966375 4.12336607 -3.54272461 4.12939453 C-4.70659698 4.12377502 -5.87046936 4.11815552 -7.0696106 4.11236572 C-12.7425251 4.13441018 -17.70775945 4.24719982 -23.00805664 6.37231445 C-25.30382908 8.88637756 -25.30382908 8.88637756 -27.00805664 11.37231445 C-27.66805664 11.37231445 -28.32805664 11.37231445 -29.00805664 11.37231445 C-29.15243164 12.13543945 -29.29680664 12.89856445 -29.44555664 13.68481445 C-30.00805664 16.37231445 -30.00805664 16.37231445 -31.00805664 19.37231445 C-31.632756 25.57125422 -30.67865245 29.80857319 -28.00805664 35.37231445 C-28.00805664 36.36231445 -28.00805664 37.35231445 -28.00805664 38.37231445 C-27.34805664 38.70231445 -26.68805664 39.03231445 -26.00805664 39.37231445 C-24.67472331 40.03898112 -23.34138997 40.70564779 -22.00805664 41.37231445 C-22.00805664 42.03231445 -22.00805664 42.69231445 -22.00805664 43.37231445 C-17.66053627 44.19865715 -13.52330766 44.51527143 -9.10058594 44.56176758 C-8.43807327 44.57006088 -7.77556061 44.57835419 -7.0929718 44.5868988 C-5.66564403 44.6041943 -4.23828953 44.61938893 -2.81091881 44.63267517 C-0.5543593 44.65382611 1.70206418 44.68083227 3.95854187 44.70935059 C9.55588939 44.77892417 15.15333261 44.83874433 20.75079346 44.89837646 C25.49469829 44.94923069 30.23852508 45.0039902 34.98232079 45.06419373 C37.2098143 45.09082047 39.43731506 45.11159322 41.66487122 45.13220215 C43.02039954 45.14879467 44.3759245 45.16566557 45.73144531 45.18286133 C47.51298759 45.20165344 47.51298759 45.20165344 49.33052063 45.2208252 C51.99194336 45.37231445 51.99194336 45.37231445 52.99194336 46.37231445 C53.03275119 48.37189809 53.03448692 50.37276699 52.99194336 52.37231445 C51.67194336 52.37231445 50.35194336 52.37231445 48.99194336 52.37231445 C48.89913086 53.48606445 48.89913086 53.48606445 48.80444336 54.62231445 C47.72387126 58.2796354 46.13982339 59.29757534 42.99194336 61.37231445 C41.32527669 62.03898112 39.65861003 62.70564779 37.99194336 63.37231445 C34.42335758 65.8793023 34.42335758 65.8793023 31.99194336 69.37231445 C31.33194336 69.04231445 30.67194336 68.71231445 29.99194336 68.37231445 C31.36694336 66.37231445 31.36694336 66.37231445 32.99194336 64.37231445 C33.65194336 64.37231445 34.31194336 64.37231445 34.99194336 64.37231445 C34.99194336 63.71231445 34.99194336 63.05231445 34.99194336 62.37231445 C35.65194336 62.37231445 36.31194336 62.37231445 36.99194336 62.37231445 C36.99194336 61.71231445 36.99194336 61.05231445 36.99194336 60.37231445 C37.65194336 60.37231445 38.31194336 60.37231445 38.99194336 60.37231445 C39.37479492 59.49833008 39.37479492 59.49833008 39.76538086 58.60668945 C41.10935423 56.15843222 42.61004632 54.55488198 44.61694336 52.62231445 C45.5644043 51.70192383 45.5644043 51.70192383 46.53100586 50.76293945 C47.01311523 50.3040332 47.49522461 49.84512695 47.99194336 49.37231445 C47.22266006 49.36866882 46.45337677 49.36502319 45.66078186 49.36126709 C38.37881556 49.32325781 31.09735358 49.26626023 23.81571293 49.18841171 C20.07292599 49.14905419 16.33037019 49.11680891 12.58740234 49.10131836 C8.96906304 49.08607354 5.35135965 49.05149234 1.73330498 49.00400543 C0.35921218 48.98927155 -1.01497146 48.98127807 -2.38914299 48.9804306 C-11.92599174 48.96864384 -19.30740946 48.23729103 -26.82055664 42.05981445 C-33.01792979 34.44589887 -34.85515049 28.13230884 -34.00805664 18.37231445 C-32.30088935 11.90247662 -27.6909878 6.76318727 -22.00805664 3.37231445 C-14.66117943 0.48201856 -7.82904904 -0.05582406 0 0 Z " fill="#6BDF6A" transform="translate(336.008056640625,131.627685546875)"/>
<path d="M0 0 C0 0.66 0 1.32 0 2 C-1.0725 2.226875 -2.145 2.45375 -3.25 2.6875 C-7.41293906 4.14452867 -8.50911465 5.49430951 -11 9 C-11.66 9 -12.32 9 -13 9 C-13.144375 9.763125 -13.28875 10.52625 -13.4375 11.3125 C-14 14 -14 14 -15 17 C-15.62469936 23.19893976 -14.67059581 27.43625874 -12 33 C-12 33.99 -12 34.98 -12 36 C-11.34 36.33 -10.68 36.66 -10 37 C-8.66666667 37.66666667 -7.33333333 38.33333333 -6 39 C-6 39.66 -6 40.32 -6 41 C-1.65247963 41.8263427 2.48474898 42.14295698 6.9074707 42.18945312 C7.56998337 42.19774643 8.23249603 42.20603973 8.91508484 42.21458435 C10.34241261 42.23187984 11.76976711 42.24707448 13.19713783 42.26036072 C15.45369734 42.28151166 17.71012082 42.30851782 19.96659851 42.33703613 C25.56394603 42.40660971 31.16138925 42.46642987 36.7588501 42.52606201 C41.50275493 42.57691624 46.24658172 42.63167575 50.99037743 42.69187927 C53.21787094 42.71850602 55.4453717 42.73927877 57.67292786 42.7598877 C59.02845618 42.77648021 60.38398114 42.79335111 61.73950195 42.81054688 C63.52104424 42.82933899 63.52104424 42.82933899 65.33857727 42.84851074 C68 43 68 43 69 44 C69.04080783 45.99958364 69.04254356 48.00045254 69 50 C67.68 50 66.36 50 65 50 C64.9071875 51.11375 64.9071875 51.11375 64.8125 52.25 C63.7319279 55.90732095 62.14788003 56.92526089 59 59 C57.33333333 59.66666667 55.66666667 60.33333333 54 61 C50.43141422 63.50698785 50.43141422 63.50698785 48 67 C47.34 66.67 46.68 66.34 46 66 C47.375 64 47.375 64 49 62 C49.66 62 50.32 62 51 62 C51 61.34 51 60.68 51 60 C51.66 60 52.32 60 53 60 C53 59.34 53 58.68 53 58 C53.66 58 54.32 58 55 58 C55.38285156 57.12601563 55.38285156 57.12601563 55.7734375 56.234375 C57.11741087 53.78611777 58.61810296 52.18256752 60.625 50.25 C61.57246094 49.32960938 61.57246094 49.32960938 62.5390625 48.390625 C63.02117187 47.93171875 63.50328125 47.4728125 64 47 C63.23071671 46.99635437 62.46143341 46.99270874 61.6688385 46.98895264 C54.3868722 46.95094336 47.10541022 46.89394578 39.82376957 46.81609726 C36.08098263 46.77673974 32.33842683 46.74449445 28.59545898 46.72900391 C24.97711968 46.71375909 21.35941629 46.67917789 17.74136162 46.63169098 C16.36726882 46.6169571 14.99308518 46.60896361 13.61891365 46.60811615 C4.0820649 46.59632939 -3.29935282 45.86497657 -10.8125 39.6875 C-17.00987315 32.07358441 -18.84709385 25.75999439 -18 16 C-16.21645591 9.24070871 -11.45348974 5.07241117 -6 1 C-4 0 -4 0 0 0 Z " fill="#65E055" transform="translate(320,134)"/>
<path d="M0 0 C0.66 0 1.32 0 2 0 C1.67 1.32 1.34 2.64 1 4 C0.34 4 -0.32 4 -1 4 C-1.24838623 4.73734375 -1.49677246 5.4746875 -1.75268555 6.234375 C-3.11894947 9.26374233 -4.59007624 10.93528678 -6.95703125 13.25 C-8.13168945 14.41015625 -8.13168945 14.41015625 -9.33007812 15.59375 C-10.14927734 16.3878125 -10.96847656 17.181875 -11.8125 18 C-12.62009766 18.7940625 -13.42769531 19.588125 -14.25976562 20.40625 C-15.81786993 21.93755644 -17.37871097 23.46608456 -18.94262695 24.99145508 C-22.24495084 28.21540413 -25.49882225 31.47551166 -28.6875 34.8125 C-31 37 -31 37 -33 37 C-33.268125 37.78375 -33.53625 38.5675 -33.8125 39.375 C-35 42 -35 42 -38 44 C-38.68268138 45.32520503 -39.3507041 46.65812182 -40 48 C-40.99 48.495 -40.99 48.495 -42 49 C-42.86765518 50.85014474 -42.86765518 50.85014474 -43.5625 53 C-44.91008174 56.91008174 -44.91008174 56.91008174 -46 58 C-46.37363272 61.36269446 -46.41047306 64.64060203 -46 68 C-44.12491838 70.2085766 -44.12491838 70.2085766 -42 72 C-41.25 75.75 -41.25 75.75 -41 79 C-39.3603125 79.185625 -39.3603125 79.185625 -37.6875 79.375 C-34 80 -34 80 -31 82 C-28.03157342 82.45915507 -28.03157342 82.45915507 -24.8125 82.625 C-23.72582031 82.69976562 -22.63914062 82.77453125 -21.51953125 82.8515625 C-20.68808594 82.90054688 -19.85664062 82.94953125 -19 83 C-19 82.34 -19 81.68 -19 81 C-17.35 81 -15.7 81 -14 81 C-14 80.34 -14 79.68 -14 79 C-13.01 79.33 -12.02 79.66 -11 80 C-18.07990536 84.98811514 -23.43067668 85.65824105 -32 85 C-38.4288042 83.07135874 -43.96234249 79.57788686 -47.328125 73.66796875 C-50.44774196 66.5170158 -51.08396287 60.775878 -48.8125 53.3125 C-46.07549551 46.84230189 -40.83218322 42.40825946 -35.80078125 37.6875 C-33.0204143 35.32060995 -33.0204143 35.32060995 -32 33 C-31.34 33 -30.68 33 -30 33 C-30 32.34 -30 31.68 -30 31 C-29.34 31 -28.68 31 -28 31 C-27.34 29.68 -26.68 28.36 -26 27 C-25.34 27 -24.68 27 -24 27 C-24 26.34 -24 25.68 -24 25 C-23.34 25 -22.68 25 -22 25 C-21.75902588 24.4323291 -21.51805176 23.8646582 -21.26977539 23.27978516 C-19.74577817 20.54356404 -17.92221708 18.71368193 -15.68359375 16.5234375 C-14.41418945 15.27046875 -14.41418945 15.27046875 -13.11914062 13.9921875 C-11.79172852 12.69667969 -11.79172852 12.69667969 -10.4375 11.375 C-8.68402618 9.65585815 -6.93261425 7.93460987 -5.18359375 6.2109375 C-4.40556396 5.45087402 -3.62753418 4.69081055 -2.82592773 3.90771484 C-0.93913872 2.12442375 -0.93913872 2.12442375 0 0 Z " fill="#3BE03B" transform="translate(78,293)"/>
<path d="M0 0 C0.66 0.33 1.32 0.66 2 1 C2.01030746 1.81574997 2.02061493 2.63149994 2.03123474 3.4719696 C2.12929228 11.16702601 2.23181832 18.86200387 2.33933926 26.5569334 C2.39445718 30.51278155 2.44785903 34.46863723 2.49731445 38.42456055 C2.54512264 42.24363761 2.59747072 46.06262814 2.65294075 49.88160133 C2.67328995 51.33718518 2.69201499 52.79279268 2.70907402 54.24841881 C2.73328345 56.29029237 2.76331417 58.33200479 2.79467773 60.3737793 C2.81022202 61.53515915 2.8257663 62.696539 2.84178162 63.89311218 C2.98497324 66.70492395 3.36085643 69.26343575 4 72 C4.66 72 5.32 72 6 72 C8.29648649 74.5614657 9 75.47967572 9 79 C9.66 79 10.32 79 11 79 C11 79.99 11 80.98 11 82 C15.4399676 84.1543038 19.47418774 84.41745846 24.3125 84.625 C25.05306641 84.66367187 25.79363281 84.70234375 26.55664062 84.7421875 C28.37071309 84.83581705 30.18532116 84.91896851 32 85 C32 84.34 32 83.68 32 83 C32.99 83 33.98 83 35 83 C35.495 81.515 35.495 81.515 36 80 C37.32 80.33 38.64 80.66 40 81 C33.94054941 86.34657405 28.6700214 87.38841687 20.76953125 87.26953125 C16.76398416 86.87971073 13.6548068 85.65500685 10 84 C10 83.34 10 82.68 10 82 C9.39542969 81.76023437 8.79085938 81.52046875 8.16796875 81.2734375 C5.52518455 79.7210994 4.73062511 78.31809563 3.3125 75.625 C2.89613281 74.85414063 2.47976563 74.08328125 2.05078125 73.2890625 C0.14688706 69.14154578 -0.13950019 65.49741545 -0.20532227 60.94628906 C-0.22526749 59.72532532 -0.24521271 58.50436157 -0.26576233 57.24639893 C-0.28247482 55.93274353 -0.29918732 54.61908813 -0.31640625 53.265625 C-0.33698919 51.90370064 -0.35798601 50.54178248 -0.37937927 49.17987061 C-0.43446165 45.60265128 -0.48393164 42.02537562 -0.53222656 38.44805908 C-0.58254289 34.79474906 -0.63817597 31.14152042 -0.69335938 27.48828125 C-0.80077162 20.32558983 -0.90225385 13.16283054 -1 6 C-1.78375 6.825 -2.5675 7.65 -3.375 8.5 C-6 11 -6 11 -8 11 C-8.268125 11.61875 -8.53625 12.2375 -8.8125 12.875 C-10 15 -10 15 -13 17 C-13.375 14.8125 -13.375 14.8125 -13 12 C-11.03814584 10.28859531 -9.03697617 8.62126675 -7 7 C-6.835 6.29875 -6.67 5.5975 -6.5 4.875 C-6 3 -6 3 -3.0625 1.1875 C-2.051875 0.795625 -1.04125 0.40375 0 0 Z " fill="#72E172" transform="translate(419,209)"/>
<path d="M0 0 C4.65024603 2.38678046 8.0043851 5.59519529 11.62329102 9.31713867 C12.27785278 9.97498856 12.93241455 10.63283844 13.60681152 11.31062317 C14.976057 12.6902234 16.34055162 14.07455385 17.70043945 15.46337891 C19.79240421 17.59980651 21.89779666 19.72223786 24.00610352 21.8425293 C25.33761923 23.18745417 26.6683766 24.53313035 27.99829102 25.87963867 C28.94496643 26.83739449 28.94496643 26.83739449 29.9107666 27.8144989 C34.27954102 32.28082751 34.27954102 32.28082751 34.27954102 33.39916992 C31.96954102 33.06916992 29.65954102 32.73916992 27.27954102 32.39916992 C26.94954102 30.74916992 26.61954102 29.09916992 26.27954102 27.39916992 C25.28954102 27.39916992 24.29954102 27.39916992 23.27954102 27.39916992 C23.27954102 26.07916992 23.27954102 24.75916992 23.27954102 23.39916992 C22.28954102 23.39916992 21.29954102 23.39916992 20.27954102 23.39916992 C20.27954102 22.73916992 20.27954102 22.07916992 20.27954102 21.39916992 C19.61954102 21.39916992 18.95954102 21.39916992 18.27954102 21.39916992 C16.15454102 19.52416992 16.15454102 19.52416992 14.27954102 17.39916992 C14.27954102 16.73916992 14.27954102 16.07916992 14.27954102 15.39916992 C13.66079102 15.15166992 13.04204102 14.90416992 12.40454102 14.64916992 C10.27954102 13.39916992 10.27954102 13.39916992 9.44750977 11.52416992 C6.98325403 7.04070799 1.90134423 5.11904094 -2.72045898 3.39916992 C-8.86300944 2.65313939 -14.6934986 3.0536677 -20.72045898 4.39916992 C-21.05045898 5.38916992 -21.38045898 6.37916992 -21.72045898 7.39916992 C-23.82983398 9.37182617 -23.82983398 9.37182617 -26.47045898 11.46166992 C-27.33155273 12.15389648 -28.19264648 12.84612305 -29.07983398 13.55932617 C-31.58328753 15.30359632 -33.84963819 16.402644 -36.72045898 17.39916992 C-35.18827213 13.76855325 -33.00214458 11.41279262 -30.22045898 8.64916992 C-29.42639648 7.84995117 -28.63233398 7.05073242 -27.81420898 6.22729492 C-25.72045898 4.39916992 -25.72045898 4.39916992 -23.72045898 4.39916992 C-23.72045898 3.73916992 -23.72045898 3.07916992 -23.72045898 2.39916992 C-16.07437385 -1.82977593 -8.22432517 -3.87167639 0 0 Z " fill="#40E144" transform="translate(189.720458984375,200.600830078125)"/>
<path d="M0 0 C1.32 0.33 2.64 0.66 4 1 C3.57589844 1.4125 3.15179688 1.825 2.71484375 2.25 C-0.4646303 5.38055907 -3.52860929 8.55273085 -6.4375 11.9375 C-10.90536857 17.11821951 -15.79686276 21.84809851 -20.6875 26.625 C-22.48710163 28.47323951 -24.07959557 30.30729361 -25.6875 32.3125 C-26.450625 33.199375 -27.21375 34.08625 -28 35 C-28.66 35 -29.32 35 -30 35 C-30 35.66 -30 36.32 -30 37 C-30.66 37 -31.32 37 -32 37 C-32 37.66 -32 38.32 -32 39 C-32.66 39 -33.32 39 -34 39 C-34 39.66 -34 40.32 -34 41 C-34.66 41 -35.32 41 -36 41 C-36.24927246 41.57524414 -36.49854492 42.15048828 -36.75537109 42.74316406 C-38.17873923 45.32410072 -39.81548786 47.04212237 -41.9140625 49.109375 C-42.67460937 49.86347656 -43.43515625 50.61757813 -44.21875 51.39453125 C-45.0128125 52.17183594 -45.806875 52.94914062 -46.625 53.75 C-47.42679688 54.54277344 -48.22859375 55.33554687 -49.0546875 56.15234375 C-51.03202846 58.10614493 -53.01388909 60.05512103 -55 62 C-55.495 60.515 -55.495 60.515 -56 59 C-55.67 58.34 -55.34 57.68 -55 57 C-54.01 57 -53.02 57 -52 57 C-52 56.01 -52 55.02 -52 54 C-51.360625 53.731875 -50.72125 53.46375 -50.0625 53.1875 C-47.66868314 52.11332248 -47.66868314 52.11332248 -47 49 C-46.34 49 -45.68 49 -45 49 C-44.67 48.01 -44.34 47.02 -44 46 C-42.824375 45.319375 -42.824375 45.319375 -41.625 44.625 C-38.58435602 42.74269658 -37.55389449 41.18548371 -36 38 C-35.87625 37.278125 -35.7525 36.55625 -35.625 35.8125 C-35.41875 35.214375 -35.2125 34.61625 -35 34 C-32.5 32.875 -32.5 32.875 -30 32 C-29.67 31.34 -29.34 30.68 -29 30 C-28.01 30 -27.02 30 -26 30 C-26 28.68 -26 27.36 -26 26 C-24.34151823 24.98648336 -22.67334039 23.98879205 -21 23 C-20.29875 21.948125 -19.5975 20.89625 -18.875 19.8125 C-18.25625 18.884375 -17.6375 17.95625 -17 17 C-16.01 17 -15.02 17 -14 17 C-13.505 15.515 -13.505 15.515 -13 14 C-12.01 14 -11.02 14 -10 14 C-10 12.68 -10 11.36 -10 10 C-8.57421875 8.4375 -8.57421875 8.4375 -6.6875 7 C-4.01331608 4.86714885 -1.89035494 2.89113109 0 0 Z " fill="#63DF5B" transform="translate(174,258)"/>
<path d="M0 0 C2.875 0.25 2.875 0.25 6 1 C6.69937532 2.31647119 7.36729133 3.65022151 8 5 C10.55519921 5.81171228 10.55519921 5.81171228 13 6 C13.66 7.98 14.32 9.96 15 12 C15.66 12 16.32 12 17 12 C17 12.99 17 13.98 17 15 C24.48020789 17.57515354 31.17743004 19.68717159 38.875 16.6875 C42.20041937 15.20697799 42.20041937 15.20697799 44 12 C47.125 11.8125 47.125 11.8125 50 12 C48.625 14 48.625 14 47 16 C46.34 16 45.68 16 45 16 C45 16.66 45 17.32 45 18 C37.89914932 21.84200617 31.59893569 23.57179424 23.6484375 21.33984375 C17.7954762 19.01676117 13.48096415 15.34339069 9 11 C8.0925 10.154375 7.185 9.30875 6.25 8.4375 C3.78238415 5.76424949 1.93141801 3.07596202 0 0 Z " fill="#74DC6E" transform="translate(248,324)"/>
<path d="M0 0 C2.0625 0.4375 2.0625 0.4375 4 1 C3.57589844 1.4125 3.15179688 1.825 2.71484375 2.25 C2.12832031 2.8275 1.54179688 3.405 0.9375 4 C0.36902344 4.556875 -0.19945312 5.11375 -0.78515625 5.6875 C-2.66397741 7.6491616 -4.43589625 9.64959833 -6.20703125 11.70703125 C-10.14791414 16.23954528 -14.35517893 20.46671397 -18.625 24.6875 C-19.36234375 25.42033203 -20.0996875 26.15316406 -20.859375 26.90820312 C-26.01358115 32.03008003 -26.01358115 32.03008003 -28.57641602 34.55004883 C-30.45069912 36.40113789 -32.13061189 38.17898667 -33.6875 40.3125 C-34.120625 40.869375 -34.55375 41.42625 -35 42 C-35.66 42 -36.32 42 -37 42 C-37 42.66 -37 43.32 -37 44 C-37.66 44 -38.32 44 -39 44 C-39 44.66 -39 45.32 -39 46 C-39.66 46 -40.32 46 -41 46 C-41 46.66 -41 47.32 -41 48 C-41.66 48 -42.32 48 -43 48 C-43 48.66 -43 49.32 -43 50 C-43.66 50 -44.32 50 -45 50 C-45 50.66 -45 51.32 -45 52 C-45.66 52 -46.32 52 -47 52 C-47 51.01 -47 50.02 -47 49 C-46.34 49 -45.68 49 -45 49 C-45 47.35 -45 45.7 -45 44 C-43.02 43.505 -43.02 43.505 -41 43 C-41 42.34 -41 41.68 -41 41 C-39.515 40.505 -39.515 40.505 -38 40 C-37.67 39.01 -37.34 38.02 -37 37 C-35.68 37 -34.36 37 -33 37 C-33 35.68 -33 34.36 -33 33 C-32.195625 32.731875 -31.39125 32.46375 -30.5625 32.1875 C-29.2940625 31.5996875 -29.2940625 31.5996875 -28 31 C-27.67 30.01 -27.34 29.02 -27 28 C-22.11730205 22.45747801 -22.11730205 22.45747801 -18 22 C-18 21.01 -18 20.02 -18 19 C-17.01 19 -16.02 19 -15 19 C-14.505 17.515 -14.505 17.515 -14 16 C-13.34 15.67 -12.68 15.34 -12 15 C-11.67 14.01 -11.34 13.02 -11 12 C-10.01 12 -9.02 12 -8 12 C-7.67 10.68 -7.34 9.36 -7 8 C-6.34 8 -5.68 8 -5 8 C-5 7.34 -5 6.68 -5 6 C-4.34 6 -3.68 6 -3 6 C-2.690625 5.195625 -2.38125 4.39125 -2.0625 3.5625 C-1 1 -1 1 0 0 Z " fill="#52DE4B" transform="translate(114,320)"/>
<path d="M0 0 C0.66 0 1.32 0 2 0 C1.67 1.32 1.34 2.64 1 4 C0.34 4 -0.32 4 -1 4 C-1.24838623 4.73734375 -1.49677246 5.4746875 -1.75268555 6.234375 C-3.11894947 9.26374233 -4.59007624 10.93528678 -6.95703125 13.25 C-7.74013672 14.0234375 -8.52324219 14.796875 -9.33007812 15.59375 C-10.14927734 16.3878125 -10.96847656 17.181875 -11.8125 18 C-12.62009766 18.7940625 -13.42769531 19.588125 -14.25976562 20.40625 C-15.81786993 21.93755644 -17.37871097 23.46608456 -18.94262695 24.99145508 C-22.24495084 28.21540413 -25.49882225 31.47551166 -28.6875 34.8125 C-31 37 -31 37 -33 37 C-33.226875 37.804375 -33.45375 38.60875 -33.6875 39.4375 C-34.120625 40.283125 -34.55375 41.12875 -35 42 C-37.625 42.8125 -37.625 42.8125 -40 43 C-39.59007812 42.52949219 -39.18015625 42.05898438 -38.7578125 41.57421875 C-38.21898437 40.95160156 -37.68015625 40.32898438 -37.125 39.6875 C-36.32449219 38.76517578 -36.32449219 38.76517578 -35.5078125 37.82421875 C-33.8359553 35.86501788 -33.8359553 35.86501788 -32 33 C-31.34 33 -30.68 33 -30 33 C-30 32.34 -30 31.68 -30 31 C-29.34 31 -28.68 31 -28 31 C-27.34 29.68 -26.68 28.36 -26 27 C-25.34 27 -24.68 27 -24 27 C-24 26.34 -24 25.68 -24 25 C-23.34 25 -22.68 25 -22 25 C-21.75902588 24.4323291 -21.51805176 23.8646582 -21.26977539 23.27978516 C-19.74577817 20.54356404 -17.92221708 18.71368193 -15.68359375 16.5234375 C-14.83732422 15.688125 -13.99105469 14.8528125 -13.11914062 13.9921875 C-11.79172852 12.69667969 -11.79172852 12.69667969 -10.4375 11.375 C-8.68402618 9.65585815 -6.93261425 7.93460987 -5.18359375 6.2109375 C-4.40556396 5.45087402 -3.62753418 4.69081055 -2.82592773 3.90771484 C-0.93913872 2.12442375 -0.93913872 2.12442375 0 0 Z " fill="#65E35F" transform="translate(78,293)"/>
<path d="M0 0 C0.33 0 0.66 0 1 0 C1.11681758 16.34194598 1.20498018 32.68375646 1.25906086 49.0260191 C1.28483929 56.61408638 1.31998245 64.20189419 1.37719727 71.78979492 C1.42704385 78.40366677 1.45929366 85.0173507 1.47044247 91.63140517 C1.47695929 95.13339457 1.49226675 98.6348464 1.52865028 102.13666344 C1.56894369 106.04653347 1.5699486 109.95587829 1.56762695 113.8659668 C1.58560333 115.02618347 1.60357971 116.18640015 1.62210083 117.3817749 C1.56582548 126.11830623 1.56582548 126.11830623 -1.53547668 129.25837708 C-2.34876938 129.83311264 -3.16206207 130.40784821 -4 131 C-3.5020163 127.26512223 -3.12508244 125.18762365 -1 122 C-0.68885783 119.65708709 -0.68885783 119.65708709 -0.7215271 117.00764465 C-0.71036362 115.97699387 -0.69920013 114.94634308 -0.68769836 113.88446045 C-0.68445808 112.18945404 -0.68445808 112.18945404 -0.68115234 110.46020508 C-0.67110672 109.26983139 -0.6610611 108.0794577 -0.65071106 106.85301208 C-0.62509655 103.58882282 -0.60825507 100.3247285 -0.59528303 97.06046891 C-0.57966235 93.64912342 -0.55286877 90.2378663 -0.5272522 86.82658386 C-0.48044551 80.36684454 -0.4437106 73.90708863 -0.41057932 67.44726628 C-0.37237124 60.09298947 -0.32295767 52.73880138 -0.27259517 45.38459933 C-0.16924725 30.2564651 -0.07999619 15.12827708 0 0 Z " fill="#2ED42C" transform="translate(464,157)"/>
<path d="M0 0 C0.33 1.32 0.66 2.64 1 4 C1.66 4 2.32 4 3 4 C4.68732277 5.98260426 6.35366057 7.9832342 8 10 C8.66 10.33 9.32 10.66 10 11 C10 11.66 10 12.32 10 13 C10.66 13 11.32 13 12 13 C12 13.66 12 14.32 12 15 C12.66 15 13.32 15 14 15 C14 15.99 14 16.98 14 18 C14.66 18 15.32 18 16 18 C16 18.99 16 19.98 16 21 C16.7425 21.226875 17.485 21.45375 18.25 21.6875 C21.54618078 23.26067719 22.81688828 25.1126587 25 28 C25.7425 28.53625 26.485 29.0725 27.25 29.625 C27.8275 30.07875 28.405 30.5325 29 31 C29 31.99 29 32.98 29 34 C29.61875 34.103125 30.2375 34.20625 30.875 34.3125 C33 35 33 35 35 38 C34.67 38.99 34.34 39.98 34 41 C32.49403892 39.54782324 30.99537896 38.08807139 29.5 36.625 C28.6646875 35.81289063 27.829375 35.00078125 26.96875 34.1640625 C25 32 25 32 25 30 C24.34 30 23.68 30 23 30 C23 29.34 23 28.68 23 28 C22.34 28 21.68 28 21 28 C21 27.34 21 26.68 21 26 C20.34 26 19.68 26 19 26 C19 25.34 19 24.68 19 24 C18.34 24 17.68 24 17 24 C17 23.34 17 22.68 17 22 C16.360625 21.731875 15.72125 21.46375 15.0625 21.1875 C13 20 13 20 12 17 C11.34 17 10.68 17 10 17 C10 16.34 10 15.68 10 15 C9.34 15 8.68 15 8 15 C8 14.34 8 13.68 8 13 C7.34 13 6.68 13 6 13 C6 12.34 6 11.68 6 11 C5.34 11 4.68 11 4 11 C2.2734375 9.25 2.2734375 9.25 0.375 7 C-0.25664062 6.2575 -0.88828125 5.515 -1.5390625 4.75 C-2.02117187 4.1725 -2.50328125 3.595 -3 3 C-3.99 3.33 -4.98 3.66 -6 4 C-6 3.01 -6 2.02 -6 1 C-3.92446352 0.4465236 -2.15634036 0 0 0 Z " fill="#7AE276" transform="translate(184,254)"/>
<path d="M0 0 C1.32 0.33 2.64 0.66 4 1 C-6.56 11.56 -17.12 22.12 -28 33 C-28.33 31.68 -28.66 30.36 -29 29 C-27.6875 27.25 -27.6875 27.25 -26 26 C-25.34 26 -24.68 26 -24 26 C-24 25.34 -24 24.68 -24 24 C-22.5390625 22.4921875 -22.5390625 22.4921875 -20.625 20.875 C-19.99851562 20.33617187 -19.37203125 19.79734375 -18.7265625 19.2421875 C-17 18 -17 18 -15 18 C-14.87625 17.443125 -14.7525 16.88625 -14.625 16.3125 C-13.3502084 11.59577107 -12.34785166 8.58153692 -8 6 C-7.34 6 -6.68 6 -6 6 C-6 5.34 -6 4.68 -6 4 C-5.195625 3.71125 -4.39125 3.4225 -3.5625 3.125 C-0.8673532 2.26737432 -0.8673532 2.26737432 0 0 Z " fill="#54DD4D" transform="translate(402,226)"/>
<path d="M0 0 C-0.69150146 0.68626465 -1.38300293 1.3725293 -2.09545898 2.07958984 C-4.65674174 4.62279269 -7.21473009 7.16928709 -9.77172852 9.71679688 C-10.8795536 10.81958861 -11.98827393 11.92148176 -13.09790039 13.02246094 C-14.6913208 14.60377221 -16.28150948 16.18827124 -17.87109375 17.7734375 C-18.61799721 18.51259903 -18.61799721 18.51259903 -19.37998962 19.26669312 C-22.02334742 21.88137668 -22.02334742 21.88137668 -24 25 C-24.66 25 -25.32 25 -26 25 C-25.67 23.35 -25.34 21.7 -25 20 C-24.01 20 -23.02 20 -22 20 C-21.67 18.68 -21.34 17.36 -21 16 C-20.34 16 -19.68 16 -19 16 C-18.814375 14.2984375 -18.814375 14.2984375 -18.625 12.5625 C-18.41875 11.386875 -18.2125 10.21125 -18 9 C-17.34 8.67 -16.68 8.34 -16 8 C-15.34 8.33 -14.68 8.66 -14 9 C-14 8.34 -14 7.68 -14 7 C-9.64705882 3 -9.64705882 3 -6 3 C-6 2.01 -6 1.02 -6 0 C-3.50907189 -1.24546405 -2.58919267 -0.7767578 0 0 Z " fill="#27ED1F" transform="translate(362,272)"/>
<path d="M0 0 C0 0.66 0 1.32 0 2 C-1.0725 2.226875 -2.145 2.45375 -3.25 2.6875 C-7.41293906 4.14452867 -8.50911465 5.49430951 -11 9 C-11.66 9 -12.32 9 -13 9 C-13.144375 9.763125 -13.28875 10.52625 -13.4375 11.3125 C-14 14 -14 14 -15 17 C-15.62469936 23.19893976 -14.67059581 27.43625874 -12 33 C-12 33.99 -12 34.98 -12 36 C-10.0162864 37.02863254 -10.0162864 37.02863254 -7.9375 37.8125 C-6 39 -6 39 -5.25 41.125 C-5.12625 42.053125 -5.12625 42.053125 -5 43 C-10.83742516 40.62178975 -14.6716193 35.98046283 -17.26953125 30.37109375 C-19.13869324 24.30381393 -19.04514807 17.53906811 -16.5 11.6875 C-12.96631306 5.61159223 -7.16726304 0 0 0 Z " fill="#5DD457" transform="translate(320,134)"/>
<path d="M0 0 C0.33 0.99 0.66 1.98 1 3 C0.01 4.485 0.01 4.485 -1 6 C-1.66 6 -2.32 6 -3 6 C-3.33 6.99 -3.66 7.98 -4 9 C-4.66 9 -5.32 9 -6 9 C-6.33 9.99 -6.66 10.98 -7 12 C-7.66 12 -8.32 12 -9 12 C-9 13.98 -9 15.96 -9 18 C-10.03125 18.4125 -11.0625 18.825 -12.125 19.25 C-18.05732815 21.81468328 -22.03198913 24.89827173 -26 30 C-26.66 30 -27.32 30 -28 30 C-28.33 30.99 -28.66 31.98 -29 33 C-29.66 32.67 -30.32 32.34 -31 32 C-30.01 30.515 -30.01 30.515 -29 29 C-28.34 29 -27.68 29 -27 29 C-26.61328125 28.12601562 -26.61328125 28.12601562 -26.21875 27.234375 C-24.90165983 24.8197097 -23.44911616 23.18259823 -21.5 21.25 C-20.8915625 20.63640625 -20.283125 20.0228125 -19.65625 19.390625 C-18 18 -18 18 -16 18 C-16 17.34 -16 16.68 -16 16 C-15.34 16 -14.68 16 -14 16 C-13.79632813 15.46890625 -13.59265625 14.9378125 -13.3828125 14.390625 C-11.40494391 10.97125896 -8.69673101 8.48662079 -5.875 5.75 C-5.31167969 5.19570313 -4.74835938 4.64140625 -4.16796875 4.0703125 C-2.78313972 2.70895515 -1.39216796 1.35385141 0 0 Z " fill="#4BE348" transform="translate(111,260)"/>
<path d="M0 0 C5.98527736 4.92757056 11.46310225 10.30948225 16.92749023 15.79711914 C18.45507121 17.33013372 19.98802081 18.85763767 21.52148438 20.38476562 C22.49250893 21.35644973 23.46322392 22.32844331 24.43359375 23.30078125 C25.31072021 24.17903564 26.18784668 25.05729004 27.09155273 25.9621582 C29 28 29 28 29 29 C26.69 28.67 24.38 28.34 22 28 C21.505 25.525 21.505 25.525 21 23 C20.01 23 19.02 23 18 23 C18 21.68 18 20.36 18 19 C17.01 19 16.02 19 15 19 C15 18.34 15 17.68 15 17 C14.34 17 13.68 17 13 17 C10.875 15.125 10.875 15.125 9 13 C9 12.34 9 11.68 9 11 C8.38125 10.7525 7.7625 10.505 7.125 10.25 C4.5927804 8.76045906 4.19281342 7.62418952 3 5 C2.46375 4.46375 1.9275 3.9275 1.375 3.375 C0.92125 2.92125 0.4675 2.4675 0 2 C0 1.34 0 0.68 0 0 Z " fill="#45DA49" transform="translate(195,205)"/>
<path d="M0 0 C0.33 0 0.66 0 1 0 C0.67 3.3 0.34 6.6 0 10 C-0.99 10 -1.98 10 -3 10 C-3.33 10.33 -3.66 10.66 -4 11 C-4.66 11.66 -5.32 12.32 -6 13 C-7.32 13 -8.64 13 -10 13 C-10.1546875 14.1446875 -10.1546875 14.1446875 -10.3125 15.3125 C-11.07248389 18.28334611 -11.49748912 19.27413043 -14 21 C-17.1875 21.6875 -17.1875 21.6875 -20 22 C-18.56177525 18.58139248 -16.78464276 16.72092162 -13.9375 14.375 C-11.02124288 12.04514448 -11.02124288 12.04514448 -9 9 C-8.34 9 -7.68 9 -7 9 C-7 8.34 -7 7.68 -7 7 C-6.34 7 -5.68 7 -5 7 C-5 6.34 -5 5.68 -5 5 C-4.34 5 -3.68 5 -3 5 C-3 4.34 -3 3.68 -3 3 C-2.34 3 -1.68 3 -1 3 C-0.67 2.01 -0.34 1.02 0 0 Z " fill="#43E441" transform="translate(344,222)"/>
<path d="M0 0 C1.15224028 0.92961422 2.29659176 1.8690125 3.4375 2.8125 C4.07558594 3.33457031 4.71367187 3.85664063 5.37109375 4.39453125 C7 6 7 6 8 9 C8.66 9 9.32 9 10 9 C10 9.66 10 10.32 10 11 C10.66 11 11.32 11 12 11 C12 11.66 12 12.32 12 13 C12.66 13 13.32 13 14 13 C14 13.66 14 14.32 14 15 C14.639375 15.268125 15.27875 15.53625 15.9375 15.8125 C18 17 18 17 19 20 C19.66 20 20.32 20 21 20 C21 20.66 21 21.32 21 22 C21.66 22 22.32 22 23 22 C24.38938077 23.96147874 25.7260411 25.96166576 27 28 C25.0625 27.6875 25.0625 27.6875 23 27 C22.67 26.01 22.34 25.02 22 24 C21.360625 23.855625 20.72125 23.71125 20.0625 23.5625 C19.381875 23.376875 18.70125 23.19125 18 23 C17.71125 22.360625 17.4225 21.72125 17.125 21.0625 C16.75375 20.381875 16.3825 19.70125 16 19 C15.01 18.71125 14.02 18.4225 13 18.125 C12.01 17.75375 11.02 17.3825 10 17 C8.75 13.9375 8.75 13.9375 8 11 C7.34 10.67 6.68 10.34 6 10 C4.9935725 8.33720673 3.99414593 6.67016516 3 5 C2.443125 4.443125 1.88625 3.88625 1.3125 3.3125 C0.879375 2.879375 0.44625 2.44625 0 2 C0 1.34 0 0.68 0 0 Z " fill="#53E65A" transform="translate(242,252)"/>
<path d="M0 0 C8.36628849 7.05024311 8.36628849 7.05024311 11 10 C11 10.66 11 11.32 11 12 C11.66 12 12.32 12 13 12 C13 12.66 13 13.32 13 14 C13.66 14 14.32 14 15 14 C15 14.66 15 15.32 15 16 C15.99 16.33 16.98 16.66 18 17 C17.01 17.33 16.02 17.66 15 18 C13 16.66666667 11 15.33333333 9 14 C9 13.34 9 12.68 9 12 C7.02 12.33 5.04 12.66 3 13 C2.4375 11.0625 2.4375 11.0625 2 9 C2.33 8.67 2.66 8.34 3 8 C2.01 7.34 1.02 6.68 0 6 C-0.1875 2.875 -0.1875 2.875 0 0 Z " fill="#13EF17" transform="translate(224,234)"/>
<path d="M0 0 C0.33 0.99 0.66 1.98 1 3 C-0.61849065 4.83946539 -2.24418831 6.67151417 -3.875 8.5 C-4.33519531 9.02464844 -4.79539063 9.54929688 -5.26953125 10.08984375 C-6.47172076 11.43141755 -7.73245946 12.71999185 -9 14 C-9.66 14 -10.32 14 -11 14 C-11.33 14.99 -11.66 15.98 -12 17 C-12.66 17 -13.32 17 -14 17 C-14.3403125 17.928125 -14.3403125 17.928125 -14.6875 18.875 C-16.37929835 21.61410209 -17.99244161 22.05024472 -21 23 C-16.85220343 17.11759921 -12.27349454 12.0187844 -7.125 7 C-6.43664062 6.32066406 -5.74828125 5.64132813 -5.0390625 4.94140625 C-3.36392154 3.28953114 -1.6842664 1.64256075 0 0 Z " fill="#53DF54" transform="translate(143,227)"/>
<path d="M0 0 C2.0625 0.4375 2.0625 0.4375 4 1 C3.57589844 1.4125 3.15179688 1.825 2.71484375 2.25 C-0.42315007 5.33971699 -3.44929817 8.46528072 -6.3125 11.8125 C-10.60803358 16.80434154 -15.30360098 21.38864644 -20 26 C-20.33 24.68 -20.66 23.36 -21 22 C-20.01 22 -19.02 22 -18 22 C-18 21.01 -18 20.02 -18 19 C-17.01 19 -16.02 19 -15 19 C-14.67 18.01 -14.34 17.02 -14 16 C-13.34 15.67 -12.68 15.34 -12 15 C-11.67 14.01 -11.34 13.02 -11 12 C-10.01 12 -9.02 12 -8 12 C-7.67 10.68 -7.34 9.36 -7 8 C-6.34 8 -5.68 8 -5 8 C-5 7.34 -5 6.68 -5 6 C-4.34 6 -3.68 6 -3 6 C-2.690625 5.195625 -2.38125 4.39125 -2.0625 3.5625 C-1 1 -1 1 0 0 Z " fill="#68DF65" transform="translate(114,320)"/>
<path d="M0 0 C3.125 -0.1875 3.125 -0.1875 6 0 C4.625 2 4.625 2 3 4 C2.34 4 1.68 4 1 4 C1 4.66 1 5.32 1 6 C-2.88014478 8.5798835 -7.00977874 8.36737653 -11.5 8.375 C-12.63888672 8.41173828 -12.63888672 8.41173828 -13.80078125 8.44921875 C-17.54841796 8.46890861 -19.55802467 8.35330744 -22.53125 5.9765625 C-23.0159375 5.32429688 -23.500625 4.67203125 -24 4 C-23.01 4.33 -22.02 4.66 -21 5 C-13.96048195 6.97276816 -8.43687527 6.47591265 -2 3 C-1.34 2.01 -0.68 1.02 0 0 Z " fill="#1FE220" transform="translate(292,336)"/>
<path d="M0 0 C0.66 0 1.32 0 2 0 C1.67 1.32 1.34 2.64 1 4 C0.34 4 -0.32 4 -1 4 C-1.2582959 4.74725342 -1.5165918 5.49450684 -1.78271484 6.2644043 C-3.04291157 9.09643486 -4.27341167 10.62239273 -6.4765625 12.76953125 C-7.146875 13.43017578 -7.8171875 14.09082031 -8.5078125 14.77148438 C-9.20648438 15.44501953 -9.90515625 16.11855469 -10.625 16.8125 C-11.33140625 17.50537109 -12.0378125 18.19824219 -12.765625 18.91210938 C-14.50381806 20.61506879 -16.24863061 22.31061192 -18 24 C-18 21 -18 21 -16.1875 19.125 C-15.465625 18.42375 -14.74375 17.7225 -14 17 C-13.56558594 16.23816406 -13.13117188 15.47632813 -12.68359375 14.69140625 C-10.74598712 11.59393301 -8.5032018 9.34492185 -5.875 6.8125 C-2.50698232 3.72499837 -2.50698232 3.72499837 0 0 Z " fill="#4FE24C" transform="translate(78,293)"/>
<path d="M0 0 C0.33 1.32 0.66 2.64 1 4 C1.66 4 2.32 4 3 4 C4.68732277 5.98260426 6.35366057 7.9832342 8 10 C8.66 10.33 9.32 10.66 10 11 C10 11.66 10 12.32 10 13 C10.66 13 11.32 13 12 13 C12 13.66 12 14.32 12 15 C12.66 15 13.32 15 14 15 C14 15.99 14 16.98 14 18 C12.68 17.67 11.36 17.34 10 17 C10 16.34 10 15.68 10 15 C9.34 15 8.68 15 8 15 C8 14.34 8 13.68 8 13 C7.34 13 6.68 13 6 13 C6 12.34 6 11.68 6 11 C5.34 11 4.68 11 4 11 C2.2734375 9.25 2.2734375 9.25 0.375 7 C-0.25664062 6.2575 -0.88828125 5.515 -1.5390625 4.75 C-2.02117187 4.1725 -2.50328125 3.595 -3 3 C-3.99 3.33 -4.98 3.66 -6 4 C-6 3.01 -6 2.02 -6 1 C-3.92446352 0.4465236 -2.15634036 0 0 0 Z " fill="#62DC60" transform="translate(184,254)"/>
<path d="M0 0 C1.4550293 0.01353516 1.4550293 0.01353516 2.93945312 0.02734375 C5.31406407 0.05073893 7.68814776 0.08351824 10.0625 0.125 C6.73875936 2.34082709 6.00215751 2.30611134 2.1875 2.125 C-4.33228051 1.98535276 -10.5338012 2.98475475 -16.9375 4.125 C-17.2675 5.115 -17.5975 6.105 -17.9375 7.125 C-16.6175 7.125 -15.2975 7.125 -13.9375 7.125 C-13.9375 7.785 -13.9375 8.445 -13.9375 9.125 C-16.3125 9.3125 -16.3125 9.3125 -18.9375 9.125 C-19.5975 8.135 -20.2575 7.145 -20.9375 6.125 C-19.2792888 3.19874493 -18.17901334 2.21749447 -15 1 C-10.0521555 -0.30088387 -5.07926975 -0.09026727 0 0 Z " fill="#11ED14" transform="translate(330.9375,134.875)"/>
<path d="M0 0 C0.99 0 1.98 0 3 0 C3 0.66 3 1.32 3 2 C2.34 2 1.68 2 1 2 C0.75072754 2.57524414 0.50145508 3.15048828 0.24462891 3.74316406 C-1.17873923 6.32410072 -2.81548786 8.04212237 -4.9140625 10.109375 C-5.67460937 10.86347656 -6.43515625 11.61757813 -7.21875 12.39453125 C-8.0128125 13.17183594 -8.806875 13.94914062 -9.625 14.75 C-10.42679688 15.54277344 -11.22859375 16.33554687 -12.0546875 17.15234375 C-14.03202846 19.10614493 -16.01388909 21.05512103 -18 23 C-18.33 22.01 -18.66 21.02 -19 20 C-18.67 19.34 -18.34 18.68 -18 18 C-17.01 18 -16.02 18 -15 18 C-15 17.01 -15 16.02 -15 15 C-14.0409375 14.5978125 -14.0409375 14.5978125 -13.0625 14.1875 C-10.66868314 13.11332248 -10.66868314 13.11332248 -10 10 C-9.34 10 -8.68 10 -8 10 C-7.67 9.01 -7.34 8.02 -7 7 C-5.7934375 6.2884375 -5.7934375 6.2884375 -4.5625 5.5625 C-1.84333111 3.90447019 -1.10592885 2.91563061 0 0 Z " fill="#62DF60" transform="translate(137,297)"/>
<path d="M0 0 C0.66 0.33 1.32 0.66 2 1 C1.7834375 1.55429687 1.566875 2.10859375 1.34375 2.6796875 C1.0653125 3.40414063 0.786875 4.12859375 0.5 4.875 C0.2215625 5.59429687 -0.056875 6.31359375 -0.34375 7.0546875 C-1.10655018 8.97367461 -1.10655018 8.97367461 -1 11 C-2.5778125 11.0928125 -2.5778125 11.0928125 -4.1875 11.1875 C-8.6291735 12.13408616 -10.11593757 13.59156258 -13 17 C-13.66 16.67 -14.32 16.34 -15 16 C-13.71937515 14.2925002 -12.38232443 12.62626404 -11 11 C-10.34 11 -9.68 11 -9 11 C-8.74476563 10.41734375 -8.48953125 9.8346875 -8.2265625 9.234375 C-6.88258913 6.78611777 -5.38189704 5.18256752 -3.375 3.25 C-2.74335938 2.63640625 -2.11171875 2.0228125 -1.4609375 1.390625 C-0.73777344 0.70226562 -0.73777344 0.70226562 0 0 Z " fill="#45EB41" transform="translate(302,265)"/>
<path d="M0 0 C0.45890625 0.40992188 0.9178125 0.81984375 1.390625 1.2421875 C2.00421875 1.78101563 2.6178125 2.31984375 3.25 2.875 C3.85328125 3.40867187 4.4565625 3.94234375 5.078125 4.4921875 C7.22227187 6.27800279 7.22227187 6.27800279 11 8 C13.31 6.02 15.62 4.04 18 2 C17.7181109 5.38266921 17.16935563 6.81072018 14.875 9.375 C12 11 12 11 8.4375 11.0625 C4.34186973 9.79657792 3.16029898 8.65589059 1 5 C0.25 2.1875 0.25 2.1875 0 0 Z " fill="#4DDA48" transform="translate(269,280)"/>
<path d="M0 0 C-1.25771976 4.91845716 -2.78673303 7.18389862 -6.8125 10.25 C-7.66457031 10.91515625 -8.51664063 11.5803125 -9.39453125 12.265625 C-11.87977228 13.91996836 -14.19242013 15.01205448 -17 16 C-15.46781315 12.36938333 -13.2816856 10.0136227 -10.5 7.25 C-9.30890625 6.05117187 -9.30890625 6.05117187 -8.09375 4.828125 C-6 3 -6 3 -4 3 C-4 2.34 -4 1.68 -4 1 C-2 0 -2 0 0 0 Z " fill="#59E45B" transform="translate(170,202)"/>
<path d="M0 0 C3.61825854 0.30341791 5.57690473 2.10981146 8.1875 4.5 C9.22970703 5.44359375 9.22970703 5.44359375 10.29296875 6.40625 C11.20642319 7.25908619 12.11633474 8.11633474 13 9 C13.04080783 10.99958364 13.04254356 13.00045254 13 15 C10.5 13.8125 10.5 13.8125 8 12 C7.6875 9.3125 7.6875 9.3125 8 7 C5.525 6.01 5.525 6.01 3 5 C3 4.34 3 3.68 3 3 C1.35 2.67 -0.3 2.34 -2 2 C-1.34 1.34 -0.68 0.68 0 0 Z " fill="#2EE233" transform="translate(450,134)"/>
<path d="M0 0 C2.875 0.25 2.875 0.25 6 1 C6.69937532 2.31647119 7.36729133 3.65022151 8 5 C10.55519921 5.81171228 10.55519921 5.81171228 13 6 C13.66 7.98 14.32 9.96 15 12 C15.66 12 16.32 12 17 12 C16.67 12.99 16.34 13.98 16 15 C14.62437146 13.71034824 13.29233607 12.37310707 12 11 C12 10.34 12 9.68 12 9 C11.278125 8.9175 10.55625 8.835 9.8125 8.75 C5.59655872 7.62574899 2.88832892 5.52284957 0.6875 1.75 C0.3471875 0.88375 0.3471875 0.88375 0 0 Z " fill="#2DE32C" transform="translate(248,324)"/>
<path d="M0 0 C1.32 0 2.64 0 4 0 C4 0.99 4 1.98 4 3 C4.99 3 5.98 3 7 3 C7.33 4.32 7.66 5.64 8 7 C9.32 7.33 10.64 7.66 12 8 C12 8.66 12 9.32 12 10 C12.99 10.33 13.98 10.66 15 11 C15.33 11.99 15.66 12.98 16 14 C16.99 14.66 17.98 15.32 19 16 C18.67 16.99 18.34 17.98 18 19 C14.99599642 16.02484693 11.99747845 13.04422593 9 10.0625 C8.14148438 9.21236328 7.28296875 8.36222656 6.3984375 7.48632812 C5.58632812 6.67744141 4.77421875 5.86855469 3.9375 5.03515625 C3.18339844 4.2862915 2.42929688 3.53742676 1.65234375 2.76586914 C0 1 0 1 0 0 Z " fill="#62DE5E" transform="translate(229,305)"/>
<path d="M0 0 C0 0.66 0 1.32 0 2 C-0.66 2 -1.32 2 -2 2 C-2 2.66 -2 3.32 -2 4 C-2.66 4 -3.32 4 -4 4 C-4 4.66 -4 5.32 -4 6 C-4.66 6 -5.32 6 -6 6 C-6.25523437 6.58265625 -6.51046875 7.1653125 -6.7734375 7.765625 C-8.11741087 10.21388223 -9.61810296 11.81743248 -11.625 13.75 C-12.57246094 14.67039062 -12.57246094 14.67039062 -13.5390625 15.609375 C-14.02117187 16.06828125 -14.50328125 16.5271875 -15 17 C-15.66 15.68 -16.32 14.36 -17 13 C-15.68 13 -14.36 13 -13 13 C-13 11.68 -13 10.36 -13 9 C-12.01 9 -11.02 9 -10 9 C-9.34 7.68 -8.68 6.36 -8 5 C-7.01 5 -6.02 5 -5 5 C-5 3.68 -5 2.36 -5 1 C-3 0 -3 0 0 0 Z " fill="#5DE252" transform="translate(314,319)"/>
<path d="M0 0 C0.33 0.99 0.66 1.98 1 3 C-0.14453125 4.82421875 -0.14453125 4.82421875 -1.8125 6.6875 C-2.35519531 7.31011719 -2.89789063 7.93273437 -3.45703125 8.57421875 C-5 10 -5 10 -7 10 C-7 10.66 -7 11.32 -7 12 C-7.66 12 -8.32 12 -9 12 C-9 12.66 -9 13.32 -9 14 C-10.32 13.67 -11.64 13.34 -13 13 C-12.8125 11.125 -12.8125 11.125 -12 9 C-9.5 7.875 -9.5 7.875 -7 7 C-6.67 6.34 -6.34 5.68 -6 5 C-5.01 5 -4.02 5 -3 5 C-3 3.68 -3 2.36 -3 1 C-2.01 0.67 -1.02 0.34 0 0 Z " fill="#57DD4F" transform="translate(151,283)"/>
<path d="M0 0 C0.33 1.32 0.66 2.64 1 4 C0.38125 4.2475 -0.2375 4.495 -0.875 4.75 C-3.12149669 5.79847302 -3.12149669 5.79847302 -3.84765625 7.8515625 C-5.3097802 10.5775563 -7.07320913 11.81097423 -9.5625 13.625 C-12.80810703 15.86379366 -12.80810703 15.86379366 -15 19 C-15.66 18.67 -16.32 18.34 -17 18 C-15.625 16 -15.625 16 -14 14 C-13.34 14 -12.68 14 -12 14 C-12 13.34 -12 12.68 -12 12 C-11.34 12 -10.68 12 -10 12 C-10 11.34 -10 10.68 -10 10 C-9.34 10 -8.68 10 -8 10 C-7.79375 9.46375 -7.5875 8.9275 -7.375 8.375 C-5.42003056 4.9982346 -2.81776305 2.69525161 0 0 Z " fill="#6BDF73" transform="translate(383,182)"/>
<path d="M0 0 C0.99 0.33 1.98 0.66 3 1 C2.58113525 1.41362793 2.16227051 1.82725586 1.73071289 2.25341797 C-0.16129409 4.12466831 -2.04943185 5.99977585 -3.9375 7.875 C-4.59685547 8.52597656 -5.25621094 9.17695313 -5.93554688 9.84765625 C-6.56396484 10.47285156 -7.19238281 11.09804688 -7.83984375 11.7421875 C-8.42113037 12.3182373 -9.00241699 12.89428711 -9.60131836 13.48779297 C-11.09951936 14.96652475 -11.09951936 14.96652475 -12 17 C-12.66 17 -13.32 17 -14 17 C-13.67 15.35 -13.34 13.7 -13 12 C-12.01 12 -11.02 12 -10 12 C-9.67 10.68 -9.34 9.36 -9 8 C-8.01 8 -7.02 8 -6 8 C-5.62875 6.8553125 -5.62875 6.8553125 -5.25 5.6875 C-3.8744729 2.73011673 -2.84548949 1.55208517 0 0 Z " fill="#68E05E" transform="translate(350,280)"/>
<path d="M0 0 C0.99 0.33 1.98 0.66 3 1 C-4.04158025 5.96111335 -9.46233291 6.72149299 -18 6 C-20.58197191 5.23694301 -22.60996373 4.27468601 -25 3 C-23.68 2.67 -22.36 2.34 -21 2 C-21 2.66 -21 3.32 -21 4 C-15.72 4 -10.44 4 -5 4 C-5 3.34 -5 2.68 -5 2 C-3.35 2 -1.7 2 0 2 C0 1.34 0 0.68 0 0 Z " fill="#5CD955" transform="translate(64,372)"/>
<path d="M0 0 C1.32 0.33 2.64 0.66 4 1 C2.88200014 2.33920838 1.75538103 3.67122556 0.625 5 C-0.31472656 6.11375 -0.31472656 6.11375 -1.2734375 7.25 C-2.12808594 8.11625 -2.12808594 8.11625 -3 9 C-3.66 9 -4.32 9 -5 9 C-5 9.66 -5 10.32 -5 11 C-5.66 11 -6.32 11 -7 11 C-7 11.66 -7 12.32 -7 13 C-7.66 13 -8.32 13 -9 13 C-9.33 13.66 -9.66 14.32 -10 15 C-9.45276317 11.62537285 -8.9451 9.91765 -7 7 C-6.34 7 -5.68 7 -5 7 C-5 6.01 -5 5.02 -5 4 C-4.360625 3.71125 -3.72125 3.4225 -3.0625 3.125 C-0.84793921 2.17176549 -0.84793921 2.17176549 0 0 Z " fill="#59E252" transform="translate(332,297)"/>
<path d="M0 0 C0 3.54275774 -0.8144815 4.65443136 -2.75 7.5625 C-3.26046875 8.34753906 -3.7709375 9.13257813 -4.296875 9.94140625 C-6.10392405 12.12561462 -7.32049139 13.10858867 -10 14 C-10.99 13.67 -11.98 13.34 -13 13 C-8.71 8.71 -4.42 4.42 0 0 Z " fill="#40E242" transform="translate(365,201)"/>
<path d="M0 0 C0.58203125 1.890625 0.58203125 1.890625 1 4 C-0.3125 5.75 -0.3125 5.75 -2 7 C-2.66 7 -3.32 7 -4 7 C-4.2475 7.598125 -4.495 8.19625 -4.75 8.8125 C-6.19482573 11.34094503 -7.48280545 12.55070617 -10 14 C-10.99 13.67 -11.98 13.34 -13 13 C-12.34 13 -11.68 13 -11 13 C-10.76539063 12.43796875 -10.53078125 11.8759375 -10.2890625 11.296875 C-8.69337 8.45364109 -6.71075457 6.51901873 -4.375 4.25 C-3.55773437 3.45078125 -2.74046875 2.6515625 -1.8984375 1.828125 C-0.95871094 0.92320312 -0.95871094 0.92320312 0 0 Z " fill="#66E661" transform="translate(317,250)"/>
<path d="M0 0 C0.75 1.625 0.75 1.625 1 4 C-1.3778648 8.29844791 -4.30000849 11.77436638 -8 15 C-8.99 15 -9.98 15 -11 15 C-10.21625 14.29875 -9.4325 13.5975 -8.625 12.875 C-5.86210711 9.84897445 -5.22106718 7.8260105 -4 4 C-1.875 1.625 -1.875 1.625 0 0 Z " fill="#32EC2E" transform="translate(323,244)"/>
<path d="M0 0 C0.99 0.33 1.98 0.66 3 1 C1.25 4.875 1.25 4.875 -1 6 C-1.83047008 7.85240164 -1.83047008 7.85240164 -2.5 10 C-3.21875 12.1875 -3.21875 12.1875 -4 14 C-4.99 14.495 -4.99 14.495 -6 15 C-5.78943471 5.14171603 -5.78943471 5.14171603 -2.4375 1.875 C-1.633125 1.25625 -0.82875 0.6375 0 0 Z " fill="#3CE438" transform="translate(37,336)"/>
<path d="M0 0 C0.99 0 1.98 0 3 0 C1.57401292 3.15703606 -0.1629134 5.58028568 -2.4375 8.1875 C-3.33275391 9.22970703 -3.33275391 9.22970703 -4.24609375 10.29296875 C-6 12 -6 12 -9 13 C-8.38390949 8.99541169 -6.44939347 6.16980331 -4 3 C-3.01 3 -2.02 3 -1 3 C-0.67 2.01 -0.34 1.02 0 0 Z " fill="#6AE25F" transform="translate(161,272)"/>
<path d="M0 0 C1.9375 0.8125 1.9375 0.8125 4 2 C4.33 2.99 4.66 3.98 5 5 C5.66 5 6.32 5 7 5 C7 5.66 7 6.32 7 7 C7.66 7 8.32 7 9 7 C10.38938077 8.96147874 11.7260411 10.96166576 13 13 C11.0625 12.6875 11.0625 12.6875 9 12 C8.67 11.01 8.34 10.02 8 9 C7.360625 8.855625 6.72125 8.71125 6.0625 8.5625 C5.381875 8.376875 4.70125 8.19125 4 8 C2.875 6 2.875 6 2 4 C1.34 3.67 0.68 3.34 0 3 C0 2.01 0 1.02 0 0 Z " fill="#5FDC5F" transform="translate(256,267)"/>
<path d="M0 0 C-0.99 0.33 -1.98 0.66 -3 1 C-3.4640625 2.175625 -3.4640625 2.175625 -3.9375 3.375 C-5.14208614 6.35103635 -6.33158609 7.31000453 -9 9 C-9 8.01 -9 7.02 -9 6 C-9.66 5.67 -10.32 5.34 -11 5 C-10 2 -10 2 -7.75 0.25 C-4.58923143 -1.18671298 -3.25229215 -1.02214896 0 0 Z " fill="#1DF510" transform="translate(160,274)"/>
<path d="M0 0 C1.32 0.33 2.64 0.66 4 1 C1.16915273 4.14538586 -1.10365552 5.47947532 -5 7 C-7.893469 9.13565569 -10.52362361 11.39328801 -13 14 C-12.65930765 10.84859577 -12.41923159 9.39218439 -10.0625 7.1875 C-8 6 -8 6 -6 6 C-6 5.34 -6 4.68 -6 4 C-5.195625 3.71125 -4.39125 3.4225 -3.5625 3.125 C-0.8673532 2.26737432 -0.8673532 2.26737432 0 0 Z " fill="#33EA36" transform="translate(402,226)"/>
<path d="M0 0 C0.66 0 1.32 0 2 0 C2 1.65 2 3.3 2 5 C1.34 5 0.68 5 0 5 C0 5.66 0 6.32 0 7 C-0.66 7 -1.32 7 -2 7 C-2 7.66 -2 8.32 -2 9 C-2.66 9 -3.32 9 -4 9 C-4 9.66 -4 10.32 -4 11 C-4.66 11 -5.32 11 -6 11 C-6 10.01 -6 9.02 -6 8 C-5.34 8 -4.68 8 -4 8 C-4 6.35 -4 4.7 -4 3 C-2.68 2.67 -1.36 2.34 0 2 C0 1.34 0 0.68 0 0 Z " fill="#4EE747" transform="translate(73,361)"/>
<path d="M0 0 C4 0 4 0 6 1 C4.625 3.5 4.625 3.5 3 6 C2.34 6 1.68 6 1 6 C1 6.66 1 7.32 1 8 C0.34 8 -0.32 8 -1 8 C-1 7.34 -1 6.68 -1 6 C-1.66 6 -2.32 6 -3 6 C-1.125 1.125 -1.125 1.125 0 0 Z " fill="#18F30F" transform="translate(108,320)"/>
<path d="M0 0 C0 3 0 3 -1.8125 4.875 C-2.534375 5.57625 -3.25625 6.2775 -4 7 C-4.495 7.825 -4.99 8.65 -5.5 9.5 C-7.05703273 12.09505455 -8.79334001 13.94552346 -11 16 C-11.66 15.67 -12.32 15.34 -13 15 C-12.67 14.01 -12.34 13.02 -12 12 C-11.34 12 -10.68 12 -10 12 C-10 11.34 -10 10.68 -10 10 C-9.34 10 -8.68 10 -8 10 C-7.79375 9.46375 -7.5875 8.9275 -7.375 8.375 C-5.42003056 4.9982346 -2.81776305 2.69525161 0 0 Z " fill="#6BE566" transform="translate(64,308)"/>
<path d="M0 0 C0.33 0 0.66 0 1 0 C1.125 5.75 1.125 5.75 0 8 C-0.22858114 10.0374763 -0.41024278 12.08040303 -0.5625 14.125 C-0.64628906 15.22070312 -0.73007812 16.31640625 -0.81640625 17.4453125 C-0.87699219 18.28835938 -0.93757813 19.13140625 -1 20 C-3.2154247 16.01047026 -3.55795184 12.49595976 -3 8 C-2.18004633 5.21310543 -1.14814208 2.67899818 0 0 Z " fill="#6EDA6D" transform="translate(31,343)"/>
<path d="M0 0 C0.33 0.66 0.66 1.32 1 2 C1.66 2 2.32 2 3 2 C5.29648649 4.5614657 6 5.47967572 6 9 C6.66 9 7.32 9 8 9 C8 9.66 8 10.32 8 11 C2.41121495 9.54205607 2.41121495 9.54205607 0.625 7.1875 C-0.0858831 4.69940916 -0.14307397 2.57533152 0 0 Z " fill="#3EE042" transform="translate(422,279)"/>
<path d="M0 0 C0 0.66 0 1.32 0 2 C-1.0725 2.226875 -2.145 2.45375 -3.25 2.6875 C-7.41293906 4.14452867 -8.50911465 5.49430951 -11 9 C-11.66 9 -12.32 9 -13 9 C-13.66 10.32 -14.32 11.64 -15 13 C-15 9.3012364 -14.15647938 8.64226148 -11.75 5.9375 C-11.14671875 5.24527344 -10.5434375 4.55304688 -9.921875 3.83984375 C-6.56877795 0.6298667 -4.69307385 0 0 0 Z " fill="#77DB75" transform="translate(320,134)"/>
<path d="M0 0 C0.33 0 0.66 0 1 0 C0.67 3.3 0.34 6.6 0 10 C-0.99 10 -1.98 10 -3 10 C-3 9.34 -3 8.68 -3 8 C-4.32 8.33 -5.64 8.66 -7 9 C-7 8.34 -7 7.68 -7 7 C-6.34 7 -5.68 7 -5 7 C-5 6.34 -5 5.68 -5 5 C-4.34 5 -3.68 5 -3 5 C-3 4.34 -3 3.68 -3 3 C-2.34 3 -1.68 3 -1 3 C-0.67 2.01 -0.34 1.02 0 0 Z " fill="#50EA53" transform="translate(344,222)"/>
<path d="M0 0 C1.98 0 3.96 0 6 0 C4.625 2 4.625 2 3 4 C2.34 4 1.68 4 1 4 C1 4.66 1 5.32 1 6 C-0.98 6.66 -2.96 7.32 -5 8 C-5 6 -5 6 -3.0625 4 C-2.381875 3.34 -1.70125 2.68 -1 2 C-0.67 1.34 -0.34 0.68 0 0 Z " fill="#56E451" transform="translate(292,336)"/>
<path d="M0 0 C0.99 0.33 1.98 0.66 3 1 C-0.3 4.3 -3.6 7.6 -7 11 C-7.33 10.01 -7.66 9.02 -8 8 C-5.79465239 4.73281835 -3.42875061 1.99088745 0 0 Z " fill="#65E066" transform="translate(398,231)"/>
<path d="M0 0 C0.66 0.33 1.32 0.66 2 1 C1 4 1 4 -1.3125 5.375 C-4.31415771 7.18995582 -5.8556298 9.2640794 -8 12 C-8.66 12 -9.32 12 -10 12 C-10.33 12.99 -10.66 13.98 -11 15 C-11.66 14.67 -12.32 14.34 -13 14 C-12.34 13.01 -11.68 12.02 -11 11 C-10.34 11 -9.68 11 -9 11 C-8.74476562 10.41734375 -8.48953125 9.8346875 -8.2265625 9.234375 C-6.88258913 6.78611777 -5.38189704 5.18256752 -3.375 3.25 C-2.74335937 2.63640625 -2.11171875 2.0228125 -1.4609375 1.390625 C-0.73777344 0.70226562 -0.73777344 0.70226562 0 0 Z " fill="#81E97E" transform="translate(93,278)"/>
<path d="M0 0 C0.99 0.33 1.98 0.66 3 1 C1.38405168 3.04119788 -0.2856382 5.04072937 -2 7 C-2.66 7 -3.32 7 -4 7 C-4 7.66 -4 8.32 -4 9 C-4.66 9 -5.32 9 -6 9 C-6.33 9.99 -6.66 10.98 -7 12 C-7.33 10.68 -7.66 9.36 -8 8 C-7.34 8 -6.68 8 -6 8 C-6 7.01 -6 6.02 -6 5 C-5.01 5 -4.02 5 -3 5 C-2.690625 4.360625 -2.38125 3.72125 -2.0625 3.0625 C-1 1 -1 1 0 0 Z " fill="#5FDD5D" transform="translate(370,259)"/>
<path d="M0 0 C0.33 1.32 0.66 2.64 1 4 C0.01 4.33 -0.98 4.66 -2 5 C-2.28875 5.639375 -2.5775 6.27875 -2.875 6.9375 C-4.39098648 9.71680854 -6.05867273 10.07115981 -9 11 C-8.06558465 9.72689688 -7.12732889 8.456612 -6.1875 7.1875 C-5.66542969 6.47980469 -5.14335938 5.77210938 -4.60546875 5.04296875 C-3.16871123 3.21468607 -1.68184237 1.60103312 0 0 Z " fill="#62DF61" transform="translate(131,239)"/>
<path d="M0 0 C0.33 1.32 0.66 2.64 1 4 C1.66 4 2.32 4 3 4 C3.66 5.32 4.32 6.64 5 8 C1.12867972 7.42647107 -1.08172796 5.51295648 -4 3 C-4.99 3.495 -4.99 3.495 -6 4 C-6 3.01 -6 2.02 -6 1 C-3.92446352 0.4465236 -2.15634036 0 0 0 Z " fill="#51E04E" transform="translate(184,254)"/>
<path d="M0 0 C7.48291572 6.15034169 7.48291572 6.15034169 10 10 C8.35 10 6.7 10 5 10 C5 8.68 5 7.36 5 6 C4.01 6 3.02 6 2 6 C2 5.34 2 4.68 2 4 C1.34 4 0.68 4 0 4 C0 2.68 0 1.36 0 0 Z " fill="#52E154" transform="translate(224,234)"/>
<path d="M0 0 C0.66 0.33 1.32 0.66 2 1 C1.4375 3.875 1.4375 3.875 0 7 C-3.625 8.375 -3.625 8.375 -7 9 C-6.67 8.01 -6.34 7.02 -6 6 C-5.34 6 -4.68 6 -4 6 C-4 5.34 -4 4.68 -4 4 C-3.34 4 -2.68 4 -2 4 C-2 3.34 -2 2.68 -2 2 C-1.34 2 -0.68 2 0 2 C0 1.34 0 0.68 0 0 Z " fill="#5DE356" transform="translate(151,218)"/>
<path d="M0 0 C0.70703125 1.734375 0.70703125 1.734375 1 4 C-0.36328125 6.140625 -0.36328125 6.140625 -2.3125 8.25 C-2.94800781 8.95640625 -3.58351563 9.6628125 -4.23828125 10.390625 C-6 12 -6 12 -8 12 C-8 11.01 -8 10.02 -8 9 C-7.34 8.67 -6.68 8.34 -6 8 C-5.67 7.01 -5.34 6.02 -5 5 C-3.37347684 3.29413425 -1.70993434 1.6222454 0 0 Z " fill="#5EDE5D" transform="translate(92,343)"/>
<path d="M0 0 C0.33 1.32 0.66 2.64 1 4 C-3.455 7.96 -3.455 7.96 -8 12 C-8.66 11.67 -9.32 11.34 -10 11 C-8.71937515 9.2925002 -7.38232443 7.62626404 -6 6 C-5.34 6 -4.68 6 -4 6 C-3.71125 5.38125 -3.4225 4.7625 -3.125 4.125 C-2 2 -2 2 0 0 Z " fill="#74DE70" transform="translate(297,270)"/>
<path d="M0 0 C1.32 0.33 2.64 0.66 4 1 C4 1.99 4 2.98 4 4 C5.9837136 5.02863254 5.9837136 5.02863254 8.0625 5.8125 C10 7 10 7 10.75 9.125 C10.87375 10.053125 10.87375 10.053125 11 11 C6.43250373 9.13916819 3.11420254 5.96311877 0.6875 1.6875 C0.460625 1.130625 0.23375 0.57375 0 0 Z " fill="#6ADC6E" transform="translate(304,166)"/>
<path d="M0 0 C0.66 0.33 1.32 0.66 2 1 C-1.3 4.3 -4.6 7.6 -8 11 C-8.33 9.68 -8.66 8.36 -9 7 C-8.01 7 -7.02 7 -6 7 C-6 6.01 -6 5.02 -6 4 C-5.01 4 -4.02 4 -3 4 C-2.67 3.01 -2.34 2.02 -2 1 C-1.34 0.67 -0.68 0.34 0 0 Z " fill="#75E573" transform="translate(102,335)"/>
<path d="M0 0 C-2.64 2.64 -5.28 5.28 -8 8 C-8.33 6.68 -8.66 5.36 -9 4 C-8.01 3.67 -7.02 3.34 -6 3 C-6 2.01 -6 1.02 -6 0 C-4 -1 -4 -1 0 0 Z " fill="#5CE256" transform="translate(362,272)"/>
<path d="M0 0 C0.7425 0.0825 1.485 0.165 2.25 0.25 C-1.13168431 3.93006822 -4.17521756 6.2285845 -8.75 8.25 C-6.92599593 3.9939905 -4.88604345 0.44418577 0 0 Z " fill="#66E563" transform="translate(161.75,209.75)"/>
<path d="M0 0 C0.99 0 1.98 0 3 0 C5 3 5 3 5 6 C3.68 6.33 2.36 6.66 1 7 C0.87625 6.360625 0.7525 5.72125 0.625 5.0625 C0.315625 4.0415625 0.315625 4.0415625 0 3 C-0.66 2.67 -1.32 2.34 -2 2 C-1.34 1.34 -0.68 0.68 0 0 Z " fill="#18F513" transform="translate(91,336)"/>
<path d="M0 0 C0.99 0.33 1.98 0.66 3 1 C2.67 1.66 2.34 2.32 2 3 C1.34 3 0.68 3 0 3 C-0.268125 3.61875 -0.53625 4.2375 -0.8125 4.875 C-2 7 -2 7 -5 9 C-5.3125 6.75 -5.3125 6.75 -5 4 C-2.6875 1.625 -2.6875 1.625 0 0 Z " fill="#61E161" transform="translate(411,217)"/>
<path d="M0 0 C1.98 0.66 3.96 1.32 6 2 C6 2.99 6 3.98 6 5 C6.99 5 7.98 5 9 5 C9.33 6.65 9.66 8.3 10 10 C2.51708428 3.84965831 2.51708428 3.84965831 0 0 Z " fill="#6DDF6C" transform="translate(219,295)"/>
<path d="M0 0 C0.66 0 1.32 0 2 0 C1.875 2.75 1.875 2.75 1 6 C-2.0625 8.375 -2.0625 8.375 -5 10 C-3.66749209 6.4124787 -2.169283 3.1635377 0 0 Z " fill="#1CED1C" transform="translate(366,201)"/>
<path d="M0 0 C-0.969375 0.268125 -1.93875 0.53625 -2.9375 0.8125 C-3.948125 1.204375 -4.95875 1.59625 -6 2 C-6.33 2.99 -6.66 3.98 -7 5 C-5.68 5 -4.36 5 -3 5 C-3 5.66 -3 6.32 -3 7 C-5.375 7.1875 -5.375 7.1875 -8 7 C-8.66 6.01 -9.32 5.02 -10 4 C-7.10257116 -0.27715685 -5.06635533 -1.57231717 0 0 Z " fill="#1EEA24" transform="translate(320,137)"/>
<path d="M0 0 C0.33 0.99 0.66 1.98 1 3 C-0.95217609 6.47053526 -3.45048814 8.27075063 -7 10 C-7.66 9.67 -8.32 9.34 -9 9 C-6.03 6.03 -3.06 3.06 0 0 Z " fill="#56E056" transform="translate(121,250)"/>
<path d="M0 0 C-1.26132231 2.52264461 -2.61438008 3.52652887 -5 5 C-5.99 4.67 -6.98 4.34 -8 4 C-7.6875 2.0625 -7.6875 2.0625 -7 0 C-3.86650268 -1.04449911 -3.01031744 -0.93423645 0 0 Z " fill="#48E042" transform="translate(420,212)"/>
<path d="M0 0 C-0.15481795 2.70931419 -0.48172081 4.46584039 -2.40234375 6.4453125 C-3.89771708 7.67679642 -5.4462924 8.8429837 -7 10 C-7.66 9.67 -8.32 9.34 -9 9 C-8.525625 8.566875 -8.05125 8.13375 -7.5625 7.6875 C-5.76313043 5.97690387 -5.76313043 5.97690387 -5 3 C-2.44444444 0 -2.44444444 0 0 0 Z " fill="#25E822" transform="translate(85,290)"/>
<path d="M0 0 C0.99 0 1.98 0 3 0 C1.4722133 3.43752007 -0.50181056 6.18953688 -3 9 C-3.66 9 -4.32 9 -5 9 C-4.67 7.35 -4.34 5.7 -4 4 C-3.01 4 -2.02 4 -1 4 C-0.67 2.68 -0.34 1.36 0 0 Z " fill="#56DC54" transform="translate(341,288)"/>
<path d="M0 0 C0 1.32 0 2.64 0 4 C-0.66 4 -1.32 4 -2 4 C-2 4.66 -2 5.32 -2 6 C-3.32 5.67 -4.64 5.34 -6 5 C-5.625 3.0625 -5.625 3.0625 -5 1 C-3 0 -3 0 0 0 Z " fill="#3FE239" transform="translate(144,291)"/>
<path d="M0 0 C0.33 0.99 0.66 1.98 1 3 C0 5 0 5 -3.0625 6.125 C-4.031875 6.41375 -5.00125 6.7025 -6 7 C-5.8125 5.1875 -5.8125 5.1875 -5 3 C-2.4375 1.25 -2.4375 1.25 0 0 Z " fill="#14E516" transform="translate(158,215)"/>
<path d="M0 0 C2.31 0.33 4.62 0.66 7 1 C7 1.33 7 1.66 7 2 C5.35 2 3.7 2 2 2 C2 2.66 2 3.32 2 4 C-1.96 4 -5.92 4 -10 4 C-10 3.67 -10 3.34 -10 3 C-9.36191406 2.95101563 -8.72382812 2.90203125 -8.06640625 2.8515625 C-7.24011719 2.77679688 -6.41382813 2.70203125 -5.5625 2.625 C-4.73878906 2.55539062 -3.91507813 2.48578125 -3.06640625 2.4140625 C-2.38449219 2.27742188 -1.70257813 2.14078125 -1 2 C-0.67 1.34 -0.34 0.68 0 0 Z " fill="#18EC18" transform="translate(57,372)"/>
<path d="M0 0 C2.875 0.1875 2.875 0.1875 6 1 C7.375 3.5625 7.375 3.5625 8 6 C7.01 6.33 6.02 6.66 5 7 C0 1.125 0 1.125 0 0 Z " fill="#63E061" transform="translate(248,324)"/>
<path d="M0 0 C0.66 0.33 1.32 0.66 2 1 C-0.65654657 4.73884332 -2.58110387 6.64978174 -7 8 C-6.01347016 4.68167234 -5.31268497 3.23451373 -2.5 1.125 C-1.675 0.75375 -0.85 0.3825 0 0 Z " fill="#18E919" transform="translate(309,261)"/>
<path d="M0 0 C0 3.15987325 -0.38214873 4.36034793 -2 7 C-2.99 7.66 -3.98 8.32 -5 9 C-5.66 8.34 -6.32 7.68 -7 7 C-5.54744301 3.17053157 -3.57104439 1.87949705 0 0 Z " fill="#1EEF1C" transform="translate(127,247)"/>
<path d="M0 0 C0.33 0.66 0.66 1.32 1 2 C-0.0625 5 -0.0625 5 -2 8 C-5.1875 9.375 -5.1875 9.375 -8 10 C-7.04367001 8.70684939 -6.08486149 7.41553147 -5.125 6.125 C-4.59132812 5.40570313 -4.05765625 4.68640625 -3.5078125 3.9453125 C-2 2 -2 2 0 0 Z " fill="#0DF110" transform="translate(143,230)"/>
<path d="M0 0 C0 3.21534057 -0.26476072 4.35582586 -2 7 C-4.5 8.8125 -4.5 8.8125 -7 10 C-7.66 9.67 -8.32 9.34 -9 9 C-6.03 6.03 -3.06 3.06 0 0 Z " fill="#6DE371" transform="translate(365,201)"/>
<path d="M0 0 C0.33 1.32 0.66 2.64 1 4 C-3.39453125 8.00390625 -3.39453125 8.00390625 -5 9 C-5.99 8.67 -6.98 8.34 -8 8 C-7.50628906 7.59007812 -7.01257813 7.18015625 -6.50390625 6.7578125 C-5.86324219 6.21898437 -5.22257812 5.68015625 -4.5625 5.125 C-3.92441406 4.59132812 -3.28632813 4.05765625 -2.62890625 3.5078125 C-0.89194996 2.0777243 -0.89194996 2.0777243 0 0 Z " fill="#16F21E" transform="translate(384,184)"/>
<path d="M0 0 C0.99 0 1.98 0 3 0 C3.0825 0.61875 3.165 1.2375 3.25 1.875 C3.79326091 4.16669871 3.79326091 4.16669871 5.9375 5.0625 C6.618125 5.371875 7.29875 5.68125 8 6 C8.99 7.485 8.99 7.485 10 9 C6.04322598 7.32598022 3.15535787 4.86850715 0 2 C0 1.34 0 0.68 0 0 Z " fill="#85DA7C" transform="translate(257,333)"/>
<path d="M0 0 C0.99 0 1.98 0 3 0 C2.65120368 3.25543229 1.97866739 4.01873107 -0.5625 6.25 C-1.366875 6.8275 -2.17125 7.405 -3 8 C-3.33 6.68 -3.66 5.36 -4 4 C-2.68 4 -1.36 4 0 4 C0 2.68 0 1.36 0 0 Z " fill="#4DDE4A" transform="translate(301,328)"/>
<path d="M0 0 C0.99 0 1.98 0 3 0 C3 0.66 3 1.32 3 2 C2.34 2 1.68 2 1 2 C0.7525 2.598125 0.505 3.19625 0.25 3.8125 C-1.16370012 6.28647521 -2.65055383 7.43370255 -5 9 C-4.625 7.0625 -4.625 7.0625 -4 5 C-3.34 4.67 -2.68 4.34 -2 4 C-0.86649466 1.98330173 -0.86649466 1.98330173 0 0 Z " fill="#81E47A" transform="translate(137,297)"/>
<path d="M0 0 C0.66 0 1.32 0 2 0 C1.5206753 4.31392226 0.2542015 6.16569547 -3 9 C-2.5020163 5.26512223 -2.12508244 3.18762365 0 0 Z " fill="#5BDB57" transform="translate(463,279)"/>
<path d="M0 0 C0.33 0.66 0.66 1.32 1 2 C1.66 2 2.32 2 3 2 C3 2.66 3 3.32 3 4 C3.66 4 4.32 4 5 4 C5 4.66 5 5.32 5 6 C5.99 6.33 6.98 6.66 8 7 C7.01 7.33 6.02 7.66 5 8 C2 6 2 6 0 4 C0 2.68 0 1.36 0 0 Z " fill="#54E156" transform="translate(234,244)"/>
<path d="M0 0 C2.97 0.495 2.97 0.495 6 1 C6 1.99 6 2.98 6 4 C6.66 4.33 7.32 4.66 8 5 C7.67 5.66 7.34 6.32 7 7 C6.01 6.67 5.02 6.34 4 6 C3.3125 3.9375 3.3125 3.9375 3 2 C2.01 2 1.02 2 0 2 C0 1.34 0 0.68 0 0 Z " fill="#13EB14" transform="translate(233,306)"/>
<path d="M0 0 C0.66 0 1.32 0 2 0 C2 0.99 2 1.98 2 3 C0.8553125 3.4021875 0.8553125 3.4021875 -0.3125 3.8125 C-2.87380884 4.94424112 -4.19692938 5.91223401 -6 8 C-5.34 5.69 -4.68 3.38 -4 1 C-2.68 1.33 -1.36 1.66 0 2 C0 1.34 0 0.68 0 0 Z " fill="#24EF1B" transform="translate(176,255)"/>
<path d="M0 0 C3.28288776 0.11320303 4.30354487 1.28284863 6.75 3.5625 C7.86375 4.7690625 7.86375 4.7690625 9 6 C8.29875 5.71125 7.5975 5.4225 6.875 5.125 C3.94547497 3.97866412 0.99078347 2.97374346 -2 2 C-1.34 1.34 -0.68 0.68 0 0 Z " fill="#64DD69" transform="translate(450,134)"/>
<path d="M0 0 C4.50802601 1.25805377 7.4912812 2.90407165 11 6 C5.25 5.125 5.25 5.125 3 4 C3 3.34 3 2.68 3 2 C2.01 1.67 1.02 1.34 0 1 C0 0.67 0 0.34 0 0 Z " fill="#78DB74" transform="translate(426,289)"/>
<path d="M0 0 C1.32 0.33 2.64 0.66 4 1 C1.31158141 3.25245881 -0.64641875 4.88213958 -4 6 C-4 5.01 -4 4.02 -4 3 C-3.01 3 -2.02 3 -1 3 C-0.67 2.01 -0.34 1.02 0 0 Z " fill="#69DF64" transform="translate(455,289)"/>
<path d="M0 0 C1.875 0.3125 1.875 0.3125 4 1 C4.66 1.99 5.32 2.98 6 4 C5.67 4.99 5.34 5.98 5 7 C3.29115995 5.37660195 1.62553283 3.70680947 0 2 C0 1.34 0 0.68 0 0 Z " fill="#64E262" transform="translate(213,288)"/>
<path d="M0 0 C0.33 1.32 0.66 2.64 1 4 C-1.375 5.5625 -1.375 5.5625 -4 7 C-4.66 6.67 -5.32 6.34 -6 6 C-4.02 4.02 -2.04 2.04 0 0 Z " fill="#52DD4B" transform="translate(286,282)"/>
<path d="M0 0 C2.375 0.3125 2.375 0.3125 5 1 C5.66 1.99 6.32 2.98 7 4 C4.69 3.67 2.38 3.34 0 3 C0 2.01 0 1.02 0 0 Z " fill="#3CE33B" transform="translate(217,230)"/>
<path d="M0 0 C0.33 0.66 0.66 1.32 1 2 C0.0625 4.625 0.0625 4.625 -1 7 C-2.65 7 -4.3 7 -6 7 C-4.02 4.69 -2.04 2.38 0 0 Z " fill="#6AE463" transform="translate(351,215)"/>
<path d="M0 0 C3.3 0 6.6 0 10 0 C8.515 1.485 8.515 1.485 7 3 C3.3125 2.6875 3.3125 2.6875 0 2 C0 1.34 0 0.68 0 0 Z " fill="#30DB2C" transform="translate(274,288)"/>
<path d="M0 0 C0.33 1.32 0.66 2.64 1 4 C-0.32 4.99 -1.64 5.98 -3 7 C-3.66 6.34 -4.32 5.68 -5 5 C-3.35 3.35 -1.7 1.7 0 0 Z " fill="#56E253" transform="translate(317,250)"/>
<path d="M0 0 C0.99 0.33 1.98 0.66 3 1 C2.01 2.32 1.02 3.64 0 5 C-1.32 4.67 -2.64 4.34 -4 4 C-2.68 2.68 -1.36 1.36 0 0 Z " fill="#51E14E" transform="translate(42,331)"/>
<path d="M0 0 C0.33 0.66 0.66 1.32 1 2 C0.34 2 -0.32 2 -1 2 C-1.268125 2.639375 -1.53625 3.27875 -1.8125 3.9375 C-3 6 -3 6 -6 7 C-6 6.01 -6 5.02 -6 4 C-5.01 4 -4.02 4 -3 4 C-3 3.01 -3 2.02 -3 1 C-2.01 0.67 -1.02 0.34 0 0 Z " fill="#7CE578" transform="translate(320,312)"/>
<path d="M0 0 C2.475 0.99 2.475 0.99 5 2 C5 2.99 5 3.98 5 5 C4.01 5.33 3.02 5.66 2 6 C0 3 0 3 0 0 Z " fill="#1DED25" transform="translate(308,167)"/>
<path d="M0 0 C0 0.99 0 1.98 0 3 C-1.65 3.66 -3.3 4.32 -5 5 C-5 3.68 -5 2.36 -5 1 C-3.35 0.67 -1.7 0.34 0 0 Z " fill="#29EB1E" transform="translate(135,299)"/>
<path d="M0 0 C2.88575819 0.39803561 3.82189513 0.79009069 5.75 3.0625 C6.1625 3.701875 6.575 4.34125 7 5 C6.67 5.66 6.34 6.32 6 7 C3.00675737 5.9024777 2.15389099 5.32317108 0.75 2.375 C0.5025 1.59125 0.255 0.8075 0 0 Z " fill="#1EEB1C" transform="translate(211,283)"/>
<path d="M0 0 C0.99 0 1.98 0 3 0 C3.33 1.98 3.66 3.96 4 6 C3.34 6 2.68 6 2 6 C0 3 0 3 0 0 Z " fill="#12F212" transform="translate(144,282)"/>
<path d="M0 0 C0.33 1.32 0.66 2.64 1 4 C-0.32 4.99 -1.64 5.98 -3 7 C-3.1875 4.625 -3.1875 4.625 -3 2 C-2.01 1.34 -1.02 0.68 0 0 Z " fill="#58E359" transform="translate(167,266)"/>
<path d="M0 0 C1 2 1 2 0.25 4.5625 C-1 7 -1 7 -4 8 C-3.40138258 5.64828869 -2.73075648 3.3140622 -2 1 C-1.34 0.67 -0.68 0.34 0 0 Z " fill="#16E81B" transform="translate(309,142)"/>
</svg>
