<?xml version="1.0" encoding="UTF-8"?>
<svg version="1.1" xmlns="http://www.w3.org/2000/svg" width="500" height="500">
<path d="M0 0 C1.29357422 0.04833984 1.29357422 0.04833984 2.61328125 0.09765625 C12.74532261 2.8656218 19.95950748 11.85042197 27.0625 19.125 C28.15163191 20.22921819 29.24147134 21.33273899 30.33203125 22.43554688 C32.32128757 24.44910985 34.30653362 26.4664342 36.28662109 28.48901367 C37.67026489 29.90009397 39.07073094 31.29588905 40.51416016 32.64575195 C41.6875 33.9375 41.6875 33.9375 41.6875 35.9375 C42.3475 35.9375 43.0075 35.9375 43.6875 35.9375 C43.6875 36.5975 43.6875 37.2575 43.6875 37.9375 C44.3475 37.9375 45.0075 37.9375 45.6875 37.9375 C45.6875 38.5975 45.6875 39.2575 45.6875 39.9375 C46.3475 39.9375 47.0075 39.9375 47.6875 39.9375 C47.6875 40.5975 47.6875 41.2575 47.6875 41.9375 C48.3475 41.9375 49.0075 41.9375 49.6875 41.9375 C50.94165039 43.21728516 50.94165039 43.21728516 52.47265625 45.1015625 C55.82424183 49.04491105 59.37963998 52.70282883 63.05859375 56.3359375 C63.62937653 56.90105042 64.2001593 57.46616333 64.78823853 58.04840088 C67.17593399 60.40901011 69.56773974 62.76537712 71.96362305 65.11767578 C73.72875453 66.85279364 75.48776685 68.59392841 77.24609375 70.3359375 C77.79285263 70.86923676 78.33961151 71.40253601 78.90293884 71.95199585 C80.20278518 73.24302223 81.45071543 74.58594033 82.6875 75.9375 C82.6875 76.5975 82.6875 77.2575 82.6875 77.9375 C83.3475 77.9375 84.0075 77.9375 84.6875 77.9375 C86.09985352 79.37548828 86.09985352 79.37548828 87.75390625 81.3828125 C92.49878372 86.96545547 97.73838639 92.00467733 102.98632812 97.109375 C103.72173828 97.83382812 104.45714844 98.55828125 105.21484375 99.3046875 C105.88249756 99.95550293 106.55015137 100.60631836 107.23803711 101.27685547 C108.6875 102.9375 108.6875 102.9375 108.6875 104.9375 C109.3475 104.9375 110.0075 104.9375 110.6875 104.9375 C110.6875 105.5975 110.6875 106.2575 110.6875 106.9375 C111.3475 106.9375 112.0075 106.9375 112.6875 106.9375 C112.6875 107.5975 112.6875 108.2575 112.6875 108.9375 C113.3475 108.9375 114.0075 108.9375 114.6875 108.9375 C114.6875 109.5975 114.6875 110.2575 114.6875 110.9375 C115.3475 110.9375 116.0075 110.9375 116.6875 110.9375 C118.23828125 112.546875 118.23828125 112.546875 120 114.6875 C122.63520015 117.88527097 125.39268848 120.41960617 128.6875 122.9375 C130.6697267 120.98218135 132.64835116 119.02344334 134.625 117.0625 C135.47094727 116.22912109 135.47094727 116.22912109 136.33398438 115.37890625 C139.38610028 112.4453429 139.38610028 112.4453429 141.6875 108.9375 C142.3475 108.9375 143.0075 108.9375 143.6875 108.9375 C143.6875 108.2775 143.6875 107.6175 143.6875 106.9375 C144.3475 106.9375 145.0075 106.9375 145.6875 106.9375 C146.05100807 106.08552536 146.05100807 106.08552536 146.42185974 105.21633911 C147.93255255 102.49627247 149.72618896 100.66632668 151.93774414 98.47607422 C152.81527847 97.60191864 153.69281281 96.72776306 154.59693909 95.82711792 C155.55548008 94.88210927 156.51405324 93.93713324 157.47265625 92.9921875 C158.45440122 92.01671603 159.43563076 91.04072556 160.41636658 90.0642395 C162.99444529 87.49944141 165.5780374 84.94027627 168.16326904 82.38269043 C172.30590992 78.2832336 176.44179147 74.17698429 180.5744915 70.0675087 C182.01963657 68.63259728 183.46813969 67.2011402 184.91700745 65.76998901 C185.79138962 64.90213776 186.66577179 64.0342865 187.56665039 63.14013672 C188.34005264 62.37498749 189.1134549 61.60983826 189.91029358 60.82150269 C191.75018274 59.05249476 191.75018274 59.05249476 192.6875 56.9375 C193.3475 56.9375 194.0075 56.9375 194.6875 56.9375 C194.6875 56.2775 194.6875 55.6175 194.6875 54.9375 C195.3475 54.9375 196.0075 54.9375 196.6875 54.9375 C196.955625 54.339375 197.22375 53.74125 197.5 53.125 C198.68667406 50.93902146 199.78349113 49.52417406 201.6875 47.9375 C202.3475 47.9375 203.0075 47.9375 203.6875 47.9375 C203.6875 47.2775 203.6875 46.6175 203.6875 45.9375 C204.3475 45.9375 205.0075 45.9375 205.6875 45.9375 C205.6875 45.2775 205.6875 44.6175 205.6875 43.9375 C206.3475 43.9375 207.0075 43.9375 207.6875 43.9375 C207.6875 43.2775 207.6875 42.6175 207.6875 41.9375 C208.3475 41.9375 209.0075 41.9375 209.6875 41.9375 C209.6875 41.2775 209.6875 40.6175 209.6875 39.9375 C211.515625 38.46484375 211.515625 38.46484375 213.9375 36.875 C215.12085938 36.08416016 215.12085938 36.08416016 216.328125 35.27734375 C221.66916432 32.24427009 227.86809097 32.10596815 233.8046875 33.3984375 C238.89627377 35.08242518 243.10967736 37.92363023 246.6875 41.9375 C246.6875 42.5975 246.6875 43.2575 246.6875 43.9375 C247.22890625 44.1540625 247.7703125 44.370625 248.328125 44.59375 C251.50395344 46.40249997 253.89478081 48.85473799 256.4375 51.4375 C256.94410156 51.93636719 257.45070313 52.43523437 257.97265625 52.94921875 C261.6875 56.68408861 261.6875 56.68408861 261.6875 58.9375 C262.3475 58.9375 263.0075 58.9375 263.6875 58.9375 C263.6875 59.5975 263.6875 60.2575 263.6875 60.9375 C264.5228125 61.2778125 264.5228125 61.2778125 265.375 61.625 C268.34909588 63.31300036 270.40758865 65.40426517 272.6875 67.9375 C272.6875 68.5975 272.6875 69.2575 272.6875 69.9375 C273.3475 69.9375 274.0075 69.9375 274.6875 69.9375 C276.08241272 71.35488892 276.08241272 71.35488892 277.72290039 73.34619141 C281.9363322 78.29769555 286.49469774 82.83511167 291.12109375 87.3984375 C292.92135258 89.1860684 294.72147904 90.9738326 296.52148438 92.76171875 C299.33984679 95.55511804 302.15962388 98.34706749 304.98217773 101.13623047 C307.7202915 103.8443278 310.45230702 106.55845739 313.18359375 109.2734375 C314.03658554 110.11296967 314.88957733 110.95250183 315.76841736 111.81747437 C316.54665359 112.59233185 317.32488983 113.36718933 318.12670898 114.16552734 C318.81619125 114.84755219 319.50567352 115.52957703 320.21604919 116.23226929 C321.6875 117.9375 321.6875 117.9375 321.6875 119.9375 C322.3475 119.9375 323.0075 119.9375 323.6875 119.9375 C324.90649414 121.18212891 324.90649414 121.18212891 326.41015625 123.0390625 C329.91377478 127.16128726 333.65181244 130.97367126 337.49609375 134.7734375 C338.11118805 135.38286194 338.72628235 135.99228638 339.36001587 136.62017822 C341.93896261 139.17201661 344.52198889 141.71965408 347.10913086 144.26318359 C349.01325984 146.13729838 350.91127397 148.01743322 352.80859375 149.8984375 C353.69435341 150.76400772 353.69435341 150.76400772 354.5980072 151.64706421 C355.99945732 153.03971271 357.34909278 154.48415957 358.6875 155.9375 C358.6875 156.5975 358.6875 157.2575 358.6875 157.9375 C359.3475 157.9375 360.0075 157.9375 360.6875 157.9375 C362.39858689 159.55852968 364.06003306 161.23253463 365.6875 162.9375 C367.01842877 164.27323357 368.35132678 165.60701262 369.6875 166.9375 C369.67861755 166.14316055 369.66973511 165.34882111 369.6605835 164.53041077 C369.58015175 157.0132988 369.51939146 149.496398 369.48025131 141.97896671 C369.45945182 138.11494016 369.43127612 134.2512717 369.38574219 130.38745117 C369.3420087 126.65267396 369.31830557 122.91823932 369.30799103 119.18322563 C369.30064857 117.76436413 369.28631131 116.34551957 369.26457977 114.9268055 C369.11964483 105.06508249 370.25535705 98.45344403 375.4375 90.125 C380.82104658 84.89099638 387.8036563 82.55984431 395.21484375 82.65625 C401.97430064 83.42509818 408.0519826 87.08637714 412.6875 91.9375 C417.05553168 98.9326056 417.26079125 105.71074968 417.20507812 113.76586914 C417.21559204 115.65051125 417.21559204 115.65051125 417.22631836 117.57322693 C417.24083568 120.99495383 417.23753498 124.41570422 417.22480202 127.83737493 C417.21461449 131.43175183 417.22408335 135.02608945 417.23034668 138.62046814 C417.23760553 144.65338559 417.22808098 150.68610658 417.20898438 156.71899414 C417.18720895 163.67820689 417.19427864 170.63695092 417.21629 177.59615237 C417.23448273 183.58965581 417.23698379 189.58301874 417.22653532 195.57654089 C417.22032282 199.14819766 417.21940258 202.71963458 417.23268127 206.29127693 C417.24645614 210.27387632 417.22732684 214.25595684 417.20507812 218.23852539 C417.21317505 219.41121979 417.22127197 220.58391418 417.22961426 221.79214478 C417.14835385 229.65811557 416.05167212 235.09846462 410.72265625 241.1796875 C410.07167969 241.71851563 409.42070312 242.25734375 408.75 242.8125 C408.10160156 243.36679687 407.45320313 243.92109375 406.78515625 244.4921875 C402.69785518 247.30839121 399.09338643 248.18756306 394.16679382 248.20492554 C393.0692276 248.21345551 391.97166138 248.22198547 390.84083557 248.23077393 C389.64643356 248.22986755 388.45203156 248.22896118 387.22143555 248.22802734 C385.95583801 248.23474457 384.69024048 248.24146179 383.3862915 248.24838257 C379.92126548 248.26601894 376.4563383 248.27073698 372.99127173 248.27201414 C370.82376379 248.2734378 368.6562808 248.27771149 366.48877907 248.28300858 C358.9193424 248.30150201 351.34997609 248.30968017 343.78051758 248.30810547 C336.73735068 248.30690469 329.69449053 248.32799597 322.65140122 248.3595928 C316.5943107 248.3857927 310.53732013 248.39647119 304.48017341 248.39519465 C300.86706583 248.39468604 297.2542309 248.40031244 293.64118004 248.42155075 C289.60782473 248.44461311 285.57515133 248.43538968 281.54174805 248.42333984 C280.35341873 248.43457886 279.16508942 248.44581787 277.94075012 248.45739746 C269.46366799 248.39310054 264.748126 246.644584 257.6875 241.9375 C257.6875 241.2775 257.6875 240.6175 257.6875 239.9375 C257.0275 239.9375 256.3675 239.9375 255.6875 239.9375 C251.45325252 232.97147995 249.34004036 227.01698324 251.18359375 218.69921875 C253.21546276 211.86892462 256.03095953 207.86479407 261.875 203.625 C269.89864115 199.45762708 280.79862334 200.73941811 289.5703125 200.62109375 C290.86572968 200.60031265 292.16114685 200.57953156 293.49581909 200.55812073 C296.9052655 200.50347311 300.31476614 200.45381635 303.7243042 200.40527344 C307.21729235 200.35463414 310.71020377 200.29917179 314.203125 200.24414062 C321.03118324 200.13726242 327.85931111 200.03566762 334.6875 199.9375 C333.75808594 199.0196875 332.82867187 198.101875 331.87109375 197.15625 C330.62225877 195.91680475 329.37356864 194.67721355 328.125 193.4375 C327.51591797 192.83679688 326.90683594 192.23609375 326.27929688 191.6171875 C323.15555366 188.50997203 320.14484885 185.35992707 317.27124023 182.01904297 C313.36763554 177.4993098 309.16253496 173.32229988 304.91015625 169.1328125 C303.24661688 167.48189971 301.58320912 165.8308543 299.91992188 164.1796875 C297.31883808 161.60357372 294.71616959 159.02909838 292.11108398 156.45703125 C289.58146639 153.95742967 287.05795016 151.45179813 284.53515625 148.9453125 C283.35410057 147.78444626 283.35410057 147.78444626 282.14918518 146.60012817 C281.07192421 145.52793533 281.07192421 145.52793533 279.97290039 144.43408203 C279.3367128 143.80535187 278.70052521 143.1766217 278.0450592 142.52883911 C276.6875 140.9375 276.6875 140.9375 276.6875 138.9375 C276.0275 138.9375 275.3675 138.9375 274.6875 138.9375 C274.6875 138.2775 274.6875 137.6175 274.6875 136.9375 C274.0275 136.9375 273.3675 136.9375 272.6875 136.9375 C271.27720642 135.50720215 271.27720642 135.50720215 269.62475586 133.50585938 C265.54271327 128.70870723 261.15791061 124.28125971 256.69140625 119.84375 C255.44108864 118.59555481 255.44108864 118.59555481 254.16551208 117.32214355 C251.52936738 114.69155065 248.88974895 112.06447559 246.25 109.4375 C244.45094021 107.64346145 242.6521098 105.84919285 240.85351562 104.0546875 C236.46749188 99.67962875 232.07861858 95.30744488 227.6875 90.9375 C226.90375 91.7625 226.12 92.5875 225.3125 93.4375 C222.6875 95.9375 222.6875 95.9375 220.6875 95.9375 C219.6975 97.9175 219.6975 97.9175 218.6875 99.9375 C218.0275 99.9375 217.3675 99.9375 216.6875 99.9375 C216.46409439 100.48654999 216.24068878 101.03559998 216.01051331 101.60128784 C214.29040577 104.63869958 211.9878773 106.89189511 209.51928711 109.31689453 C208.99390854 109.84095886 208.46852997 110.36502319 207.92723083 110.90496826 C206.19432416 112.63139802 204.45455581 114.35074312 202.71484375 116.0703125 C201.50889693 117.26998763 200.30346467 118.47018022 199.098526 119.67086792 C195.92860931 122.82749186 192.75317127 125.97849761 189.57611084 129.12792969 C184.4859627 134.17492614 179.40255154 139.22868641 174.32232857 144.28567123 C172.54479581 146.05296101 170.76390046 147.81681037 168.98265076 149.58035278 C167.89709253 150.65908523 166.81164245 151.73792652 165.72631836 152.81689453 C165.22811584 153.30835968 164.72991333 153.79982483 164.21661377 154.30618286 C161.62232788 156.8723228 161.62232788 156.8723228 159.6875 159.9375 C159.0275 159.9375 158.3675 159.9375 157.6875 159.9375 C157.6875 160.5975 157.6875 161.2575 157.6875 161.9375 C157.0275 161.9375 156.3675 161.9375 155.6875 161.9375 C155.6875 162.5975 155.6875 163.2575 155.6875 163.9375 C155.0275 163.9375 154.3675 163.9375 153.6875 163.9375 C153.6875 164.5975 153.6875 165.2575 153.6875 165.9375 C153.0275 165.9375 152.3675 165.9375 151.6875 165.9375 C151.3575 166.9275 151.0275 167.9175 150.6875 168.9375 C150.0275 168.9375 149.3675 168.9375 148.6875 168.9375 C148.6875 169.5975 148.6875 170.2575 148.6875 170.9375 C148.0275 170.9375 147.3675 170.9375 146.6875 170.9375 C146.6875 171.5975 146.6875 172.2575 146.6875 172.9375 C146.0275 172.9375 145.3675 172.9375 144.6875 172.9375 C144.6875 173.5975 144.6875 174.2575 144.6875 174.9375 C143.04296875 176.19140625 143.04296875 176.19140625 140.875 177.5 C140.16730469 177.93441406 139.45960938 178.36882812 138.73046875 178.81640625 C135.11292138 180.80156131 132.06601114 181.15108296 128 181.25 C126.50919922 181.30607422 126.50919922 181.30607422 124.98828125 181.36328125 C115.29484977 180.11288595 109.61516534 173.38612889 103.125 166.6875 C102.21814453 165.77097656 101.31128906 164.85445312 100.37695312 163.91015625 C96.58497482 160.05493247 92.8750294 156.17251152 89.34179688 152.07861328 C85.80712957 148.01558125 82.06327155 144.21751376 78.22265625 140.4453125 C76.83255621 139.06783556 75.44258582 137.69022777 74.05273438 136.3125 C71.88620881 134.17096234 69.71809371 132.03107827 67.54760742 129.89355469 C65.43498221 127.8109444 63.32846647 125.72231011 61.22265625 123.6328125 C60.56652847 122.99014435 59.9104007 122.3474762 59.23439026 121.68533325 C58.63634079 121.09066254 58.03829132 120.49599182 57.42211914 119.88330078 C56.8925209 119.36115997 56.36292267 118.83901917 55.817276 118.30105591 C54.6875 116.9375 54.6875 116.9375 54.6875 114.9375 C54.0275 114.9375 53.3675 114.9375 52.6875 114.9375 C52.6875 114.2775 52.6875 113.6175 52.6875 112.9375 C52.0275 112.9375 51.3675 112.9375 50.6875 112.9375 C50.6875 112.2775 50.6875 111.6175 50.6875 110.9375 C49.7903125 110.5353125 49.7903125 110.5353125 48.875 110.125 C46.68902146 108.93832594 45.27417406 107.84150887 43.6875 105.9375 C43.6875 105.2775 43.6875 104.6175 43.6875 103.9375 C43.0275 103.9375 42.3675 103.9375 41.6875 103.9375 C41.6875 103.2775 41.6875 102.6175 41.6875 101.9375 C41.0275 101.9375 40.3675 101.9375 39.6875 101.9375 C39.6875 101.2775 39.6875 100.6175 39.6875 99.9375 C39.0275 99.9375 38.3675 99.9375 37.6875 99.9375 C36.34545898 98.56982422 36.34545898 98.56982422 34.74609375 96.6171875 C29.62468083 90.59152718 23.92589942 85.14369685 18.27514648 79.62109375 C16.85755197 78.23350999 15.44624095 76.83951582 14.03515625 75.4453125 C13.19992432 74.62691895 12.36469238 73.80852539 11.50415039 72.96533203 C9.6875 70.9375 9.6875 70.9375 9.6875 68.9375 C9.0275 68.9375 8.3675 68.9375 7.6875 68.9375 C7.6875 68.2775 7.6875 67.6175 7.6875 66.9375 C7.0275 66.9375 6.3675 66.9375 5.6875 66.9375 C4.29931641 65.51928711 4.29931641 65.51928711 2.6640625 63.52734375 C-0.08298873 60.29447274 -2.93308359 57.27234323 -5.9765625 54.31640625 C-6.78867187 53.52556641 -7.60078125 52.73472656 -8.4375 51.91992188 C-10.10625845 50.30461584 -11.78077302 48.69523558 -13.4609375 47.09179688 C-20.03660436 40.65748591 -26.29694002 33.44710375 -26.625 23.8125 C-26.51331793 17.55830383 -24.70379921 12.46352029 -20.37109375 7.88671875 C-13.77761211 2.02179861 -8.95148758 -0.35054777 0 0 Z " fill="#F20A06" transform="translate(57.3125,122.0625)"/>
<path d="M0 0 C6.19204546 3.16802326 8.69810191 7.50599645 11 14 C11.6706385 18.32737122 11.67491057 22.56922593 11.63110352 26.94189453 C11.64183647 28.82675568 11.64183647 28.82675568 11.65278625 30.74969482 C11.66671526 34.16743963 11.65845321 37.58365126 11.63869596 41.00126886 C11.62220009 44.59296601 11.63113711 48.18461746 11.63621521 51.77633667 C11.6407229 57.8033292 11.6249463 63.83001003 11.59692383 69.85693359 C11.56484853 76.80879638 11.5649031 83.76009821 11.5821386 90.71200097 C11.59804012 97.42364046 11.59124883 104.13507576 11.57420158 110.84670639 C11.56735829 113.69264083 11.56833521 116.53841024 11.57574654 119.38434219 C11.58487925 123.36207473 11.56079593 127.33923792 11.53344727 131.31689453 C11.54323608 133.07357956 11.54323608 133.07357956 11.55322266 134.86575317 C11.46153407 142.72274286 10.35804174 148.16796032 5.03515625 154.2421875 C4.38417969 154.78101563 3.73320312 155.31984375 3.0625 155.875 C2.41410156 156.42929687 1.76570312 156.98359375 1.09765625 157.5546875 C-3.00721265 160.38299568 -6.60649098 161.25005313 -11.55435181 161.24723816 C-12.65914383 161.25143265 -13.76393585 161.25562714 -14.90220642 161.25994873 C-16.70559227 161.25151947 -16.70559227 161.25151947 -18.54541016 161.24291992 C-20.45585365 161.24576744 -20.45585365 161.24576744 -22.40489197 161.24867249 C-25.89027135 161.25351016 -29.37552225 161.2458793 -32.8608861 161.23571944 C-36.50966269 161.22692373 -40.15843543 161.22869666 -43.80722046 161.2290802 C-49.93204901 161.22814441 -56.05682793 161.21947078 -62.18164062 161.20581055 C-69.26455419 161.19007192 -76.34741348 161.18481298 -83.43034327 161.1855461 C-90.24497584 161.1861562 -97.05959073 161.18105327 -103.87421799 161.17275429 C-106.77447014 161.16922241 -109.67471604 161.16739118 -112.57497025 161.16686058 C-116.62113259 161.16567056 -120.66723055 161.15596297 -124.71337891 161.14526367 C-125.9196846 161.14571686 -127.1259903 161.14617004 -128.36885071 161.14663696 C-129.46800308 161.14237198 -130.56715546 161.13810699 -131.69961548 161.13371277 C-132.65639505 161.13203692 -133.61317463 161.13036108 -134.59894753 161.12863445 C-137 161 -137 161 -140 160 C-140 159.34 -140 158.68 -140 158 C-94.46 158 -48.92 158 -2 158 C-2 157.34 -2 156.68 -2 156 C-1.34 156 -0.68 156 0 156 C0 155.34 0 154.68 0 154 C1.375 152.375 1.375 152.375 3 151 C3.66 151 4.32 151 5 151 C5.185625 149.8553125 5.185625 149.8553125 5.375 148.6875 C6 146 6 146 8 143 C8.30113674 140.66981715 8.30113674 140.66981715 8.25396729 138.03697205 C8.25960693 137.0123587 8.26524658 135.98774536 8.27105713 134.93208313 C8.26700867 133.80843857 8.26296021 132.68479401 8.25878906 131.52709961 C8.2622937 130.34303528 8.26579834 129.15897095 8.26940918 127.93902588 C8.27671281 124.68858082 8.27498565 121.43829816 8.26865101 118.18785548 C8.26358472 114.7799017 8.26828497 111.37195873 8.27142334 107.96400452 C8.27506461 102.23322608 8.2702633 96.50249913 8.26074219 90.77172852 C8.24989362 84.16611763 8.25335624 77.56063056 8.264395 70.95502275 C8.27350683 65.27331362 8.27473311 59.59164152 8.26951766 53.90992743 C8.2664146 50.52149881 8.26594173 47.13312809 8.27259064 43.74470329 C8.2776955 39.95593924 8.26988816 36.16740887 8.25878906 32.37866211 C8.26486176 30.71444969 8.26486176 30.71444969 8.27105713 29.01661682 C8.23957403 23.18656492 7.78015843 17.82181471 6.42840195 12.14293766 C6 10 6 10 6 6 C5.01 6 4.02 6 3 6 C3 5.34 3 4.68 3 4 C1.35 3.67 -0.3 3.34 -2 3 C-1.34 2.67 -0.68 2.34 0 2 C0 1.34 0 0.68 0 0 Z " fill="#C03D3B" transform="translate(463,209)"/>
<path d="M0 0 C1.31761322 0.00141495 2.63522644 0.0028299 3.99276733 0.00428772 C7.46146615 0.00806897 10.93012174 0.01786063 14.39880371 0.0289917 C17.95206111 0.03930135 21.50532564 0.04380562 25.05859375 0.04882812 C32.00522586 0.05948776 38.95182959 0.07651002 45.8984375 0.09765625 C46.3934375 1.58265625 46.3934375 1.58265625 46.8984375 3.09765625 C43.87205975 4.10644883 41.90780021 4.20763897 38.74707031 4.17944336 C37.69457092 4.17291245 36.64207153 4.16638153 35.55767822 4.15965271 C34.41716003 4.14821732 33.27664185 4.13678192 32.1015625 4.125 C29.6731786 4.11233685 27.24479309 4.09997718 24.81640625 4.08789062 C20.99880965 4.0632405 17.18129702 4.03544665 13.36376953 4.00170898 C-9.03475909 2.39928689 -9.03475909 2.39928689 -30.1015625 8.09765625 C-31.0915625 9.58265625 -31.0915625 9.58265625 -32.1015625 11.09765625 C-32.7615625 11.09765625 -33.4215625 11.09765625 -34.1015625 11.09765625 C-36.23636403 18.83631179 -36.30639278 26.09789581 -36.1015625 34.09765625 C-39.15513085 31.0440879 -39.02792244 28.05497703 -39.3515625 23.84765625 C-38.84580487 16.26129178 -36.54595276 10.41831037 -31.1015625 5.09765625 C-22.04729873 -1.47112335 -10.74203193 -0.04397373 0 0 Z " fill="#DD3F38" transform="translate(347.1015625,322.90234375)"/>
<path d="M0 0 C44.22 0.33 88.44 0.66 134 1 C134 1.66 134 2.32 134 3 C116.97153559 3.02334524 99.94307616 3.04098718 82.91459942 3.05181217 C75.00824639 3.05697167 67.10190329 3.06400779 59.19555664 3.07543945 C52.30556523 3.08539684 45.41558102 3.09185595 38.52558261 3.09408849 C34.87633137 3.0953938 31.22710072 3.09846834 27.57785606 3.10573006 C23.50721696 3.11376485 19.4366138 3.11399045 15.3659668 3.11352539 C14.15180588 3.11712067 12.93764496 3.12071594 11.68669128 3.12442017 C10.58031311 3.1230455 9.47393494 3.12167084 8.33403015 3.12025452 C7.37075648 3.12117631 6.40748281 3.1220981 5.41501904 3.12304783 C3 3 3 3 0 2 C0 1.34 0 0.68 0 0 Z " fill="#BF2C27" transform="translate(323,367)"/>
<path d="M0 0 C0.48586118 6.31619537 0.48586118 6.31619537 -1.6875 9.375 C-4.19118187 11.13434402 -5.98200506 11.66466723 -9 12 C-9.0928125 12.928125 -9.0928125 12.928125 -9.1875 13.875 C-9.455625 14.57625 -9.72375 15.2775 -10 16 C-10.825 16.309375 -11.65 16.61875 -12.5 16.9375 C-13.325 17.288125 -14.15 17.63875 -15 18 C-15.39171753 19.65391846 -15.72057545 21.32345271 -16 23 C-17.875 25.3125 -17.875 25.3125 -20 27 C-20.99 27 -21.98 27 -23 27 C-22.9278125 27.75796875 -22.855625 28.5159375 -22.78125 29.296875 C-23 32 -23 32 -24.46875 33.765625 C-29.41226562 37.37819411 -32.86042266 38.78072938 -39 39 C-39.66 38.01 -40.32 37.02 -41 36 C-43.05003955 34.80767387 -43.05003955 34.80767387 -45 34 C-45 32.68 -45 31.36 -45 30 C-46.32 30 -47.64 30 -49 30 C-49.33 28.02 -49.66 26.04 -50 24 C-49.34 24 -48.68 24 -48 24 C-46.44921875 25.609375 -46.44921875 25.609375 -44.6875 27.75 C-42.05229985 30.94777097 -39.29481152 33.48210617 -36 36 C-34.0177733 34.04468135 -32.03914884 32.08594334 -30.0625 30.125 C-29.49853516 29.56941406 -28.93457031 29.01382813 -28.35351562 28.44140625 C-25.30139972 25.5078429 -25.30139972 25.5078429 -23 22 C-22.34 22 -21.68 22 -21 22 C-21 21.34 -21 20.68 -21 20 C-20.34 20 -19.68 20 -19 20 C-18.74549072 19.42024414 -18.49098145 18.84048828 -18.22875977 18.24316406 C-16.86828821 15.75955336 -15.34637906 14.1032937 -13.33984375 12.109375 C-12.62892578 11.40039062 -11.91800781 10.69140625 -11.18554688 9.9609375 C-10.44369141 9.23132813 -9.70183594 8.50171875 -8.9375 7.75 C-8.19177734 7.00492188 -7.44605469 6.25984375 -6.67773438 5.4921875 C-1.14028159 0 -1.14028159 0 0 0 Z " fill="#D91E19" transform="translate(222,209)"/>
<path d="M0 0 C2.31 0 4.62 0 7 0 C2.07632406 5.94510621 -3.25664615 11.37056914 -8.73828125 16.80078125 C-10.14571012 18.20242592 -11.55313629 19.60407331 -12.96039867 21.00588512 C-15.4089573 23.44357943 -17.86084179 25.87792372 -20.3125 28.3125 C-23.2594398 31.23904077 -26.20576631 34.16618087 -29.14823914 37.09721375 C-30.97551638 38.91694212 -32.80505659 40.73440145 -34.63703918 42.5493927 C-35.45846909 43.36751938 -36.27989899 44.18564606 -37.1262207 45.02856445 C-37.85202835 45.74913528 -38.577836 46.46970612 -39.32563782 47.21211243 C-41.07217079 48.90686843 -41.07217079 48.90686843 -42 51 C-42.66 51 -43.32 51 -44 51 C-44 51.66 -44 52.32 -44 53 C-44.66 53 -45.32 53 -46 53 C-46 53.66 -46 54.32 -46 55 C-46.66 55 -47.32 55 -48 55 C-48 55.66 -48 56.32 -48 57 C-48.66 57 -49.32 57 -50 57 C-50.33 57.99 -50.66 58.98 -51 60 C-51.66 60 -52.32 60 -53 60 C-53 60.66 -53 61.32 -53 62 C-53.66 62 -54.32 62 -55 62 C-55 62.66 -55 63.32 -55 64 C-55.66 64 -56.32 64 -57 64 C-56.67 62.68 -56.34 61.36 -56 60 C-54.02 59.505 -54.02 59.505 -52 59 C-51.505 56.03 -51.505 56.03 -51 53 C-50.01 53 -49.02 53 -48 53 C-48 52.01 -48 51.02 -48 50 C-46.68 50 -45.36 50 -44 50 C-43.67 48.35 -43.34 46.7 -43 45 C-41.68 45 -40.36 45 -39 45 C-38.67 43.68 -38.34 42.36 -38 41 C-37.01 41 -36.02 41 -35 41 C-35 39.68 -35 38.36 -35 37 C-33.02 36.505 -33.02 36.505 -31 36 C-31 35.34 -31 34.68 -31 34 C-29.68799596 32.64567325 -28.35368596 31.31266518 -27 30 C-26.67 29.34 -26.34 28.68 -26 28 C-25.01 28 -24.02 28 -23 28 C-23 26.68 -23 25.36 -23 24 C-21.68 24 -20.36 24 -19 24 C-19 23.01 -19 22.02 -19 21 C-17.68 21 -16.36 21 -15 21 C-15 19.68 -15 18.36 -15 17 C-14.01 17 -13.02 17 -12 17 C-12 16.01 -12 15.02 -12 14 C-11.34 14 -10.68 14 -10 14 C-9.67 12.35 -9.34 10.7 -9 9 C-7.35 9 -5.7 9 -4 9 C-4 7.68 -4 6.36 -4 5 C-2.68 5 -1.36 5 0 5 C0 3.35 0 1.7 0 0 Z " fill="#D4322F" transform="translate(259,231)"/>
<path d="M0 0 C3.54905382 0.60840923 6.80087037 1.31157047 10 3 C10.3721042 4.32303717 10.70630173 5.65737935 11 7 C12.31403276 7.70394612 13.6520257 8.36345658 15 9 C19.77777778 13.33333333 19.77777778 13.33333333 21 17 C22.65 17 24.3 17 26 17 C26.33 16.34 26.66 15.68 27 15 C27 17.31 27 19.62 27 22 C27.66 22.33 28.32 22.66 29 23 C29 23.99 29 24.98 29 26 C30.98 26.33 32.96 26.66 35 27 C35 28.32 35 29.64 35 31 C36.32 31.33 37.64 31.66 39 32 C39 32.99 39 33.98 39 35 C40.32 35 41.64 35 43 35 C43 36.65 43 38.3 43 40 C43.99 40.495 43.99 40.495 45 41 C42 41 42 41 40.1966095 39.55737305 C39.52820541 38.88230713 38.85980133 38.20724121 38.17114258 37.51171875 C37.03029961 36.37053589 37.03029961 36.37053589 35.8664093 35.20629883 C35.05068954 34.37509521 34.23496979 33.5438916 33.39453125 32.6875 C32.55532639 31.84405029 31.71612152 31.00060059 30.85148621 30.1315918 C28.1647262 27.42799842 25.48856565 24.71417532 22.8125 22 C20.99612983 20.1685891 19.1790811 18.33785091 17.36132812 16.5078125 C12.8996402 12.01299342 8.44661823 7.50972499 4 3 C3.21625 3.825 2.4325 4.65 1.625 5.5 C-1 8 -1 8 -3 8 C-3.66 9.32 -4.32 10.64 -5 12 C-5.66 12 -6.32 12 -7 12 C-7.20625 12.556875 -7.4125 13.11375 -7.625 13.6875 C-9.55000774 16.92501302 -12.03850902 18.68231141 -15 21 C-15 19.02 -15 17.04 -15 15 C-14.34 15 -13.68 15 -13 15 C-13 14.34 -13 13.68 -13 13 C-12.01 13 -11.02 13 -10 13 C-10.33 11.68 -10.66 10.36 -11 9 C-9.35 9.33 -7.7 9.66 -6 10 C-6 9.01 -6 8.02 -6 7 C-4.68 7 -3.36 7 -2 7 C-1.855625 6.21625 -1.71125 5.4325 -1.5625 4.625 C-1 2 -1 2 0 0 Z " fill="#DA3C3B" transform="translate(281,210)"/>
<path d="M0 0 C2.53288358 1.80576301 4.92609879 3.67334208 7 6 C7 6.66 7 7.32 7 8 C7.598125 8.2475 8.19625 8.495 8.8125 8.75 C11.28647521 10.16370012 12.43370255 11.65055383 14 14 C13.01 14 12.02 14 11 14 C10.67 14.66 10.34 15.32 10 16 C10 14.68 10 13.36 10 12 C9.34 12 8.68 12 8 12 C8 11.34 8 10.68 8 10 C7.05125 9.71125 6.1025 9.4225 5.125 9.125 C2 8 2 8 0 6 C0.33 5.34 0.66 4.68 1 4 C-5.27792478 1.71711826 -11.3526679 1.54915571 -18 2 C-18.33 2.33 -18.66 2.66 -19 3 C-20.66617115 3.04063832 -22.33388095 3.042721 -24 3 C-24.33 3.99 -24.66 4.98 -25 6 C-25.61875 6.28875 -26.2375 6.5775 -26.875 6.875 C-29.23672471 7.87962174 -29.23672471 7.87962174 -30.4375 10.5625 C-32 13 -32 13 -34.6875 13.8125 C-35.450625 13.874375 -36.21375 13.93625 -37 14 C-37 14.66 -37 15.32 -37 16 C-37.66 16 -38.32 16 -39 16 C-39 16.66 -39 17.32 -39 18 C-40.3125 19.625 -40.3125 19.625 -42 21 C-42.99 21 -43.98 21 -45 21 C-45 20.34 -45 19.68 -45 19 C-44.34 19 -43.68 19 -43 19 C-42.731875 18.401875 -42.46375 17.80375 -42.1875 17.1875 C-41.00082594 15.00152146 -39.90400887 13.58667406 -38 12 C-37.34 12 -36.68 12 -36 12 C-36 11.34 -36 10.68 -36 10 C-35.34 10 -34.68 10 -34 10 C-34 9.34 -34 8.68 -34 8 C-33.34 8 -32.68 8 -32 8 C-32 7.34 -32 6.68 -32 6 C-31.34 6 -30.68 6 -30 6 C-30 5.34 -30 4.68 -30 4 C-28.171875 2.52734375 -28.171875 2.52734375 -25.75 0.9375 C-24.96109375 0.41027344 -24.1721875 -0.11695313 -23.359375 -0.66015625 C-16.15017332 -4.75412343 -7.11886134 -3.90528628 0 0 Z " fill="#DE1111" transform="translate(297,158)"/>
<path d="M0 0 C1.29357422 0.04833984 1.29357422 0.04833984 2.61328125 0.09765625 C11.09307477 2.41424533 17.31733799 9.1629928 23.25 15.3125 C23.97251953 16.04855469 24.69503906 16.78460938 25.43945312 17.54296875 C27.19597114 19.33438447 28.94501446 21.13245054 30.6875 22.9375 C30.0275 23.5975 29.3675 24.2575 28.6875 24.9375 C28.6875 24.2775 28.6875 23.6175 28.6875 22.9375 C27.3675 22.9375 26.0475 22.9375 24.6875 22.9375 C24.6875 21.6175 24.6875 20.2975 24.6875 18.9375 C22.7075 18.9375 20.7275 18.9375 18.6875 18.9375 C18.64625 18.380625 18.605 17.82375 18.5625 17.25 C17.21819626 13.69719726 14.67775811 12.22791047 11.6875 9.9375 C12.0175 8.9475 12.3475 7.9575 12.6875 6.9375 C10.2125 6.4425 10.2125 6.4425 7.6875 5.9375 C7.6875 5.2775 7.6875 4.6175 7.6875 3.9375 C5.12471301 3.88329299 2.56308517 3.84372993 0 3.8125 C-0.72123047 3.79574219 -1.44246094 3.77898437 -2.18554688 3.76171875 C-9.65547704 3.69350021 -14.01997641 5.76097693 -19.3125 10.9375 C-23.7022133 15.67376962 -23.85228874 19.82528009 -23.64453125 26.01953125 C-23.0965616 30.83521744 -21.80416013 34.44583987 -18.3125 37.9375 C-18.6425 38.9275 -18.9725 39.9175 -19.3125 40.9375 C-24.64604416 33.91967873 -27.46874119 27.90578104 -26.3125 18.9375 C-24.0448002 10.36903936 -18.46055717 5.70287145 -11.3125 0.9375 C-7.53097508 -0.10241935 -3.89286031 -0.15244768 0 0 Z " fill="#C63D3E" transform="translate(57.3125,122.0625)"/>
<path d="M0 0 C5.58764256 4.66007905 10.79172605 9.60863546 15.9375 14.75 C16.71673828 15.51699219 17.49597656 16.28398437 18.29882812 17.07421875 C19.40194336 18.17443359 19.40194336 18.17443359 20.52734375 19.296875 C21.19499756 19.96041992 21.86265137 20.62396484 22.55053711 21.30761719 C24 23 24 23 24 25 C24.66 25 25.32 25 26 25 C27.38938077 26.96147874 28.7260411 28.96166576 30 31 C25.71193127 30.52354792 23.73352513 29.34097516 21 26 C21 25.34 21 24.68 21 24 C19.35 23.34 17.7 22.68 16 22 C16 20.68 16 19.36 16 18 C15.01 18 14.02 18 13 18 C13 16.68 13 15.36 13 14 C12.01 14 11.02 14 10 14 C10 13.34 10 12.68 10 12 C9.21625 11.855625 8.4325 11.71125 7.625 11.5625 C5 11 5 11 3 10 C3 8.68 3 7.36 3 6 C2.34 6 1.68 6 1 6 C0.67 4.02 0.34 2.04 0 0 Z " fill="#DA3D3D" transform="translate(355,217)"/>
<path d="M0 0 C0.625 1.8125 0.625 1.8125 1 4 C0.01 5.485 0.01 5.485 -1 7 C-1.36873372 10.09340146 -1.36873372 10.09340146 -1.41064453 13.67456055 C-1.43044373 14.347995 -1.45024292 15.02142944 -1.47064209 15.715271 C-1.53376474 17.93894439 -1.58334216 20.16270322 -1.6328125 22.38671875 C-1.67396103 23.92945056 -1.71595424 25.47216005 -1.75875854 27.0148468 C-1.86910326 31.07363812 -1.96796355 35.13263129 -2.06445312 39.19177246 C-2.16495441 43.33441108 -2.27628919 47.47675688 -2.38671875 51.61914062 C-2.60176326 59.7458461 -2.8046788 67.87279668 -3 76 C-3.99 75.67 -4.98 75.34 -6 75 C-5.01 74.505 -5.01 74.505 -4 74 C-4.01332367 72.80849083 -4.01332367 72.80849083 -4.0269165 71.59291077 C-4.10734825 64.0757988 -4.16810854 56.558898 -4.20724869 49.04146671 C-4.22804818 45.17744016 -4.25622388 41.3137717 -4.30175781 37.44995117 C-4.3454913 33.71517396 -4.36919443 29.98073932 -4.37950897 26.24572563 C-4.38685143 24.82686413 -4.40118869 23.40801957 -4.42292023 21.9893055 C-4.5434854 13.78576042 -4.28542547 7.15495377 0 0 Z " fill="#C94742" transform="translate(431,215)"/>
<path d="M0 0 C3.3125 0.125 3.3125 0.125 7 1 C8.75 4 8.75 4 10 7 C10.99 7.33 11.98 7.66 13 8 C13.33 9.65 13.66 11.3 14 13 C15.65 13 17.3 13 19 13 C19.33 14.65 19.66 16.3 20 18 C20.78375 18.0825 21.5675 18.165 22.375 18.25 C25 19 25 19 26.1875 21 C26.455625 21.66 26.72375 22.32 27 23 C27.66 23.33 28.32 23.66 29 24 C29 25.65 29 27.3 29 29 C23.01472264 24.07242944 17.53689775 18.69051775 12.07250977 13.20288086 C10.54492879 11.66986628 9.01197919 10.14236233 7.47851562 8.61523438 C6.50749107 7.64355027 5.53677608 6.67155669 4.56640625 5.69921875 C3.68927979 4.82096436 2.81215332 3.94270996 1.90844727 3.0378418 C0 1 0 1 0 0 Z " fill="#D82621" transform="translate(348,276)"/>
<path d="M0 0 C0.66 0 1.32 0 2 0 C2 1.32 2 2.64 2 4 C3.65 4 5.3 4 7 4 C7.12375 5.175625 7.12375 5.175625 7.25 6.375 C7.72806339 9.14749104 7.72806339 9.14749104 10.0625 10.3125 C10.701875 10.539375 11.34125 10.76625 12 11 C12 11.66 12 12.32 12 13 C14.98241547 13.77321882 17.97580475 14.41196203 21 15 C21.33 17.97 21.66 20.94 22 24 C23.32 24 24.64 24 26 24 C26 24.66 26 25.32 26 26 C24.68 26.33 23.36 26.66 22 27 C21.59837646 26.52691406 21.19675293 26.05382812 20.78295898 25.56640625 C16.10656083 20.13190589 11.1588775 15.03960551 6.0625 10 C5.28326172 9.22527344 4.50402344 8.45054687 3.70117188 7.65234375 C1.8030758 5.76589243 -0.09733149 3.88183755 -2 2 C-1.34 1.34 -0.68 0.68 0 0 Z " fill="#D22C2B" transform="translate(41,162)"/>
<path d="M0 0 C0.99 0.495 0.99 0.495 2 1 C2 1.66 2 2.32 2 3 C3.65 3 5.3 3 7 3 C7.33 2.34 7.66 1.68 8 1 C8 3.31 8 5.62 8 8 C8.66 8.33 9.32 8.66 10 9 C10 9.99 10 10.98 10 12 C12.97 12.495 12.97 12.495 16 13 C16 14.32 16 15.64 16 17 C17.32 17.33 18.64 17.66 20 18 C20 18.99 20 19.98 20 21 C21.32 21 22.64 21 24 21 C24 22.65 24 24.3 24 26 C24.66 26.33 25.32 26.66 26 27 C22.41871534 27 21.63201714 26.00619779 19.15339661 23.59588623 C18.66578354 23.10533752 18.17817047 22.61478882 17.67578125 22.109375 C17.16951706 21.60835266 16.66325287 21.10733032 16.14164734 20.59112549 C15.07299194 19.52889529 14.00820562 18.46276057 12.94702148 17.39306641 C11.32037753 15.75791871 9.67598931 14.14226957 8.02929688 12.52734375 C6.9936603 11.49331939 5.95911735 10.45819831 4.92578125 9.421875 C4.43209549 8.93942322 3.93840973 8.45697144 3.42976379 7.9598999 C0.52454175 4.99422068 0 4.36070477 0 0 Z " fill="#DB2A29" transform="translate(300,224)"/>
<path d="M0 0 C4.554787 3.80014774 8.95279259 7.65665546 13 12 C13 12.66 13 13.32 13 14 C13.66 14 14.32 14 15 14 C16.48046875 15.50390625 16.48046875 15.50390625 18.1875 17.5625 C21.20055402 21.11992933 24.36111827 24.41655147 27.71484375 27.65234375 C29 29 29 29 29 30 C27.02 30 25.04 30 23 30 C23 29.01 23 28.02 23 27 C22.38125 26.95875 21.7625 26.9175 21.125 26.875 C20.42375 26.58625 19.7225 26.2975 19 26 C17.75 22.9375 17.75 22.9375 17 20 C15.68 20 14.36 20 13 20 C12.71125 18.88625 12.4225 17.7725 12.125 16.625 C11.30758671 12.99708908 11.30758671 12.99708908 9 11 C6.93125966 10.3574765 6.93125966 10.3574765 5 10 C5 8.68 5 7.36 5 6 C3.35 5.67 1.7 5.34 0 5 C0 3.35 0 1.7 0 0 Z " fill="#D2100D" transform="translate(127,186)"/>
<path d="M0 0 C0 0.66 0 1.32 0 2 C-1.64453125 3.25390625 -1.64453125 3.25390625 -3.8125 4.5625 C-4.87404297 5.21412109 -4.87404297 5.21412109 -5.95703125 5.87890625 C-11.31933051 8.82150642 -17.04595531 8.56382999 -23 8 C-26.10010138 6.99055341 -28.2198145 5.78351522 -31 4 C-31.33 3.34 -31.66 2.68 -32 2 C-30.02 2 -28.04 2 -26 2 C-26 2.66 -26 3.32 -26 4 C-16.83531005 4.35248807 -8.20729256 0 0 0 Z " fill="#D23732" transform="translate(202,295)"/>
<path d="M0 0 C2.31 0 4.62 0 7 0 C2.32533663 5.62303757 -2.67765667 10.79741554 -7.875 15.9375 C-8.65875 16.71673828 -9.4425 17.49597656 -10.25 18.29882812 C-12.16438581 20.20154085 -14.08108034 22.10186171 -16 24 C-16.33 23.01 -16.66 22.02 -17 21 C-16.34 21 -15.68 21 -15 21 C-15 19.68 -15 18.36 -15 17 C-14.01 17 -13.02 17 -12 17 C-12 16.01 -12 15.02 -12 14 C-11.34 14 -10.68 14 -10 14 C-9.67 12.35 -9.34 10.7 -9 9 C-7.35 9 -5.7 9 -4 9 C-4 7.68 -4 6.36 -4 5 C-2.68 5 -1.36 5 0 5 C0 3.35 0 1.7 0 0 Z " fill="#DA3735" transform="translate(259,231)"/>
<path d="M0 0 C1.15224028 0.92961422 2.29659176 1.8690125 3.4375 2.8125 C4.07558594 3.33457031 4.71367187 3.85664063 5.37109375 4.39453125 C7 6 7 6 8 9 C8.66 9 9.32 9 10 9 C10 9.66 10 10.32 10 11 C10.556875 11.226875 11.11375 11.45375 11.6875 11.6875 C14.66159588 13.37550036 16.72008865 15.46676517 19 18 C19 18.66 19 19.32 19 20 C19.66 20 20.32 20 21 20 C22.2890625 21.53125 22.2890625 21.53125 23.625 23.5 C24.07101562 24.1496875 24.51703125 24.799375 24.9765625 25.46875 C25.31429688 25.9740625 25.65203125 26.479375 26 27 C25.01 27 24.02 27 23 27 C22.67 26.34 22.34 25.68 22 25 C21.195625 24.566875 20.39125 24.13375 19.5625 23.6875 C17 22 17 22 16 19.4375 C15.22700972 16.75747547 15.22700972 16.75747547 12.5 15.875 C11.2625 15.441875 11.2625 15.441875 10 15 C9.34 14.01 8.68 13.02 8 12 C7.01 11.67 6.02 11.34 5 11 C3.8671875 9.2578125 3.8671875 9.2578125 2.875 7.125 C2.37613281 6.07699219 2.37613281 6.07699219 1.8671875 5.0078125 C1 3 1 3 0 0 Z " fill="#D0423C" transform="translate(311,172)"/>
<path d="M0 0 C5.46687633 2.98193254 8.02719401 6.05908537 10 12 C10.51066441 15.91864887 10.46803857 19.77254619 10.390625 23.71875 C10.38496521 24.81723267 10.37930542 25.91571533 10.37347412 27.04748535 C10.35120753 30.5321132 10.30102752 34.01568656 10.25 37.5 C10.22992252 39.87238091 10.21167394 42.24477805 10.1953125 44.6171875 C10.15137465 50.4118139 10.08455981 56.20583159 10 62 C9.67 62 9.34 62 9 62 C8.98018066 60.78006348 8.96036133 59.56012695 8.93994141 58.30322266 C8.8633354 53.73694718 8.77470686 49.17096774 8.68261719 44.60498047 C8.64455305 42.63629033 8.60966268 40.66753597 8.578125 38.69873047 C8.5319801 35.85360909 8.47407219 33.00892133 8.4140625 30.1640625 C8.40251129 29.29697662 8.39096008 28.42989075 8.37905884 27.53652954 C8.254304 22.26173313 7.60733309 17.36499886 6.42294312 12.22079468 C6 10 6 10 6 6 C5.01 6 4.02 6 3 6 C3 5.34 3 4.68 3 4 C1.35 3.67 -0.3 3.34 -2 3 C-1.34 2.67 -0.68 2.34 0 2 C0 1.34 0 0.68 0 0 Z " fill="#C21818" transform="translate(463,209)"/>
<path d="M0 0 C5.57702466 3.34269617 9.84707713 7.61563409 14.375 12.25 C15.11105469 12.99507812 15.84710938 13.74015625 16.60546875 14.5078125 C18.40830047 16.33405762 20.20626978 18.16482205 22 20 C21.34 20.66 20.68 21.32 20 22 C20 21.34 20 20.68 20 20 C18.68 20 17.36 20 16 20 C16 18.68 16 17.36 16 16 C14.02 16 12.04 16 10 16 C9.95875 15.443125 9.9175 14.88625 9.875 14.3125 C8.53069626 10.75969726 5.99025811 9.29041047 3 7 C3.33 6.01 3.66 5.02 4 4 C2.35 3.67 0.7 3.34 -1 3 C-0.67 2.01 -0.34 1.02 0 0 Z " fill="#D6413C" transform="translate(66,125)"/>
<path d="M0 0 C0.99 0 1.98 0 3 0 C3.33 1.32 3.66 2.64 4 4 C5.65 4 7.3 4 9 4 C9.66 5.65 10.32 7.3 11 9 C11.66 9 12.32 9 13 9 C13 9.66 13 10.32 13 11 C13.66 11 14.32 11 15 11 C15.33 12.32 15.66 13.64 16 15 C17.32 15 18.64 15 20 15 C19.67 16.65 19.34 18.3 19 20 C14.28619206 16.14324805 9.89174933 12.0281064 5.5625 7.75 C5.01819336 7.21858398 4.47388672 6.68716797 3.91308594 6.13964844 C2.56872207 4.79870752 1.27925552 3.40318996 0 2 C0 1.34 0 0.68 0 0 Z " fill="#D02826" transform="translate(112,237)"/>
<path d="M0 0 C7.34177215 1.22362869 7.34177215 1.22362869 10.4375 4.875 C11.66827658 7.33655316 12.58501728 9.30261234 13 12 C14.65 12 16.3 12 18 12 C18 13.98 18 15.96 18 18 C17.34 18 16.68 18 16 18 C16 17.34 16 16.68 16 16 C15.34 16 14.68 16 14 16 C14 15.34 14 14.68 14 14 C13.401875 13.731875 12.80375 13.46375 12.1875 13.1875 C10.00152146 12.00082594 8.58667406 10.90400887 7 9 C7 8.34 7 7.68 7 7 C6.34 7 5.68 7 5 7 C5 6.34 5 5.68 5 5 C4.34 5 3.68 5 3 5 C3 4.34 3 3.68 3 3 C2.34 3 1.68 3 1 3 C0.67 2.01 0.34 1.02 0 0 Z " fill="#DA1113" transform="translate(94,219)"/>
<path d="M0 0 C2.97 0.99 5.94 1.98 9 3 C9.33 5.31 9.66 7.62 10 10 C10.99 10 11.98 10 13 10 C13.061875 10.928125 13.061875 10.928125 13.125 11.875 C13.41375 12.57625 13.7025 13.2775 14 14 C16.99615946 15.3045656 16.99615946 15.3045656 20 16 C20.33 17.98 20.66 19.96 21 22 C16.11606829 18.02470675 11.59896123 13.7374248 7.125 9.3125 C6.24968628 8.45652222 6.24968628 8.45652222 5.35668945 7.58325195 C1.11826397 3.35479191 1.11826397 3.35479191 0 0 Z " fill="#DA2F2F" transform="translate(149,275)"/>
<path d="M0 0 C0.33 0 0.66 0 1 0 C1 10.23 1 20.46 1 31 C0.67 31 0.34 31 0 31 C-0.33 37.6 -0.66 44.2 -1 51 C-1.33 51 -1.66 51 -2 51 C-2.02517837 46.45085022 -2.04307982 41.90174312 -2.05493164 37.35253906 C-2.05988508 35.81281831 -2.06664968 34.27310206 -2.07543945 32.73339844 C-2.13424342 22.14868395 -2.11681076 11.53811174 -1 1 C-0.67 0.67 -0.34 0.34 0 0 Z " fill="#E00E0A" transform="translate(430,240)"/>
<path d="M0 0 C0.66 0.33 1.32 0.66 2 1 C-0.75 5.875 -0.75 5.875 -3 7 C-3.433125 7.825 -3.86625 8.65 -4.3125 9.5 C-6 12 -6 12 -8.6875 12.8125 C-9.450625 12.874375 -10.21375 12.93625 -11 13 C-11 13.66 -11 14.32 -11 15 C-11.66 15 -12.32 15 -13 15 C-13 15.66 -13 16.32 -13 17 C-14.3125 18.625 -14.3125 18.625 -16 20 C-16.99 20 -17.98 20 -19 20 C-19 19.34 -19 18.68 -19 18 C-18.34 18 -17.68 18 -17 18 C-16.731875 17.401875 -16.46375 16.80375 -16.1875 16.1875 C-15.00082594 14.00152146 -13.90400887 12.58667406 -12 11 C-11.34 11 -10.68 11 -10 11 C-10 10.34 -10 9.68 -10 9 C-9.34 9 -8.68 9 -8 9 C-8 8.34 -8 7.68 -8 7 C-7.34 7 -6.68 7 -6 7 C-6 6.34 -6 5.68 -6 5 C-5.34 5 -4.68 5 -4 5 C-4 4.34 -4 3.68 -4 3 C-2 1.375 -2 1.375 0 0 Z " fill="#D52725" transform="translate(271,159)"/>
<path d="M0 0 C1.125 3.75 1.125 3.75 0 6 C-0.66 6 -1.32 6 -2 6 C-2.66 7.32 -3.32 8.64 -4 10 C-4.66 10 -5.32 10 -6 10 C-6.20625 10.556875 -6.4125 11.11375 -6.625 11.6875 C-8.55000774 14.92501302 -11.03850902 16.68231141 -14 19 C-14 17.02 -14 15.04 -14 13 C-13.34 13 -12.68 13 -12 13 C-12 12.34 -12 11.68 -12 11 C-11.01 11 -10.02 11 -9 11 C-9.33 9.68 -9.66 8.36 -10 7 C-8.35 7.33 -6.7 7.66 -5 8 C-5 7.01 -5 6.02 -5 5 C-3.68 5 -2.36 5 -1 5 C-0.67 3.35 -0.34 1.7 0 0 Z " fill="#DA4140" transform="translate(280,212)"/>
<path d="M0 0 C0.66 0.33 1.32 0.66 2 1 C1.04882866 2.1725131 0.08882991 3.33787015 -0.875 4.5 C-1.67550781 5.47453125 -1.67550781 5.47453125 -2.4921875 6.46875 C-2.98976563 6.9740625 -3.48734375 7.479375 -4 8 C-4.66 8 -5.32 8 -6 8 C-8.13480153 15.73865554 -8.20483028 23.00023956 -8 31 C-11.05356835 27.94643165 -10.92635994 24.95732078 -11.25 20.75 C-10.73869414 13.08041206 -8.35031339 7.48407123 -3 2 C-2.01 1.34 -1.02 0.68 0 0 Z " fill="#D75C5B" transform="translate(319,326)"/>
<path d="M0 0 C6.78376359 5.55035203 12.85522968 11.76442027 19 18 C15.25 19.125 15.25 19.125 13 18 C13 16.68 13 15.36 13 14 C11.35 14 9.7 14 8 14 C8 12.68 8 11.36 8 10 C7.401875 9.731875 6.80375 9.46375 6.1875 9.1875 C3.93395607 7.96414758 2.57141964 7.02039668 1 5 C0.3125 2.3125 0.3125 2.3125 0 0 Z " fill="#D13431" transform="translate(395,258)"/>
<path d="M0 0 C1.1055189 0.93590504 2.20935453 1.87379858 3.3125 2.8125 C3.92738281 3.33457031 4.54226562 3.85664063 5.17578125 4.39453125 C8.51952278 7.3373102 8.51952278 7.3373102 10 9 C10 9.66 10 10.32 10 11 C10.66 11 11.32 11 12 11 C12 11.66 12 12.32 12 13 C12.66 13 13.32 13 14 13 C14 13.66 14 14.32 14 15 C14.66 15 15.32 15 16 15 C16 15.66 16 16.32 16 17 C14.35 17 12.7 17 11 17 C10.34 15.35 9.68 13.7 9 12 C8.34 12 7.68 12 7 12 C7 10.68 7 9.36 7 8 C5.35 7.67 3.7 7.34 2 7 C2 6.01 2 5.02 2 4 C1.34 4 0.68 4 0 4 C0 2.68 0 1.36 0 0 Z " fill="#D54546" transform="translate(156,216)"/>
<path d="M0 0 C0.6875 1.75 0.6875 1.75 1 4 C0.51917969 4.58652344 0.03835937 5.17304688 -0.45703125 5.77734375 C-3.35783137 9.95596468 -2.48539245 15.11414183 -2 20 C-1.0279727 23.62017861 0.31595384 26.31595384 3 29 C2.67 29.99 2.34 30.98 2 32 C-2.8138653 25.66596671 -5.48345349 20.49469147 -5.33203125 12.38671875 C-4.7493614 8.19835077 -3.06038092 3.06038092 0 0 Z " fill="#D56461" transform="translate(36,131)"/>
<path d="M0 0 C0.33 1.32 0.66 2.64 1 4 C-1.18922363 6.62706835 -3.09532745 8.56058762 -6.1875 10.0625 C-8.52860931 11.27341861 -9.04071126 12.60177814 -10 15 C-10.66 15 -11.32 15 -12 15 C-12 15.66 -12 16.32 -12 17 C-13.32 16.67 -14.64 16.34 -16 16 C-10.72 10.72 -5.44 5.44 0 0 Z " fill="#D43D3A" transform="translate(238,192)"/>
<path d="M0 0 C0.33 0.66 0.66 1.32 1 2 C0.21367187 1.83628906 -0.57265625 1.67257813 -1.3828125 1.50390625 C-5.90846849 0.87344229 -10.31329568 0.89284476 -14.875 0.9375 C-15.75414062 0.94201172 -16.63328125 0.94652344 -17.5390625 0.95117188 C-19.69273803 0.96287663 -21.84637817 0.98080931 -24 1 C-17.59813952 -5.76431543 -7.67630211 -3.56399741 0 0 Z " fill="#D35053" transform="translate(297,158)"/>
<path d="M0 0 C2.97 0.495 2.97 0.495 6 1 C6 1.66 6 2.32 6 3 C7.32 3.33 8.64 3.66 10 4 C10 4.99 10 5.98 10 7 C10.639375 7.103125 11.27875 7.20625 11.9375 7.3125 C12.618125 7.539375 13.29875 7.76625 14 8 C14.33 8.99 14.66 9.98 15 11 C14.34 11 13.68 11 13 11 C12.67 11.66 12.34 12.32 12 13 C9.99698146 11.0238076 7.99750133 9.04425526 6 7.0625 C5.42765625 6.49853516 4.8553125 5.93457031 4.265625 5.35351562 C2.82474495 3.92121224 1.41012857 2.46258871 0 1 C0 0.67 0 0.34 0 0 Z " fill="#DB1D1B" transform="translate(81,206)"/>
<path d="M0 0 C0.66 0.33 1.32 0.66 2 1 C1.67 1.33 1.34 1.66 1 2 C1.66 2.33 2.32 2.66 3 3 C3 3.99 3 4.98 3 6 C1.35 6.33 -0.3 6.66 -2 7 C-2.33 11.62 -2.66 16.24 -3 21 C-5 19 -5 19 -5.265625 16.28515625 C-5.26046875 15.22167969 -5.2553125 14.15820312 -5.25 13.0625 C-5.25515625 12.00160156 -5.2603125 10.94070312 -5.265625 9.84765625 C-4.88113241 5.72566955 -2.43750061 3.21306899 0 0 Z " fill="#DF0D0A" transform="translate(38,132)"/>
<path d="M0 0 C0.66 0.33 1.32 0.66 2 1 C0.65445062 6.51675248 -1.9087727 10.17894809 -6 14 C-11.03225806 17 -11.03225806 17 -14 17 C-14 16.34 -14 15.68 -14 15 C-12.68 15 -11.36 15 -10 15 C-10 14.34 -10 13.68 -10 13 C-9.34 13 -8.68 13 -8 13 C-8 12.34 -8 11.68 -8 11 C-6.625 9.375 -6.625 9.375 -5 8 C-4.34 8 -3.68 8 -3 8 C-2.87625 7.236875 -2.7525 6.47375 -2.625 5.6875 C-2 3 -2 3 0 0 Z " fill="#D33835" transform="translate(471,352)"/>
<path d="M0 0 C0.66 0 1.32 0 2 0 C2.8125 2.1875 2.8125 2.1875 3 5 C0.8125 7.8125 0.8125 7.8125 -2 10 C-3.32 10 -4.64 10 -6 10 C-6 10.66 -6 11.32 -6 12 C-7.65 12.33 -9.3 12.66 -11 13 C-10.62488281 12.56429687 -10.24976563 12.12859375 -9.86328125 11.6796875 C-9.35152344 11.08414063 -8.83976563 10.48859375 -8.3125 9.875 C-7.76722656 9.24207031 -7.22195312 8.60914063 -6.66015625 7.95703125 C-5.1557467 6.18359787 -3.70207646 4.37867921 -2.25 2.5625 C-1.5075 1.716875 -0.765 0.87125 0 0 Z " fill="#DA2824" transform="translate(250,179)"/>
<path d="M0 0 C0.625 1.8125 0.625 1.8125 1 4 C0.01 5.485 0.01 5.485 -1 7 C-1.24047646 9.68004202 -1.37273498 12.26554203 -1.4140625 14.94921875 C-1.43342865 15.72183548 -1.4527948 16.49445221 -1.4727478 17.29048157 C-1.53248479 19.7560424 -1.57890486 22.22165007 -1.625 24.6875 C-1.66318525 26.3600463 -1.70223731 28.03257305 -1.7421875 29.70507812 C-1.83818133 33.80322647 -1.92223377 37.90146688 -2 42 C-2.33 42 -2.66 42 -3 42 C-3.07442006 36.98294279 -3.12872908 31.96621028 -3.16479492 26.94873047 C-3.17983738 25.24359537 -3.20027653 23.53849868 -3.22631836 21.83349609 C-3.26290284 19.37587988 -3.27977173 16.91877731 -3.29296875 14.4609375 C-3.30845261 13.70444916 -3.32393646 12.94796082 -3.33988953 12.16854858 C-3.34140053 7.36536041 -2.53223988 4.22332049 0 0 Z " fill="#D12C2B" transform="translate(431,215)"/>
<path d="M0 0 C4.91935902 4.11619836 9.52647956 8.40410362 14 13 C12.68 13.33 11.36 13.66 10 14 C10 13.34 10 12.68 10 12 C8.68 11.34 7.36 10.68 6 10 C6 9.34 6 8.68 6 8 C5.01 8 4.02 8 3 8 C3 6.68 3 5.36 3 4 C2.34 4 1.68 4 1 4 C0.67 4.66 0.34 5.32 0 6 C0 4.02 0 2.04 0 0 Z " fill="#D34141" transform="translate(113,172)"/>
<path d="M0 0 C2 0 2 0 3.5859375 1.57421875 C4.17632812 2.27160156 4.76671875 2.96898437 5.375 3.6875 C6.30119141 4.77611328 6.30119141 4.77611328 7.24609375 5.88671875 C9.19461463 8.23449112 11.1215998 10.59564775 13 13 C12.01 13.33 11.02 13.66 10 14 C9.67 13.34 9.34 12.68 9 12 C6.98330173 10.86649466 6.98330173 10.86649466 5 10 C5 8.68 5 7.36 5 6 C3.68 6 2.36 6 1 6 C0.67 4.02 0.34 2.04 0 0 Z " fill="#DD5351" transform="translate(172,233)"/>
<path d="M0 0 C2.97 0.495 2.97 0.495 6 1 C6 2.32 6 3.64 6 5 C7.32 5 8.64 5 10 5 C10 5.99 10 6.98 10 8 C10.66 8 11.32 8 12 8 C12 8.66 12 9.32 12 10 C12.66 10.33 13.32 10.66 14 11 C13.67 11.99 13.34 12.98 13 14 C10.83031809 11.85714108 8.66416525 9.71091768 6.5 7.5625 C5.87996094 6.95083984 5.25992187 6.33917969 4.62109375 5.70898438 C4.03457031 5.12568359 3.44804687 4.54238281 2.84375 3.94140625 C2.02680664 3.13231812 2.02680664 3.13231812 1.19335938 2.30688477 C0 1 0 1 0 0 Z " fill="#DE4F50" transform="translate(334,262)"/>
<path d="M0 0 C4.52615993 3.67832017 8.39424999 7.41086363 12 12 C7.25 11.125 7.25 11.125 5 10 C5 9.34 5 8.68 5 8 C4.01 7.67 3.02 7.34 2 7 C2 6.01 2 5.02 2 4 C1.34 4 0.68 4 0 4 C0 2.68 0 1.36 0 0 Z " fill="#D43A3A" transform="translate(343,205)"/>
<path d="M0 0 C4.554787 3.80014774 8.95279259 7.65665546 13 12 C13 12.66 13 13.32 13 14 C13.66 14 14.32 14 15 14 C14.67 14.66 14.34 15.32 14 16 C12.88625 14.7934375 12.88625 14.7934375 11.75 13.5625 C9.24695171 11.23011409 8.2819045 10.36465606 5 10 C5 8.68 5 7.36 5 6 C3.35 5.67 1.7 5.34 0 5 C0 3.35 0 1.7 0 0 Z " fill="#DA605F" transform="translate(127,186)"/>
<path d="M0 0 C1.15224028 0.92961422 2.29659176 1.8690125 3.4375 2.8125 C4.07558594 3.33457031 4.71367187 3.85664063 5.37109375 4.39453125 C7 6 7 6 8 9 C8.66 9 9.32 9 10 9 C10.33 10.65 10.66 12.3 11 14 C11.66 14 12.32 14 13 14 C12.67 14.66 12.34 15.32 12 16 C11.401875 15.360625 10.80375 14.72125 10.1875 14.0625 C8.09189663 11.79689611 8.09189663 11.79689611 5 11 C3.8671875 9.2578125 3.8671875 9.2578125 2.875 7.125 C2.37613281 6.07699219 2.37613281 6.07699219 1.8671875 5.0078125 C1 3 1 3 0 0 Z " fill="#D64740" transform="translate(311,172)"/>
<path d="M0 0 C0.99 0.33 1.98 0.66 3 1 C3 1.66 3 2.32 3 3 C3.66 3 4.32 3 5 3 C5 3.66 5 4.32 5 5 C5.66 5 6.32 5 7 5 C7 5.66 7 6.32 7 7 C7.66 7 8.32 7 9 7 C9 7.66 9 8.32 9 9 C9.66 9 10.32 9 11 9 C11 9.66 11 10.32 11 11 C7.75 11 7.75 11 4 10 C1.7663752 7.07118362 0 3.73229324 0 0 Z " fill="#D84244" transform="translate(96,155)"/>
<path d="M0 0 C2.97 0.495 2.97 0.495 6 1 C5.67 1.99 5.34 2.98 5 4 C6.65 4.33 8.3 4.66 10 5 C10 5.66 10 6.32 10 7 C10.66 7 11.32 7 12 7 C12 7.66 12 8.32 12 9 C12.66 9 13.32 9 14 9 C14 9.66 14 10.32 14 11 C9.25 10.125 9.25 10.125 7 9 C7 8.34 7 7.68 7 7 C6.34 7 5.68 7 5 7 C3.7109375 5.46875 3.7109375 5.46875 2.375 3.5 C1.70597656 2.52546875 1.70597656 2.52546875 1.0234375 1.53125 C0.68570312 1.0259375 0.34796875 0.520625 0 0 Z " fill="#D51917" transform="translate(325,252)"/>
<path d="M0 0 C1.7074998 1.28062485 3.37373596 2.61767557 5 4 C5 4.66 5 5.32 5 6 C5.598125 6.2475 6.19625 6.495 6.8125 6.75 C9.28647521 8.16370012 10.43370255 9.65055383 12 12 C11.01 12 10.02 12 9 12 C8.67 12.66 8.34 13.32 8 14 C8 12.68 8 11.36 8 10 C7.34 10 6.68 10 6 10 C6 9.34 6 8.68 6 8 C5.38125 7.896875 4.7625 7.79375 4.125 7.6875 C2 7 2 7 0 4 C0 2.68 0 1.36 0 0 Z " fill="#DB534E" transform="translate(299,160)"/>
<path d="M0 0 C0.99 0.495 0.99 0.495 2 1 C2 1.66 2 2.32 2 3 C2.66 3 3.32 3 4 3 C7.09741625 5.78767463 9.26142784 8.23309364 11 12 C7.73654012 11.41580039 4.86665724 10.69798345 2 9 C0.60645631 6.05633467 0.21008884 3.23265726 0 0 Z " fill="#DB4240" transform="translate(414,277)"/>
<path d="M0 0 C0 0.99 0 1.98 0 3 C1.32 3.66 2.64 4.32 4 5 C4 5.66 4 6.32 4 7 C4.99 7.33 5.98 7.66 7 8 C7.33 9.65 7.66 11.3 8 13 C3.47384007 9.32167983 -0.39424999 5.58913637 -4 1 C-2 0 -2 0 0 0 Z " fill="#DC423C" transform="translate(73,193)"/>
<path d="M0 0 C2.97 0.495 2.97 0.495 6 1 C6 2.32 6 3.64 6 5 C8.97 5.495 8.97 5.495 12 6 C11.67 7.65 11.34 9.3 11 11 C6.86378916 7.6189962 3.18683431 4.33409466 0 0 Z " fill="#CF332E" transform="translate(131,257)"/>
<path d="M0 0 C2.64 0.66 5.28 1.32 8 2 C8 2.99 8 3.98 8 5 C8.66 5 9.32 5 10 5 C10 6.65 10 8.3 10 10 C2.51708428 3.84965831 2.51708428 3.84965831 0 0 Z " fill="#DE302E" transform="translate(382,311)"/>
<path d="M0 0 C2.97 0.495 2.97 0.495 6 1 C6.33 2.32 6.66 3.64 7 5 C8.32 5 9.64 5 11 5 C10.67 6.65 10.34 8.3 10 10 C2.51708428 3.84965831 2.51708428 3.84965831 0 0 Z " fill="#D63236" transform="translate(121,247)"/>
<path d="M0 0 C3.3125 0.125 3.3125 0.125 7 1 C9 3.875 9 3.875 10 7 C9.67 7.99 9.34 8.98 9 10 C7.49702124 8.52386015 5.99768715 7.04400843 4.5 5.5625 C3.6646875 4.73878906 2.829375 3.91507812 1.96875 3.06640625 C0 1 0 1 0 0 Z " fill="#D63131" transform="translate(348,276)"/>
<path d="M0 0 C0 1.32 0 2.64 0 4 C1.65 4 3.3 4 5 4 C5.33 6.31 5.66 8.62 6 11 C-1.48291572 4.84965831 -1.48291572 4.84965831 -4 1 C-2 0 -2 0 0 0 Z " fill="#DA2E2E" transform="translate(43,162)"/>
<path d="M0 0 C1.65 0 3.3 0 5 0 C5.33 2.97 5.66 5.94 6 9 C7.32 9 8.64 9 10 9 C10 9.66 10 10.32 10 11 C8.68 11.33 7.36 11.66 6 12 C3.70986347 8.5647952 3.82157027 7.014669 4 3 C2.68 3 1.36 3 0 3 C0 2.01 0 1.02 0 0 Z " fill="#E1211F" transform="translate(57,177)"/>
<path d="M0 0 C0.99 0.495 0.99 0.495 2 1 C2 1.66 2 2.32 2 3 C3.65 3 5.3 3 7 3 C7.33 2.34 7.66 1.68 8 1 C8 2.98 8 4.96 8 7 C3.52599758 7.36275695 3.52599758 7.36275695 1.1875 5.75 C0 4 0 4 0 0 Z " fill="#DE2320" transform="translate(300,224)"/>
<path d="M0 0 C7.48291572 6.15034169 7.48291572 6.15034169 10 10 C6.91082652 9.6567585 5.22894021 9.17806461 2.75 7.25 C0.82193539 4.77105979 0.3432415 3.08917348 0 0 Z " fill="#D74440" transform="translate(395,258)"/>
<path d="M0 0 C2.97 0.495 2.97 0.495 6 1 C6 2.32 6 3.64 6 5 C7.32 5 8.64 5 10 5 C10 6.65 10 8.3 10 10 C2.51708428 3.84965831 2.51708428 3.84965831 0 0 Z " fill="#D93C3C" transform="translate(304,231)"/>
<path d="M0 0 C0.33 0 0.66 0 1 0 C1.1875 2.875 1.1875 2.875 1 6 C-2.22791555 8.1519437 -3.28400809 8.20086443 -7 8 C-6.02133662 6.85373678 -5.04205413 5.70800212 -4.0625 4.5625 C-3.51722656 3.92441406 -2.97195312 3.28632813 -2.41015625 2.62890625 C-1.63204305 1.73008851 -0.84063472 0.84063472 0 0 Z " fill="#DA413C" transform="translate(212,218)"/>
<path d="M0 0 C4.50884026 2.31883213 6.93906776 5.06451569 10 9 C8.02 8.34 6.04 7.68 4 7 C4 6.34 4 5.68 4 5 C2.68 5 1.36 5 0 5 C0 3.35 0 1.7 0 0 Z " fill="#D33736" transform="translate(140,201)"/>
<path d="M0 0 C0 1.98 0 3.96 0 6 C-1.98 6.33 -3.96 6.66 -6 7 C-6.33 6.34 -6.66 5.68 -7 5 C-3.61290323 0 -3.61290323 0 0 0 Z " fill="#DF120B" transform="translate(266,225)"/>
<path d="M0 0 C3.53599998 0.07072 6.1041863 0.19163015 8.80078125 2.625 C10.27675028 4.37220916 11.67266996 6.13784833 13 8 C12.01 8.495 12.01 8.495 11 9 C11 8.34 11 7.68 11 7 C9.68 7 8.36 7 7 7 C7 5.68 7 4.36 7 3 C5.02 3 3.04 3 1 3 C0.67 2.01 0.34 1.02 0 0 Z " fill="#D93833" transform="translate(75,138)"/>
<path d="M0 0 C2.31 0 4.62 0 7 0 C6.04578192 1.14926266 5.08647955 2.29430541 4.125 3.4375 C3.59132813 4.07558594 3.05765625 4.71367187 2.5078125 5.37109375 C1 7 1 7 -1 8 C-0.67 5.36 -0.34 2.72 0 0 Z " fill="#D95652" transform="translate(259,231)"/>
<path d="M0 0 C3.40312738 1.05875074 6.01353231 2.00902154 9 4 C9.1875 6.625 9.1875 6.625 9 9 C7.87105124 8.06725891 6.74699124 7.12859878 5.625 6.1875 C4.99851562 5.66542969 4.37203125 5.14335937 3.7265625 4.60546875 C2 3 2 3 0 0 Z " fill="#D3302D" transform="translate(368,296)"/>
<path d="M0 0 C4.28324091 2.51407619 6.64531705 4.12314139 8 9 C7.01 9.495 7.01 9.495 6 10 C6 8.68 6 7.36 6 6 C5.01 6 4.02 6 3 6 C3 5.34 3 4.68 3 4 C1.35 3.67 -0.3 3.34 -2 3 C-1.34 2.67 -0.68 2.34 0 2 C0 1.34 0 0.68 0 0 Z " fill="#D65050" transform="translate(463,209)"/>
<path d="M0 0 C0 0.66 0 1.32 0 2 C-0.99 2 -1.98 2 -3 2 C-3.433125 2.928125 -3.433125 2.928125 -3.875 3.875 C-5 6 -5 6 -7 8 C-7.99 7.67 -8.98 7.34 -10 7 C-3.18421053 0 -3.18421053 0 0 0 Z " fill="#D75958" transform="translate(442,207)"/>
<path d="M0 0 C0.33 1.32 0.66 2.64 1 4 C-1.1875 6.8125 -1.1875 6.8125 -4 9 C-5.32 8.67 -6.64 8.34 -8 8 C-5.36 5.36 -2.72 2.72 0 0 Z " fill="#D95250" transform="translate(221,209)"/>
<path d="M0 0 C3.36720387 1.39332574 4.9859524 2.9789286 7 6 C4.69 6 2.38 6 0 6 C0 4.02 0 2.04 0 0 Z " fill="#D32929" transform="translate(336,199)"/>
<path d="M0 0 C0.89332031 0.03480469 1.78664063 0.06960937 2.70703125 0.10546875 C3.60808594 0.13253906 4.50914062 0.15960938 5.4375 0.1875 C6.46810547 0.23970703 6.46810547 0.23970703 7.51953125 0.29296875 C7.51953125 0.95296875 7.51953125 1.61296875 7.51953125 2.29296875 C1.08453125 2.78796875 1.08453125 2.78796875 -5.48046875 3.29296875 C-2.48046875 0.29296875 -2.48046875 0.29296875 0 0 Z " fill="#CB3B3D" transform="translate(278.48046875,155.70703125)"/>
<path d="M0 0 C1.15224028 0.92961422 2.29659176 1.8690125 3.4375 2.8125 C4.07558594 3.33457031 4.71367188 3.85664063 5.37109375 4.39453125 C7 6 7 6 8 9 C6.68 8.67 5.36 8.34 4 8 C4 7.34 4 6.68 4 6 C3.01 5.67 2.02 5.34 1 5 C0.67 3.35 0.34 1.7 0 0 Z " fill="#D8504E" transform="translate(88,146)"/>
<path d="M0 0 C0.763125 0.309375 1.52625 0.61875 2.3125 0.9375 C4.18789677 1.67893593 6.08684652 2.36228217 8 3 C8.33 4.98 8.66 6.96 9 9 C7.87105124 8.06725891 6.74699124 7.12859878 5.625 6.1875 C4.99851563 5.66542969 4.37203125 5.14335937 3.7265625 4.60546875 C2 3 2 3 0 0 Z " fill="#D43F3B" transform="translate(161,288)"/>
<path d="M0 0 C0.33 1.32 0.66 2.64 1 4 C-0.98 4.99 -0.98 4.99 -3 6 C-3 6.66 -3 7.32 -3 8 C-4.32 7.67 -5.64 7.34 -7 7 C-4.69 4.69 -2.38 2.38 0 0 Z " fill="#DA4947" transform="translate(229,201)"/>
<path d="M0 0 C0.33 1.32 0.66 2.64 1 4 C0.34 4 -0.32 4 -1 4 C-1 4.66 -1 5.32 -1 6 C-2.3125 7.625 -2.3125 7.625 -4 9 C-4.99 9 -5.98 9 -7 9 C-7 8.34 -7 7.68 -7 7 C-6.34 7 -5.68 7 -5 7 C-4.731875 6.401875 -4.46375 5.80375 -4.1875 5.1875 C-3.01506533 3.02775192 -1.80630718 1.64209744 0 0 Z " fill="#D96F6D" transform="translate(259,170)"/>
<path d="M0 0 C2.87561839 2.59733274 4.24269096 4.21345482 5 8 C5.66 8.66 6.32 9.32 7 10 C6.67 10.99 6.34 11.98 6 13 C2.57546571 8.60957142 0.41778991 5.7097955 0 0 Z " fill="#D85151" transform="translate(32,150)"/>
<path d="M0 0 C0.66 0 1.32 0 2 0 C2.96070434 2.88211302 3.10581883 4.69850044 3.0625 7.6875 C3.05347656 8.49574219 3.04445313 9.30398437 3.03515625 10.13671875 C3.02355469 10.75160156 3.01195312 11.36648437 3 12 C2.34 11.67 1.68 11.34 1 11 C0.5859375 8.49609375 0.5859375 8.49609375 0.375 5.4375 C0.30023438 4.42558594 0.22546875 3.41367188 0.1484375 2.37109375 C0.09945313 1.58863281 0.05046875 0.80617187 0 0 Z " fill="#C92024" transform="translate(470,218)"/>
<path d="M0 0 C0.66 0 1.32 0 2 0 C1.67 1.65 1.34 3.3 1 5 C0.34 5 -0.32 5 -1 5 C-1 5.66 -1 6.32 -1 7 C-1.66 7 -2.32 7 -3 7 C-3 7.66 -3 8.32 -3 9 C-3.66 9 -4.32 9 -5 9 C-4.67 7.68 -4.34 6.36 -4 5 C-2.68 4.67 -1.36 4.34 0 4 C0 2.68 0 1.36 0 0 Z " fill="#D34B47" transform="translate(207,286)"/>
<path d="M0 0 C0.99 0.495 0.99 0.495 2 1 C2 1.66 2 2.32 2 3 C2.66 3 3.32 3 4 3 C5.38938077 4.96147874 6.7260411 6.96166576 8 9 C5.6875 8.875 5.6875 8.875 3 8 C0 3.13793103 0 3.13793103 0 0 Z " fill="#D55756" transform="translate(377,239)"/>
<path d="M0 0 C1.125 3.75 1.125 3.75 0 6 C-0.66 6 -1.32 6 -2 6 C-2.66 7.32 -3.32 8.64 -4 10 C-4.66 9.67 -5.32 9.34 -6 9 C-5.67 7.68 -5.34 6.36 -5 5 C-3.68 5 -2.36 5 -1 5 C-0.67 3.35 -0.34 1.7 0 0 Z " fill="#D74D49" transform="translate(280,212)"/>
<path d="M0 0 C1.98 0 3.96 0 6 0 C6 0.66 6 1.32 6 2 C6.66 2 7.32 2 8 2 C8.33 2.99 8.66 3.98 9 5 C5.22454612 3.90931332 2.52956528 3.0916909 0 0 Z " fill="#D33430" transform="translate(170,297)"/>
<path d="M0 0 C0.33 0.99 0.66 1.98 1 3 C0.67 3.66 0.34 4.32 0 5 C-0.66 5 -1.32 5 -2 5 C-2 5.66 -2 6.32 -2 7 C-3.65 7.33 -5.3 7.66 -7 8 C-6.02133662 6.85373678 -5.04205413 5.70800212 -4.0625 4.5625 C-3.51722656 3.92441406 -2.97195312 3.28632813 -2.41015625 2.62890625 C-1.63204305 1.73008851 -0.84063472 0.84063472 0 0 Z " fill="#D43D3D" transform="translate(193,238)"/>
<path d="M0 0 C2.475 0.495 2.475 0.495 5 1 C5.66 2.98 6.32 4.96 7 7 C6.01 6.67 5.02 6.34 4 6 C4 5.34 4 4.68 4 4 C2.68 3.34 1.36 2.68 0 2 C0 1.34 0 0.68 0 0 Z " fill="#D72C2A" transform="translate(372,237)"/>
<path d="M0 0 C1.65 0 3.3 0 5 0 C5 1.98 5 3.96 5 6 C4.34 6 3.68 6 3 6 C3 5.34 3 4.68 3 4 C2.34 4 1.68 4 1 4 C0.67 2.68 0.34 1.36 0 0 Z " fill="#D92A28" transform="translate(107,231)"/>
<path d="M0 0 C1.65 0 3.3 0 5 0 C6.33332095 2.6666419 5.67102033 4.16680303 5 7 C4.01 6.67 3.02 6.34 2 6 C0.8125 2.9375 0.8125 2.9375 0 0 Z " fill="#E50D0C" transform="translate(79,200)"/>
<path d="M0 0 C0.66 0 1.32 0 2 0 C2 1.32 2 2.64 2 4 C1.01 4.33 0.02 4.66 -1 5 C-1.33 5.99 -1.66 6.98 -2 8 C-3.32 7.67 -4.64 7.34 -6 7 C-5.04882866 5.8274869 -4.08882991 4.66212985 -3.125 3.5 C-2.59132812 2.8503125 -2.05765625 2.200625 -1.5078125 1.53125 C-0.76144531 0.77328125 -0.76144531 0.77328125 0 0 Z " fill="#CF4644" transform="translate(250,179)"/>
<path d="M0 0 C0.66 0.33 1.32 0.66 2 1 C0.8125 3.4375 0.8125 3.4375 -1 6 C-3.6875 6.8125 -3.6875 6.8125 -6 7 C-6 6.34 -6 5.68 -6 5 C-5.34 5 -4.68 5 -4 5 C-4 4.34 -4 3.68 -4 3 C-2 1.375 -2 1.375 0 0 Z " fill="#D64C4B" transform="translate(271,159)"/>
<path d="M0 0 C0.99 0.33 1.98 0.66 3 1 C-0.625 5.875 -0.625 5.875 -4 7 C-3.43628586 3.73045798 -2.50037734 2.17424117 0 0 Z " fill="#D3312F" transform="translate(41,126)"/>
<path d="M0 0 C1.32 0 2.64 0 4 0 C4 1.65 4 3.3 4 5 C4.66 5.33 5.32 5.66 6 6 C3 6 3 6 1.3125 4.6875 C0 3 0 3 0 0 Z " fill="#D62423" transform="translate(320,245)"/>
<path d="M0 0 C0.99 0 1.98 0 3 0 C3.12375 0.969375 3.2475 1.93875 3.375 2.9375 C3.684375 4.4534375 3.684375 4.4534375 4 6 C4.66 6.33 5.32 6.66 6 7 C4.125 6.75 4.125 6.75 2 6 C0.61504198 3.85331506 0 2.56128588 0 0 Z " fill="#E7120E" transform="translate(352,217)"/>
<path d="M0 0 C1.98 0.99 1.98 0.99 4 2 C4 3.65 4 5.3 4 7 C5.32 7.33 6.64 7.66 8 8 C6.02 8 4.04 8 2 8 C1.34 5.36 0.68 2.72 0 0 Z " fill="#E90E0A" transform="translate(136,199)"/>
<path d="M0 0 C0.33 0.99 0.66 1.98 1 3 C-1.31 4.98 -3.62 6.96 -6 9 C-6.66 8.67 -7.32 8.34 -8 8 C-7.04578192 6.85073734 -6.08647955 5.70569459 -5.125 4.5625 C-4.59132812 3.92441406 -4.05765625 3.28632813 -3.5078125 2.62890625 C-2 1 -2 1 0 0 Z " fill="#E40D06" transform="translate(237,197)"/>
<path d="M0 0 C5.875 3.625 5.875 3.625 7 7 C5.02 6.34 3.04 5.68 1 5 C0.67 3.35 0.34 1.7 0 0 Z " fill="#D14C49" transform="translate(418,282)"/>
<path d="M0 0 C2.97 0.495 2.97 0.495 6 1 C6.33 2.98 6.66 4.96 7 7 C5.83040013 6.02433888 4.66438823 5.044375 3.5 4.0625 C2.8503125 3.51722656 2.200625 2.97195313 1.53125 2.41015625 C1.0259375 1.94480469 0.520625 1.47945313 0 1 C0 0.67 0 0.34 0 0 Z " fill="#D73632" transform="translate(142,268)"/>
<path d="M0 0 C1.66611905 -0.042721 3.33382885 -0.04063832 5 0 C6 1 6 1 6.0625 3.5625 C6.041875 4.366875 6.02125 5.17125 6 6 C3.97945196 4.35830472 1.97956942 2.69088222 0 1 C0 0.67 0 0.34 0 0 Z " fill="#E46B6D" transform="translate(101,227)"/>
<path d="M0 0 C0.99 0 1.98 0 3 0 C2.35494404 3.48330216 1.01782732 6.09432866 -1 9 C-1.66 9 -2.32 9 -3 9 C-2.01 6.03 -1.02 3.06 0 0 Z " fill="#D80B10" transform="translate(432,215)"/>
<path d="M0 0 C2.97 0.495 2.97 0.495 6 1 C6.33 2.98 6.66 4.96 7 7 C5.83040013 6.02433888 4.66438823 5.044375 3.5 4.0625 C2.8503125 3.51722656 2.200625 2.97195312 1.53125 2.41015625 C1.0259375 1.94480469 0.520625 1.47945312 0 1 C0 0.67 0 0.34 0 0 Z " fill="#DC4B49" transform="translate(81,206)"/>
<path d="M0 0 C0.99 0 1.98 0 3 0 C2 3 2 3 -0.9375 4.6875 C-4 6 -4 6 -6 6 C-6 5.34 -6 4.68 -6 4 C-4.68 4 -3.36 4 -2 4 C-2 3.34 -2 2.68 -2 2 C-1.34 2 -0.68 2 0 2 C0 1.34 0 0.68 0 0 Z " fill="#CE3F3E" transform="translate(463,363)"/>
<path d="M0 0 C-1.39332574 3.36720387 -2.9789286 4.9859524 -6 7 C-6 5.68 -6 4.36 -6 3 C-5.34 3 -4.68 3 -4 3 C-4 2.34 -4 1.68 -4 1 C-2 0 -2 0 0 0 Z " fill="#CF3B3B" transform="translate(232,264)"/>
<path d="M0 0 C2.97 0.495 2.97 0.495 6 1 C5.67 1.99 5.34 2.98 5 4 C5.66 4 6.32 4 7 4 C7 4.99 7 5.98 7 7 C6.34 7 5.68 7 5 7 C3.7109375 5.46875 3.7109375 5.46875 2.375 3.5 C1.70597656 2.52546875 1.70597656 2.52546875 1.0234375 1.53125 C0.68570312 1.0259375 0.34796875 0.520625 0 0 Z " fill="#D5363B" transform="translate(325,252)"/>
<path d="M0 0 C1.98 1.65 3.96 3.3 6 5 C2.25 6.125 2.25 6.125 0 5 C0 3.35 0 1.7 0 0 Z " fill="#D33131" transform="translate(389,252)"/>
<path d="M0 0 C1.32 0.66 2.64 1.32 4 2 C3.34 3.32 2.68 4.64 2 6 C1.01 5.01 0.02 4.02 -1 3 C-0.67 2.01 -0.34 1.02 0 0 Z " fill="#D4211C" transform="translate(139,262)"/>
<path d="M0 0 C2.475 0.495 2.475 0.495 5 1 C5.33 2.98 5.66 4.96 6 7 C5.34 7 4.68 7 4 7 C3.67 5.68 3.34 4.36 3 3 C2.01 3 1.02 3 0 3 C0 2.01 0 1.02 0 0 Z " fill="#DA0A0A" transform="translate(112,234)"/>
<path d="M0 0 C0.66 0 1.32 0 2 0 C2 1.32 2 2.64 2 4 C2.66 4.33 3.32 4.66 4 5 C2.35 5.33 0.7 5.66 -1 6 C-0.67 4.02 -0.34 2.04 0 0 Z " fill="#E3130D" transform="translate(161,224)"/>
<path d="M0 0 C2.475 0.99 2.475 0.99 5 2 C5 2.66 5 3.32 5 4 C5.66 4.33 6.32 4.66 7 5 C7 5.66 7 6.32 7 7 C6.34 7 5.68 7 5 7 C5 6.34 5 5.68 5 5 C4.34 5 3.68 5 3 5 C3 4.34 3 3.68 3 3 C2.34 3 1.68 3 1 3 C0.67 2.01 0.34 1.02 0 0 Z " fill="#CF5553" transform="translate(94,219)"/>
<path d="M0 0 C3.7952131 1.49097658 5.61042731 3.75700849 8 7 C6.35 6.67 4.7 6.34 3 6 C3 5.01 3 4.02 3 3 C2.34 3 1.68 3 1 3 C0.67 2.01 0.34 1.02 0 0 Z " fill="#E48887" transform="translate(321,183)"/>
<path d="M0 0 C0.66 0 1.32 0 2 0 C0.61122646 3.35620271 -0.91677965 5.07298728 -4 7 C-4.66 7 -5.32 7 -6 7 C-6 6.34 -6 5.68 -6 5 C-5.01 5 -4.02 5 -3 5 C-2.67 4.01 -2.34 3.02 -2 2 C-1.34 2 -0.68 2 0 2 C0 1.34 0 0.68 0 0 Z " fill="#DC0F0D" transform="translate(258,174)"/>
<path d="M0 0 C0.66 0.33 1.32 0.66 2 1 C0.02 3.31 -1.96 5.62 -4 8 C-4.33 7.34 -4.66 6.68 -5 6 C-3.78741495 2.76643985 -2.98715542 1.99143695 0 0 Z " fill="#D43F3F" transform="translate(319,326)"/>
<path d="M0 0 C2.97 0.495 2.97 0.495 6 1 C6 2.65 6 4.3 6 6 C3.97945196 4.35830472 1.97956942 2.69088222 0 1 C0 0.67 0 0.34 0 0 Z " fill="#DD635B" transform="translate(382,311)"/>
<path d="M0 0 C2.97 0.495 2.97 0.495 6 1 C6 2.65 6 4.3 6 6 C3.97945196 4.35830472 1.97956942 2.69088222 0 1 C0 0.67 0 0.34 0 0 Z " fill="#DC5C5D" transform="translate(334,262)"/>
<path d="M0 0 C0.99 0 1.98 0 3 0 C2.60196439 2.88575819 2.20990931 3.82189513 -0.0625 5.75 C-0.701875 6.1625 -1.34125 6.575 -2 7 C-2 6.01 -2 5.02 -2 4 C-1.34 4 -0.68 4 0 4 C0 2.68 0 1.36 0 0 Z " fill="#D7504D" transform="translate(244,248)"/>
<path d="M0 0 C0.66 0 1.32 0 2 0 C4 3 4 3 4 6 C3.01 6 2.02 6 1 6 C0.67 4.02 0.34 2.04 0 0 Z " fill="#D03F3D" transform="translate(172,233)"/>
<path d="M0 0 C2.02054804 1.64169528 4.02043058 3.30911778 6 5 C6 5.33 6 5.66 6 6 C4.35 6 2.7 6 1 6 C0.67 4.02 0.34 2.04 0 0 Z " fill="#DB5651" transform="translate(355,217)"/>
<path d="M0 0 C1.98 1.65 3.96 3.3 6 5 C4.68 5.33 3.36 5.66 2 6 C2 5.34 2 4.68 2 4 C1.34 4 0.68 4 0 4 C0 2.68 0 1.36 0 0 Z " fill="#D95E5A" transform="translate(156,216)"/>
<path d="M0 0 C2.02054804 1.64169528 4.02043058 3.30911778 6 5 C6 5.33 6 5.66 6 6 C4.35 6 2.7 6 1 6 C0.67 4.02 0.34 2.04 0 0 Z " fill="#CE4A4B" transform="translate(150,210)"/>
<path d="M0 0 C0 1.32 0 2.64 0 4 C0.66 4 1.32 4 2 4 C1.67 4.99 1.34 5.98 1 7 C-0.65 5.02 -2.3 3.04 -4 1 C-2 0 -2 0 0 0 Z " fill="#D84442" transform="translate(43,162)"/>
<path d="M0 0 C0.8125 1.6875 0.8125 1.6875 1 4 C-1.4375 6.75 -1.4375 6.75 -4 9 C-2.94124926 5.59687262 -1.99097846 2.98646769 0 0 Z " fill="#D75A5B" transform="translate(36,131)"/>
</svg>
