<?xml version="1.0" encoding="UTF-8"?>
<svg version="1.1" xmlns="http://www.w3.org/2000/svg" width="500" height="500">
<path d="M0 0 C0 0.66 0 1.32 0 2 C0.70125 2.226875 1.4025 2.45375 2.125 2.6875 C5.74128535 4.33841288 8.08769976 6.2908835 11 9 C11 9.66 11 10.32 11 11 C11.66 11 12.32 11 13 11 C13 11.66 13 12.32 13 13 C13.66 13 14.32 13 15 13 C15 13.66 15 14.32 15 15 C15.66 15 16.32 15 17 15 C17 15.66 17 16.32 17 17 C17.66 17 18.32 17 19 17 C19 17.66 19 18.32 19 19 C19.66 19 20.32 19 21 19 C21 19.66 21 20.32 21 21 C21.66 21 22.32 21 23 21 C24.7265625 22.8984375 24.7265625 22.8984375 26.625 25.375 C27.57246094 26.59316406 27.57246094 26.59316406 28.5390625 27.8359375 C30 30 30 30 30 32 C30.66 32 31.32 32 32 32 C38.48510861 40.89038364 43.36563226 51.05541922 48 61 C48.804375 62.71896484 48.804375 62.71896484 49.625 64.47265625 C53.00466706 72.27933512 55.23060934 80.18742969 57.25 88.4375 C57.49637207 89.4370874 57.74274414 90.4366748 57.99658203 91.46655273 C61.35782943 105.87903336 62.37335668 120.05737574 62.37060547 134.80249023 C62.3750366 137.4594474 62.41168756 140.1148125 62.44921875 142.77148438 C62.51668636 152.69954907 62.53631001 160.6846457 55.81640625 168.55859375 C55.07261719 169.17863281 54.32882812 169.79867187 53.5625 170.4375 C52.45068359 171.39462891 52.45068359 171.39462891 51.31640625 172.37109375 C44.27585778 177.32203593 36.23066009 176.64456977 28 176 C20.08711735 174.10570385 15.32294251 167.48441377 11 161 C9.68066948 156.36115019 9.75127094 151.56198619 9.60546875 146.7734375 C9.53654991 144.91663895 9.46686175 143.05986884 9.39648438 141.203125 C9.29043325 138.31232185 9.18891472 135.42169788 9.10131836 132.53027344 C8.58622069 115.96105936 7.18060915 99.35666619 0.25 84.0625 C-0.26542358 82.886875 -0.26542358 82.886875 -0.79125977 81.6875 C-3.83568588 74.95384788 -7.51369879 68.87977355 -12 63 C-12.721875 62.04609375 -13.44375 61.0921875 -14.1875 60.109375 C-31.72703373 37.81955088 -58.15662712 24.36844357 -86.00683594 20.32519531 C-101.58706207 18.63246601 -117.81929309 18.92841156 -133 23 C-134.08410156 23.2784375 -135.16820312 23.556875 -136.28515625 23.84375 C-157.14670936 29.72452803 -175.64642605 40.42678269 -189.625 57.1875 C-190.40875 58.115625 -191.1925 59.04375 -192 60 C-192.66 60 -193.32 60 -194 60 C-194.27328125 60.7425 -194.5465625 61.485 -194.828125 62.25 C-195.92274165 64.81870041 -197.11700809 66.75244124 -198.75 69 C-204.39568638 77.36550609 -208.01778815 86.33114823 -210.75 96 C-210.94859619 96.69859131 -211.14719238 97.39718262 -211.35180664 98.11694336 C-215.00066255 111.77007143 -215.35041414 125.27758139 -215.45629883 139.30249023 C-215.47806751 141.72933904 -215.51745665 144.15544435 -215.55859375 146.58203125 C-215.55870956 147.30928909 -215.55882538 148.03654694 -215.5589447 148.7858429 C-215.72394411 157.42255608 -219.02008748 164.75708207 -225 171 C-227.27983434 172.64813024 -229.4448328 173.77155423 -232 175 C-232.66 175.33 -233.32 175.66 -234 176 C-250.97387117 177.18467522 -250.97387117 177.18467522 -258 172 C-259.36125 171.071875 -259.36125 171.071875 -260.75 170.125 C-266.57152594 164.62689216 -268.72917408 158.60160706 -269.19018555 150.76855469 C-269.27005284 146.92768745 -269.28055327 143.09121226 -269.25 139.25 C-269.24689819 138.56192261 -269.24379639 137.87384521 -269.24060059 137.16491699 C-268.98084672 87.98009411 -254.05130036 46.53022748 -219.25 11.125 C-211.99024823 4 -211.99024823 4 -209 4 C-209 3.34 -209 2.68 -209 2 C-205.22420297 -0.98202152 -201.0867026 -3.46724273 -197 -6 C-196.11683105 -6.54865723 -196.11683105 -6.54865723 -195.21582031 -7.10839844 C-177.49525086 -17.95204229 -158.41230603 -25.22651856 -138 -29 C-136.68612305 -29.24339111 -136.68612305 -29.24339111 -135.34570312 -29.49169922 C-91.45391525 -37.25852582 -35.24731108 -29.86230522 0 0 Z " fill="#F1C00A" transform="translate(306,287)"/>
<path d="M0 0 C0.93328125 0.02835938 1.8665625 0.05671875 2.828125 0.0859375 C24.31508963 1.29242482 45.83043892 10.89043536 62 25 C62 25.66 62 26.32 62 27 C62.55042969 27.21785156 63.10085938 27.43570313 63.66796875 27.66015625 C79.36967629 36.68140531 89.06681911 59.22670431 93.875 75.8125 C94.28010785 77.53486175 94.65499517 79.26459975 95 81 C95.20238281 81.97582031 95.40476562 82.95164062 95.61328125 83.95703125 C100.54968098 111.19118215 93.97329379 138.13387459 78.94140625 161.15234375 C62.68818371 183.84721045 39.44842137 199.28077181 11.86645508 204.58984375 C-4.00846076 206.86135883 -20.75360042 205.94171293 -36 201 C-37.20269531 200.63777344 -38.40539062 200.27554688 -39.64453125 199.90234375 C-54.27865622 195.14262284 -65.80261062 187.32383418 -77 177 C-77.84691406 176.22398437 -78.69382812 175.44796875 -79.56640625 174.6484375 C-98.38451469 156.62635733 -108.48135195 130.54398315 -109.28100586 104.78686523 C-109.60262046 82.71014201 -102.54645564 57.02340629 -88 40 C-87.34 40 -86.68 40 -86 40 C-85.62294922 39.15308594 -85.62294922 39.15308594 -85.23828125 38.2890625 C-75.71233038 20.67957603 -53.71689191 9.64045565 -35.36328125 3.9609375 C-23.69169372 0.62619821 -12.13605548 -0.37710907 0 0 Z M-37 61 C-37 61.66 -37 62.32 -37 63 C-37.88945312 63.39832031 -37.88945312 63.39832031 -38.796875 63.8046875 C-45.53340844 67.45961522 -49.04210278 74.52405379 -52.375 81.125 C-52.89368652 82.1461792 -52.89368652 82.1461792 -53.42285156 83.18798828 C-58.02604653 92.65932687 -59.07716609 106.67806853 -55.890625 116.875 C-52.53060229 124.89189629 -48.97036182 132.59135713 -43 139 C-42.34 139 -41.68 139 -41 139 C-41 139.66 -41 140.32 -41 141 C-28.41083356 152.05729884 -14.42588017 154.80431797 1.6796875 154.17480469 C15.14806921 153.16014125 26.28333807 144.71708448 34.8359375 134.84765625 C37.89476938 130.82258687 40.08932173 126.66523944 42 122 C42.34675781 121.1853125 42.69351563 120.370625 43.05078125 119.53125 C47.54261275 107.55303266 46.13702832 94.89204819 42 83 C35.80729217 69.42434244 25.61275821 59.40554426 11.875 53.75 C-5.56240504 47.77629813 -21.76163237 51.6491835 -37 61 Z " fill="#F2C108" transform="translate(196,36)"/>
<path d="M0 0 C31.13354866 0.07421585 63.89844652 10.22196052 88.75 29.27734375 C90.68189032 30.75644727 92.628678 32.08347046 94.6875 33.375 C95.450625 33.91125 96.21375 34.4475 97 35 C97 35.66 97 36.32 97 37 C97.58136719 37.26425781 98.16273438 37.52851563 98.76171875 37.80078125 C105.16878359 41.23353676 111.32566095 47.46382968 116 53 C116 53.66 116 54.32 116 55 C116.66 55 117.32 55 118 55 C119.62047717 56.81652733 121.09732895 58.62532008 122.5625 60.5625 C123.00505127 61.14459229 123.44760254 61.72668457 123.90356445 62.32641602 C142.90109817 87.81107763 152.01030234 115.7979623 156 147 C156.09861328 147.69875244 156.19722656 148.39750488 156.29882812 149.11743164 C157.24790674 156.40877929 157.22130333 163.71973958 157.25 171.0625 C157.27077012 172.39908953 157.29160307 173.73567808 157.3125 175.07226562 C157.35215218 184.97044176 156.20172292 192.31046589 149.83203125 200.16796875 C144.14467952 205.85532048 137.84998514 207.49096788 129.9375 207.625 C122.32263947 207.51336854 117.05144449 205.73348302 111.45703125 200.578125 C105.63337402 194.22504439 103.87117264 186.53884029 103.7890625 178.17578125 C103.76093394 176.57225647 103.73226932 174.96874102 103.703125 173.36523438 C103.66236641 170.86027914 103.62546034 168.35548677 103.59863281 165.8503418 C103.25505965 136.27046958 95.7514651 108.58219021 74.9375 86.6875 C71.27962108 82.68091278 69.02945262 78.44907056 66.70141602 73.57055664 C59.76946349 59.06033817 50.74527806 45.3662786 39.109375 34.1640625 C37 32 37 32 37 30 C36.34 30 35.68 30 35 30 C33.30002464 28.36732143 31.63947562 26.69342117 30 25 C20.49702579 16.17089805 10.20555485 9.47209237 -1 3 C-0.67 2.01 -0.34 1.02 0 0 Z " fill="#F1C10A" transform="translate(306,256)"/>
<path d="M0 0 C17.71998518 0.31811417 34.46480383 6.47903004 49.62353516 15.3190918 C49.62353516 15.9790918 49.62353516 16.6390918 49.62353516 17.3190918 C50.35056641 17.56530273 51.07759766 17.81151367 51.82666016 18.06518555 C56.92236642 20.34971308 60.6143337 24.50706418 64.62353516 28.3190918 C65.41630859 29.05901367 66.20908203 29.79893555 67.02587891 30.5612793 C79.65475807 42.69363843 87.95863271 58.51063378 92.62353516 75.3190918 C92.83623047 76.08350586 93.04892578 76.84791992 93.26806641 77.63549805 C99.75257908 103.71350226 94.2674296 131.55112369 81.28369141 154.6628418 C78.44334293 159.20739935 75.10140634 163.25275952 71.62353516 167.3190918 C71.00736328 168.08092773 70.39119141 168.84276367 69.75634766 169.62768555 C54.71561167 187.63288194 30.47852034 200.07386877 7.15625 202.5847168 C1.98299185 202.99643966 -3.18898664 203.19901128 -8.37646484 203.3190918 C-7.87834429 199.30000953 -7.12071462 197.62193518 -3.93896484 195.1315918 C19.91425631 175.26096885 38.33138425 144.85960529 41.44921875 113.62451172 C43.77429025 82.87430136 34.93428434 52.55001314 15.46337891 28.4519043 C12.50498308 25.02242633 9.44352354 21.68966371 6.34619141 18.38549805 C4.62353516 16.3190918 4.62353516 16.3190918 4.62353516 14.3190918 C4.06666016 14.0715918 3.50978516 13.8240918 2.93603516 13.5690918 C0.19942602 12.08984362 -2.05297354 10.3844174 -4.37646484 8.3190918 C-4.37646484 7.6590918 -4.37646484 6.9990918 -4.37646484 6.3190918 C-5.03646484 6.3190918 -5.69646484 6.3190918 -6.37646484 6.3190918 C-6.37646484 5.6590918 -6.37646484 4.9990918 -6.37646484 4.3190918 C-7.03646484 4.3190918 -7.69646484 4.3190918 -8.37646484 4.3190918 C-8.70646484 3.3290918 -9.03646484 2.3390918 -9.37646484 1.3190918 C-7.19319303 -0.86418001 -2.93690934 0.00967267 0 0 Z " fill="#F1C109" transform="translate(282.37646484375,36.680908203125)"/>
<path d="M0 0 C5.99747028 10.07493238 4.37272984 26.41690332 4.37060547 37.80249023 C4.3750366 40.4594474 4.41168756 43.1148125 4.44921875 45.77148438 C4.51668636 55.69954907 4.53631001 63.6846457 -2.18359375 71.55859375 C-3.29927734 72.48865234 -3.29927734 72.48865234 -4.4375 73.4375 C-5.17871094 74.07558594 -5.91992188 74.71367187 -6.68359375 75.37109375 C-13.72414222 80.32203593 -21.76933991 79.64456977 -30 79 C-37.91288265 77.10570385 -42.67705749 70.48441377 -47 64 C-47.96828982 60.30885888 -48.18375723 56.71861127 -48.31640625 52.9140625 C-48.35838135 51.74198242 -48.40035645 50.56990234 -48.44360352 49.36230469 C-48.48283936 48.12899414 -48.5220752 46.89568359 -48.5625 45.625 C-48.6049585 44.37106445 -48.64741699 43.11712891 -48.69116211 41.82519531 C-48.96831052 33.21296178 -49.13187866 24.61607237 -49 16 C-48.34 16.33 -47.68 16.66 -47 17 C-47 19.31 -47 21.62 -47 24 C-46.34 24 -45.68 24 -45 24 C-44.97494385 25.05388916 -44.9498877 26.10777832 -44.92407227 27.19360352 C-44.82943709 31.12795821 -44.72935661 35.06215925 -44.62768555 38.99633789 C-44.5845478 40.69454335 -44.54285916 42.39278629 -44.50268555 44.09106445 C-44.44446656 46.54129298 -44.38092497 48.99133647 -44.31640625 51.44140625 C-44.29969376 52.19273331 -44.28298126 52.94406036 -44.26576233 53.71815491 C-44.14104202 58.22178284 -43.72045819 62.55161938 -43 67 C-42.34 67 -41.68 67 -41 67 C-40.67 68.32 -40.34 69.64 -40 71 C-38.68 71 -37.36 71 -36 71 C-35.360625 71.825 -34.72125 72.65 -34.0625 73.5 C-29.82357314 76.96034845 -26.63929966 76.56854602 -21.3046875 76.375 C-17.54089832 75.94790336 -14.30274818 75.08187473 -10.8046875 73.65625 C-9 73 -9 73 -6 73 C-4.47700477 70.06279492 -3.19899698 67.0831351 -2 64 C-1.34 64 -0.68 64 0 64 C0.84343743 54.81633044 1.15859323 45.72014173 1.125 36.5 C1.12306641 35.20368652 1.12113281 33.90737305 1.11914062 32.57177734 C1.07078636 21.69341005 0.67103666 10.8564146 0 0 Z " fill="#E6C944" transform="translate(364,384)"/>
<path d="M0 0 C26.51657073 0.06320994 53.1560616 7.50690174 76 21 C73 22 73 22 70 21 C70 20.34 70 19.68 70 19 C69.16855469 18.80664062 68.33710938 18.61328125 67.48046875 18.4140625 C66.39378906 18.15367187 65.30710937 17.89328125 64.1875 17.625 C63.10855469 17.36976563 62.02960938 17.11453125 60.91796875 16.8515625 C58 16 58 16 55 14 C52.43233454 13.3882502 49.90456398 12.84936465 47.3125 12.375 C46.61060547 12.2409375 45.90871094 12.106875 45.18554688 11.96875 C43.45818294 11.6397283 41.72923409 11.31904688 40 11 C40 10.34 40 9.68 40 9 C39.36191406 8.93941406 38.72382813 8.87882812 38.06640625 8.81640625 C37.24011719 8.73261719 36.41382813 8.64882813 35.5625 8.5625 C34.73878906 8.48128906 33.91507812 8.40007812 33.06640625 8.31640625 C31 8 31 8 30 7 C28.48530552 6.76807135 26.96245438 6.58784762 25.4375 6.4375 C24.61121094 6.35371094 23.78492188 6.26992188 22.93359375 6.18359375 C22.29550781 6.12300781 21.65742188 6.06242187 21 6 C21.33 6.99 21.66 7.98 22 9 C20.68 9.33 19.36 9.66 18 10 C18 10.99 18 11.98 18 13 C20.31 13.66 22.62 14.32 25 15 C25 15.66 25 16.32 25 17 C25.66 17 26.32 17 27 17 C27.45375 17.61875 27.9075 18.2375 28.375 18.875 C30.10279389 21.13442278 31.40813228 21.92750301 34 23 C33.505 24.485 33.505 24.485 33 26 C28.79936061 24.25928839 25.6384931 21.3183135 22.1875 18.4375 C14.89844631 12.45831854 7.20688481 7.60982466 -1 3 C-0.67 2.01 -0.34 1.02 0 0 Z " fill="#E9C01E" transform="translate(306,256)"/>
<path d="M0 0 C0.93328125 0.02835938 1.8665625 0.05671875 2.828125 0.0859375 C19.67748738 1.03202469 42.13320638 7.2267152 54 20 C48.63904723 18.41078475 43.29156027 16.81027062 38 15 C38 14.01 38 13.02 38 12 C35.69 11.67 33.38 11.34 31 11 C31 10.34 31 9.68 31 9 C29.54400391 9.07734375 29.54400391 9.07734375 28.05859375 9.15625 C24.28475082 9.15625 21.08679201 8.29494059 17.49023438 7.22094727 C8.60735213 4.58305997 0.26783112 3.5287758 -9 3.5625 C-10.0324585 3.56507812 -11.06491699 3.56765625 -12.12866211 3.5703125 C-16.73577686 3.66232444 -19.90675759 3.80120458 -24 6 C-25.68358775 6.1418907 -27.37320743 6.22014505 -29.0625 6.25 C-34.76261976 6.65442617 -38.65449328 8.58862502 -43.4921875 11.52734375 C-45.94816232 12.96955949 -48.33809479 14.00018328 -51 15 C-51.69222656 15.29261719 -52.38445312 15.58523437 -53.09765625 15.88671875 C-53.74605469 16.15097656 -54.39445313 16.41523437 -55.0625 16.6875 C-55.71347656 16.95949219 -56.36445313 17.23148438 -57.03515625 17.51171875 C-59.36246944 18.0900769 -60.74958839 17.74679583 -63 17 C-52.93154436 10.92717327 -43.35926294 6.15979497 -32 3 C-30.75476563 2.65001953 -30.75476563 2.65001953 -29.484375 2.29296875 C-19.91386755 -0.09965811 -9.81529775 -0.30499513 0 0 Z " fill="#E9C93E" transform="translate(196,36)"/>
<path d="M0 0 C9.24924012 1.63221884 9.24924012 1.63221884 13 4.5625 C15.58758486 6.42232662 17.87283125 6.64463991 21 7 C21 7.66 21 8.32 21 9 C22.65 9 24.3 9 26 9 C26 9.66 26 10.32 26 11 C26.6290625 10.97679687 27.258125 10.95359375 27.90625 10.9296875 C28.7621875 10.91164062 29.618125 10.89359375 30.5 10.875 C31.3353125 10.85179687 32.170625 10.82859375 33.03125 10.8046875 C36 11 36 11 39.66015625 11.9921875 C44.741981 13.33896084 49.70736372 13.29991089 54.9375 13.25 C55.93861816 13.24468262 56.93973633 13.23936523 57.97119141 13.23388672 C64.30774087 13.15411183 70.57736877 12.83486247 76.875 12.125 C77.587771 12.04668945 78.30054199 11.96837891 79.03491211 11.88769531 C80.70210799 11.6705876 82.35474564 11.34614442 84 11 C84.33 10.34 84.66 9.68 85 9 C87.93300669 7.9682565 90.66212836 7.89209012 93.75 7.9375 C94.54921875 7.94652344 95.3484375 7.95554688 96.171875 7.96484375 C96.77515625 7.97644531 97.3784375 7.98804688 98 8 C95.37414632 10.62585368 92.44987345 11.37726012 89 12.5 C88.06607422 12.81904297 88.06607422 12.81904297 87.11328125 13.14453125 C67.71288017 19.55886264 45.38668296 19.29090666 26 13 C24.77410156 12.62617188 23.54820312 12.25234375 22.28515625 11.8671875 C14.28704726 9.24457196 6.96852535 5.74778651 0 1 C0 0.67 0 0.34 0 0 Z " fill="#E6CD52" transform="translate(134,224)"/>
<path d="M0 0 C0 0.33 0 0.66 0 1 C-1.39590247 0.87577449 -2.79171267 0.75051266 -4.1875 0.625 C-5.72083984 0.49158203 -5.72083984 0.49158203 -7.28515625 0.35546875 C-9.94786284 0.10067769 -12.59213251 -0.18771948 -15.24609375 -0.51171875 C-26.46004291 -1.81458902 -37.59620839 -2.19370711 -48.875 -2.1875 C-49.90853607 -2.1887236 -49.90853607 -2.1887236 -50.96295166 -2.18997192 C-58.40185016 -2.1889749 -65.83048083 -2.03515551 -73.2578125 -1.61328125 C-74.45809082 -1.54536377 -75.65836914 -1.47744629 -76.89501953 -1.4074707 C-79.81149792 -1.02473738 -81.48598427 -0.42837873 -84 1 C-86.21819874 1.52761639 -88.4494495 2.00170799 -90.6875 2.4375 C-97.06929218 3.75353797 -103.07670058 5.41182519 -109.11328125 7.85546875 C-113.26383409 9.52037977 -116.43437806 10.34242165 -121 10 C-88.34229894 -11.77180071 -36.09165136 -9.60174121 0 0 Z " fill="#EAD674" transform="translate(250,261)"/>
<path d="M0 0 C0.33 0 0.66 0 1 0 C1 2.64 1 5.28 1 8 C0.01 8.33 -0.98 8.66 -2 9 C-2 9.66 -2 10.32 -2 11 C-2.99 11 -3.98 11 -5 11 C-5.2371875 11.70511719 -5.474375 12.41023437 -5.71875 13.13671875 C-7.22502173 16.50286868 -9.15584517 18.96983173 -11.5 21.8125 C-12.2940625 22.78832031 -13.088125 23.76414063 -13.90625 24.76953125 C-14.5971875 25.50558594 -15.288125 26.24164063 -16 27 C-16.66 27 -17.32 27 -18 27 C-18.2475 27.5775 -18.495 28.155 -18.75 28.75 C-20.18299988 31.32939979 -21.78424676 33.06121592 -24 35 C-24.66 35 -25.32 35 -26 35 C-26 35.99 -26 36.98 -26 38 C-22.83234214 37.71853097 -19.66614788 37.42293807 -16.5 37.125 C-15.613125 37.04636719 -14.72625 36.96773437 -13.8125 36.88671875 C-8.35124433 36.36468696 -3.29936629 35.4069114 2 34 C5 33.875 5 33.875 7 34 C4.30329868 36.69670132 1.34983804 37.13610597 -2.25 38 C-2.96220703 38.17370117 -3.67441406 38.34740234 -4.40820312 38.52636719 C-13.82169265 40.75236094 -23.30308337 42.38787667 -33 42 C-32.50187945 37.98091774 -31.74424978 36.30284339 -28.5625 33.8125 C-16.73393129 23.95886106 -8.48363568 12.72545352 0 0 Z " fill="#E3C144" transform="translate(307,198)"/>
<path d="M0 0 C4.00068562 4.00068562 4.70865069 9.66242284 6 15 C6.33 15.99 6.66 16.98 7 18 C7.10850293 19.43071296 7.16580157 20.86566652 7.18945312 22.30029297 C7.20617065 23.164841 7.22288818 24.02938904 7.2401123 24.9201355 C7.25368774 25.85141266 7.26726318 26.78268982 7.28125 27.7421875 C7.29965942 28.70271027 7.31806885 29.66323303 7.33703613 30.65286255 C7.39580626 33.7268459 7.44859661 36.80088516 7.5 39.875 C7.56777355 43.91417683 7.64149214 47.95318223 7.71875 51.9921875 C7.73232544 52.9194162 7.74590088 53.8466449 7.7598877 54.80197144 C7.84011822 58.98135359 7.95140434 62.92554785 9 67 C9.66 67 10.32 67 11 67 C11.33 68.98 11.66 70.96 12 73 C13.32 73 14.64 73 16 73 C16 73.99 16 74.98 16 76 C18.31 76.66 20.62 77.32 23 78 C23 78.66 23 79.32 23 80 C32.9 79.505 32.9 79.505 43 79 C43 78.34 43 77.68 43 77 C43.99 77.33 44.98 77.66 46 78 C41.82292903 82.17707097 36.92145126 82.42017038 31.25 82.4375 C23.42567601 82.43216826 18.22217193 80.89081161 12.45703125 75.578125 C6.63337402 69.22504439 4.87117264 61.53884029 4.7890625 53.17578125 C4.76093394 51.57225647 4.73226932 49.96874102 4.703125 48.36523438 C4.66236641 45.86027914 4.62546034 43.35548677 4.59863281 40.8503418 C4.4824159 30.8446671 3.83307027 21.39960617 1.73193359 11.60229492 C0.94604211 7.73444006 0.44768637 3.91982092 0 0 Z " fill="#F3E37F" transform="translate(405,381)"/>
<path d="M0 0 C1.41599747 2.83199493 0.75500358 4.70978861 0.25 7.8125 C0.09015625 8.85019531 -0.0696875 9.88789062 -0.234375 10.95703125 C-1 14 -1 14 -2.390625 16.26171875 C-8.30892781 26.33145242 -7.35360938 37.34836725 -7.1875 48.625 C-7.1724266 50.41014497 -7.15874289 52.19530224 -7.14648438 53.98046875 C-7.11368745 58.32062029 -7.06205209 62.66017217 -7 67 C-6.01 67 -5.02 67 -4 67 C-3.67 72.28 -3.34 77.56 -3 83 C-11.19306852 74.80693148 -11.17351158 56.65642301 -11.3125 45.625 C-11.23960872 29.87692804 -7.29853308 13.96056619 0 0 Z " fill="#E9CD52" transform="translate(98,93)"/>
<path d="M0 0 C6.49304381 9.73956572 6.54865833 24.64956159 8 36 C8.14791992 37.04812866 8.14791992 37.04812866 8.29882812 38.11743164 C9.24790674 45.40877929 9.22130333 52.71973958 9.25 60.0625 C9.27077012 61.39908953 9.29160307 62.73567808 9.3125 64.07226562 C9.34896115 73.17387899 8.72270308 80.03077231 3 87.4375 C2.505 88.09621094 2.01 88.75492187 1.5 89.43359375 C0 91 0 91 -3 92 C-3 91.01 -3 90.02 -3 89 C-2.01 89 -1.02 89 0 89 C0.144375 88.401875 0.28875 87.80375 0.4375 87.1875 C0.8872439 85.43849596 1.42892341 83.71322977 2 82 C2.66 82 3.32 82 4 82 C5.540695 77.8862642 6.24864834 74.49245381 6.23046875 70.10546875 C6.22934082 68.99260498 6.22821289 67.87974121 6.22705078 66.7331543 C6.21399902 65.56308838 6.20094727 64.39302246 6.1875 63.1875 C6.17960449 61.98585205 6.17170898 60.7842041 6.16357422 59.54614258 C6.34313669 42.51531658 6.34313669 42.51531658 3 26 C2.48726489 22.74262403 2.08144436 19.48958698 1.70117188 16.21484375 C1.28570649 12.48851853 1.28570649 12.48851853 0 9 C-0.06950541 7.45976004 -0.08452357 5.91665012 -0.0625 4.375 C-0.05347656 3.55773437 -0.04445313 2.74046875 -0.03515625 1.8984375 C-0.02355469 1.27195312 -0.01195312 0.64546875 0 0 Z " fill="#E8D378" transform="translate(454,367)"/>
<path d="M0 0 C17.71998518 0.31811417 34.46480383 6.47903004 49.62353516 15.3190918 C49.62353516 15.9790918 49.62353516 16.6390918 49.62353516 17.3190918 C50.61353516 17.6490918 51.60353516 17.9790918 52.62353516 18.3190918 C51.63353516 18.8140918 51.63353516 18.8140918 50.62353516 19.3190918 C49.96353516 18.9890918 49.30353516 18.6590918 48.62353516 18.3190918 C48.62353516 17.6590918 48.62353516 16.9990918 48.62353516 16.3190918 C48.00865234 16.28170898 47.39376953 16.24432617 46.76025391 16.20581055 C45.95201172 16.14006836 45.14376953 16.07432617 44.31103516 16.0065918 C43.51052734 15.94858398 42.71001953 15.89057617 41.88525391 15.83081055 C39.20868197 15.22523037 38.42921075 14.32092714 36.62353516 12.3190918 C31.43676382 9.72570613 26.30166911 8.41351671 20.62353516 7.3190918 C20.62353516 6.6590918 20.62353516 5.9990918 20.62353516 5.3190918 C12.93749042 4.34749246 5.36490116 4.20988757 -2.37646484 4.3190918 C-2.37646484 4.9790918 -2.37646484 5.6390918 -2.37646484 6.3190918 C-1.71646484 6.6490918 -1.05646484 6.9790918 -0.37646484 7.3190918 C-1.69646484 7.6490918 -3.01646484 7.9790918 -4.37646484 8.3190918 C-4.37646484 7.6590918 -4.37646484 6.9990918 -4.37646484 6.3190918 C-5.03646484 6.3190918 -5.69646484 6.3190918 -6.37646484 6.3190918 C-6.37646484 5.6590918 -6.37646484 4.9990918 -6.37646484 4.3190918 C-7.03646484 4.3190918 -7.69646484 4.3190918 -8.37646484 4.3190918 C-8.70646484 3.3290918 -9.03646484 2.3390918 -9.37646484 1.3190918 C-7.19319303 -0.86418001 -2.93690934 0.00967267 0 0 Z " fill="#EDD876" transform="translate(282.37646484375,36.680908203125)"/>
<path d="M0 0 C0.66 0 1.32 0 2 0 C1.58003653 3.56968947 1.16116463 7.11526401 0.5168457 10.65234375 C-1.3558765 21.18456803 -1.375803 31.64045128 -1.45629883 42.30249023 C-1.47806751 44.72933904 -1.51745665 47.15544435 -1.55859375 49.58203125 C-1.55870956 50.30928909 -1.55882538 51.03654694 -1.5589447 51.7858429 C-1.69387534 58.84863919 -3.70224061 64.91834386 -8.1875 70.5 C-8.71730469 71.1703125 -9.24710937 71.840625 -9.79296875 72.53125 C-10.19128906 73.0159375 -10.58960937 73.500625 -11 74 C-11.58203125 72.109375 -11.58203125 72.109375 -12 70 C-10.6875 68.25 -10.6875 68.25 -9 67 C-8.34 67 -7.68 67 -7 67 C-7 66.01 -7 65.02 -7 64 C-6.34 64 -5.68 64 -5 64 C-5.00523682 63.03586182 -5.01047363 62.07172363 -5.01586914 61.07836914 C-5.03392118 57.51327436 -5.04543274 53.94818364 -5.05493164 50.38305664 C-5.0599714 48.83780234 -5.0668032 47.29255284 -5.07543945 45.74731445 C-5.08752076 43.53074971 -5.09323173 41.31424782 -5.09765625 39.09765625 C-5.10281754 38.4028566 -5.10797882 37.70805695 -5.11329651 36.99220276 C-5.11349277 35.3277067 -5.06189129 33.66334501 -5 32 C-4.67 31.67 -4.34 31.34 -4 31 C-3.79601155 29.30466267 -3.65248754 27.60196717 -3.53515625 25.8984375 C-3.41817383 24.32642578 -3.41817383 24.32642578 -3.29882812 22.72265625 C-3.1429417 20.51447995 -2.98924731 18.30614766 -2.83789062 16.09765625 C-2.41481921 10.4635832 -1.83323454 5.3539653 0 0 Z " fill="#DEC238" transform="translate(92,384)"/>
<path d="M0 0 C18.36271688 11.34743235 32.69708006 32.14184826 38 53 C37.67 53.99 37.34 54.98 37 56 C37 55.34 37 54.68 37 54 C36.34 54 35.68 54 35 54 C33.13459373 49.29593201 31.63156995 45.05255964 31 40 C30.34 40 29.68 40 29 40 C28.67 38.02 28.34 36.04 28 34 C27.34 34 26.68 34 26 34 C25.71125 32.865625 25.4225 31.73125 25.125 30.5625 C24.75375 29.386875 24.3825 28.21125 24 27 C23.34 26.67 22.68 26.34 22 26 C22 25.34 22 24.68 22 24 C21.34 24 20.68 24 20 24 C18.375 22.625 18.375 22.625 17 21 C17 20.34 17 19.68 17 19 C16.34 19 15.68 19 15 19 C15 18.34 15 17.68 15 17 C14.34 17 13.68 17 13 17 C12.9175 16.38125 12.835 15.7625 12.75 15.125 C12.22094022 12.8653367 12.22094022 12.8653367 10.25 12.0625 C9.5075 11.711875 8.765 11.36125 8 11 C5.25 8.5 5.25 8.5 3 6 C3 5.34 3 4.68 3 4 C2.01 4 1.02 4 0 4 C0 2.68 0 1.36 0 0 Z " fill="#E8CE60" transform="translate(336,56)"/>
<path d="M0 0 C1.36959468 3.11271517 0.90994332 4.25666155 -0.25 7.5625 C-2 11 -2 11 -3.48046875 12.35546875 C-5.55963353 14.60567022 -6.14976796 16.83812611 -7.0625 19.75 C-7.40410156 20.82507813 -7.74570312 21.90015625 -8.09765625 23.0078125 C-8.7602969 25.20514038 -9.38967456 27.41257027 -10 29.625 C-11.69981955 35.36189097 -13.94972001 40.89944002 -16.625 46.25 C-18.35939299 50.9801627 -18.94237599 55.61272166 -19.5703125 60.59765625 C-19.96836947 63.74954368 -20.45693978 66.87025823 -21 70 C-21.33 70 -21.66 70 -22 70 C-23.41271427 48.45610733 -14.01375305 16.63855124 0 0 Z " fill="#E6C225" transform="translate(61,330)"/>
<path d="M0 0 C4.2219494 2.27691969 7.47276085 5.16925368 10.8125 8.5625 C11.31458984 9.05685547 11.81667969 9.55121094 12.33398438 10.06054688 C16 13.74651361 16 13.74651361 16 16 C16.66 16 17.32 16 18 16 C19.62038752 17.81642685 21.09713002 19.62563173 22.5625 21.5625 C23.00070068 22.13734131 23.43890137 22.71218262 23.89038086 23.30444336 C27.20243242 27.73934523 30.20423718 32.32406266 33.0625 37.0625 C33.44414307 37.69293213 33.82578613 38.32336426 34.21899414 38.97290039 C35.95235489 41.91925644 37.44877813 44.5993851 38 48 C37.01 48 36.02 48 35 48 C33 45 33 45 33 41 C32.34 41 31.68 41 31 41 C31 40.34 31 39.68 31 39 C29.515 38.505 29.515 38.505 28 38 C26.8671875 35.78515625 26.8671875 35.78515625 25.875 33.0625 C25.54242188 32.16660156 25.20984375 31.27070313 24.8671875 30.34765625 C24.58101563 29.57292969 24.29484375 28.79820312 24 28 C23.67 27.34 23.34 26.68 23 26 C22.01 25.67 21.02 25.34 20 25 C20 24.34 20 23.68 20 23 C19.34 23 18.68 23 18 23 C17.505 20.525 17.505 20.525 17 18 C16.34 18 15.68 18 15 18 C15 17.34 15 16.68 15 16 C14.34 16 13.68 16 13 16 C13 15.34 13 14.68 13 14 C12.01 14 11.02 14 10 14 C10 12.68 10 11.36 10 10 C9.01 10 8.02 10 7 10 C7 9.34 7 8.68 7 8 C6.34 8 5.68 8 5 8 C5 7.34 5 6.68 5 6 C2.525 5.01 2.525 5.01 0 4 C0 2.68 0 1.36 0 0 Z " fill="#E9D35F" transform="translate(406,295)"/>
<path d="M0 0 C9.93307973 2.03815551 20.11886883 8.79570525 28 15 C28 15.66 28 16.32 28 17 C28.70125 17.226875 29.4025 17.45375 30.125 17.6875 C33.74128535 19.33841288 36.08769976 21.2908835 39 24 C39 24.66 39 25.32 39 26 C39.66 26 40.32 26 41 26 C41 26.66 41 27.32 41 28 C41.66 28 42.32 28 43 28 C43 28.66 43 29.32 43 30 C43.66 30 44.32 30 45 30 C45 30.66 45 31.32 45 32 C45.66 32 46.32 32 47 32 C47 32.66 47 33.32 47 34 C45.35 33.67 43.7 33.34 42 33 C42 32.01 42 31.02 42 30 C41.4225 29.9175 40.845 29.835 40.25 29.75 C37.3460664 28.78202213 35.96259396 27.31305716 34 25 C34 24.34 34 23.68 34 23 C33.34 23 32.68 23 32 23 C32 22.34 32 21.68 32 21 C31.34 21 30.68 21 30 21 C29.67 20.34 29.34 19.68 29 19 C28.01 18.67 27.02 18.34 26 18 C25.67 17.34 25.34 16.68 25 16 C23.35052438 15.29308188 21.69877416 14.59093123 20.03515625 13.91796875 C16.4717901 12.31069227 13.27613017 10.11741466 10 8 C9.071875 7.443125 8.14375 6.88625 7.1875 6.3125 C5.4282385 5.2569431 3.70706254 4.13804169 2 3 C2 2.34 2 1.68 2 1 C1.34 0.67 0.68 0.34 0 0 Z " fill="#EAD05C" transform="translate(278,272)"/>
<path d="M0 0 C0.66 0.33 1.32 0.66 2 1 C0.6875 2.5 0.6875 2.5 -1 4 C-1.99 4 -2.98 4 -4 4 C-4.24234375 4.62519531 -4.4846875 5.25039062 -4.734375 5.89453125 C-6.31554099 8.52492776 -7.34810007 8.83370972 -10.25 9.6875 C-10.99765625 9.91824219 -11.7453125 10.14898437 -12.515625 10.38671875 C-18.39027543 11.83690761 -23.98055945 12.18253346 -30 12.1875 C-30.78117187 12.19974609 -31.56234375 12.21199219 -32.3671875 12.22460938 C-36.98112344 12.23626073 -40.65726671 11.76075564 -45 10 C-45 9.01 -45 8.02 -45 7 C-46.32 6.67 -47.64 6.34 -49 6 C-45.57746623 4.85915541 -45.09143306 5.13362433 -41.89453125 6.41015625 C-37.06680537 8.12089073 -32.78167874 8.50246741 -27.6875 8.4375 C-26.8622583 8.43137695 -26.0370166 8.42525391 -25.18676758 8.41894531 C-15.78878511 8.18025474 -7.47952159 5.81740568 0 0 Z " fill="#E9CB4B" transform="translate(218,181)"/>
<path d="M0 0 C0.99 0.495 0.99 0.495 2 1 C2 3.31 2 5.62 2 8 C2.66 8 3.32 8 4 8 C4.02505615 9.06959961 4.0501123 10.13919922 4.07592773 11.24121094 C4.17019528 15.21463727 4.27036858 19.18789668 4.37231445 23.16113281 C4.41559016 24.87984305 4.45727041 26.59859424 4.49731445 28.31738281 C4.55519565 30.789839 4.61883836 33.26209047 4.68359375 35.734375 C4.70030624 36.50118591 4.71701874 37.26799683 4.73423767 38.05804443 C4.83012865 41.52173984 5.07915862 44.66366251 6 48 C5.34 48 4.68 48 4 48 C4 47.34 4 46.68 4 46 C3.34 46 2.68 46 2 46 C0.94931174 42.84793523 0.79795542 40.42209322 0.68359375 37.109375 C0.64161865 35.93084961 0.59964355 34.75232422 0.55639648 33.53808594 C0.51716064 32.28801758 0.4779248 31.03794922 0.4375 29.75 C0.37381226 27.85556152 0.37381226 27.85556152 0.30883789 25.92285156 C0.03264791 17.27816068 -0.13237467 8.64847849 0 0 Z " fill="#EBCC42" transform="translate(315,400)"/>
<path d="M0 0 C21.63836977 -0.5685995 21.63836977 -0.5685995 29 5 C31.17457148 5.70377094 31.17457148 5.70377094 33.4375 6.0625 C40.22174535 7.43723176 40.22174535 7.43723176 43 9 C43.8125 11.125 43.8125 11.125 44 13 C45.32 13.33 46.64 13.66 48 14 C45.16044235 15.1700346 44.08094318 15.03053412 41.15234375 13.92578125 C40.09144531 13.39339844 39.03054688 12.86101562 37.9375 12.3125 C25.52759577 6.36837552 13.4767215 3.46363579 0 1 C0 0.67 0 0.34 0 0 Z " fill="#E8CC48" transform="translate(217,306)"/>
<path d="M0 0 C0.66 0 1.32 0 2 0 C5.69778331 15.05526062 5.69778331 32.94473938 2 48 C1.34 48 0.68 48 0 48 C-0.02578125 48.84304687 -0.0515625 49.68609375 -0.078125 50.5546875 C-0.13484375 51.65039062 -0.1915625 52.74609375 -0.25 53.875 C-0.29640625 54.96554688 -0.3428125 56.05609375 -0.390625 57.1796875 C-1 60 -1 60 -3.046875 61.3828125 C-3.69140625 61.58648437 -4.3359375 61.79015625 -5 62 C-4.73445313 60.83984375 -4.46890625 59.6796875 -4.1953125 58.484375 C-3.26974643 54.41162184 -2.37016357 50.33368212 -1.48730469 46.25146484 C-1.09377989 44.43328565 -0.69261364 42.61676137 -0.2890625 40.80078125 C2.32808167 27.50644746 1.3477682 13.40548014 0 0 Z " fill="#EBD161" transform="translate(323,116)"/>
<path d="M0 0 C0.79921875 0.00902344 1.5984375 0.01804688 2.421875 0.02734375 C3.02515625 0.03894531 3.6284375 0.05054688 4.25 0.0625 C-3.21480202 7.52730202 -17.95952631 7.9275919 -27.75 8.0625 C-28.86375 8.09102051 -28.86375 8.09102051 -30 8.12011719 C-38.77467801 8.34314025 -47.22035313 8.46280264 -55.75 6.0625 C-55.75 5.7325 -55.75 5.4025 -55.75 5.0625 C-54.96052979 5.07297363 -54.17105957 5.08344727 -53.35766602 5.09423828 C-31.43388043 5.76176203 -31.43388043 5.76176203 -9.75 3.0625 C-9.42 2.4025 -9.09 1.7425 -8.75 1.0625 C-5.81699331 0.0307565 -3.08787164 -0.04540988 0 0 Z " fill="#E3BD22" transform="translate(227.75,231.9375)"/>
<path d="M0 0 C0 0.99 0 1.98 0 3 C-0.94875 3.433125 -1.8975 3.86625 -2.875 4.3125 C-6.20041937 5.79302201 -6.20041937 5.79302201 -8 9 C-11.25281205 10.58244911 -14.44476411 11.39053099 -18 12 C-18 12.99 -18 13.98 -18 15 C-19.42578125 16.46484375 -19.42578125 16.46484375 -21.3125 17.9375 C-23.45067286 19.65483963 -24.90752135 20.85287488 -26.375 23.1875 C-29.12456188 26.25431902 -33.11572235 26.92510556 -37 28 C-33.12442226 23.20166566 -29.07516114 18.57092523 -24 15 C-23.34 15 -22.68 15 -22 15 C-22 14.34 -22 13.68 -22 13 C-20.2197028 11.65587562 -18.37266253 10.39963181 -16.5 9.1875 C-15.40945312 8.47980469 -14.31890625 7.77210938 -13.1953125 7.04296875 C-12.14085938 6.36878906 -11.08640625 5.69460938 -10 5 C-9.17242187 4.45988281 -8.34484375 3.91976563 -7.4921875 3.36328125 C-2.26898281 0 -2.26898281 0 0 0 Z " fill="#E9D054" transform="translate(119,276)"/>
<path d="M0 0 C0.33 0 0.66 0 1 0 C1.0093457 1.20011719 1.01869141 2.40023438 1.02832031 3.63671875 C1.0683912 8.11739317 1.13419684 12.59739329 1.20751953 17.07763672 C1.23563035 19.01146743 1.25689379 20.94541093 1.27099609 22.87939453 C1.29256321 25.67017955 1.33928256 28.45962259 1.390625 31.25 C1.39185364 32.10553467 1.39308228 32.96106934 1.39434814 33.8425293 C1.54838968 40.25027963 2.91442375 45.98183466 7.63433838 50.59863281 C9 52 9 52 9 54 C9.66 54 10.32 54 11 54 C11.33 54.99 11.66 55.98 12 57 C7.23460789 55.87873127 5.19046348 53.1565359 2.33203125 49.4609375 C-1.73035864 41.95564239 -1.28096616 33.89356388 -1.20581055 25.59130859 C-1.18754166 23.50475808 -1.18530156 21.41865356 -1.18554688 19.33203125 C-1.16776284 12.81782515 -1.03741332 6.4402619 0 0 Z " fill="#EFE17D" transform="translate(38,402)"/>
<path d="M0 0 C2.475 0.495 2.475 0.495 5 1 C5.66 2.98 6.32 4.96 7 7 C7.99 7 8.98 7 10 7 C10.144375 8.093125 10.28875 9.18625 10.4375 10.3125 C10.88288104 13.93122987 10.88288104 13.93122987 12 17 C13.44419142 27.10933993 14.3411536 38.16215884 11 48 C10.01 48.495 10.01 48.495 9 49 C9.15597656 48.18917969 9.31195313 47.37835938 9.47265625 46.54296875 C10.7864926 39.06889311 11.26945613 32.48872442 10 25 C9.83628906 24.03320312 9.67257813 23.06640625 9.50390625 22.0703125 C8.0222688 14.98422037 5.26036944 9.42183197 1.42578125 3.30078125 C0 1 0 1 0 0 Z " fill="#ECD459" transform="translate(230,106)"/>
<path d="M0 0 C11.34303353 0.3506908 21.97079887 1.13924473 33 4 C33 4.33 33 4.66 33 5 C23.71854592 5.22823248 15.13029973 4.90427108 6 3 C6 3.99 6 4.98 6 6 C7.65 6.33 9.3 6.66 11 7 C11 7.66 11 8.32 11 9 C6.38486888 7.68139111 2.90102388 5.78644563 -1 3 C-0.67 2.01 -0.34 1.02 0 0 Z " fill="#E6CA52" transform="translate(306,256)"/>
<path d="M0 0 C0.33 0 0.66 0 1 0 C1 2.64 1 5.28 1 8 C0.01 8.33 -0.98 8.66 -2 9 C-2 9.66 -2 10.32 -2 11 C-2.99 11 -3.98 11 -5 11 C-5.36158203 12.06347656 -5.36158203 12.06347656 -5.73046875 13.1484375 C-7.19456393 16.43702052 -9.03222392 18.84267995 -11.3125 21.625 C-12.07175781 22.56601563 -12.83101563 23.50703125 -13.61328125 24.4765625 C-15.94527532 26.94214052 -18.05256913 28.3696105 -21 30 C-22.36984198 31.29579647 -23.7151049 32.61992749 -25 34 C-25.66 33.67 -26.32 33.34 -27 33 C-26.20078125 32.25878906 -25.4015625 31.51757812 -24.578125 30.75390625 C-15.71702937 22.32886944 -8.73879241 13.17635347 -2 3 C-1.34 2.01 -0.68 1.02 0 0 Z " fill="#EDD76B" transform="translate(307,198)"/>
<path d="M0 0 C2.74148672 0.37047118 4.58593199 0.68587944 6.8125 2.375 C8 4 8 4 8 7 C8.66 7 9.32 7 10 7 C10 7.66 10 8.32 10 9 C11.32 9.33 12.64 9.66 14 10 C14.33 11.98 14.66 13.96 15 16 C15.99 16 16.98 16 18 16 C18 16.99 18 17.98 18 19 C18.66 19 19.32 19 20 19 C20.33 20.65 20.66 22.3 21 24 C21.99 24.33 22.98 24.66 24 25 C24.33 26.98 24.66 28.96 25 31 C22.05917646 28.20783347 19.73557693 25.33543779 17.4375 22 C13.81420708 16.91095153 9.82826239 12.37619446 5.50561523 7.88476562 C2 4.19999516 2 4.19999516 2 2 C1.34 2 0.68 2 0 2 C0 1.34 0 0.68 0 0 Z " fill="#E7D053" transform="translate(341,284)"/>
<path d="M0 0 C0.33 0 0.66 0 1 0 C5.85593845 19.42375381 5.06029639 39.91006638 -1 59 C-1.66 59.99 -2.32 60.98 -3 62 C-2.62234813 58.29901166 -2.19495859 54.75702004 -1.265625 51.1484375 C1.01579575 41.95818597 1.27865639 33.12639589 1.25 23.6875 C1.24528687 21.72744019 1.24528687 21.72744019 1.24047852 19.7277832 C1.49935268 13.68224823 1.49935268 13.68224823 0 8 C-0.13415472 5.3276379 -0.04318541 2.67749512 0 0 Z " fill="#E6D06B" transform="translate(374,112)"/>
<path d="M0 0 C-0.81597656 0.39832031 -0.81597656 0.39832031 -1.6484375 0.8046875 C-5.33809562 2.68016156 -8.92866309 4.73482731 -12.5390625 6.7578125 C-15 8 -15 8 -17 8 C-17 8.66 -17 9.32 -17 10 C-18.010625 10.804375 -19.02125 11.60875 -20.0625 12.4375 C-24.19766347 15.83454098 -26.69000285 19.856687 -29.421875 24.4140625 C-30.83353472 26.72722769 -32.33569524 28.86447643 -34 31 C-33.77169299 29.37181054 -33.51656424 27.7473651 -33.25 26.125 C-33.11078125 25.22007813 -32.9715625 24.31515625 -32.828125 23.3828125 C-32 21 -32 21 -29.94921875 19.79296875 C-28.98435547 19.40044922 -28.98435547 19.40044922 -28 19 C-27.7834375 18.1028125 -27.7834375 18.1028125 -27.5625 17.1875 C-26.71337226 13.88533655 -24.43065381 12.31490839 -22 10 C-21.525625 9.2575 -21.05125 8.515 -20.5625 7.75 C-18.33538482 5.255631 -16.23607274 5.28765091 -13 5 C-13 4.34 -13 3.68 -13 3 C-8.37802694 0.78145293 -5.23175837 -0.38281159 0 0 Z " fill="#E7D266" transform="translate(176,89)"/>
<path d="M0 0 C4.00068562 4.00068562 4.70865069 9.66242284 6 15 C6.33 15.99 6.66 16.98 7 18 C7.0853013 20.87694671 7.11585645 23.72900182 7.09765625 26.60546875 C7.0962413 27.44467361 7.09482635 28.28387848 7.09336853 29.14851379 C7.08777215 31.82821216 7.07522035 34.5078269 7.0625 37.1875 C7.05748453 39.00455608 7.05292171 40.82161348 7.04882812 42.63867188 C7.03780391 47.09248013 7.02054178 51.54622589 7 56 C6.67 56 6.34 56 6 56 C5.98541748 55.41847168 5.97083496 54.83694336 5.95581055 54.23779297 C5.44906878 35.93420861 3.65211215 17.95979857 0 0 Z " fill="#E3C543" transform="translate(405,381)"/>
<path d="M0 0 C0.66 0.99 1.32 1.98 2 3 C1.27637114 4.55063327 0.54761125 6.09902653 -0.203125 7.63671875 C-1.62687225 11.85910642 -1.53170994 16.27220872 -1.69140625 20.6953125 C-2 24 -2 24 -3.00708008 26.10180664 C-4.44498704 30.29885447 -4.2462344 34.27108618 -4.1953125 38.67578125 C-4.1924826 39.6009404 -4.18965271 40.52609955 -4.18673706 41.47929382 C-4.17557392 44.42382942 -4.15047637 47.36805688 -4.125 50.3125 C-4.11496521 52.31314664 -4.10584023 54.31379806 -4.09765625 56.31445312 C-4.07564722 61.2097535 -4.04114391 66.10482457 -4 71 C-4.66 70.67 -5.32 70.34 -6 70 C-6.04976779 64.05925694 -6.08589256 58.11863765 -6.10986328 52.17773438 C-6.11986576 50.16046024 -6.13347206 48.1432004 -6.15087891 46.12597656 C-6.17538198 43.21155246 -6.18654091 40.29732152 -6.1953125 37.3828125 C-6.20563507 36.49385284 -6.21595764 35.60489319 -6.22659302 34.68899536 C-6.22753838 29.30618573 -5.64385353 24.36117812 -4.46076965 19.10743713 C-3.92916902 16.67603805 -3.70351681 14.2952505 -3.5625 11.8125 C-3.17975948 7.3259306 -2.00796717 4.01593433 0 0 Z " fill="#E7C223" transform="translate(45,373)"/>
<path d="M0 0 C1.03535889 0.00298096 2.07071777 0.00596191 3.13745117 0.0090332 C4.84191406 0.01 4.84191406 0.01 6.58081055 0.01098633 C8.36261719 0.03515625 8.36261719 0.03515625 10.18041992 0.05981445 C11.94482422 0.05498047 11.94482422 0.05498047 13.74487305 0.05004883 C19.43459806 0.08542869 23.99227569 0.3548792 29.36791992 2.37231445 C29.36791992 2.70231445 29.36791992 3.03231445 29.36791992 3.37231445 C17.81791992 3.37231445 6.26791992 3.37231445 -5.63208008 3.37231445 C-2.63208008 0.37231445 -2.63208008 0.37231445 0 0 Z " fill="#E4C029" transform="translate(194.632080078125,302.627685546875)"/>
<path d="M0 0 C6.22147132 -0.10030898 12.44245246 -0.17213517 18.66455078 -0.21972656 C20.7727073 -0.23960576 22.88081048 -0.26671882 24.98876953 -0.30175781 C38.57897595 -0.521685 50.88228711 0.32198156 64 4 C64 4.33 64 4.66 64 5 C62.60409753 4.87577449 61.20828733 4.75051266 59.8125 4.625 C58.81476563 4.53605469 57.81703125 4.44710938 56.7890625 4.35546875 C53.88552625 4.08307514 50.98619387 3.79226001 48.0859375 3.48828125 C39.21208291 2.57369436 30.50622143 1.8344773 21.57421875 1.99609375 C14.37332615 2.00396358 7.18409808 1.45613321 0 1 C0 0.67 0 0.34 0 0 Z " fill="#E3BE2B" transform="translate(186,257)"/>
<path d="M0 0 C6.07236153 10.21564912 4.31580758 26.62235332 4.26074219 38.13208008 C4.24983149 40.85454653 4.26080545 43.57637914 4.2734375 46.29882812 C4.27211886 48.03906395 4.26956262 49.77929938 4.265625 51.51953125 C4.26967346 52.32880569 4.27372192 53.13808014 4.27789307 53.97187805 C4.24536874 57.83580401 4.19306789 59.71039817 2 63 C2.01047363 62.01418945 2.02094727 61.02837891 2.03173828 60.01269531 C2.37716229 35.35133408 2.37716229 35.35133408 0.4375 10.79296875 C0.01378267 7.11949086 -0.07712953 3.68775547 0 0 Z " fill="#E7D36D" transform="translate(364,384)"/>
<path d="M0 0 C0.33 0.99 0.66 1.98 1 3 C-0.29486821 4.69672386 -1.63360658 6.3603279 -3 8 C-3.33 8.886875 -3.66 9.77375 -4 10.6875 C-5 13 -5 13 -7 13.9375 C-9.35003182 14.88549496 -9.35003182 14.88549496 -9.9375 18 C-10.288125 18.99 -10.63875 19.98 -11 21 C-13.5625 22.1875 -13.5625 22.1875 -16 23 C-16.33 23.99 -16.66 24.98 -17 26 C-17.66 26 -18.32 26 -19 26 C-15.52878622 15.98828867 -7.09736138 7.6581883 0 0 Z " fill="#EACB4B" transform="translate(81,304)"/>
<path d="M0 0 C0.92941406 -0.01611328 1.85882813 -0.03222656 2.81640625 -0.04882812 C8.58138786 -0.0529052 12.63052016 0.6325513 17.75 3.3125 C17.75 3.9725 17.75 4.6325 17.75 5.3125 C18.513125 5.43625 19.27625 5.56 20.0625 5.6875 C22.75 6.3125 22.75 6.3125 25.75 8.3125 C25.42 9.3025 25.09 10.2925 24.75 11.3125 C23.986875 10.735 23.22375 10.1575 22.4375 9.5625 C11.50535979 2.40182075 -0.58086647 2.24818968 -13.25 2.3125 C-8.92557876 -0.57044749 -5.08613431 -0.01734698 0 0 Z " fill="#E8D162" transform="translate(194.25,85.6875)"/>
<path d="M0 0 C0.66 0 1.32 0 2 0 C1.58080725 3.56313838 1.16216695 7.10342944 0.5234375 10.63476562 C-1.22509395 20.51918779 -1.43914482 30.30632819 -1.625 40.3125 C-1.66328529 42.03582473 -1.70234266 43.75913249 -1.7421875 45.48242188 C-1.83700801 49.65480613 -1.92144415 53.82727914 -2 58 C-2.33 58 -2.66 58 -3 58 C-3.0499526 52.25660425 -3.08597755 46.51333881 -3.10986328 40.76977539 C-3.11983541 38.82151075 -3.13341797 36.87326074 -3.15087891 34.92504883 C-3.36755692 10.10267075 -3.36755692 10.10267075 0 0 Z " fill="#EFE079" transform="translate(92,384)"/>
<path d="M0 0 C5.07677335 3.12898203 9.20784727 6.80979481 13.4375 11 C14.08654297 11.61617187 14.73558594 12.23234375 15.40429688 12.8671875 C16.01208984 13.46789062 16.61988281 14.06859375 17.24609375 14.6875 C17.79966553 15.22761719 18.3532373 15.76773438 18.92358398 16.32421875 C20 18 20 18 19.67211914 20.20703125 C19.45031982 20.79871094 19.22852051 21.39039062 19 22 C18.34 21.67 17.68 21.34 17 21 C17 20.34 17 19.68 17 19 C16.34 19 15.68 19 15 19 C15 18.34 15 17.68 15 17 C14.34 17 13.68 17 13 17 C12.9175 16.38125 12.835 15.7625 12.75 15.125 C12.22094022 12.8653367 12.22094022 12.8653367 10.25 12.0625 C9.5075 11.711875 8.765 11.36125 8 11 C5.25 8.5 5.25 8.5 3 6 C3 5.34 3 4.68 3 4 C2.01 4 1.02 4 0 4 C0 2.68 0 1.36 0 0 Z " fill="#E9CF55" transform="translate(336,56)"/>
<path d="M0 0 C0 0.33 0 0.66 0 1 C-2.12534659 0.85930804 -4.25027529 0.71229079 -6.375 0.5625 C-7.55835938 0.48128906 -8.74171875 0.40007813 -9.9609375 0.31640625 C-13 0 -13 0 -15 -1 C-17.55362604 -1.08658569 -20.0795442 -1.11562516 -22.6328125 -1.09765625 C-23.38464813 -1.0962413 -24.13648376 -1.09482635 -24.91110229 -1.09336853 C-27.3157751 -1.08776465 -29.72035527 -1.07521157 -32.125 -1.0625 C-33.75390491 -1.0574855 -35.38281127 -1.0529225 -37.01171875 -1.04882812 C-41.00784827 -1.03779397 -45.00390842 -1.02052679 -49 -1 C-37.22357781 -8.85094813 -12.62199317 -3.95058448 0 0 Z " fill="#EFD874" transform="translate(219,40)"/>
<path d="M0 0 C-3.0230026 2.01533507 -5.21666293 2.72507216 -8.6875 3.6875 C-15.5456296 5.72723552 -21.95588802 8.47052118 -28.46875 11.4140625 C-31.29184454 12.68195673 -34.11617928 13.87974657 -37 15 C-36.73828125 13.1015625 -36.73828125 13.1015625 -36 11 C-34.29296875 10.0234375 -34.29296875 10.0234375 -32.1875 9.375 C-30.12338688 8.71665248 -28.18879946 8.09651632 -26.2578125 7.109375 C-22.83388259 5.42702882 -19.27259742 4.17022102 -15.6875 2.875 C-14.95337891 2.59785156 -14.21925781 2.32070313 -13.46289062 2.03515625 C-8.75708702 0.33989781 -4.99964616 -0.30380941 0 0 Z " fill="#E9D361" transform="translate(176,308)"/>
<path d="M0 0 C-18.64552239 13.96641791 -18.64552239 13.96641791 -28 16 C-27.505 14.515 -27.505 14.515 -27 13 C-25.35 13 -23.7 13 -22 13 C-22 12.01 -22 11.02 -22 10 C-20.02 9.67 -18.04 9.34 -16 9 C-16 8.34 -16 7.68 -16 7 C-14.34467377 5.98133771 -12.67739862 4.98189187 -11 4 C-10.67 3.34 -10.34 2.68 -10 2 C-8.68 2 -7.36 2 -6 2 C-6 1.34 -6 0.68 -6 0 C-3.50907189 -1.24546405 -2.58919267 -0.7767578 0 0 Z " fill="#E4CB52" transform="translate(342,216)"/>
<path d="M0 0 C1.65 0 3.3 0 5 0 C5.103125 0.639375 5.20625 1.27875 5.3125 1.9375 C5.539375 2.618125 5.76625 3.29875 6 4 C6.99 4.33 7.98 4.66 9 5 C9 5.66 9 6.32 9 7 C9.66 7 10.32 7 11 7 C11 7.99 11 8.98 11 10 C12.98 10 14.96 10 17 10 C17 11.32 17 12.64 17 14 C17.639375 14.268125 18.27875 14.53625 18.9375 14.8125 C21 16 21 16 22 19 C16.61143232 17.48869959 13.24327153 13.83314311 9.3125 10.0625 C8.29833008 9.11213867 8.29833008 9.11213867 7.26367188 8.14257812 C4.48278304 5.51111018 2.13516109 3.20274163 0 0 Z " fill="#E9CF56" transform="translate(112,205)"/>
<path d="M0 0 C0.33 1.32 0.66 2.64 1 4 C0.01 4 -0.98 4 -2 4 C-2.12375 4.61875 -2.2475 5.2375 -2.375 5.875 C-3 8 -3 8 -5 10 C-5.433125 11.3921875 -5.433125 11.3921875 -5.875 12.8125 C-7.08513511 16.24121613 -8.51838669 18.36328586 -11 21 C-11.66 21 -12.32 21 -13 21 C-13 21.66 -13 22.32 -13 23 C-13.66 23 -14.32 23 -15 23 C-13.69166571 18.59091345 -11.97608606 14.99650745 -9.5 11.125 C-8.8915625 10.15820312 -8.283125 9.19140625 -7.65625 8.1953125 C-6.83640625 7.10863281 -6.83640625 7.10863281 -6 6 C-5.34 6 -4.68 6 -4 6 C-3.566875 5.071875 -3.566875 5.071875 -3.125 4.125 C-2 2 -2 2 0 0 Z " fill="#EDD362" transform="translate(114,70)"/>
<path d="M0 0 C3.74477692 1.3483867 6.71723263 3.04501192 9.9375 5.375 C12.79507343 7.42954831 15.64663598 9.4377578 18.625 11.3125 C19.40875 11.869375 20.1925 12.42625 21 13 C21 13.66 21 14.32 21 15 C21.99 15.33 22.98 15.66 24 16 C23.34 16.33 22.68 16.66 22 17 C19.59529196 15.7295882 17.30582637 14.42931354 15 13 C12.26465513 11.32149292 10.04941398 10.01647133 7 9 C7 8.01 7 7.02 7 6 C5.35 5.67 3.7 5.34 2 5 C2 4.01 2 3.02 2 2 C1.34 2 0.68 2 0 2 C0 1.34 0 0.68 0 0 Z " fill="#E8CE51" transform="translate(382,278)"/>
<path d="M0 0 C0.99 0 1.98 0 3 0 C1.45043174 5.17855716 -1.81455043 8.6495279 -5.3125 12.625 C-5.88162109 13.29273438 -6.45074219 13.96046875 -7.03710938 14.6484375 C-10.08059369 18.14267896 -12.78677879 20.89734176 -17 23 C-17 20 -17 20 -15 18 C-14.01 18 -13.02 18 -12 18 C-12 16.35 -12 14.7 -12 13 C-11.401875 12.7525 -10.80375 12.505 -10.1875 12.25 C-7.71222841 10.83555909 -6.66569196 9.27139812 -5 7 C-4.34 7 -3.68 7 -3 7 C-2.67 5.68 -2.34 4.36 -2 3 C-1.34 3 -0.68 3 0 3 C0 2.01 0 1.02 0 0 Z " fill="#E7D063" transform="translate(359,192)"/>
<path d="M0 0 C6.5873271 1.12648625 11.97151764 3.1632469 17.8125 6.375 C18.54919922 6.76171875 19.28589844 7.1484375 20.04492188 7.546875 C23.91986609 9.63311416 27.07239822 11.63441055 30 15 C24.63904723 13.41078475 19.29156027 11.81027062 14 10 C14 8.68 14 7.36 14 6 C12.68 6 11.36 6 10 6 C10 5.34 10 4.68 10 4 C9.36191406 3.87882812 8.72382813 3.75765625 8.06640625 3.6328125 C7.24011719 3.46523438 6.41382813 3.29765625 5.5625 3.125 C4.73878906 2.96257813 3.91507813 2.80015625 3.06640625 2.6328125 C2.38449219 2.42398438 1.70257813 2.21515625 1 2 C0.67 1.34 0.34 0.68 0 0 Z " fill="#EDD365" transform="translate(220,41)"/>
<path d="M0 0 C0.33 0 0.66 0 1 0 C1.02496472 4.10765642 1.04298366 8.21528264 1.05493164 12.32299805 C1.05991957 13.71656057 1.06671231 15.11011798 1.07543945 16.50366211 C1.20166667 37.1975 1.20166667 37.1975 -2 42 C-2.99 42 -3.98 42 -5 42 C-4.67 40.35 -4.34 38.7 -4 37 C-3.34 37 -2.68 37 -2 37 C-1.34 24.79 -0.68 12.58 0 0 Z " fill="#E7C436" transform="translate(366,411)"/>
<path d="M0 0 C6.07008979 4.55256734 13.75467693 11.18514651 15 19 C14.01 19 13.02 19 12 19 C11.67 18.01 11.34 17.02 11 16 C9.7625 15.38125 9.7625 15.38125 8.5 14.75 C6 13 6 13 5.1875 9.3125 C5.125625 8.219375 5.06375 7.12625 5 6 C4.01 6 3.02 6 2 6 C2 5.34 2 4.68 2 4 C0.68 3.67 -0.64 3.34 -2 3 C-1.34 2.67 -0.68 2.34 0 2 C0 1.34 0 0.68 0 0 Z " fill="#EACE4D" transform="translate(261,65)"/>
<path d="M0 0 C3.87755812 3.47059416 5.29586018 7.84115862 7.25 12.5625 C7.81460937 13.87637695 7.81460937 13.87637695 8.390625 15.21679688 C8.74125 16.05404297 9.091875 16.89128906 9.453125 17.75390625 C9.77442383 18.52033447 10.09572266 19.2867627 10.42675781 20.07641602 C11 22 11 22 10 24 C8.078125 23.3515625 8.078125 23.3515625 6 22 C5.171875 19.3984375 5.171875 19.3984375 4.75 16.375 C4.60046875 15.37210937 4.4509375 14.36921875 4.296875 13.3359375 C4.14992188 12.17964844 4.14992188 12.17964844 4 11 C3.34 11 2.68 11 2 11 C0.80712589 7.12315913 0 4.08378077 0 0 Z " fill="#E7CF59" transform="translate(347,336)"/>
<path d="M0 0 C-5.91628789 5.91628789 -16.29885314 5.51325373 -24.125 5.6875 C-25.176875 5.72166016 -26.22875 5.75582031 -27.3125 5.79101562 C-29.87489313 5.87254632 -32.43698497 5.94199728 -35 6 C-34.67 5.01 -34.34 4.02 -34 3 C-33.2471875 3.03480469 -32.494375 3.06960937 -31.71875 3.10546875 C-24.35716607 3.29308193 -17.63734294 2.5958264 -10.47070312 1.06713867 C-6.91333087 0.31348088 -3.63909747 -0.16795834 0 0 Z " fill="#E7BD25" transform="translate(314,232)"/>
<path d="M0 0 C5.97390508 8.96085763 6.189335 21.54450071 6 32 C5.67 32 5.34 32 5 32 C3.06250897 26.77931288 2.34102599 21.72499245 1.70117188 16.21484375 C1.28570649 12.48851853 1.28570649 12.48851853 0 9 C-0.06950541 7.45976004 -0.08452357 5.91665012 -0.0625 4.375 C-0.05347656 3.55773437 -0.04445313 2.74046875 -0.03515625 1.8984375 C-0.02355469 1.27195312 -0.01195312 0.64546875 0 0 Z " fill="#E4C54C" transform="translate(454,367)"/>
<path d="M0 0 C6.72214847 0.81057092 12.80335955 2.48908772 19.0625 5 C19.71742432 5.26119629 20.37234863 5.52239258 21.04711914 5.79150391 C23.82353754 6.94049215 25.85492024 7.85492024 28 10 C22.85877169 10.37618744 19.6358274 9.15805758 15 7 C13.67125396 6.48793384 12.33773782 5.98809353 11 5.5 C7.27367224 4.12446104 3.63885072 2.59199719 0 1 C0 0.67 0 0.34 0 0 Z " fill="#E9D167" transform="translate(250,262)"/>
<path d="M0 0 C2.31 0.66 4.62 1.32 7 2 C7 2.66 7 3.32 7 4 C16.9 3.505 16.9 3.505 27 3 C27 2.34 27 1.68 27 1 C27.99 1.33 28.98 1.66 30 2 C26.25478664 5.74521336 22.37169096 6.26788535 17.16601562 6.32226562 C16.12477539 6.31743164 16.12477539 6.31743164 15.0625 6.3125 C14.02706055 6.33666992 14.02706055 6.33666992 12.97070312 6.36132812 C8.25095605 6.36580182 4.95998825 5.58154959 1 3 C0.67 2.01 0.34 1.02 0 0 Z " fill="#E6CE59" transform="translate(421,457)"/>
<path d="M0 0 C0.99 0.33 1.98 0.66 3 1 C1.88200014 2.33920838 0.75538103 3.67122556 -0.375 5 C-1.31472656 6.11375 -1.31472656 6.11375 -2.2734375 7.25 C-3.12808594 8.11625 -3.12808594 8.11625 -4 9 C-4.66 9 -5.32 9 -6 9 C-6.26554687 9.72574219 -6.53109375 10.45148438 -6.8046875 11.19921875 C-8.00072948 14.00170928 -9.40329107 16.30479352 -11.125 18.8125 C-11.66382812 19.60269531 -12.20265625 20.39289063 -12.7578125 21.20703125 C-13.16773437 21.79871094 -13.57765625 22.39039063 -14 23 C-15 20 -15 20 -14 17 C-13.34 17 -12.68 17 -12 17 C-12 16.01 -12 15.02 -12 14 C-11.34 14 -10.68 14 -10 14 C-9.938125 13.278125 -9.87625 12.55625 -9.8125 11.8125 C-8.74007034 8.1002435 -6.90242087 6.48778932 -4 4 C-3.01 3.67 -2.02 3.34 -1 3 C-0.67 2.01 -0.34 1.02 0 0 Z " fill="#E7D05C" transform="translate(118,338)"/>
<path d="M0 0 C1.734375 0.06640625 1.734375 0.06640625 4 1 C5.59765336 3.30610184 6.93530589 5.48096971 8.25 7.9375 C8.61351562 8.58396484 8.97703125 9.23042969 9.3515625 9.89648438 C12 14.69055451 12 14.69055451 12 17 C11.01 17 10.02 17 9 17 C7 14 7 14 7 10 C6.34 10 5.68 10 5 10 C5 9.34 5 8.68 5 8 C4.01 7.67 3.02 7.34 2 7 C0.8125 3.4375 0.8125 3.4375 0 0 Z " fill="#E5C94E" transform="translate(432,326)"/>
<path d="M0 0 C0.66 0 1.32 0 2 0 C-0.87713674 8.22039068 -7.11659952 14.83744964 -14 20 C-13.8125 17.75 -13.8125 17.75 -13 15 C-11.35360035 13.64172029 -9.68704193 12.30745749 -8 11 C-7.36707617 8.88719655 -7.36707617 8.88719655 -7 7 C-6.01 6.67 -5.02 6.34 -4 6 C-2.3553326 3.53673288 -2.3553326 3.53673288 -1 1 C-0.67 0.67 -0.34 0.34 0 0 Z " fill="#E6CD59" transform="translate(275,192)"/>
<path d="M0 0 C3.72433382 1.2125738 7.37802806 2.50859979 11 4 C11 4.66 11 5.32 11 6 C11.66 6 12.32 6 13 6 C13.45375 6.61875 13.9075 7.2375 14.375 7.875 C16.10279389 10.13442278 17.40813228 10.92750301 20 12 C19.67 12.99 19.34 13.98 19 15 C16.15351155 13.6721359 13.77893925 12.17517011 11.328125 10.21484375 C10.66425781 9.68439453 10.00039063 9.15394531 9.31640625 8.60742188 C8.63449219 8.05634766 7.95257813 7.50527344 7.25 6.9375 C6.55261719 6.38255859 5.85523438 5.82761719 5.13671875 5.25585938 C1.32573869 2.19439692 1.32573869 2.19439692 0 1 C0 0.67 0 0.34 0 0 Z " fill="#E8CF5E" transform="translate(320,267)"/>
<path d="M0 0 C0.33 0 0.66 0 1 0 C1.26966331 5.12360284 1.08029998 8.15261844 -1.203125 12.81640625 C-2.70131518 16.9217411 -3.02654045 21.28086935 -3.5703125 25.59765625 C-3.96836947 28.74954368 -4.45693978 31.87025823 -5 35 C-5.33 35 -5.66 35 -6 35 C-6.45137053 28.11659941 -5.55332905 21.95478243 -4.125 15.25 C-3.95129883 14.43426514 -3.77759766 13.61853027 -3.59863281 12.77807617 C-2.63399489 8.4189291 -1.50767452 4.21062253 0 0 Z " fill="#E9D46E" transform="translate(45,365)"/>
<path d="M0 0 C1.32 0.33 2.64 0.66 4 1 C4 1.66 4 2.32 4 3 C4.66 3 5.32 3 6 3 C6 3.66 6 4.32 6 5 C6.66 5 7.32 5 8 5 C8 5.66 8 6.32 8 7 C8.66 7 9.32 7 10 7 C12 10 12 10 12 13 C12.99 13.33 13.98 13.66 15 14 C15.33 15.98 15.66 17.96 16 20 C12.73940696 16.99022181 10.20662412 13.66093693 7.59375 10.1015625 C5.54981509 7.40637382 3.34724488 4.87548847 1.1015625 2.34765625 C0 1 0 1 0 0 Z " fill="#E9D359" transform="translate(378,338)"/>
<path d="M0 0 C6.90576614 1.28090824 12.70239164 3.42488079 19 6.5 C20.28583984 7.10521484 20.28583984 7.10521484 21.59765625 7.72265625 C27.86642987 10.73285975 27.86642987 10.73285975 29 13 C26.03 12.505 26.03 12.505 23 12 C23 11.34 23 10.68 23 10 C22.16855469 9.80664062 21.33710938 9.61328125 20.48046875 9.4140625 C19.39378906 9.15367187 18.30710937 8.89328125 17.1875 8.625 C16.10855469 8.36976563 15.02960938 8.11453125 13.91796875 7.8515625 C11 7 11 7 8 5 C8 4.34 8 3.68 8 3 C7.05125 2.87625 6.1025 2.7525 5.125 2.625 C2 2 2 2 0 0 Z " fill="#ECD678" transform="translate(353,265)"/>
<path d="M0 0 C2.45862401 -0.05383848 4.9160755 -0.09359038 7.375 -0.125 C8.42300781 -0.15013672 8.42300781 -0.15013672 9.4921875 -0.17578125 C11.32897486 -0.19344267 13.16601963 -0.10303261 15 0 C15.66 0.66 16.32 1.32 17 2 C13.7 2.33 10.4 2.66 7 3 C7 3.66 7 4.32 7 5 C7.66 5.33 8.32 5.66 9 6 C7.68 6.33 6.36 6.66 5 7 C5 6.34 5 5.68 5 5 C4.34 5 3.68 5 3 5 C3 4.34 3 3.68 3 3 C2.34 3 1.68 3 1 3 C0.67 2.01 0.34 1.02 0 0 Z " fill="#E3C744" transform="translate(273,38)"/>
<path d="M0 0 C0.33 0 0.66 0 1 0 C1 5.28 1 10.56 1 16 C0.34 16 -0.32 16 -1 16 C-1.02578125 16.84304687 -1.0515625 17.68609375 -1.078125 18.5546875 C-1.13484375 19.65039062 -1.1915625 20.74609375 -1.25 21.875 C-1.29640625 22.96554688 -1.3428125 24.05609375 -1.390625 25.1796875 C-2 28 -2 28 -4.046875 29.3828125 C-4.69140625 29.58648437 -5.3359375 29.79015625 -6 30 C-5.73445313 28.83984375 -5.46890625 27.6796875 -5.1953125 26.484375 C-3.20084233 17.69023197 -1.32995197 8.92467767 0 0 Z " fill="#EBD873" transform="translate(324,148)"/>
<path d="M0 0 C5.94 0 11.88 0 18 0 C18 0.33 18 0.66 18 1 C17.03513672 1.16435547 17.03513672 1.16435547 16.05078125 1.33203125 C7.28488226 2.87012765 -1.37281677 4.8172187 -10 7 C-7.45357491 3.88770267 -4.74489276 3.22116068 -1 2 C-0.67 1.34 -0.34 0.68 0 0 Z " fill="#E4C52D" transform="translate(174,85)"/>
<path d="M0 0 C4.47238653 1.41807378 8.71146306 3.11304374 13 5 C13 7.64 13 10.28 13 13 C10.95880212 11.38405168 8.95927063 9.7143618 7 8 C7 7.34 7 6.68 7 6 C6.401875 5.7525 5.80375 5.505 5.1875 5.25 C2.71352479 3.83629988 1.56629745 2.34944617 0 0 Z " fill="#ECCF40" transform="translate(280,45)"/>
<path d="M0 0 C1.36959468 3.11271517 0.90994332 4.25666155 -0.25 7.5625 C-1.74376012 10.49667167 -2.72623007 11.82508963 -5 14 C-5.71727778 15.64551962 -6.38325228 17.31422289 -7 19 C-7.65213539 20.34050052 -8.31379969 21.67661368 -9 23 C-9.66 23 -10.32 23 -11 23 C-9.65145916 17.56347408 -7.6398302 13.01723285 -4.9375 8.125 C-4.57333984 7.44953125 -4.20917969 6.7740625 -3.83398438 6.078125 C-1.16567651 1.16567651 -1.16567651 1.16567651 0 0 Z " fill="#EBD56A" transform="translate(61,330)"/>
<path d="M0 0 C0.79921875 0.00902344 1.5984375 0.01804688 2.421875 0.02734375 C3.02515625 0.03894531 3.6284375 0.05054688 4.25 0.0625 C1.53390082 2.77859918 -1.61595045 3.53170222 -5.1875 4.6875 C-5.86876953 4.91695312 -6.55003906 5.14640625 -7.25195312 5.3828125 C-10.19982818 6.35292613 -12.62666842 7.0625 -15.75 7.0625 C-15.42 6.0725 -15.09 5.0825 -14.75 4.0625 C-13.945625 3.93875 -13.14125 3.815 -12.3125 3.6875 C-11.466875 3.48125 -10.62125 3.275 -9.75 3.0625 C-9.42 2.4025 -9.09 1.7425 -8.75 1.0625 C-5.81699331 0.0307565 -3.08787164 -0.04540988 0 0 Z " fill="#E9CA41" transform="translate(227.75,231.9375)"/>
<path d="M0 0 C1.859375 0.19921875 1.859375 0.19921875 4 1 C5.265625 3.14453125 5.265625 3.14453125 6.25 5.8125 C6.75273437 7.12154297 6.75273437 7.12154297 7.265625 8.45703125 C8 11 8 11 8 15 C8.66 15 9.32 15 10 15 C11.35439668 17.70879335 11.06501451 20.00933268 11 23 C8.81800605 20.81800605 8.25188087 19.36250515 7.1875 16.5 C5.38148041 11.8179794 3.25996408 7.38746077 0.953125 2.93359375 C0 1 0 1 0 0 Z " fill="#EAD464" transform="translate(394,358)"/>
<path d="M0 0 C2.21650746 3.3247612 3.12605143 6.50539601 4.125 10.3125 C4.39763672 11.28993164 4.39763672 11.28993164 4.67578125 12.28710938 C5.73997502 16.28383711 6.19206149 19.87067786 6 24 C1.23223134 20.19379813 0.9643264 13.69220444 0 8 C-0.19479042 5.26481787 -0.16133687 2.74272684 0 0 Z " fill="#E7CD58" transform="translate(358,360)"/>
<path d="M0 0 C1.99441897 3.85587668 3.11224987 7.1036044 3.31640625 11.44921875 C3.35830078 12.29677734 3.40019531 13.14433594 3.44335938 14.01757812 C3.48267578 14.89865234 3.52199219 15.77972656 3.5625 16.6875 C3.62727539 18.02651367 3.62727539 18.02651367 3.69335938 19.39257812 C3.79935353 21.59490108 3.90142051 23.79733473 4 26 C3.34 26 2.68 26 2 26 C0.3960652 17.24996282 -0.26197285 8.89252296 0 0 Z " fill="#E9C841" transform="translate(287,106)"/>
<path d="M0 0 C1.65 0 3.3 0 5 0 C2.16347778 2.93501257 -0.7998705 5.53069023 -4 8.0625 C-4.845625 8.73410156 -5.69125 9.40570313 -6.5625 10.09765625 C-8.6900288 11.75808338 -10.83385737 13.39043568 -13 15 C-13.25 12.6875 -13.25 12.6875 -13 10 C-11.25 8.1875 -11.25 8.1875 -9 7 C-7.68 7 -6.36 7 -5 7 C-4.731875 6.38125 -4.46375 5.7625 -4.1875 5.125 C-3 3 -3 3 0 1 C0 0.67 0 0.34 0 0 Z " fill="#EAD157" transform="translate(134,323)"/>
<path d="M0 0 C0.99 0 1.98 0 3 0 C3.33 1.98 3.66 3.96 4 6 C4.99 6.33 5.98 6.66 7 7 C8.64820195 9.60242414 9 10.86248779 9 14 C9.99 14.33 10.98 14.66 12 15 C12.33 16.98 12.66 18.96 13 21 C12.34 21.33 11.68 21.66 11 22 C7.33333333 14.66666667 3.66666667 7.33333333 0 0 Z " fill="#E9D25E" transform="translate(366,316)"/>
<path d="M0 0 C4.86896303 0.59619955 9.32790951 1.56976822 14 3 C14 3.66 14 4.32 14 5 C16.64 5.66 19.28 6.32 22 7 C22 7.33 22 7.66 22 8 C11.44191344 7.03644647 11.44191344 7.03644647 7 6 C7 5.01 7 4.02 7 3 C4.69 2.34 2.38 1.68 0 1 C0 0.67 0 0.34 0 0 Z " fill="#EAC946" transform="translate(339,261)"/>
<path d="M0 0 C0.66 0 1.32 0 2 0 C2 0.66 2 1.32 2 2 C2.66 2 3.32 2 4 2 C4 2.99 4 3.98 4 5 C4.66 5 5.32 5 6 5 C6.33 6.32 6.66 7.64 7 9 C8.32 9 9.64 9 11 9 C13.46828196 11.18127243 15.51873144 13.03746288 17 16 C10.03893474 14.43376032 5.05621897 9.89155793 1 4.1875 C0 2 0 2 0 0 Z " fill="#E8D25F" transform="translate(317,446)"/>
<path d="M0 0 C-4.15383313 5.94568272 -7.95129485 8.35530213 -15 10 C-6.34615385 -0.52884615 -6.34615385 -0.52884615 0 0 Z " fill="#ECCD47" transform="translate(97,294)"/>
<path d="M0 0 C0.66 0.33 1.32 0.66 2 1 C0.6875 2.5 0.6875 2.5 -1 4 C-1.99 4 -2.98 4 -4 4 C-4.2475 4.61875 -4.495 5.2375 -4.75 5.875 C-6.30902883 8.52534901 -7.04204154 9.14374887 -10 10 C-12.7277836 9.85890774 -15.29610299 9.4506495 -18 9 C-13.92073315 6.28048877 -9.52294561 4.89690765 -4.93359375 3.21875 C-1.9390448 2.19351927 -1.9390448 2.19351927 0 0 Z " fill="#EDD153" transform="translate(218,181)"/>
<path d="M0 0 C5.19851057 1.37607633 8.17531596 4.58803127 11 9 C11.99263038 11.69562657 12.50039568 14.15225536 13 17 C7.73569564 12.14064213 3.50385325 6.22907244 0 0 Z " fill="#E8CF4C" transform="translate(293,58)"/>
<path d="M0 0 C7.06413799 1.1393771 13.71559521 3.61608973 20 7 C20 7.66 20 8.32 20 9 C20.99 9.33 21.98 9.66 23 10 C22.01 10.495 22.01 10.495 21 11 C20.34 10.67 19.68 10.34 19 10 C19 9.34 19 8.68 19 8 C18.38511719 7.96261719 17.77023437 7.92523438 17.13671875 7.88671875 C16.32847656 7.82097656 15.52023437 7.75523438 14.6875 7.6875 C13.88699219 7.62949219 13.08648437 7.57148437 12.26171875 7.51171875 C9.57818681 6.90456386 8.82944156 5.98852343 7 4 C5.19809386 3.02284391 5.19809386 3.02284391 3.3125 2.3125 C2.219375 1.879375 1.12625 1.44625 0 1 C0 0.67 0 0.34 0 0 Z " fill="#E8CC57" transform="translate(312,45)"/>
<path d="M0 0 C1.32 0.33 2.64 0.66 4 1 C-1.3131056 4.5420704 -5.78324143 5.40846264 -12.125 5.4375 C-12.805625 5.44716797 -13.48625 5.45683594 -14.1875 5.46679688 C-18.82837264 5.39005093 -22.01798416 4.33834886 -26 2 C-24.25 1.375 -24.25 1.375 -22 1 C-21.12214844 1.47759766 -21.12214844 1.47759766 -20.2265625 1.96484375 C-14.48104591 4.63600497 -6.02446277 3.33876951 0 2 C0 1.34 0 0.68 0 0 Z " fill="#E5D269" transform="translate(76,458)"/>
<path d="M0 0 C1.17514874 3.52544623 0.54479604 4.86537186 -0.9765625 8.15234375 C-3.19945589 12.16542991 -5.52609951 15.50869984 -10 17 C-10 16.01 -10 15.02 -10 14 C-9.01 14 -8.02 14 -7 14 C-6.855625 13.401875 -6.71125 12.80375 -6.5625 12.1875 C-6.1127561 10.43849596 -5.57107659 8.71322977 -5 7 C-4.34 7 -3.68 7 -3 7 C-2.690625 6.030625 -2.38125 5.06125 -2.0625 4.0625 C-1 1 -1 1 0 0 Z " fill="#E7D161" transform="translate(461,442)"/>
<path d="M0 0 C1.98 0.66 3.96 1.32 6 2 C6 2.66 6 3.32 6 4 C6.66 4 7.32 4 8 4 C8.12375 5.134375 8.2475 6.26875 8.375 7.4375 C8.58125 8.613125 8.7875 9.78875 9 11 C9.66 11.33 10.32 11.66 11 12 C10.67 12.99 10.34 13.98 10 15 C8.33048421 12.6895094 6.66428386 10.37675417 5 8.0625 C4.52304687 7.40314453 4.04609375 6.74378906 3.5546875 6.06445312 C0 1.11328125 0 1.11328125 0 0 Z " fill="#ECD262" transform="translate(291,345)"/>
<path d="M0 0 C-1.70288198 1.13323463 -3.41258523 2.25622235 -5.125 3.375 C-6.07632813 4.00148437 -7.02765625 4.62796875 -8.0078125 5.2734375 C-10.95981219 6.97681069 -13.73870494 8.04193409 -17 9 C-16.67 8.01 -16.34 7.02 -16 6 C-15.34 6 -14.68 6 -14 6 C-14 5.34 -14 4.68 -14 4 C-12.68 4 -11.36 4 -10 4 C-10 3.34 -10 2.68 -10 2 C-8.68 2 -7.36 2 -6 2 C-6 1.34 -6 0.68 -6 0 C-3 -1 -3 -1 0 0 Z " fill="#E8CC55" transform="translate(249,223)"/>
<path d="M0 0 C0.66 0.33 1.32 0.66 2 1 C1.39733215 5.50727647 -0.36599794 8.8587963 -2.5625 12.8125 C-3.0565332 13.7087207 -3.0565332 13.7087207 -3.56054688 14.62304688 C-4.36773267 16.08533998 -5.18304917 17.5431399 -6 19 C-6.33 17.68 -6.66 16.36 -7 15 C-6.34 15 -5.68 15 -5 15 C-4.87625 14.319375 -4.7525 13.63875 -4.625 12.9375 C-3.61942903 8.21131643 -2.69833685 4.04750528 0 0 Z " fill="#E7CC56" transform="translate(284,173)"/>
<path d="M0 0 C3.32724704 2.6934857 4.34771136 6.14465984 6 10 C7.58245275 11.75149165 7.58245275 11.75149165 9 13 C9 13.66 9 14.32 9 15 C9.66 15 10.32 15 11 15 C11.33 15.99 11.66 16.98 12 18 C7.18848503 16.86787883 4.98325833 14.10156167 2.2265625 10.2421875 C0.34073317 6.79484344 0.13929548 3.90027345 0 0 Z " fill="#EBCF67" transform="translate(38,441)"/>
<path d="M0 0 C6.5423657 -0.20956527 12.21738841 0.45419504 18.5625 2 C19.38041016 2.19078125 20.19832031 2.3815625 21.04101562 2.578125 C23.02943044 3.04325127 25.01503756 3.52035427 27 4 C27 4.33 27 4.66 27 5 C17.83808082 4.43708547 8.98271694 2.79203512 0 1 C0 0.67 0 0.34 0 0 Z " fill="#EAD577" transform="translate(223,257)"/>
<path d="M0 0 C0.33 0 0.66 0 1 0 C1.04254356 1.99954746 1.04080783 4.00041636 1 6 C0.67 6.33 0.34 6.66 0 7 C-0.15825258 8.99782126 -0.25119171 11.00088834 -0.31640625 13.00390625 C-0.35830078 14.21884766 -0.40019531 15.43378906 -0.44335938 16.68554688 C-0.48267578 17.96494141 -0.52199219 19.24433594 -0.5625 20.5625 C-0.60568359 21.84576172 -0.64886719 23.12902344 -0.69335938 24.45117188 C-0.799848 27.63399853 -0.90185962 30.81690674 -1 34 C-1.33 34 -1.66 34 -2 34 C-2.04962653 29.96154588 -2.08582632 25.92321113 -2.10986328 21.88452148 C-2.11988926 20.51209417 -2.13351356 19.13968805 -2.15087891 17.76733398 C-2.17527627 15.78899473 -2.18544484 13.81049633 -2.1953125 11.83203125 C-2.20578613 10.64327393 -2.21625977 9.4545166 -2.22705078 8.22973633 C-2.00370033 5.05263614 -1.36116639 2.85656545 0 0 Z " fill="#EBC215" transform="translate(92,117)"/>
<path d="M0 0 C3.96 0.33 7.92 0.66 12 1 C11.67 2.65 11.34 4.3 11 6 C9.68 6 8.36 6 7 6 C6.67 5.34 6.34 4.68 6 4 C2.97065509 3.34227572 2.97065509 3.34227572 0 3 C0 2.01 0 1.02 0 0 Z " fill="#EDBF10" transform="translate(312,259)"/>
<path d="M0 0 C1 3 1 3 -0.65234375 6.57421875 C-1.40387723 7.95092168 -2.1660567 9.32185409 -2.9375 10.6875 C-3.51661133 11.7403418 -3.51661133 11.7403418 -4.10742188 12.81445312 C-5.06261773 14.54795672 -6.03015386 16.27465009 -7 18 C-7.33 18 -7.66 18 -8 18 C-8 16.35 -8 14.7 -8 13 C-7.34 13 -6.68 13 -6 13 C-5.67 11.02 -5.34 9.04 -5 7 C-4.34 7 -3.68 7 -3 7 C-2.67 5.35 -2.34 3.7 -2 2 C-1.34 2 -0.68 2 0 2 C0 1.34 0 0.68 0 0 Z " fill="#E4CF62" transform="translate(370,174)"/>
<path d="M0 0 C0.65625 1.7734375 0.65625 1.7734375 1 4 C-0.78561537 7.41282938 -3.43955662 10.28816428 -6.9609375 11.89453125 C-8.875 12.4375 -8.875 12.4375 -12 13 C-11.319375 12.34 -10.63875 11.68 -9.9375 11 C-6.43274653 7.50531766 -3.22778212 3.74869221 0 0 Z " fill="#ECD25E" transform="translate(232,168)"/>
<path d="M0 0 C3.17989806 1.53794135 6.21481974 3.256479 9.25 5.0625 C10.14203125 5.58972656 11.0340625 6.11695313 11.953125 6.66015625 C12.96632812 7.32337891 12.96632812 7.32337891 14 8 C14 8.33 14 8.66 14 9 C10.53058454 8.54177532 7.32604951 8.10868317 4 7 C4 6.34 4 5.68 4 5 C2.68 4.67 1.36 4.34 0 4 C0 2.68 0 1.36 0 0 Z " fill="#EAD354" transform="translate(155,177)"/>
<path d="M0 0 C5.030828 5.030828 5.05386856 12.14247347 5.0625 18.875 C5.04655506 20.58338595 5.02735618 22.29175867 5 24 C4.67 24 4.34 24 4 24 C3.51770668 21.50056796 3.03910574 19.00051757 2.5625 16.5 C2.42779297 15.80390625 2.29308594 15.1078125 2.15429688 14.390625 C1.24628981 9.60697802 0.56103287 4.8368659 0 0 Z " fill="#EBD885" transform="translate(405,381)"/>
<path d="M0 0 C0.33 0 0.66 0 1 0 C1 2.64 1 5.28 1 8 C0.01 8.33 -0.98 8.66 -2 9 C-2 9.66 -2 10.32 -2 11 C-2.99 11 -3.98 11 -5 11 C-4.46939601 6.48986609 -2.69113883 3.61621781 0 0 Z " fill="#E4C326" transform="translate(307,198)"/>
<path d="M0 0 C1.03932752 2.69337923 1.05402724 3.84099877 0.109375 6.62109375 C-0.33921875 7.55050781 -0.7878125 8.47992188 -1.25 9.4375 C-1.68828125 10.36433594 -2.1265625 11.29117188 -2.578125 12.24609375 C-3.95741639 14.9175235 -5.31697236 17.50712841 -7 20 C-7.66 20 -8.32 20 -9 20 C-7.32073668 15.63221913 -5.36694083 11.41834992 -3.375 7.1875 C-2.88773437 6.14819336 -2.88773437 6.14819336 -2.390625 5.08789062 C-1.59500115 3.39133977 -0.79767301 1.69558835 0 0 Z " fill="#EDD673" transform="translate(317,178)"/>
<path d="M0 0 C0.33 0.99 0.66 1.98 1 3 C-0.29296875 5.2265625 -0.29296875 5.2265625 -2.1875 7.625 C-2.79980469 8.42164063 -3.41210938 9.21828125 -4.04296875 10.0390625 C-6.09216828 12.09235225 -7.16977199 12.63602389 -10 13 C-8.48446596 9.52224821 -6.4226544 7.0442016 -3.875 4.25 C-3.15054688 3.45078125 -2.42609375 2.6515625 -1.6796875 1.828125 C-0.84824219 0.92320312 -0.84824219 0.92320312 0 0 Z " fill="#EED266" transform="translate(81,304)"/>
<path d="M0 0 C0.33 0 0.66 0 1 0 C1.21544006 5.23115393 0.52370193 9.43785303 -1 14.4375 C-1.37125 15.67371094 -1.7425 16.90992188 -2.125 18.18359375 C-2.41375 19.11300781 -2.7025 20.04242188 -3 21 C-3.33 21 -3.66 21 -4 21 C-3.63419196 13.54508438 -2.79080349 6.95068039 0 0 Z " fill="#E5D063" transform="translate(290,153)"/>
<path d="M0 0 C6.27 0.33 12.54 0.66 19 1 C19 1.33 19 1.66 19 2 C13.72 2 8.44 2 3 2 C3.33 2.99 3.66 3.98 4 5 C1.525 4.01 1.525 4.01 -1 3 C-0.67 2.01 -0.34 1.02 0 0 Z " fill="#E6D588" transform="translate(306,256)"/>
<path d="M0 0 C0.33 0.99 0.66 1.98 1 3 C1.66 3 2.32 3 3 3 C3.33 4.65 3.66 6.3 4 8 C4.99 8.33 5.98 8.66 7 9 C7.33 10.98 7.66 12.96 8 15 C3.88416651 11.49391962 1.09432982 6.95371163 -1 2 C-0.67 1.34 -0.34 0.68 0 0 Z " fill="#E8CD4F" transform="translate(358,300)"/>
<path d="M0 0 C0 0.33 0 0.66 0 1 C-0.93972656 1.19916016 -0.93972656 1.19916016 -1.8984375 1.40234375 C-3.12433594 1.66724609 -3.12433594 1.66724609 -4.375 1.9375 C-5.18710938 2.11152344 -5.99921875 2.28554688 -6.8359375 2.46484375 C-9.029463 2.92330693 -9.029463 2.92330693 -11 4 C-13.6723621 4.13415472 -16.32250488 4.04318541 -19 4 C-13.51628146 -0.85098178 -6.91449339 -0.13828987 0 0 Z " fill="#E5C532" transform="translate(183,38)"/>
<path d="M0 0 C1.17447815 3.52343445 0.54033401 4.8580489 -0.96484375 8.1484375 C-2.62310181 11.11452927 -4.72662565 13.48085545 -7 16 C-7.6875 14.1875 -7.6875 14.1875 -8 12 C-6.6875 10.25 -6.6875 10.25 -5 9 C-4.34 9 -3.68 9 -3 9 C-3 8.01 -3 7.02 -3 6 C-2.34 6 -1.68 6 -1 6 C-0.67 4.02 -0.34 2.04 0 0 Z " fill="#E6D163" transform="translate(88,442)"/>
<path d="M0 0 C3.03952713 4.5592907 5 8.47162419 5 14 C2 13 2 13 0.8125 10.9375 C-0.23642055 7.14524878 -0.13319932 3.92937998 0 0 Z " fill="#EAD166" transform="translate(449,353)"/>
<path d="M0 0 C1.32 0 2.64 0 4 0 C4 0.66 4 1.32 4 2 C2.21118264 3.00508801 0.41885304 4.00392736 -1.375 5 C-2.37273437 5.556875 -3.37046875 6.11375 -4.3984375 6.6875 C-7 8 -7 8 -9 8 C-8.75390625 6.109375 -8.75390625 6.109375 -8 4 C-6.15234375 2.953125 -6.15234375 2.953125 -3.9375 2.25 C-2.83728516 1.88648438 -2.83728516 1.88648438 -1.71484375 1.515625 C-1.14894531 1.34546875 -0.58304688 1.1753125 0 1 C0 0.67 0 0.34 0 0 Z " fill="#E7CC46" transform="translate(148,315)"/>
<path d="M0 0 C-2.61988425 3.92982637 -4.46244606 4.01686331 -9 5 C-12.4375 5.125 -12.4375 5.125 -15 5 C-12.30932731 3.20621821 -9.91421743 2.02686042 -6.9375 0.8125 C-5.62072266 0.26529297 -5.62072266 0.26529297 -4.27734375 -0.29296875 C-2 -1 -2 -1 0 0 Z " fill="#EDD165" transform="translate(144,266)"/>
<path d="M0 0 C-3.31348095 1.7395775 -6.65881572 3.34145695 -10.125 4.75 C-10.76695312 5.01296875 -11.40890625 5.2759375 -12.0703125 5.546875 C-14.36840679 6.08650848 -15.78170106 5.72957388 -18 5 C-14.13269823 2.42179882 -10.49347938 1.14379475 -6 0 C-5.236875 -0.226875 -4.47375 -0.45375 -3.6875 -0.6875 C-2 -1 -2 -1 0 0 Z " fill="#EACE46" transform="translate(151,48)"/>
<path d="M0 0 C0.66 0.33 1.32 0.66 2 1 C0.625 2.5 0.625 2.5 -1 4 C-1.66 4 -2.32 4 -3 4 C-3 4.99 -3 5.98 -3 7 C-4.75 8.75 -4.75 8.75 -7 10 C-9.25 9.6875 -9.25 9.6875 -11 9 C-9.68 8.34 -8.36 7.68 -7 7 C-7 6.34 -7 5.68 -7 5 C-5.46875 3.7109375 -5.46875 3.7109375 -3.5 2.375 C-2.8503125 1.92898438 -2.200625 1.48296875 -1.53125 1.0234375 C-0.77328125 0.51683594 -0.77328125 0.51683594 0 0 Z " fill="#EDD66C" transform="translate(104,284)"/>
<path d="M0 0 C0.99 0.33 1.98 0.66 3 1 C3.94921875 3.28515625 3.94921875 3.28515625 4.6875 6.0625 C4.93886719 6.98160156 5.19023437 7.90070313 5.44921875 8.84765625 C5.63097656 9.55792969 5.81273437 10.26820313 6 11 C3.525 10.01 3.525 10.01 1 9 C0.67 6.03 0.34 3.06 0 0 Z " fill="#E5C948" transform="translate(352,349)"/>
<path d="M0 0 C1.32 0 2.64 0 4 0 C3.44449305 3.59905908 2.25112752 4.99909799 -0.5625 7.25 C-1.20316406 7.77078125 -1.84382813 8.2915625 -2.50390625 8.828125 C-2.99761719 9.21484375 -3.49132812 9.6015625 -4 10 C-4.33 9.01 -4.66 8.02 -5 7 C-4.34 6.34 -3.68 5.68 -3 5 C-2.01 5 -1.02 5 0 5 C0 3.35 0 1.7 0 0 Z " fill="#E8D06D" transform="translate(347,205)"/>
<path d="M0 0 C4.13130449 4.13130449 4.87504273 4.98103247 5.09765625 10.359375 C5.08605469 11.14828125 5.07445312 11.9371875 5.0625 12.75 C5.05347656 13.54921875 5.04445313 14.3484375 5.03515625 15.171875 C5.01775391 16.07679687 5.01775391 16.07679687 5 17 C4.67 17 4.34 17 4 17 C2.68 11.39 1.36 5.78 0 0 Z " fill="#EBD972" transform="translate(318,99)"/>
<path d="M0 0 C1.74325447 2.6148817 2.41587957 4.0053433 3.125 6.9375 C3.29257812 7.60652344 3.46015625 8.27554687 3.6328125 8.96484375 C4 11 4 11 4 15 C3.34 15 2.68 15 2 15 C-0.10428384 9.87080814 -0.21755666 5.4389165 0 0 Z " fill="#E7CF61" transform="translate(454,367)"/>
<path d="M0 0 C0.99 0 1.98 0 3 0 C3.66 5.28 4.32 10.56 5 16 C3.13389074 13.20083611 2.31214617 11.18061731 1.375 8 C1.11460937 7.13375 0.85421875 6.2675 0.5859375 5.375 C0 3 0 3 0 0 Z " fill="#EBD660" transform="translate(308,373)"/>
<path d="M0 0 C0.99 0.33 1.98 0.66 3 1 C-0.3 3.97 -3.6 6.94 -7 10 C-7.99 9.67 -8.98 9.34 -10 9 C-9.01 8.67 -8.02 8.34 -7 8 C-7 7.34 -7 6.68 -7 6 C-6.21625 5.7525 -5.4325 5.505 -4.625 5.25 C-1.67682892 3.84610901 -1.0975223 2.99324263 0 0 Z " fill="#E6CF62" transform="translate(258,212)"/>
<path d="M0 0 C1.88671875 0.22265625 1.88671875 0.22265625 4 1 C5.08203125 2.99609375 5.08203125 2.99609375 5.8125 5.4375 C6.06644531 6.24058594 6.32039063 7.04367188 6.58203125 7.87109375 C7 10 7 10 6 12 C4.99466333 10.37829621 3.99588093 8.75252763 3 7.125 C2.443125 6.22007812 1.88625 5.31515625 1.3125 4.3828125 C0 2 0 2 0 0 Z " fill="#E7D260" transform="translate(99,185)"/>
<path d="M0 0 C0.33 0 0.66 0 1 0 C1.38614349 6.8218683 0.00865708 12.49577707 -2 19 C-2.33 19 -2.66 19 -3 19 C-2.58955515 12.42208127 -2.13391403 6.25948114 0 0 Z " fill="#EBD676" transform="translate(91,110)"/>
<path d="M0 0 C0.33 0 0.66 0 1 0 C1.38613383 2.62571005 1.38493778 4.3843879 -0.04296875 6.66796875 C-1.375 8.3125 -1.375 8.3125 -4 11 C-4.66 11 -5.32 11 -6 11 C-6 11.66 -6 12.32 -6 13 C-6.66 13 -7.32 13 -8 13 C-6.63117383 7.40025657 -6.63117383 7.40025657 -3.4375 5.375 C-2.633125 4.92125 -1.82875 4.4675 -1 4 C-0.12177688 1.91466367 -0.12177688 1.91466367 0 0 Z " fill="#EAC93C" transform="translate(107,80)"/>
<path d="M0 0 C0.99 0.33 1.98 0.66 3 1 C1.73742767 2.17560179 0.46462916 3.34022865 -0.8125 4.5 C-1.87404297 5.47453125 -1.87404297 5.47453125 -2.95703125 6.46875 C-5 8 -5 8 -8 8 C-8 7.01 -8 6.02 -8 5 C-6.576875 4.87625 -6.576875 4.87625 -5.125 4.75 C-1.89538209 4.34925077 -1.89538209 4.34925077 -0.625 1.9375 C-0.41875 1.298125 -0.2125 0.65875 0 0 Z " fill="#E8CF55" transform="translate(360,453)"/>
<path d="M0 0 C-2.30153291 2.30153291 -3.84875905 2.7577028 -6.9375 3.6875 C-7.81277344 3.95949219 -8.68804687 4.23148438 -9.58984375 4.51171875 C-12 5 -12 5 -15 4 C-9.96174932 0.68914955 -5.9781891 -0.1708054 0 0 Z " fill="#E8D06D" transform="translate(314,232)"/>
<path d="M0 0 C0 0.99 0 1.98 0 3 C-2.1171875 4.5703125 -2.1171875 4.5703125 -4.875 6.125 C-5.77992188 6.64320313 -6.68484375 7.16140625 -7.6171875 7.6953125 C-9.06497926 8.48803783 -10.52364925 9.26182462 -12 10 C-12.66 9.34 -13.32 8.68 -14 8 C-9.41303332 5.18863332 -4.71048959 2.59641365 0 0 Z " fill="#E7C424" transform="translate(228,177)"/>
<path d="M0 0 C0.33 0 0.66 0 1 0 C1.61538462 7.26153846 1.61538462 7.26153846 -1.5 11 C-2.325 11.66 -3.15 12.32 -4 13 C-4.33 12.34 -4.66 11.68 -5 11 C-4.2578125 9.16015625 -4.2578125 9.16015625 -3.125 7.0625 C-1.85064463 4.67865342 -0.86038352 2.58115056 0 0 Z " fill="#F0D66F" transform="translate(238,155)"/>
<path d="M0 0 C2.475 0.495 2.475 0.495 5 1 C5.33 4.3 5.66 7.6 6 11 C0 3 0 3 0 0 Z " fill="#EED55F" transform="translate(306,75)"/>
<path d="M0 0 C3.32643967 2.98232523 5.29152862 5.86370087 7 10 C6.67 10.66 6.34 11.32 6 12 C5.34 12 4.68 12 4 12 C2.18757677 7.9811485 0.66498383 4.38889325 0 0 Z " fill="#EAD06B" transform="translate(340,324)"/>
<path d="M0 0 C0.99 0 1.98 0 3 0 C2.61479436 2.53910197 2.29902057 3.72751123 0.37109375 5.484375 C-0.26699219 5.90203125 -0.90507812 6.3196875 -1.5625 6.75 C-2.20316406 7.17796875 -2.84382812 7.6059375 -3.50390625 8.046875 C-4.24447266 8.51867187 -4.24447266 8.51867187 -5 9 C-5.33 8.01 -5.66 7.02 -6 6 C-5.195625 5.38125 -4.39125 4.7625 -3.5625 4.125 C-0.96125481 2.25835959 -0.96125481 2.25835959 0 0 Z " fill="#EACD57" transform="translate(157,95)"/>
<path d="M0 0 C4.83256305 0.41421969 6.82679218 2.46413986 10 6 C9.67 6.66 9.34 7.32 9 8 C7.49712782 6.85793642 5.99776716 5.71125043 4.5 4.5625 C3.6646875 3.92441406 2.829375 3.28632813 1.96875 2.62890625 C1.3190625 2.09136719 0.669375 1.55382812 0 1 C0 0.67 0 0.34 0 0 Z " fill="#EBD466" transform="translate(268,324)"/>
<path d="M0 0 C0.66 0 1.32 0 2 0 C2 0.66 2 1.32 2 2 C2.66 2 3.32 2 4 2 C5.7143618 3.95927063 7.38405168 5.95880212 9 8 C8.67 8.66 8.34 9.32 8 10 C7.01 10 6.02 10 5 10 C5 8.68 5 7.36 5 6 C4.01 6 3.02 6 2 6 C1.34 4.02 0.68 2.04 0 0 Z " fill="#EBD368" transform="translate(325,306)"/>
<path d="M0 0 C0.99 0.33 1.98 0.66 3 1 C3.33 1.99 3.66 2.98 4 4 C4.66 4.66 5.32 5.32 6 6 C6.125 8.625 6.125 8.625 6 11 C5.34 11 4.68 11 4 11 C3.67 9.02 3.34 7.04 3 5 C2.01 5 1.02 5 0 5 C0 3.35 0 1.7 0 0 Z " fill="#E6C11F" transform="translate(366,311)"/>
<path d="M0 0 C3.09592835 3.5087188 4.74194623 6.49197399 6 11 C4.125 10.8125 4.125 10.8125 2 10 C0.12320013 6.62176024 -0.21849583 3.82367701 0 0 Z " fill="#E9BF1E" transform="translate(139,155)"/>
<path d="M0 0 C2.71224618 1.61268692 5.37352812 3.24901874 8 5 C8 5.66 8 6.32 8 7 C8.99 7.33 9.98 7.66 11 8 C9.25 8.6875 9.25 8.6875 7 9 C3.92458518 7.2426201 3.14018002 6.42054006 2 3 C1.34 2.67 0.68 2.34 0 2 C0 1.34 0 0.68 0 0 Z " fill="#EDD56C" transform="translate(250,56)"/>
<path d="M0 0 C0.66 0 1.32 0 2 0 C2 0.99 2 1.98 2 3 C2.99 3.33 3.98 3.66 5 4 C5.33 6.97 5.66 9.94 6 13 C3.87838666 10.87838666 3.07013751 9.2266841 1.875 6.5 C1.52179688 5.7059375 1.16859375 4.911875 0.8046875 4.09375 C0 2 0 2 0 0 Z " fill="#EBCE5B" transform="translate(302,360)"/>
<path d="M0 0 C2 1 2 1 2.8515625 3.06640625 C3.10679687 3.89011719 3.36203125 4.71382813 3.625 5.5625 C3.88539063 6.38878906 4.14578125 7.21507812 4.4140625 8.06640625 C4.60742188 8.70449219 4.80078125 9.34257812 5 10 C4.01 10 3.02 10 2 10 C-0.09350689 6.5980513 -0.17942163 3.94727588 0 0 Z " fill="#E6CD59" transform="translate(444,343)"/>
<path d="M0 0 C0 3.10551666 -0.5393715 4.35261084 -2 7 C-0.35 7 1.3 7 3 7 C3 7.33 3 7.66 3 8 C0.36 8 -2.28 8 -5 8 C-4.64950425 4.75791433 -4.43778819 3.38472296 -1.9375 1.1875 C-1.298125 0.795625 -0.65875 0.40375 0 0 Z " fill="#E6D475" transform="translate(279,232)"/>
<path d="M0 0 C8.57142857 0.71428571 8.57142857 0.71428571 12 4 C11.67 4.99 11.34 5.98 11 7 C10.113125 6.38125 9.22625 5.7625 8.3125 5.125 C5.53938816 3.34602259 3.0859646 2.08916398 0 1 C0 0.67 0 0.34 0 0 Z " fill="#EBD765" transform="translate(208,90)"/>
<path d="M0 0 C6.57142857 5.14285714 6.57142857 5.14285714 8 9 C7.01 8.67 6.02 8.34 5 8 C5 7.34 5 6.68 5 6 C4.01 6 3.02 6 2 6 C2 5.34 2 4.68 2 4 C0.68 3.67 -0.64 3.34 -2 3 C-1.34 2.67 -0.68 2.34 0 2 C0 1.34 0 0.68 0 0 Z " fill="#ECD567" transform="translate(261,65)"/>
<path d="M0 0 C-0.78318689 3.91593446 -2.39179858 7.36406635 -4 11 C-4.33 11 -4.66 11 -5 11 C-5.36637589 4.64948454 -5.36637589 4.64948454 -3.625 1.5625 C-2 0 -2 0 0 0 Z " fill="#E7CE5D" transform="translate(103,361)"/>
<path d="M0 0 C1.2077558 3.62326739 0.54311128 4.64146369 -1 8 C-1.66 8 -2.32 8 -3 8 C-3 9.98 -3 11.96 -3 14 C-3.33 14 -3.66 14 -4 14 C-4.31549088 8.7418187 -3.70016294 5.53627373 -1 1 C-0.67 0.67 -0.34 0.34 0 0 Z " fill="#E6C11F" transform="translate(142,114)"/>
<path d="M0 0 C2.475 0.495 2.475 0.495 5 1 C5.33 3.64 5.66 6.28 6 9 C3.59927045 6.11912454 1.52708963 3.43595166 0 0 Z " fill="#E9D556" transform="translate(230,106)"/>
<path d="M0 0 C0.66 0.33 1.32 0.66 2 1 C0.02 3.31 -1.96 5.62 -4 8 C-5.32 7.67 -6.64 7.34 -8 7 C-5.36 4.69 -2.72 2.38 0 0 Z " fill="#EED668" transform="translate(131,54)"/>
<path d="M0 0 C2 3 2 3 2 7 C2.66 7 3.32 7 4 7 C4.33 8.98 4.66 10.96 5 13 C4.67 12.34 4.34 11.68 4 11 C3.34 11 2.68 11 2 11 C0.19769832 7.17010894 -0.19622241 4.21878192 0 0 Z " fill="#E9C123" transform="translate(369,103)"/>
<path d="M0 0 C3.375 0.5625 3.375 0.5625 7 2 C8.4375 5.625 8.4375 5.625 9 9 C7.87105124 8.06725891 6.74699124 7.12859878 5.625 6.1875 C4.99851563 5.66542969 4.37203125 5.14335938 3.7265625 4.60546875 C2 3 2 3 0 0 Z " fill="#EDDC74" transform="translate(221,97)"/>
<path d="M0 0 C0.33 0 0.66 0 1 0 C1.49230769 7.38461538 1.49230769 7.38461538 -1 10.5 C-1.66 10.995 -2.32 11.49 -3 12 C-2.40075776 7.80530429 -1.42500059 3.99000166 0 0 Z " fill="#EAD872" transform="translate(49,353)"/>
<path d="M0 0 C2.475 0.495 2.475 0.495 5 1 C5 1.66 5 2.32 5 3 C5.66 3.33 6.32 3.66 7 4 C6.67 5.32 6.34 6.64 6 8 C4.02 5.36 2.04 2.72 0 0 Z " fill="#EAD259" transform="translate(284,337)"/>
<path d="M0 0 C-0.33 1.32 -0.66 2.64 -1 4 C-5.455 4.495 -5.455 4.495 -10 5 C-3.63636364 0 -3.63636364 0 0 0 Z " fill="#EDD76F" transform="translate(129,271)"/>
<path d="M0 0 C1.65 0.33 3.3 0.66 5 1 C1.63576723 3.96052484 -1.69159287 4.92289822 -6 6 C-5.67 5.01 -5.34 4.02 -5 3 C-3.35 3 -1.7 3 0 3 C0 2.01 0 1.02 0 0 Z " fill="#E8D461" transform="translate(320,226)"/>
<path d="M0 0 C4.875 4.625 4.875 4.625 6 8 C6.66 8 7.32 8 8 8 C8 8.66 8 9.32 8 10 C6.125 9.75 6.125 9.75 4 9 C2.875 7 2.875 7 2 5 C1.34 4.67 0.68 4.34 0 4 C0 2.68 0 1.36 0 0 Z " fill="#EDD870" transform="translate(147,167)"/>
<path d="M0 0 C2 1.375 2 1.375 4 3 C4 3.66 4 4.32 4 5 C4.66 5 5.32 5 6 5 C6.33 5.99 6.66 6.98 7 8 C4.08482708 6.92598892 2.22189824 6.22189824 0 4 C0 2.68 0 1.36 0 0 Z " fill="#E8CF51" transform="translate(43,451)"/>
<path d="M0 0 C3.26460973 1.80412643 4.88929795 2.83394693 7 6 C2.25 5.125 2.25 5.125 0 4 C0 2.68 0 1.36 0 0 Z " fill="#EAD664" transform="translate(406,295)"/>
<path d="M0 0 C-1.43554025 0.50559908 -2.8735202 1.0042749 -4.3125 1.5 C-5.51326172 1.91765625 -5.51326172 1.91765625 -6.73828125 2.34375 C-9 3 -9 3 -12 3 C-11.67 2.01 -11.34 1.02 -11 0 C-3.375 -1.125 -3.375 -1.125 0 0 Z " fill="#EDD967" transform="translate(224,236)"/>
<path d="M0 0 C0.33 0 0.66 0 1 0 C1 2.64 1 5.28 1 8 C-0.98 8.99 -0.98 8.99 -3 10 C-2.69201674 8.51988629 -2.378482 7.04092675 -2.0625 5.5625 C-1.88847656 4.73878906 -1.71445312 3.91507813 -1.53515625 3.06640625 C-1 1 -1 1 0 0 Z " fill="#E9CE67" transform="translate(321,168)"/>
<path d="M0 0 C3.48331435 3.01887244 4.79157144 5.56909529 6 10 C3 9 3 9 1.3125 6.6875 C0 4 0 4 0 0 Z " fill="#E9D16F" transform="translate(276,84)"/>
<path d="M0 0 C0.66 0.33 1.32 0.66 2 1 C0.02 3.97 0.02 3.97 -2 7 C-3.32 6.67 -4.64 6.34 -6 6 C-4.02 4.02 -2.04 2.04 0 0 Z " fill="#EFDD77" transform="translate(121,62)"/>
<path d="M0 0 C0.99 0 1.98 0 3 0 C3.33 2.31 3.66 4.62 4 7 C2.02 5.35 0.04 3.7 -2 2 C-1.34 1.34 -0.68 0.68 0 0 Z " fill="#EBD460" transform="translate(289,51)"/>
<path d="M0 0 C0.99 0 1.98 0 3 0 C3.33 1.98 3.66 3.96 4 6 C4.99 6.33 5.98 6.66 7 7 C6.01 8.485 6.01 8.485 5 10 C3.35 6.7 1.7 3.4 0 0 Z " fill="#EEDC77" transform="translate(366,316)"/>
<path d="M0 0 C1.32 0.33 2.64 0.66 4 1 C4.12375 1.639375 4.2475 2.27875 4.375 2.9375 C4.684375 3.9584375 4.684375 3.9584375 5 5 C5.66 5.33 6.32 5.66 7 6 C6.67 6.99 6.34 7.98 6 9 C4.99712471 7.68969568 3.99777175 6.37669473 3 5.0625 C2.443125 4.33160156 1.88625 3.60070312 1.3125 2.84765625 C0 1 0 1 0 0 Z " fill="#EBDA82" transform="translate(351,295)"/>
<path d="M0 0 C3.39417765 3.12621626 5.6062718 5.56541027 7 10 C5.2925002 8.71937515 3.62626404 7.38232443 2 6 C2 5.34 2 4.68 2 4 C1.34 4 0.68 4 0 4 C0 2.68 0 1.36 0 0 Z " fill="#EDDA79" transform="translate(356,76)"/>
<path d="M0 0 C3.36338044 3.36338044 4 6.28835716 4 11 C3.34 11 2.68 11 2 11 C1.34 7.37 0.68 3.74 0 0 Z " fill="#EAD366" transform="translate(405,381)"/>
<path d="M0 0 C3.37503669 1.1858237 5.64722731 2.27573689 8 5 C6.02 5 4.04 5 2 5 C2 4.01 2 3.02 2 2 C1.34 2 0.68 2 0 2 C0 1.34 0 0.68 0 0 Z " fill="#EFD566" transform="translate(382,278)"/>
<path d="M0 0 C2.64 0.66 5.28 1.32 8 2 C8 2.66 8 3.32 8 4 C5.36 3.67 2.72 3.34 0 3 C0 2.01 0 1.02 0 0 Z " fill="#EAC320" transform="translate(368,273)"/>
<path d="M0 0 C0.66 0 1.32 0 2 0 C1.60196439 2.88575819 1.20990931 3.82189513 -1.0625 5.75 C-1.701875 6.1625 -2.34125 6.575 -3 7 C-3 3.47967572 -2.29648649 2.5614657 0 0 Z " fill="#E4CA4F" transform="translate(354,199)"/>
<path d="M0 0 C1.32 0.33 2.64 0.66 4 1 C4 1.66 4 2.32 4 3 C4.66 3 5.32 3 6 3 C6 4.65 6 6.3 6 8 C3.33264727 5.51047079 1.44253657 3.36591866 0 0 Z " fill="#EAD36D" transform="translate(106,197)"/>
<path d="M0 0 C0.99 0 1.98 0 3 0 C3 0.66 3 1.32 3 2 C2.34 2 1.68 2 1 2 C1 3.32 1 4.64 1 6 C0.01 6.33 -0.98 6.66 -2 7 C-1.125 1.125 -1.125 1.125 0 0 Z " fill="#EBC31E" transform="translate(276,186)"/>
<path d="M0 0 C2.97 0.495 2.97 0.495 6 1 C6.33 2.65 6.66 4.3 7 6 C3.63279613 4.60667426 2.0140476 3.0210714 0 0 Z " fill="#F0DD70" transform="translate(415,453)"/>
<path d="M0 0 C2.4375 0.625 2.4375 0.625 5 2 C5.8125 5.125 5.8125 5.125 6 8 C3.33264727 5.51047079 1.44253657 3.36591866 0 0 Z " fill="#EED775" transform="translate(388,350)"/>
<path d="M0 0 C0.6875 1.6875 0.6875 1.6875 1 4 C-0.3125 6.75 -0.3125 6.75 -2 9 C-2.66 9 -3.32 9 -4 9 C-2.25 2.25 -2.25 2.25 0 0 Z " fill="#E7D05E" transform="translate(54,344)"/>
<path d="M0 0 C0.99 0.495 0.99 0.495 2 1 C2 1.66 2 2.32 2 3 C2.66 3 3.32 3 4 3 C4.66 4.65 5.32 6.3 6 8 C5.01 8 4.02 8 3 8 C0 2.25 0 2.25 0 0 Z " fill="#ECD46A" transform="translate(334,316)"/>
<path d="M0 0 C6.52307692 0.49230769 6.52307692 0.49230769 8.9375 3.0625 C9.288125 3.701875 9.63875 4.34125 10 5 C8.51800098 4.55090939 7.03944764 4.09043436 5.5625 3.625 C4.73878906 3.36976563 3.91507813 3.11453125 3.06640625 2.8515625 C1 2 1 2 0 0 Z " fill="#ECDB7C" transform="translate(141,228)"/>
<path d="M0 0 C0.8125 1.6875 0.8125 1.6875 1 4 C-1.4375 6.75 -1.4375 6.75 -4 9 C-4 5.00095031 -2.27413033 3.19799578 0 0 Z " fill="#F0DF8B" transform="translate(307,198)"/>
<path d="M0 0 C0.6875 1.6875 0.6875 1.6875 1 4 C-0.3125 6.75 -0.3125 6.75 -2 9 C-2.66 9 -3.32 9 -4 9 C-2.80100302 5.9168649 -1.52299523 2.93720508 0 0 Z " fill="#EDDC86" transform="translate(312,189)"/>
<path d="M0 0 C-2.49505962 2.49505962 -3.67328888 2.35948376 -7.125 2.625 C-8.03507813 2.69976562 -8.94515625 2.77453125 -9.8828125 2.8515625 C-10.93082031 2.92503906 -10.93082031 2.92503906 -12 3 C-7.97869817 0.31913211 -4.73968522 -1.57989507 0 0 Z " fill="#EFDF76" transform="translate(212,187)"/>
<path d="M0 0 C0.66 0 1.32 0 2 0 C2 1.32 2 2.64 2 4 C3.32 4.66 4.64 5.32 6 6 C5.01 6.495 5.01 6.495 4 7 C1.875 6.0625 1.875 6.0625 0 5 C0 3.35 0 1.7 0 0 Z " fill="#E8C223" transform="translate(145,167)"/>
<path d="M0 0 C0.66 0.99 1.32 1.98 2 3 C0.02 5.31 -1.96 7.62 -4 10 C-4 7 -4 7 -2 5 C-1.29289322 3.35008418 -0.62056011 1.68437744 0 0 Z " fill="#E9C216" transform="translate(234,167)"/>
<path d="M0 0 C1.32 0 2.64 0 4 0 C4.66 2.64 5.32 5.28 6 8 C3.33264727 5.51047079 1.44253657 3.36591866 0 0 Z " fill="#E9D764" transform="translate(300,67)"/>
<path d="M0 0 C1.32 0 2.64 0 4 0 C4 0.99 4 1.98 4 3 C2.68 3 1.36 3 0 3 C0 3.66 0 4.32 0 5 C-0.99 4.67 -1.98 4.34 -3 4 C-2.34 4 -1.68 4 -1 4 C-0.67 2.68 -0.34 1.36 0 0 Z " fill="#E5C123" transform="translate(76,455)"/>
<path d="M0 0 C0.66 0 1.32 0 2 0 C0.90931332 3.77545388 0.0916909 6.47043472 -3 9 C-3 7.68 -3 6.36 -3 5 C-2.34 5 -1.68 5 -1 5 C-0.67 3.35 -0.34 1.7 0 0 Z " fill="#E7D163" transform="translate(280,183)"/>
<path d="M0 0 C0.66 0 1.32 0 2 0 C2.625 3.375 2.625 3.375 3 7 C2.34 7.66 1.68 8.32 1 9 C0.67 6.03 0.34 3.06 0 0 Z " fill="#E8D56B" transform="translate(89,155)"/>
</svg>
