<?xml version="1.0" encoding="UTF-8"?>
<svg version="1.1" xmlns="http://www.w3.org/2000/svg" width="470" height="437">
<path d="M0 0 C0.7213916 0.14421387 1.4427832 0.28842773 2.18603516 0.43701172 C29.33932669 6.02201933 52.02113752 21.48217679 72 40 C72.59296875 40.52722656 73.1859375 41.05445313 73.796875 41.59765625 C94.93720196 61.27829397 106.86172197 91.21293001 112 119 C112.18546387 120.00087646 112.37092773 121.00175293 112.56201172 122.03295898 C114.13039557 131.57547641 114.37238973 140.99785882 114.37060547 150.65161133 C114.37502281 153.32631132 114.41160941 155.99941331 114.44921875 158.67382812 C114.51485191 168.49026596 114.44452257 176.27452333 108.2109375 184.3046875 C102.0360464 189.5861901 95.6300148 192.4916232 87.375 191.9375 C80.29339467 190.77391467 74.55657427 187.56914633 70 182 C65.40668764 175.05880492 65.42049209 168.36227009 65.38607788 160.26361084 C65.36740713 156.5538405 65.27983151 152.84557238 65.19921875 149.13671875 C65.17783592 148.05732025 65.17783592 148.05732025 65.15602112 146.95611572 C64.52933919 117.73127684 55.33143926 90.58731929 34 70 C9.30538724 48.87238686 -20.09695017 42.08381752 -52 44 C-75.42003014 46.14039191 -96.37765821 55.75344513 -114 71 C-114.69609375 71.59425781 -115.3921875 72.18851562 -116.109375 72.80078125 C-133.93445423 89.27671457 -142.82178879 115.593264 -144.12145996 139.20678711 C-144.34945091 145.41474165 -144.407687 151.62801826 -144.45629883 157.83959961 C-144.47806398 160.18377823 -144.51743513 162.5271867 -144.55859375 164.87109375 C-144.55870956 165.5702037 -144.55882538 166.26931366 -144.5589447 166.98960876 C-144.68784346 173.48082192 -146.30883087 180.01191917 -151 184.75 C-155.95882444 189.30167885 -161.92656093 191.75967911 -168.6484375 192.15625 C-177.58029276 191.60659737 -183.49524969 188.07167611 -189.45703125 181.5859375 C-194.63020421 172.91596156 -194.48863749 163.5151989 -194.375 153.6875 C-194.37067963 152.9823526 -194.36635925 152.2772052 -194.36190796 151.5506897 C-194.27567852 139.51921683 -193.48197687 127.79427591 -191 116 C-190.83371094 115.20916016 -190.66742188 114.41832031 -190.49609375 113.60351562 C-182.56720587 77.51239265 -162.04021379 43.48324696 -130.84375 22.80078125 C-129.9053125 22.20652344 -128.966875 21.61226562 -128 21 C-127.14921875 20.44578369 -127.14921875 20.44578369 -126.28125 19.88037109 C-106.71875176 7.23097445 -85.91560044 0.59907045 -63 -3 C-61.72898438 -3.19980469 -60.45796875 -3.39960938 -59.1484375 -3.60546875 C-39.42184721 -5.87880265 -19.33555624 -4.05240577 0 0 Z " fill="#1EC55C" transform="translate(230,227)"/>
<path d="M0 0 C9.13100756 7.50668121 16.28383628 16.11963123 22.13623047 26.38012695 C22.81105469 27.54415039 22.81105469 27.54415039 23.49951172 28.73168945 C35.13730345 50.27781779 37.25683075 75.68519825 30.82080078 99.12084961 C23.58814054 122.99069193 6.29487166 143.87804342 -15.66430664 155.66577148 C-39.91224367 168.04131124 -66.43701157 170.78853546 -92.47412109 162.42993164 C-116.80155142 154.04690567 -137.15946242 136.97146249 -148.77661133 113.88256836 C-159.97139443 90.52086359 -160.96787904 64.44748618 -152.73095703 40.02075195 C-148.08267968 28.13840057 -141.30234548 17.89377454 -132.86376953 8.38012695 C-131.92597656 7.31665039 -131.92597656 7.31665039 -130.96923828 6.23168945 C-96.75833531 -30.21192508 -37.78370918 -30.04567928 0 0 Z M-98.01611328 41.0637207 C-105.72753495 50.73152842 -110.76260663 62.29815265 -110.20751953 74.88012695 C-108.2053281 89.44151921 -102.84925784 100.82264908 -91.54736328 110.4387207 C-79.90662303 118.86004225 -66.81212085 120.60515062 -52.86376953 119.38012695 C-41.92646116 117.31391598 -31.45000637 111.37615933 -24.42626953 102.6809082 C-16.27899745 90.68405006 -13.47319912 78.66637083 -14.86376953 64.38012695 C-17.33241359 51.82995445 -24.43781211 40.76720066 -34.86376953 33.38012695 C-55.38027535 21.08118021 -81.15074699 22.81310872 -98.01611328 41.0637207 Z " fill="#1EC55C" transform="translate(240.86376953125,41.619873046875)"/>
<path d="M0 0 C12.58066798 6.49499013 23.95985511 14.69170272 34.3359375 24.29296875 C34.87702148 24.79022461 35.41810547 25.28748047 35.97558594 25.79980469 C59.60030871 47.76179037 73.61208814 76.68865075 79.3359375 108.29296875 C79.51181396 109.25912109 79.68769043 110.22527344 79.86889648 111.22070312 C81.40429589 120.64350357 81.74059761 129.92978365 81.76147461 139.46240234 C81.77348859 142.05399012 81.82296438 144.64327779 81.87304688 147.234375 C81.97721004 157.97025416 81.25231071 165.90836953 73.7109375 174.16796875 C66.74598033 178.55331215 59.9695759 181.23394516 51.68359375 179.89453125 C44.35404102 178.01640959 39.6277245 174.5111024 35.3359375 168.29296875 C31.79817811 161.89130891 32.26580138 153.78399286 32.16015625 146.64453125 C31.69728382 115.36463606 27.28902229 88.36678019 6.359375 63.72265625 C2.35466129 58.91390735 -0.45382135 53.70875258 -3.29760742 48.15087891 C-15.37984591 24.74805007 -33.35672843 6.07636216 -55.6640625 -7.70703125 C-57.46219368 -8.84269305 -59.25495252 -9.98696698 -61.0390625 -11.14453125 C-61.74804688 -11.59699219 -62.45703125 -12.04945313 -63.1875 -12.515625 C-63.67476563 -12.90878906 -64.16203125 -13.30195313 -64.6640625 -13.70703125 C-64.6640625 -14.36703125 -64.6640625 -15.02703125 -64.6640625 -15.70703125 C-46.90856842 -21.62552928 -15.7441292 -7.79963052 0 0 Z " fill="#1EC55C" transform="translate(350.6640625,238.70703125)"/>
<path d="M0 0 C24.28898141 -0.8233553 48.23127882 8.55386972 66 25 C66.77601563 25.69609375 67.55203125 26.3921875 68.3515625 27.109375 C83.92377972 41.77187506 95.04758757 63.93494415 96.12451172 85.49243164 C96.9255935 114.54781699 89.69050561 137.59951581 69.77734375 159.4375 C64.66782829 164.77230274 59.19569648 169.00183961 53 173 C52.278125 173.50144531 51.55625 174.00289062 50.8125 174.51953125 C36.61518718 183.8611659 16.98842811 190.05688378 0 189 C-0.33 188.34 -0.66 187.68 -1 187 C2.03810539 183.88915912 5.15128803 180.99567612 8.45214844 178.15942383 C31.761989 157.75801243 44.75106534 127.08092156 47.28125 96.61328125 C48.11888495 68.7968205 36.65697131 40.30690755 18 20 C16.85372233 18.60453154 15.70784694 17.20873247 14.5625 15.8125 C10.91050843 11.61622123 6.5756536 8.33814843 2.16015625 4.98046875 C1.44730469 4.32691406 0.73445313 3.67335938 0 3 C0 2.01 0 1.02 0 0 Z " fill="#1FC45C" transform="translate(257,20)"/>
<path d="M0 0 C-0.125 1.6875 -0.125 1.6875 -1 4 C-2.97956942 5.69088222 -4.97945196 7.35830472 -7 9 C-7.33 9.99 -7.66 10.98 -8 12 C-9.5064764 13.17170387 -11.05550728 14.2891576 -12.625 15.375 C-17.96492995 19.48674606 -20.55733447 23.92305097 -23.4296875 29.94921875 C-25 33 -25 33 -27.19140625 35.703125 C-29.51261981 38.65101609 -29.0779214 40.33769413 -29 44 C-30.77984405 47.1359157 -31.52308207 47.84102736 -35 49 C-36.24950052 51.55401848 -36.24950052 51.55401848 -37.1875 54.5625 C-37.53167969 55.57441406 -37.87585937 56.58632813 -38.23046875 57.62890625 C-38.48441406 58.41136719 -38.73835938 59.19382812 -39 60 C-39.66 60 -40.32 60 -41 60 C-42.46676285 65.30531243 -43.76066716 70.63822192 -45 76 C-45.28810547 77.19810303 -45.28810547 77.19810303 -45.58203125 78.42041016 C-50.50700079 99.64049574 -49.38502648 121.36743513 -49 143 C-47.68 143.33 -46.36 143.66 -45 144 C-44.505 146.475 -44.505 146.475 -44 149 C-42.35 149.33 -40.7 149.66 -39 150 C-39 150.99 -39 151.98 -39 153 C-38.01 153 -37.02 153 -36 153 C-35.505 153.99 -35.505 153.99 -35 155 C-32.43685501 155.08132187 -29.87631582 155.14064175 -27.3125 155.1875 C-26.59126953 155.21263672 -25.87003906 155.23777344 -25.12695312 155.26367188 C-20.53563607 155.32656663 -17.6067146 154.90690431 -14 152 C-12.17370206 148.93319201 -12.17370206 148.93319201 -11 146 C-10.34 146 -9.68 146 -9 146 C-7.45542408 139.97076992 -6.69021839 134.31337232 -6.62109375 128.09765625 C-6.60409927 127.29388046 -6.5871048 126.49010468 -6.56959534 125.66197205 C-6.51705114 123.12889162 -6.47639245 120.59582376 -6.4375 118.0625 C-6.39350428 115.50425695 -6.34687533 112.94613579 -6.29469299 110.38804626 C-6.26283002 108.80445162 -6.23591086 107.22074808 -6.21446228 105.63697815 C-6.11183733 100.22367465 -6.11183733 100.22367465 -5 98 C-5.66 98 -6.32 98 -7 98 C-7 97.01 -7 96.02 -7 95 C-6.34 95 -5.68 95 -5 95 C-5.33 94.01 -5.66 93.02 -6 92 C-5.34 92 -4.68 92 -4 92 C-3.9175 91.113125 -3.835 90.22625 -3.75 89.3125 C-2.9065914 85.58744536 -1.54447236 83.79071162 1 81 C0.814375 82.5159375 0.814375 82.5159375 0.625 84.0625 C0.53500732 84.80306641 0.44501465 85.54363281 0.35229492 86.30664062 C0.09859264 88.24624119 -0.18335563 90.18222223 -0.4831543 92.11523438 C-2.11304288 103.03435862 -2.37001053 113.81374846 -2.45629883 124.83959961 C-2.47806398 127.18377823 -2.51743513 129.5271867 -2.55859375 131.87109375 C-2.55870956 132.5702037 -2.55882538 133.26931366 -2.5589447 133.98960876 C-2.68784346 140.48082192 -4.30883087 147.01191917 -9 151.75 C-13.95882444 156.30167885 -19.92656093 158.75967911 -26.6484375 159.15625 C-35.58029276 158.60659737 -41.49524969 155.07167611 -47.45703125 148.5859375 C-52.63020421 139.91596156 -52.48863749 130.5151989 -52.375 120.6875 C-52.37067963 119.9823526 -52.36635925 119.2772052 -52.36190796 118.5506897 C-52.27567852 106.51921683 -51.48197687 94.79427591 -49 83 C-48.83371094 82.20916016 -48.66742188 81.41832031 -48.49609375 80.60351562 C-42.09508267 51.4670615 -28.50172386 27.51728912 -8 6 C-7.35289063 5.31164062 -6.70578125 4.62328125 -6.0390625 3.9140625 C-2.27200704 0 -2.27200704 0 0 0 Z " fill="#409E65" transform="translate(88,260)"/>
<path d="M0 0 C1.07694171 2.80004844 0.95876997 4.1911574 0.3125 7.1875 C-1 10 -1 10 -3.125 10.875 C-3.74375 10.91625 -4.3625 10.9575 -5 11 C-5.144375 11.61875 -5.28875 12.2375 -5.4375 12.875 C-6 15 -6 15 -7 17 C-7.66 17 -8.32 17 -9 17 C-10.36861399 20.0305024 -11.2306423 22.9426987 -11.875 26.1875 C-12.56428551 29.56252166 -13.59091208 32.40137189 -15.046875 35.515625 C-17.503434 41.55666375 -17.52913499 47.11221293 -17.375 53.5625 C-17.35993408 54.69985596 -17.34486816 55.83721191 -17.3293457 57.0090332 C-17.76922811 76.31608955 -17.76922811 76.31608955 -10 93 C-9.20447416 95.99852048 -8.59637905 99.0153461 -7.9765625 102.0546875 C-6.88631783 105.34286544 -5.51396105 106.69294933 -3 109 C-3 109.66 -3 110.32 -3 111 C-1.515 111.495 -1.515 111.495 0 112 C0.33333333 113.33333333 0.66666667 114.66666667 1 116 C2.485 116.495 2.485 116.495 4 117 C4 117.99 4 118.98 4 120 C4.721875 120.20625 5.44375 120.4125 6.1875 120.625 C9.80820885 122.39512433 11.46814102 124.89847275 14 128 C15.6502694 129.0268343 17.31243867 130.03567924 19 131 C19 131.66 19 132.32 19 133 C19.5775 133.0825 20.155 133.165 20.75 133.25 C23 134 23 134 24.625 135.875 C27.67964558 138.60810394 30.54936438 139.21868794 34.453125 140.28125 C37.83031937 141.23432326 40.84806563 142.45756403 44 144 C44.33 144.66 44.66 145.32 45 146 C62.10494614 152.7289728 80.42003427 152.31615751 98 148 C99.57007813 147.62294922 99.57007813 147.62294922 101.171875 147.23828125 C105.1644757 146.21854945 108.67855781 145.1607211 112.375 143.3125 C115.18582965 141.90708517 116.90359031 141.72678738 120 142 C115.73467747 145.44944786 111.28336706 146.86549508 106.125 148.5625 C105.18406494 148.8726001 104.24312988 149.1827002 103.27368164 149.50219727 C95.85779442 151.87018382 88.79377849 153.47061127 81 154 C79.57107422 154.10441406 79.57107422 154.10441406 78.11328125 154.2109375 C51.57620327 155.1522254 26.90197538 144.22488015 7.48046875 126.73046875 C-9.18597681 110.88326475 -20.34149484 88.42302968 -21.23828125 65.234375 C-21.71718651 41.53181504 -16.52990831 18.03262725 0 0 Z " fill="#36AC65" transform="translate(104,55)"/>
<path d="M0 0 C2.35987991 1.9745934 4.69010151 3.96801829 7 6 C7.54011719 6.47179687 8.08023437 6.94359375 8.63671875 7.4296875 C29.8323202 27.23962009 41.83361546 57.06093402 47 85 C47.18546387 86.00087646 47.37092773 87.00175293 47.56201172 88.03295898 C49.13039557 97.57547641 49.37238973 106.99785882 49.37060547 116.65161133 C49.37502281 119.32631132 49.41160941 121.99941331 49.44921875 124.67382812 C49.51485191 134.49026596 49.44452257 142.27452333 43.2109375 150.3046875 C37.0360464 155.5861901 30.6300148 158.4916232 22.375 157.9375 C17.73430325 157.20954757 14.06876018 155.29330119 10 153 C11.8125 152.375 11.8125 152.375 14 152 C14.99 152.66 15.98 153.32 17 154 C24.00868331 154.76587899 31.30840211 155.04632427 37.5234375 151.34375 C40.0528302 149.04186881 40.90564046 146.16788289 42 143 C42.5114859 142.51194885 43.0229718 142.02389771 43.54995728 141.52105713 C46.12052411 138.82459934 45.42486573 135.01997204 45.3984375 131.484375 C45.40274277 130.21234222 45.40274277 130.21234222 45.40713501 128.91461182 C45.4091785 127.11233862 45.40362877 125.3100434 45.39111328 123.5078125 C45.37530119 120.8015499 45.39082617 118.09683604 45.41015625 115.390625 C45.42220757 104.81863061 44.3725492 95.29274708 42 85 C41.53473631 82.14692685 41.199309 79.31205707 40.875 76.4375 C40.35772241 71.93173994 39.78473798 67.46749957 39 63 C38.34 63 37.68 63 37 63 C36.97421875 62.40832031 36.9484375 61.81664062 36.921875 61.20703125 C36.52896745 55.73311472 35.67655451 53.20177658 32 49 C28 41.25762712 28 41.25762712 28 38 C27.34 38 26.68 38 26 38 C25.01 34.535 25.01 34.535 24 31 C23.22269531 30.93554688 22.44539063 30.87109375 21.64453125 30.8046875 C19 30 19 30 17.63671875 27.8203125 C17.32347656 26.93085938 17.01023437 26.04140625 16.6875 25.125 C16.19830078 23.79855469 16.19830078 23.79855469 15.69921875 22.4453125 C15 20 15 20 15 17 C14.01 17 13.02 17 12 17 C10.859375 15.49609375 10.859375 15.49609375 9.75 13.4375 C7.43797101 9.4568507 4.73661878 6.5453008 1.35546875 3.4453125 C0 2 0 2 0 0 Z " fill="#3AA865" transform="translate(295,261)"/>
<path d="M0 0 C8.85889675 7.28297653 17.05753156 15.98437864 22.13623047 26.38012695 C21.80623047 27.04012695 21.47623047 27.70012695 21.13623047 28.38012695 C17.88202897 25.54582242 16.61555516 23.69404922 16.13623047 19.38012695 C15.47623047 19.38012695 14.81623047 19.38012695 14.13623047 19.38012695 C13.80623047 18.06012695 13.47623047 16.74012695 13.13623047 15.38012695 C12.47623047 15.38012695 11.81623047 15.38012695 11.13623047 15.38012695 C11.13623047 14.72012695 11.13623047 14.06012695 11.13623047 13.38012695 C10.41435547 13.13262695 9.69248047 12.88512695 8.94873047 12.63012695 C5.27225694 10.99613872 1.97521337 9.05809276 0.13623047 5.38012695 C-2.39110188 4.72457576 -2.39110188 4.72457576 -4.86376953 4.38012695 C-5.09064453 3.10137695 -5.31751953 1.82262695 -5.55126953 0.50512695 C-6.32398723 -2.81220849 -6.32398723 -2.81220849 -8.86376953 -4.93237305 C-9.85376953 -5.15924805 -10.84376953 -5.38612305 -11.86376953 -5.61987305 C-13.51186217 -6.11237485 -15.15749503 -6.61314557 -16.80126953 -7.11987305 C-18.48843891 -7.62098753 -20.17591635 -8.12106659 -21.86376953 -8.61987305 C-23.88401752 -9.22240315 -25.89610422 -9.8630787 -27.86376953 -10.61987305 C-28.35876953 -11.60987305 -28.35876953 -11.60987305 -28.86376953 -12.61987305 C-30.1815115 -13.01031511 -31.52044225 -13.3294239 -32.86376953 -13.61987305 C-34.13220703 -14.08393555 -34.13220703 -14.08393555 -35.42626953 -14.55737305 C-44.16496981 -17.25842586 -52.7584092 -17.94009433 -61.86376953 -17.86987305 C-63.36810547 -17.88147461 -63.36810547 -17.88147461 -64.90283203 -17.89331055 C-76.73318966 -18.26572764 -76.73318966 -18.26572764 -86.86376953 -13.61987305 C-89.90283203 -13.20581055 -89.90283203 -13.20581055 -93.48876953 -12.99487305 C-94.67728516 -12.92010742 -95.86580078 -12.8453418 -97.09033203 -12.76831055 C-98.46318359 -12.69483398 -98.46318359 -12.69483398 -99.86376953 -12.61987305 C-100.19376953 -11.62987305 -100.52376953 -10.63987305 -100.86376953 -9.61987305 C-102.51376953 -9.28987305 -104.16376953 -8.95987305 -105.86376953 -8.61987305 C-105.86376953 -7.95987305 -105.86376953 -7.29987305 -105.86376953 -6.61987305 C-107.84376953 -6.28987305 -109.82376953 -5.95987305 -111.86376953 -5.61987305 C-111.86376953 -4.95987305 -111.86376953 -4.29987305 -111.86376953 -3.61987305 C-112.85376953 -3.28987305 -113.84376953 -2.95987305 -114.86376953 -2.61987305 C-115.68876953 -1.77424805 -116.51376953 -0.92862305 -117.36376953 -0.05737305 C-119.86376953 2.38012695 -119.86376953 2.38012695 -122.86376953 2.38012695 C-123.19376953 3.37012695 -123.52376953 4.36012695 -123.86376953 5.38012695 C-124.85376953 5.38012695 -125.84376953 5.38012695 -126.86376953 5.38012695 C-129.18655184 7.92412662 -131.31688924 10.28636637 -132.86376953 13.38012695 C-133.85376953 13.38012695 -134.84376953 13.38012695 -135.86376953 13.38012695 C-129.54729796 -1.0343851 -110.84340035 -10.01404194 -97.00244141 -15.79467773 C-64.06366067 -28.50393331 -27.30346861 -21.71177153 0 0 Z " fill="#2EB363" transform="translate(240.86376953125,41.619873046875)"/>
<path d="M0 0 C0.99 0.33 1.98 0.66 3 1 C3 1.99 3 2.98 3 4 C3.61875 4.061875 4.2375 4.12375 4.875 4.1875 C7 5 7 5 8.25 7.5625 C8.4975 8.366875 8.745 9.17125 9 10 C9.99 10 10.98 10 12 10 C16 15.25714286 16 15.25714286 16 18 C16.59554688 18.18175781 17.19109375 18.36351562 17.8046875 18.55078125 C21.02852049 20.67896993 21.84973589 23.69570542 23.125 27.1875 C23.37636719 27.83525391 23.62773437 28.48300781 23.88671875 29.15039062 C25.49864447 33.37431115 26.80205299 37.63824421 28 42 C28.49594594 43.68869591 28.99552095 45.3763336 29.5 47.0625 C29.7371875 47.85785156 29.974375 48.65320313 30.21875 49.47265625 C30.774626 51.27091512 31.39379771 53.05012723 32.0546875 54.8125 C33.15883557 58.53557778 33.46312939 62.08430334 33.625 65.9375 C33.68192017 67.11566284 33.68192017 67.11566284 33.73999023 68.31762695 C34.28617933 81.5289627 34.08245451 94.78063868 34 108 C34.63421875 108.26554687 35.2684375 108.53109375 35.921875 108.8046875 C38 110 38 110 39.25 113.125 C39.4975 114.07375 39.745 115.0225 40 116 C41.65 116 43.3 116 45 116 C45.33 117.32 45.66 118.64 46 120 C50.65537356 120.92092281 55.14685433 121.12205997 59.875 121.0625 C60.90753906 121.05573242 60.90753906 121.05573242 61.9609375 121.04882812 C63.64066335 121.03716336 65.32034375 121.01923271 67 121 C63.7594464 124.2405536 60.05423984 124.9632575 55.59765625 125.04296875 C47.84124783 124.52906187 41.89236714 122.40240705 36.625 116.5625 C30.77610478 109.06513567 30.96004447 100.53061815 30.82421875 91.3515625 C30.33734828 58.44993245 25.1230044 31.74471913 3 6 C0 2.28824834 0 2.28824834 0 0 Z " fill="#4CA46C" transform="translate(352,294)"/>
<path d="M0 0 C0 0.66 0 1.32 0 2 C-7.42117269 1.62701212 -14.69871049 0.92972336 -22.04663086 -0.14428711 C-36.72716797 -2.26807396 -52.29409205 -3.76724074 -67 -1 C-67.33 -0.67 -67.66 -0.34 -68 0 C-69.76035977 0.16828217 -71.52653103 0.27641007 -73.29296875 0.359375 C-89.83188904 1.20374977 -89.83188904 1.20374977 -105.55859375 5.9765625 C-108 7 -108 7 -111 7 C-111.20625 7.5775 -111.4125 8.155 -111.625 8.75 C-114.31776548 13.15634351 -119.17852031 15.47742747 -124 17 C-125.32 17 -126.64 17 -128 17 C-128.33 17.99 -128.66 18.98 -129 20 C-130.71484375 20.66796875 -130.71484375 20.66796875 -132.9375 21.1875 C-139.02903854 22.98949854 -143.29752892 26.86693043 -148 31 C-148.66 30.67 -149.32 30.34 -150 30 C-112.03384375 -7.71637891 -49.1942705 -12.90913481 0 0 Z " fill="#3FAA6A" transform="translate(238,229)"/>
<path d="M0 0 C0.70189453 0.09071777 1.40378906 0.18143555 2.12695312 0.27490234 C9.06705165 1.21801996 15.86852874 2.65180361 22.6875 4.25 C22.6875 4.91 22.6875 5.57 22.6875 6.25 C22.08421875 6.38277344 21.4809375 6.51554688 20.859375 6.65234375 C19.66054688 6.91724609 19.66054688 6.91724609 18.4375 7.1875 C17.64859375 7.36152344 16.8596875 7.53554687 16.046875 7.71484375 C13.91871297 8.197556 11.80217158 8.71163178 9.6875 9.25 C10.6775 9.58 11.6675 9.91 12.6875 10.25 C12.81125 11.1471875 12.81125 11.1471875 12.9375 12.0625 C14.18765911 15.70879741 17.34964012 16.55072588 20.6875 18.25 C20.6875 18.91 20.6875 19.57 20.6875 20.25 C21.265 20.4975 21.8425 20.745 22.4375 21 C25.01689979 22.43299988 26.74871592 24.03424676 28.6875 26.25 C28.6875 26.91 28.6875 27.57 28.6875 28.25 C29.285625 28.476875 29.88375 28.70375 30.5 28.9375 C33.27110904 30.60016542 34.04574743 32.49185568 35.6875 35.25 C36.574375 35.95125 37.46125 36.6525 38.375 37.375 C39.138125 37.99375 39.90125 38.6125 40.6875 39.25 C40.6875 40.24 40.6875 41.23 40.6875 42.25 C41.47125 42.435625 42.255 42.62125 43.0625 42.8125 C45.6875 44.25 45.6875 44.25 46.6875 47.25 C46.89052734 48.17425781 46.89052734 48.17425781 47.09765625 49.1171875 C48.56611455 54.42697713 51.53043147 59.45454883 54.5 64.0625 C55.89826161 66.63824507 55.93507843 68.361585 55.6875 71.25 C53.2947813 68.30048512 51.48488197 65.15594478 49.68237305 61.81958008 C37.50761692 39.32003622 20.35038877 21.63519957 -1.3125 8.25 C-3.11063118 7.1143382 -4.90339002 5.97006427 -6.6875 4.8125 C-7.39648438 4.36003906 -8.10546875 3.90757812 -8.8359375 3.44140625 C-9.32320313 3.04824219 -9.81046875 2.65507812 -10.3125 2.25 C-10.3125 1.59 -10.3125 0.93 -10.3125 0.25 C-6.65197709 -0.9701743 -3.7349964 -0.50346623 0 0 Z " fill="#32AE5E" transform="translate(296.3125,222.75)"/>
<path d="M0 0 C0.66 0 1.32 0 2 0 C3.62238683 2.23699577 5.0228441 4.57697539 6.46484375 6.93359375 C7.90728113 9.28739757 7.90728113 9.28739757 11 10 C14.28307511 15.80851751 14.7378293 21.41395426 15 28 C15.02723145 28.64275879 15.05446289 29.28551758 15.08251953 29.94775391 C15.16124394 32.04855687 15.21037851 34.14811666 15.25 36.25 C15.27578125 37.55453125 15.3015625 38.8590625 15.328125 40.203125 C14.95198264 44.5556294 13.89478103 47.09731669 12 51 C11.54625 52.155 11.0925 53.31 10.625 54.5 C8.05524207 60.03486324 4.65096103 64.99055083 0 69 C-0.66 69 -1.32 69 -2 69 C-2 69.66 -2 70.32 -2 71 C-3.485 71.495 -3.485 71.495 -5 72 C-5.43054688 72.63550781 -5.86109375 73.27101563 -6.3046875 73.92578125 C-10.33969768 78.8626255 -19.3116615 79.93091425 -25.4375 80.75 C-26.9565438 80.86128526 -28.47801783 80.941274 -30 81 C-31.06992188 81.0515625 -32.13984375 81.103125 -33.2421875 81.15625 C-45.6159305 81.48116229 -57.63510954 79.19735178 -68 72 C-68.6796875 69.8671875 -68.6796875 69.8671875 -69 68 C-70.2065625 67.5359375 -70.2065625 67.5359375 -71.4375 67.0625 C-74 66 -74 66 -75.3125 63.5625 C-76 61 -76 61 -76 58 C-76.66 58 -77.32 58 -78 58 C-77.67 56.68 -77.34 55.36 -77 54 C-76.52691406 54.71285156 -76.05382812 55.42570312 -75.56640625 56.16015625 C-67.53176468 67.79707377 -58.02534676 74.91973622 -44 78 C-28.43345233 78.94955941 -15.56778054 77.07355948 -3 67 C6.61459101 57.53307335 11.06505048 45.76070334 11.3125 32.4375 C11.32423919 21.00744046 7.80888175 12.50716039 1.390625 3.08203125 C0 1 0 1 0 0 Z " fill="#49A66D" transform="translate(214,82)"/>
<path d="M0 0 C-0.125 1.6875 -0.125 1.6875 -1 4 C-2.97956942 5.69088222 -4.97945196 7.35830472 -7 9 C-7.33 9.99 -7.66 10.98 -8 12 C-9.5064764 13.17170387 -11.05550728 14.2891576 -12.625 15.375 C-17.96492995 19.48674606 -20.55733447 23.92305097 -23.4296875 29.94921875 C-25 33 -25 33 -27.19140625 35.703125 C-29.51261981 38.65101609 -29.0779214 40.33769413 -29 44 C-30.77984405 47.1359157 -31.52308207 47.84102736 -35 49 C-36.24950052 51.55401848 -36.24950052 51.55401848 -37.1875 54.5625 C-37.53167969 55.57441406 -37.87585937 56.58632813 -38.23046875 57.62890625 C-38.48441406 58.41136719 -38.73835938 59.19382812 -39 60 C-39.66 60 -40.32 60 -41 60 C-42.46673316 65.30520505 -43.76679831 70.63681411 -45 76 C-45.19207031 76.8146875 -45.38414063 77.629375 -45.58203125 78.46875 C-48.80433722 92.67320082 -49.35474807 106.624161 -49.3125 121.125 C-49.31004272 122.01501709 -49.30758545 122.90503418 -49.30505371 123.82202148 C-49.29240033 126.38415443 -49.26879042 128.94583395 -49.23828125 131.5078125 C-49.23071304 132.27566071 -49.22314484 133.04350891 -49.21534729 133.83462524 C-49.14283162 137.98224457 -48.79982072 141.92884408 -48 146 C-53.2238869 140.7761131 -52.27997491 131.85017981 -52.3293457 124.98510742 C-52.32550072 123.59423226 -52.31984861 122.20336106 -52.3125 120.8125 C-52.31067719 120.10235748 -52.30885437 119.39221497 -52.30697632 118.66055298 C-52.25485059 106.58147568 -51.4920574 94.84217825 -49 83 C-48.83371094 82.20916016 -48.66742188 81.41832031 -48.49609375 80.60351562 C-42.09508267 51.4670615 -28.50172386 27.51728912 -8 6 C-7.35289063 5.31164062 -6.70578125 4.62328125 -6.0390625 3.9140625 C-2.27200704 0 -2.27200704 0 0 0 Z " fill="#48AB73" transform="translate(88,260)"/>
<path d="M0 0 C3.18406337 1.04040667 4.01654431 2.02739244 5.78125 4.94921875 C6.37102979 6.18742025 6.94301468 7.43420415 7.5 8.6875 C7.80115723 9.3487085 8.10231445 10.00991699 8.41259766 10.69116211 C17.66321795 31.7526201 19.55802242 57.23877103 11.93359375 79.05078125 C7.51671616 90.2897668 1.83240565 100.78680551 -6 110 C-6.33 109.01 -6.66 108.02 -7 107 C-6.08290773 105.6073784 -5.15513807 104.22065418 -4.17578125 102.87109375 C-2.78799289 100.66261991 -1.92063255 98.43912609 -1 96 C0.58457981 91.8701109 2.25584171 88.47593384 5 85 C5.66 85 6.32 85 7 85 C7 83.02 7 81.04 7 79 C8.485 78.505 8.485 78.505 10 78 C10.12375 76.96875 10.2475 75.9375 10.375 74.875 C11 71 11 71 12.0234375 68.42578125 C13.37358392 63.68946761 13.29831367 59.21282705 13.25 54.3125 C13.24250732 53.3222583 13.23501465 52.3320166 13.22729492 51.31176758 C13.05558401 39.68051136 10.41108094 29.57609789 7.0234375 18.52734375 C6 15 6 15 6 13 C5.34 13 4.68 13 4 13 C3.32942113 11.2097939 2.6636531 9.41778511 2 7.625 C1.62875 6.62726563 1.2575 5.62953125 0.875 4.6015625 C0 2 0 2 0 0 Z " fill="#36A762" transform="translate(337,65)"/>
<path d="M0 0 C4.3673592 2.1836796 5.66866464 9.24587964 7.25390625 13.72753906 C15.17822056 37.86350688 13.57335364 62.49639691 2.87890625 85.484375 C0.85001687 89.28063371 -1.42605344 92.55629792 -4 96 C-4 88.29272234 -0.30546597 80.96951621 3.48828125 74.4375 C5.4045382 70.08011985 6.04305108 65.94074293 6.6875 61.25 C6.81705078 60.40695313 6.94660156 59.56390625 7.08007812 58.6953125 C8.37530924 49.73149084 8.36001541 41.37529733 6.5625 32.5 C5.66776752 27.84463493 4.86199611 23.30202587 4.5625 18.5625 C4.20683792 14.03940612 2.71870514 10.33197493 0.83984375 6.2265625 C0 4 0 4 0 0 Z " fill="#37A761" transform="translate(263,70)"/>
<path d="M0 0 C2.93204789 2.93204789 3.42474741 6.5275852 4.4375 10.4375 C4.64181641 11.17548828 4.84613281 11.91347656 5.05664062 12.67382812 C8.93784997 27.43693282 10.54260452 42.3122856 10.50097656 57.54663086 C10.49998776 60.09403176 10.54219579 62.63856426 10.5859375 65.18554688 C10.65652173 74.85705377 10.391203 83.23005897 3.4152832 90.69604492 C-0.29058816 94 -0.29058816 94 -3 94 C-2.67 93.01 -2.34 92.02 -2 91 C-1.01 91 -0.02 91 1 91 C1.710001 89.68922893 2.36039986 88.3465266 3 87 C3.51304687 85.95070313 4.02609375 84.90140625 4.5546875 83.8203125 C6.97022542 77.28319365 6.40465915 70.24230234 6.3125 63.375 C6.30690063 62.64445404 6.30130127 61.91390808 6.29553223 61.16122437 C6.16943473 44.80365092 5.91834127 28.67953057 0.8203125 13.0078125 C-0.37238139 8.63460157 -0.37260247 4.49192978 0 0 Z " fill="#44A86D" transform="translate(422,321)"/>
<path d="M0 0 C0.78117187 0.6496875 0.78117187 0.6496875 1.578125 1.3125 C-2.230619 0.69263208 -5.35771438 -0.45979819 -8.859375 -2.0625 C-26.38757332 -9.53141209 -51.16560137 -12.3136359 -69.32421875 -5.6171875 C-70.01644531 -5.31039063 -70.70867187 -5.00359375 -71.421875 -4.6875 C-70.761875 -4.0275 -70.101875 -3.3675 -69.421875 -2.6875 C-75.856875 -2.1925 -75.856875 -2.1925 -82.421875 -1.6875 C-82.751875 -0.6975 -83.081875 0.2925 -83.421875 1.3125 C-85.071875 1.6425 -86.721875 1.9725 -88.421875 2.3125 C-88.421875 2.9725 -88.421875 3.6325 -88.421875 4.3125 C-90.401875 4.6425 -92.381875 4.9725 -94.421875 5.3125 C-94.421875 5.9725 -94.421875 6.6325 -94.421875 7.3125 C-95.411875 7.6425 -96.401875 7.9725 -97.421875 8.3125 C-98.246875 9.158125 -99.071875 10.00375 -99.921875 10.875 C-102.421875 13.3125 -102.421875 13.3125 -105.421875 13.3125 C-105.751875 14.3025 -106.081875 15.2925 -106.421875 16.3125 C-107.411875 16.3125 -108.401875 16.3125 -109.421875 16.3125 C-111.74465731 18.85649967 -113.87499471 21.21873941 -115.421875 24.3125 C-116.411875 24.3125 -117.401875 24.3125 -118.421875 24.3125 C-112.10540342 9.89798794 -93.40150582 0.91833111 -79.56054688 -4.86230469 C-55.9613262 -13.96794006 -21.65347705 -15.08758401 0 0 Z " fill="#38B06B" transform="translate(223.421875,30.6875)"/>
<path d="M0 0 C2 2 2 2 2.375 5 C2.58125 5.99 2.7875 6.98 3 8 C3.64839844 8.27328125 4.29679687 8.5465625 4.96484375 8.828125 C7 10 7 10 7.79296875 12.546875 C7.92316406 13.60390625 8.05335938 14.6609375 8.1875 15.75 C8.39439453 17.28914063 8.39439453 17.28914063 8.60546875 18.859375 C9.49387714 27.53187894 10.02870756 36.22322418 10.24609375 44.9375 C10.26280624 45.59985657 10.27951874 46.26221313 10.29673767 46.94464111 C10.36265184 49.65359216 10.42540524 52.36250853 10.47680664 55.07177734 C10.51664972 57.08969806 10.56872615 59.10736547 10.62109375 61.125 C10.6461499 62.30320312 10.67120605 63.48140625 10.69702148 64.6953125 C11.00655876 68.0715386 11.79973362 70.84010892 13 74 C13.66 74 14.32 74 15 74 C15.33 75.98 15.66 77.96 16 80 C12.52094954 78.84031651 12.18861128 78.16252073 10.375 75.125 C9.73691406 74.07699219 9.73691406 74.07699219 9.0859375 73.0078125 C6.90857756 68.98204628 6.8396738 65.59725262 6.75390625 61.0859375 C6.72261999 59.67886541 6.69094854 58.27180184 6.65893555 56.86474609 C6.64357758 56.13084656 6.6282196 55.39694702 6.61239624 54.64080811 C6.24547047 37.97856296 5.52430918 22.06461596 0.8046875 5.9765625 C0 3 0 3 0 0 Z " fill="#31B262" transform="translate(289,333)"/>
<path d="M0 0 C-3.3144498 2.69559382 -6.69577502 5.22730382 -10.1875 7.6875 C-22.816784 16.87089065 -31.98726045 26.78902374 -39.3125 40.5625 C-39.73337891 41.35382324 -40.15425781 42.14514648 -40.58789062 42.96044922 C-43.26909033 48.16849615 -45.31604967 53.39101493 -47 59 C-47.33 59 -47.66 59 -48 59 C-48.33249053 52.79351012 -47.54922986 48.68674354 -45 43 C-44.34 42.34 -43.68 41.68 -43 41 C-42.835 40.319375 -42.67 39.63875 -42.5 38.9375 C-42.335 38.298125 -42.17 37.65875 -42 37 C-41.01 36.505 -41.01 36.505 -40 36 C-39.30472896 34.27837647 -38.61023031 32.55643154 -37.921875 30.83203125 C-36.51972381 28.04555284 -34.19187309 26.19187309 -32 24 C-30.66436389 20.83298577 -30.66436389 20.83298577 -30 18 C-28.68 18 -27.36 18 -26 18 C-26 16.68 -26 15.36 -26 14 C-24.625 12.25 -24.625 12.25 -23 11 C-22.34 11 -21.68 11 -21 11 C-20.67 10.34 -20.34 9.68 -20 9 C-19.34 8.34 -18.68 7.68 -18 7 C-17.01 7 -16.02 7 -15 7 C-15 6.01 -15 5.02 -15 4 C-13.35 4 -11.7 4 -10 4 C-9.67 3.01 -9.34 2.02 -9 1 C-5.8035914 -0.06546953 -3.34252724 -0.07427838 0 0 Z " fill="#39A762" transform="translate(137,282)"/>
<path d="M0 0 C7.56880264 14.07615102 6.42616379 33.37536984 6.5 48.9375 C6.51017151 49.81361938 6.52034302 50.68973877 6.53082275 51.59240723 C6.71141496 70.93070998 6.71141496 70.93070998 0.2109375 79.3046875 C-5.9639536 84.5861901 -12.3699852 87.4916232 -20.625 86.9375 C-25.26569675 86.20954757 -28.93123982 84.29330119 -33 82 C-31.1875 81.375 -31.1875 81.375 -29 81 C-28.01 81.66 -27.02 82.32 -26 83 C-17.72876143 83.90384564 -10.9989882 83.62197334 -4 79 C-3.47792969 78.45988281 -2.95585937 77.91976562 -2.41796875 77.36328125 C-1 76 -1 76 1 76 C1 75.01 1 74.02 1 73 C1.66 73 2.32 73 3 73 C3.0510374 65.9382641 3.08587429 58.87657642 3.10986328 51.81469727 C3.11987232 49.41624168 3.13348364 47.01779815 3.15087891 44.61938477 C3.17535242 41.15638235 3.18653443 37.69354238 3.1953125 34.23046875 C3.20563507 33.17168015 3.21595764 32.11289154 3.22659302 31.02201843 C3.22760398 24.19426524 2.69077424 17.63754152 1 11 C0.505 10.505 0.505 10.505 0 10 C-0.07205511 8.31391034 -0.08386068 6.62499341 -0.0625 4.9375 C-0.05347656 4.01839844 -0.04445313 3.09929687 -0.03515625 2.15234375 C-0.02355469 1.44207031 -0.01195312 0.73179687 0 0 Z " fill="#499E6C" transform="translate(338,332)"/>
<path d="M0 0 C0.99 0.33 1.98 0.66 3 1 C3 1.99 3 2.98 3 4 C3.61875 4.061875 4.2375 4.12375 4.875 4.1875 C7 5 7 5 8.25 7.5625 C8.4975 8.366875 8.745 9.17125 9 10 C9.99 10 10.98 10 12 10 C16 15.25714286 16 15.25714286 16 18 C16.59554688 18.18175781 17.19109375 18.36351562 17.8046875 18.55078125 C21.02852049 20.67896993 21.84973589 23.69570542 23.125 27.1875 C23.37636719 27.83525391 23.62773437 28.48300781 23.88671875 29.15039062 C25.49864447 33.37431115 26.80205299 37.63824421 28 42 C28.49594594 43.68869591 28.99552095 45.3763336 29.5 47.0625 C29.7371875 47.85785156 29.974375 48.65320313 30.21875 49.47265625 C30.7730936 51.2659578 31.40407793 53.03635815 32.0859375 54.78515625 C33.21400613 58.75267966 33.22127458 62.27962768 33.125 66.375 C33.11597656 67.11105469 33.10695313 67.84710938 33.09765625 68.60546875 C33.07430144 70.4037888 33.03843836 72.20193911 33 74 C32.67 74 32.34 74 32 74 C31.93941406 72.97519531 31.87882812 71.95039063 31.81640625 70.89453125 C31.73194974 69.53384305 31.64730433 68.17316657 31.5625 66.8125 C31.52318359 66.13896484 31.48386719 65.46542969 31.44335938 64.77148438 C31.21072435 61.10300898 30.82792989 57.58305794 30 54 C29.34 54 28.68 54 28 54 C27.731875 53.030625 27.46375 52.06125 27.1875 51.0625 C21.99610322 33.02659745 13.51240997 18.43233985 1.50390625 4.03125 C0 2 0 2 0 0 Z " fill="#36AA63" transform="translate(352,294)"/>
<path d="M0 0 C1.31388752 0.26401995 2.62602339 0.53675364 3.9375 0.8125 C4.66839844 0.96332031 5.39929688 1.11414063 6.15234375 1.26953125 C8.57919796 1.89205764 10.88332241 2.62457418 13.25 3.4375 C31.66790991 9.66313825 49.01775545 10.66043897 68 6 C69.57007813 5.62294922 69.57007813 5.62294922 71.171875 5.23828125 C75.1644757 4.21854945 78.67855781 3.1607211 82.375 1.3125 C85.18582965 -0.09291483 86.90359031 -0.27321262 90 0 C85.73467747 3.44944786 81.28336706 4.86549508 76.125 6.5625 C75.18406494 6.8726001 74.24312988 7.1827002 73.27368164 7.50219727 C65.85779442 9.87018382 58.79377849 11.47061127 51 12 C50.04738281 12.06960937 49.09476563 12.13921875 48.11328125 12.2109375 C33.36432769 12.73409274 11.5566694 9.95651518 0 0 Z " fill="#449A67" transform="translate(134,197)"/>
<path d="M0 0 C1.45606519 4.52092968 0.27032841 7.51648796 -1 12 C-1.66 12 -2.32 12 -3 12 C-4.46673316 17.30520505 -5.76679831 22.63681411 -7 28 C-7.19207031 28.8146875 -7.38414063 29.629375 -7.58203125 30.46875 C-10.80433722 44.67320082 -11.35474807 58.624161 -11.3125 73.125 C-11.31004272 74.01501709 -11.30758545 74.90503418 -11.30505371 75.82202148 C-11.29240033 78.38415443 -11.26879042 80.94583395 -11.23828125 83.5078125 C-11.22692894 84.65958481 -11.22692894 84.65958481 -11.21534729 85.83462524 C-11.14283162 89.98224457 -10.79982072 93.92884408 -10 98 C-15.2238869 92.7761131 -14.27997491 83.85017981 -14.3293457 76.98510742 C-14.32550072 75.59423226 -14.31984861 74.20336106 -14.3125 72.8125 C-14.31067719 72.10235748 -14.30885437 71.39221497 -14.30697632 70.66055298 C-14.19982779 45.83106315 -9.23104259 22.99830199 0 0 Z " fill="#5CA67F" transform="translate(50,308)"/>
<path d="M0 0 C1.07694171 2.80004844 0.95876997 4.1911574 0.3125 7.1875 C-1 10 -1 10 -3.125 10.875 C-3.74375 10.91625 -4.3625 10.9575 -5 11 C-5.144375 11.61875 -5.28875 12.2375 -5.4375 12.875 C-6 15 -6 15 -7 17 C-7.66 17 -8.32 17 -9 17 C-10.35303258 19.9960007 -11.19953839 22.8517487 -11.8125 26.0625 C-12.83845176 31.01850893 -14.78262219 35.41713701 -16.87890625 40.0078125 C-19.7015467 47.54141037 -19.11871634 55.51099659 -19.0625 63.4375 C-19.05798828 64.64599609 -19.05347656 65.85449219 -19.04882812 67.09960938 C-19.03710145 70.06645789 -19.02068896 73.0332027 -19 76 C-19.33 76 -19.66 76 -20 76 C-25.00924939 51.4017347 -18.41228987 26.71419711 -5 6 C-3.41547989 3.87936406 -1.79054671 1.95332369 0 0 Z " fill="#52A673" transform="translate(104,55)"/>
<path d="M0 0 C-0.59425781 0.16604736 -1.18851562 0.33209473 -1.80078125 0.50317383 C-4.53487783 1.26934806 -7.26743347 2.04088742 -10 2.8125 C-10.93457031 3.07353516 -11.86914062 3.33457031 -12.83203125 3.60351562 C-17.12566323 4.81954426 -21.33989904 6.07917944 -25.5 7.69921875 C-29 9 -29 9 -32 9 C-32.20625 9.5775 -32.4125 10.155 -32.625 10.75 C-35.31776548 15.15634351 -40.17852031 17.47742747 -45 19 C-46.32 19 -47.64 19 -49 19 C-49.33 19.99 -49.66 20.98 -50 22 C-51.71484375 22.66796875 -51.71484375 22.66796875 -53.9375 23.1875 C-60.02903854 24.98949854 -64.29752892 28.86693043 -69 33 C-69.66 32.67 -70.32 32.34 -71 32 C-57.13552094 18.22673462 -20.4632802 -5.82445788 0 0 Z " fill="#4AAF73" transform="translate(159,227)"/>
<path d="M0 0 C0.66 0 1.32 0 2 0 C3.62238683 2.23699577 5.0228441 4.57697539 6.46484375 6.93359375 C7.90728113 9.28739757 7.90728113 9.28739757 11 10 C14.28307511 15.80851751 14.7378293 21.41395426 15 28 C15.02723145 28.64275879 15.05446289 29.28551758 15.08251953 29.94775391 C15.16124394 32.04855687 15.21037851 34.14811666 15.25 36.25 C15.27578125 37.55453125 15.3015625 38.8590625 15.328125 40.203125 C14.95178656 44.55789842 13.89426125 47.0939675 12 51 C11.525625 52.216875 11.05125 53.43375 10.5625 54.6875 C9.05335933 57.88687823 7.65385326 59.71219547 5 62 C5.74752402 58.49755601 7.03872903 55.35396996 8.4375 52.0625 C9.99376383 48.38785913 11.53085945 44.71043405 13 41 C12.34 40.67 11.68 40.34 11 40 C11.04640625 38.98421875 11.0928125 37.9684375 11.140625 36.921875 C11.56575654 23.67167254 8.95754957 14.19396461 1.390625 3.08203125 C0 1 0 1 0 0 Z " fill="#3EA969" transform="translate(214,82)"/>
<path d="M0 0 C0.99 0.495 0.99 0.495 2 1 C2 1.66 2 2.32 2 3 C2.66 3 3.32 3 4 3 C4.12375 3.7425 4.2475 4.485 4.375 5.25 C4.96084173 7.82770362 5.7984069 9.67191336 7 12 C7.91355399 14.98342458 8.1082744 17.63734092 8.0625 20.75 C8.05347656 21.54921875 8.04445313 22.3484375 8.03515625 23.171875 C8.02355469 23.77515625 8.01195312 24.3784375 8 25 C8.66 25 9.32 25 10 25 C10.17450733 26.43656925 10.33896392 27.87435835 10.5 29.3125 C10.5928125 30.11300781 10.685625 30.91351563 10.78125 31.73828125 C11.36466566 40.43742548 10.85003988 48.50797661 9.1875 57.0625 C9.02185547 57.97837891 8.85621094 58.89425781 8.68554688 59.83789062 C7.66234048 65.29370436 6.33078362 70.55360354 4.64648438 75.84301758 C3.84083435 78.53105305 3.3657609 81.22021714 3 84 C1.515 84.495 1.515 84.495 0 85 C0.64030795 81.30923621 1.64710686 77.80004494 2.76489258 74.22753906 C10.15002586 50.45571986 8.88225077 28.41813656 0.98828125 5.0625 C0 2 0 2 0 0 Z " fill="#49A76C" transform="translate(296,71)"/>
<path d="M0 0 C1.23943359 0.00064453 2.47886719 0.00128906 3.75585938 0.00195312 C13.65256049 0.05007323 13.65256049 0.05007323 18.5625 1.1875 C18.5625 1.8475 18.5625 2.5075 18.5625 3.1875 C17.68215088 3.17178955 16.80180176 3.1560791 15.89477539 3.13989258 C-5.81991352 2.80346182 -24.79617268 3.72765188 -45.4375 11.1875 C-47.24806207 11.79744967 -49.06024783 12.40263228 -50.875 13 C-52.050625 13.391875 -53.22625 13.78375 -54.4375 14.1875 C-54.4375 13.5275 -54.4375 12.8675 -54.4375 12.1875 C-51.20958445 10.0355563 -50.15349191 9.98663557 -46.4375 10.1875 C-46.4375 9.5275 -46.4375 8.8675 -46.4375 8.1875 C-43.19806517 6.02787678 -41.3623746 5.7181558 -37.5625 5.1875 C-34.55261689 4.76506027 -31.90276968 4.37868354 -29.08764648 3.22192383 C-19.88682984 -0.36940368 -9.72090664 -0.09819098 0 0 Z " fill="#389B61" transform="translate(191.4375,267.8125)"/>
<path d="M0 0 C0.33 0 0.66 0 1 0 C0.38135022 5.30271237 -0.42119683 10.50524373 -1.4375 15.75 C-2.53499377 21.48335544 -3.58149883 27.21836627 -4.49633789 32.984375 C-4.80685537 34.84356641 -5.14406404 36.69880111 -5.5246582 38.54492188 C-7.34402918 47.79121 -7.22647656 56.87394922 -7.125 66.25 C-7.114943 67.88150488 -7.10582199 69.51301581 -7.09765625 71.14453125 C-7.07587452 75.0965067 -7.04149726 79.04818442 -7 83 C-9.51822093 79.2226686 -9.32245265 76.18026209 -9.3359375 71.80078125 C-9.34427109 70.98171799 -9.35260468 70.16265472 -9.3611908 69.31877136 C-9.38071693 66.64982747 -9.38062692 63.98150421 -9.375 61.3125 C-9.37478851 60.40628906 -9.37457703 59.50007813 -9.37435913 58.56640625 C-9.32674137 38.2013495 -6.90084764 19.23187048 0 0 Z " fill="#30B162" transform="translate(47,320)"/>
<path d="M0 0 C10.58033449 -0.35865541 20.46940485 1.3493743 30.5625 4.4375 C31.24127197 4.64270264 31.92004395 4.84790527 32.61938477 5.05932617 C36.24489986 6.22176405 39.12150071 7.487722 42 10 C39.98177083 9.70703125 37.96354167 9.4140625 35.9453125 9.12109375 C33.91859333 8.8315703 33.91859333 8.8315703 32 10 C30.65022151 9.36729133 29.31647119 8.69937532 28 8 C27.34 8 26.68 8 26 8 C26 7.34 26 6.68 26 6 C23.37583048 5.63835477 20.75099687 5.28538847 18.125 4.9375 C17.37863281 4.83373047 16.63226563 4.72996094 15.86328125 4.62304688 C11.82400166 3.93572498 11.82400166 3.93572498 8 5 C8.33 6.32 8.66 7.64 9 9 C5.55862568 7.4705003 2.7777867 5.54630448 0 3 C0 2.01 0 1.02 0 0 Z " fill="#41AA6D" transform="translate(257,20)"/>
<path d="M0 0 C4.30495015 -0.09935088 8.60928183 -0.17169268 12.91503906 -0.21972656 C14.37772252 -0.23976332 15.84032666 -0.26700104 17.30273438 -0.30175781 C19.4129601 -0.35063225 21.52212136 -0.37304659 23.6328125 -0.390625 C24.90012207 -0.41157227 26.16743164 -0.43251953 27.47314453 -0.45410156 C31.63080591 0.08121965 33.70110725 1.48007008 37 4 C37.94875 4.53625 38.8975 5.0725 39.875 5.625 C40.926875 6.305625 40.926875 6.305625 42 7 C42 7.66 42 8.32 42 9 C43.32 9 44.64 9 46 9 C47.0625 10.8125 47.0625 10.8125 48 13 C47.67 13.99 47.34 14.98 47 16 C46.46632812 15.55269531 45.93265625 15.10539062 45.3828125 14.64453125 C33.65920545 5.13177743 22.16851329 0.7298211 7 2 C2.61096694 2.81122085 -1.69279665 3.83288683 -6 5 C-6 4.34 -6 3.68 -6 3 C-4.02 2.67 -2.04 2.34 0 2 C0 1.34 0 0.68 0 0 Z " fill="#35AA63" transform="translate(166,66)"/>
<path d="M0 0 C2 2 2 2 2 5 C2.66 5 3.32 5 4 5 C4.06058594 5.92683594 4.12117188 6.85367187 4.18359375 7.80859375 C4.26738281 9.00613281 4.35117187 10.20367187 4.4375 11.4375 C4.51871094 12.63246094 4.59992188 13.82742188 4.68359375 15.05859375 C4.67656114 17.88570244 4.67656114 17.88570244 6 19 C7.87402252 26.46939661 8.28645734 33.80345336 8.23046875 41.46875 C8.22978142 43.03284607 8.22978142 43.03284607 8.2290802 44.62854004 C8.22608325 46.80998894 8.21827485 48.99143621 8.20581055 51.17285156 C8.18739567 54.51895665 8.18530234 57.86478669 8.18554688 61.2109375 C8.18063649 63.33854407 8.17481028 65.46614876 8.16796875 67.59375 C8.16685593 68.59369995 8.1657431 69.5936499 8.16459656 70.62390137 C8.15821671 71.54916626 8.15183685 72.47443115 8.14526367 73.42773438 C8.14145187 74.24060913 8.13764008 75.05348389 8.13371277 75.89099121 C8 78 8 78 7 81 C6.34 81 5.68 81 5 81 C5 81.99 5 82.98 5 84 C3.02 84.99 3.02 84.99 1 86 C1.42431986 83.13584093 1.96829581 82.03302888 4.01586914 79.89990234 C6.7176259 75.95115536 6.56158253 72.96486158 6.49609375 68.2890625 C6.49754898 67.44387054 6.49900421 66.59867859 6.50050354 65.72787476 C6.4988461 63.93752603 6.48730202 62.14716284 6.46655273 60.35693359 C6.43796046 57.66829898 6.44587472 54.98168546 6.45898438 52.29296875 C6.44509865 41.76642837 5.35218111 32.24963912 3 22 C2.53509327 19.14690356 2.19930467 16.31201867 1.875 13.4375 C1.35772241 8.93173994 0.78473798 4.46749957 0 0 Z " fill="#30B864" transform="translate(334,324)"/>
<path d="M0 0 C3.25496652 3.25496652 3.25537149 7.57176674 4 12 C4.20625 13.19625 4.4125 14.3925 4.625 15.625 C6.30391441 30.49538481 5.61092213 46.79023999 1 61 C0.34 61 -0.32 61 -1 61 C-1 63.31 -1 65.62 -1 68 C-2.485 68.495 -2.485 68.495 -4 69 C-3.731875 67.80375 -3.46375 66.6075 -3.1875 65.375 C-2.79094955 63.58349192 -2.39521504 61.79180315 -2 60 C-1.75894531 58.91332031 -1.51789063 57.82664063 -1.26953125 56.70703125 C-0.49016226 53.14250606 0.25773119 49.57241674 1 46 C1.21011719 45.06671875 1.42023438 44.1334375 1.63671875 43.171875 C3.64126612 33.22022137 3.1845501 23.10198848 3 13 C2.34 13 1.68 13 1 13 C0.67 8.71 0.34 4.42 0 0 Z " fill="#2AB65F" transform="translate(303,83)"/>
<path d="M0 0 C0.78117187 0.6496875 0.78117187 0.6496875 1.578125 1.3125 C-2.230619 0.69263208 -5.35771438 -0.45979819 -8.859375 -2.0625 C-26.41922214 -9.54489792 -47.86616447 -10.98195281 -66.421875 -6.6875 C-68.42680093 -5.69741312 -70.42739961 -4.69847375 -72.421875 -3.6875 C-76.296875 -3.5 -76.296875 -3.5 -79.421875 -3.6875 C-76.74295471 -6.36642029 -73.80030912 -6.84387375 -70.234375 -7.75 C-69.58662109 -7.92337891 -68.93886719 -8.09675781 -68.27148438 -8.27539062 C-47.20651891 -13.76785415 -18.4719959 -12.87081005 0 0 Z " fill="#56A67A" transform="translate(223.421875,30.6875)"/>
<path d="M0 0 C1.32 0.66 2.64 1.32 4 2 C-5.0799664 13.40357984 -15.06347506 23.86460732 -28 31 C-28.66 31 -29.32 31 -30 31 C-29 28 -29 28 -26.6875 26.625 C-23.84552279 25.13978401 -23.84552279 25.13978401 -22.0625 22.375 C-20 20 -20 20 -16.75 19.1875 C-15.8425 19.125625 -14.935 19.06375 -14 19 C-13.67 18.01 -13.34 17.02 -13 16 C-10.46221127 13.26185953 -8.1110644 11.07404293 -5 9 C-3.82065192 7.08623041 -3.82065192 7.08623041 -2.875 4.9375 C-1.07118644 1.07118644 -1.07118644 1.07118644 0 0 Z " fill="#36A963" transform="translate(254,166)"/>
<path d="M0 0 C3.07560612 3.07560612 3.49746572 6.85995576 4.5625 11 C4.78357422 11.81339844 5.00464844 12.62679688 5.23242188 13.46484375 C8.521587 26.04515508 8.27199047 38.87511982 8.47680664 51.79125977 C8.5165601 54.19051173 8.56802677 56.5892919 8.62109375 58.98828125 C8.6295079 59.71856033 8.63792206 60.44883942 8.64659119 61.20124817 C8.74328011 65.19902051 9.0929698 68.44922519 11 72 C12.0209375 72.4640625 12.0209375 72.4640625 13.0625 72.9375 C13.701875 73.288125 14.34125 73.63875 15 74 C15.75 77.125 15.75 77.125 16 80 C12.52094954 78.84031651 12.18861128 78.16252073 10.375 75.125 C9.73691406 74.07699219 9.73691406 74.07699219 9.0859375 73.0078125 C6.90857756 68.98204628 6.8396738 65.59725262 6.75390625 61.0859375 C6.72261999 59.67886541 6.69094854 58.27180184 6.65893555 56.86474609 C6.64357758 56.13084656 6.6282196 55.39694702 6.61239624 54.64080811 C6.24547047 37.97856296 5.52430918 22.06461596 0.8046875 5.9765625 C0 3 0 3 0 0 Z " fill="#57A875" transform="translate(289,333)"/>
<path d="M0 0 C0.70189453 0.09071777 1.40378906 0.18143555 2.12695312 0.27490234 C9.06705165 1.21801996 15.86852874 2.65180361 22.6875 4.25 C22.3575 4.91 22.0275 5.57 21.6875 6.25 C20.78128906 6.04503906 19.87507813 5.84007812 18.94140625 5.62890625 C12.18691405 4.13505559 5.58090603 2.84425914 -1.3125 2.25 C-0.49718266 4.25613134 -0.49718266 4.25613134 0.6875 6.25 C3.24269921 7.06171228 3.24269921 7.06171228 5.6875 7.25 C5.6875 7.91 5.6875 8.57 5.6875 9.25 C6.3475 9.25 7.0075 9.25 7.6875 9.25 C8.0175 10.57 8.3475 11.89 8.6875 13.25 C4.48348313 11.72485854 0.73789426 9.63970772 -3.0625 7.3125 C-3.65160156 6.96509766 -4.24070312 6.61769531 -4.84765625 6.25976562 C-9.19337347 3.6073796 -9.19337347 3.6073796 -10.3125 0.25 C-6.65197709 -0.9701743 -3.7349964 -0.50346623 0 0 Z " fill="#45A468" transform="translate(296.3125,222.75)"/>
<path d="M0 0 C1 2 1 2 0.2578125 4.390625 C-0.30292969 5.80601563 -0.30292969 5.80601563 -0.875 7.25 C-5.92465479 20.6577041 -3.44024683 31.62296879 0 45 C-0.66 44.67 -1.32 44.34 -2 44 C-2 43.34 -2 42.68 -2 42 C-2.99 42 -3.98 42 -5 42 C-6.83475089 36.53925921 -7.27952065 31.80168245 -7.1875 26.0625 C-7.18685547 25.30259766 -7.18621094 24.54269531 -7.18554688 23.75976562 C-7.1471576 18.76489485 -6.70317518 13.9447279 -6 9 C-5.34 9 -4.68 9 -4 9 C-3.855625 8.236875 -3.71125 7.47375 -3.5625 6.6875 C-3 4 -3 4 -2 1 C-1.34 0.67 -0.68 0.34 0 0 Z " fill="#39A561" transform="translate(136,91)"/>
<path d="M0 0 C14.01510748 10.17586261 26.00693481 21.86166333 36 36 C35.505 36.99 35.505 36.99 35 38 C34.45730469 37.31292969 33.91460937 36.62585938 33.35546875 35.91796875 C32.64003906 35.01691406 31.92460937 34.11585938 31.1875 33.1875 C30.47980469 32.29417969 29.77210938 31.40085937 29.04296875 30.48046875 C27.12613931 28.05692408 27.12613931 28.05692408 25.23828125 26.30078125 C24 25 24 25 24 23 C23.278125 22.814375 22.55625 22.62875 21.8125 22.4375 C18.85969368 20.92828788 18.23330098 20.12274089 16.5 17.4375 C14.55467405 14.42796392 14.55467405 14.42796392 11.1875 13.0625 C10.465625 13.041875 9.74375 13.02125 9 13 C8.67 12.01 8.34 11.02 8 10 C7.21625 9.54625 6.4325 9.0925 5.625 8.625 C2.6175227 6.76322834 1.53407795 5.14889685 0 2 C0 1.34 0 0.68 0 0 Z " fill="#469E69" transform="translate(371,252)"/>
<path d="M0 0 C0 0.33 0 0.66 0 1 C-0.61407715 1.01981934 -1.2281543 1.03963867 -1.86083984 1.06005859 C-4.69925383 1.15653802 -7.53705157 1.26570802 -10.375 1.375 C-11.34050781 1.4059375 -12.30601562 1.436875 -13.30078125 1.46875 C-23.79989981 1.3408368 -23.79989981 1.3408368 -33 5 C-34.63256758 5.15714654 -36.27135338 5.25085414 -37.91015625 5.31640625 C-39.39418945 5.37924805 -39.39418945 5.37924805 -40.90820312 5.44335938 C-42.46958008 5.50233398 -42.46958008 5.50233398 -44.0625 5.5625 C-45.10728516 5.60568359 -46.15207031 5.64886719 -47.22851562 5.69335938 C-49.81886884 5.79981225 -52.40932186 5.9018276 -55 6 C-38.05562728 -2.50902195 -18.5353204 -0.13222079 0 0 Z " fill="#35A963" transform="translate(203,224)"/>
<path d="M0 0 C1.34391123 0.64507739 2.67353844 1.3197633 4 2 C4.59039062 2.29132813 5.18078125 2.58265625 5.7890625 2.8828125 C10.79025099 5.49660237 10.79025099 5.49660237 11.9375 8.25 C11.958125 8.8275 11.97875 9.405 12 10 C12.66 10 13.32 10 14 10 C14.33 10.99 14.66 11.98 15 13 C16.57273974 14.44615636 16.57273974 14.44615636 18.4375 15.8125 C21.76013028 18.52915878 23.08199743 20.71598799 24 25 C24.99 25 25.98 25 27 25 C28.29243536 29.1196377 29.26252625 32.66831683 29 37 C26.70830452 34.13538065 24.89475798 31.11509344 23.0949707 27.92333984 C17.65606043 18.36977571 11.22444654 10.23529863 2.66796875 3.2265625 C1.78753906 2.49179687 0.90710938 1.75703125 0 1 C0 0.67 0 0.34 0 0 Z " fill="#3DA766" transform="translate(258,291)"/>
<path d="M0 0 C0.66 0.33 1.32 0.66 2 1 C-4.19017095 7.54577651 -10.38808482 13.17004449 -18 18 C-18.85980469 18.5465625 -19.71960938 19.093125 -20.60546875 19.65625 C-25.25571435 22.52659827 -29.82668083 25.20517498 -35 27 C-35.99 26.67 -36.98 26.34 -38 26 C-34.6659053 23.80902348 -31.95820859 22.56545837 -28 22 C-28 21.34 -28 20.68 -28 20 C-27.44570313 19.74605469 -26.89140625 19.49210937 -26.3203125 19.23046875 C-25.59585937 18.88628906 -24.87140625 18.54210937 -24.125 18.1875 C-23.40570313 17.85105469 -22.68640625 17.51460937 -21.9453125 17.16796875 C-19.69457194 16.00532903 -19.69457194 16.00532903 -18 13 C-16.34795544 12.29788106 -14.68076231 11.63028587 -13 11 C-12.34 10.34 -11.68 9.68 -11 9 C-10.01 9 -9.02 9 -8 9 C-7.690625 8.1646875 -7.690625 8.1646875 -7.375 7.3125 C-5.44999226 4.07498698 -2.96149098 2.31768859 0 0 Z " fill="#3AA260" transform="translate(328,175)"/>
<path d="M0 0 C1 3 1 3 -0.5 6.3125 C-4.64103238 12.97477319 -9.86072263 16.66113849 -17.453125 18.59375 C-24.99284747 19.79640512 -30.48572609 17.67168166 -37 14 C-35.1875 13.375 -35.1875 13.375 -33 13 C-32.01 13.66 -31.02 14.32 -30 15 C-21.72876143 15.90384564 -14.9989882 15.62197334 -8 11 C-7.47792969 10.45988281 -6.95585937 9.91976563 -6.41796875 9.36328125 C-5 8 -5 8 -3 8 C-3 7.01 -3 6.02 -3 5 C-2.34 5 -1.68 5 -1 5 C-0.67 3.35 -0.34 1.7 0 0 Z " fill="#409863" transform="translate(342,400)"/>
<path d="M0 0 C1.26325668 3.30131079 0.75921274 5.8850362 0.0715332 9.28198242 C-3.21048546 25.58440972 -2.75626574 42.43549618 -3 59 C-3.33 59 -3.66 59 -4 59 C-4.1016491 51.7226966 -4.17157032 44.44557718 -4.21972656 37.16772461 C-4.23980771 34.69337115 -4.26707823 32.21906495 -4.30175781 29.74487305 C-4.35042778 26.18266112 -4.37300454 22.62107819 -4.390625 19.05859375 C-4.41127014 17.95728622 -4.43191528 16.8559787 -4.45318604 15.72129822 C-4.45506855 9.23769447 -3.81426481 5.30235601 0 0 Z " fill="#549E74" transform="translate(88,341)"/>
<path d="M0 0 C5.74399398 1.47702702 9.89638284 4.4516782 14.625 7.875 C15.75035156 8.66970703 15.75035156 8.66970703 16.8984375 9.48046875 C24.20305932 14.69990598 24.20305932 14.69990598 27 18 C27 18.66 27 19.32 27 20 C25.35 19.67 23.7 19.34 22 19 C21.67 17.68 21.34 16.36 21 15 C19.9275 14.731875 18.855 14.46375 17.75 14.1875 C13.40865248 12.81273995 11.15984366 11.15984366 8 8 C8 7.01 8 6.02 8 5 C6.865625 4.731875 5.73125 4.46375 4.5625 4.1875 C3.386875 3.795625 2.21125 3.40375 1 3 C0.67 2.01 0.34 1.02 0 0 Z " fill="#3CA765" transform="translate(267,242)"/>
<path d="M0 0 C4.5962496 0.62756485 8.41450987 2.47699295 12.5 4.5625 C13.19544922 4.91530029 13.89089844 5.26810059 14.60742188 5.6315918 C28.61462083 12.84108561 28.61462083 12.84108561 34 17 C34 17.99 34 18.98 34 20 C33.34 19.34 32.68 18.68 32 18 C30.35444726 17.26339278 28.68404635 16.58125609 27 15.9375 C22.10126582 14.05063291 22.10126582 14.05063291 20 13 C20 12.34 20 11.68 20 11 C19.01 10.67 18.02 10.34 17 10 C17 9.34 17 8.68 17 8 C15.35 8 13.7 8 12 8 C11.67 7.01 11.34 6.02 11 5 C8.70079441 4.04637499 8.70079441 4.04637499 6 3.4375 C3.25 2.74609375 3.25 2.74609375 1 2 C0.67 1.34 0.34 0.68 0 0 Z " fill="#40A867" transform="translate(335,233)"/>
<path d="M0 0 C10.55240737 6.17511246 19.14655995 14.90780348 26 25 C25.67 25.66 25.34 26.32 25 27 C21.04485379 25.71724988 19.13270248 24.58681781 17 21 C16.566875 19.865625 16.13375 18.73125 15.6875 17.5625 C13.73392887 13.43829428 11.60918061 11.72529964 8 9 C7.29875 8.278125 6.5975 7.55625 5.875 6.8125 C4.00789371 5.00763058 2.37251822 4.01679352 0 3 C0 2.01 0 1.02 0 0 Z " fill="#4D9F6C" transform="translate(312,37)"/>
<path d="M0 0 C0.33 0 0.66 0 1 0 C2.20561531 7.57815339 -1.90567643 12.88389269 -6 19 C-7.58795664 21.11858572 -9.20918146 23.04637978 -11 25 C-11.33 24.01 -11.66 23.02 -12 22 C-11.08290773 20.6073784 -10.15513807 19.22065418 -9.17578125 17.87109375 C-7.78799289 15.66261991 -6.92063255 13.43912609 -6 11 C-4.42246816 6.87222894 -2.68005654 3.51179823 0 0 Z " fill="#36AB62" transform="translate(342,150)"/>
<path d="M0 0 C0.495 0.639375 0.99 1.27875 1.5 1.9375 C8.91702883 11.18803522 8.91702883 11.18803522 18.53125 17.9296875 C19.25828125 18.45949219 19.25828125 18.45949219 20 19 C20 19.99 20 20.98 20 22 C12.34782609 19.56521739 12.34782609 19.56521739 10 18 C9.855625 17.34 9.71125 16.68 9.5625 16 C9.376875 15.34 9.19125 14.68 9 14 C8.195625 13.690625 7.39125 13.38125 6.5625 13.0625 C4 12 4 12 2.6875 9.5625 C2 7 2 7 2 4 C1.34 4 0.68 4 0 4 C0 2.68 0 1.36 0 0 Z " fill="#3BA966" transform="translate(136,136)"/>
<path d="M0 0 C2.23516681 2.07408451 3.7301725 4.04045956 5.15625 6.73046875 C5.53910156 7.45169922 5.92195313 8.17292969 6.31640625 8.91601562 C6.70699219 9.66560547 7.09757812 10.41519531 7.5 11.1875 C7.89058594 11.91775391 8.28117187 12.64800781 8.68359375 13.40039062 C11.18786438 18.1601912 13.36836876 22.86807878 15 28 C14.67 28.99 14.34 29.98 14 31 C13.32880451 29.5437455 12.66318193 28.08492133 12 26.625 C11.62875 25.81289063 11.2575 25.00078125 10.875 24.1640625 C10 22 10 22 10 20 C9.01 20 8.02 20 7 20 C7 19.34 7 18.68 7 18 C6.34 18 5.68 18 5 18 C4.89042969 17.40832031 4.78085937 16.81664062 4.66796875 16.20703125 C3.72462608 11.50565679 2.57168962 8.09132439 0 4 C0 2.68 0 1.36 0 0 Z " fill="#3EA767" transform="translate(407,290)"/>
<path d="M0 0 C1.31388752 0.26401995 2.62602339 0.53675364 3.9375 0.8125 C4.66839844 0.96332031 5.39929688 1.11414063 6.15234375 1.26953125 C8.56393784 1.88814318 10.83937904 2.62099842 13.1875 3.4375 C18.07564225 5.09527954 23.00608929 6.17935605 28.0625 7.1875 C28.92810547 7.36474609 29.79371094 7.54199219 30.68554688 7.72460938 C32.7893625 8.15467113 34.89454212 8.57805168 37 9 C37 9.33 37 9.66 37 10 C28.64586725 11.08966949 21.8747936 9.33589427 14 6.6875 C13.08001221 6.3793335 12.16002441 6.07116699 11.2121582 5.75366211 C6.94584604 4.25713116 3.54553513 2.86560406 0 0 Z " fill="#409E67" transform="translate(134,197)"/>
<path d="M0 0 C8.26097797 4.70802638 14.69303292 11.23862177 20.5 18.6875 C20.92112061 19.22165527 21.34224121 19.75581055 21.77612305 20.30615234 C24.34887171 23.71576849 25.86623542 26.89010341 27 31 C24 30 24 30 22.3125 27.0625 C21 24 21 24 21 22 C20.34 22 19.68 22 19 22 C18.67 20.68 18.34 19.36 18 18 C17.34 18 16.68 18 16 18 C16 17.34 16 16.68 16 16 C15.34 16 14.68 16 14 16 C13.7525 15.41605469 13.505 14.83210938 13.25 14.23046875 C11.81544436 11.67068353 10.23295714 10.20476699 8 8.3125 C6.948125 7.40951172 6.948125 7.40951172 5.875 6.48828125 C4.0649564 4.94673245 4.0649564 4.94673245 2 4 C2 3.34 2 2.68 2 2 C1.34 2 0.68 2 0 2 C0 1.34 0 0.68 0 0 Z " fill="#499D68" transform="translate(236,39)"/>
<path d="M0 0 C1.21995008 2.43990016 1.24896655 4.3132738 0.83984375 6.9921875 C-1.52955452 12.65670243 -8.20386276 16.44405385 -13 20 C-13.66 19.67 -14.32 19.34 -15 19 C-14.5875 18.55011719 -14.175 18.10023438 -13.75 17.63671875 C-8.73632841 12.05229437 -4.33307866 6.12258387 0 0 Z " fill="#3AB368" transform="translate(285,175)"/>
<path d="M0 0 C6.07703151 0.5821694 11.2777049 3.02992065 16.8125 5.4375 C17.77865234 5.84548828 18.74480469 6.25347656 19.74023438 6.67382812 C20.65740234 7.06892578 21.57457031 7.46402344 22.51953125 7.87109375 C23.35589111 8.23130615 24.19225098 8.59151855 25.05395508 8.96264648 C27 10 27 10 28 12 C25.79537387 11.51008308 23.80928281 10.91985298 21.72265625 10.04296875 C18.87162251 8.9508224 16.1095385 8.31929192 13.125 7.6875 C7.68112758 6.37693812 4.22508846 4.64894003 0 1 C0 0.67 0 0.34 0 0 Z " fill="#47A76C" transform="translate(239,230)"/>
<path d="M0 0 C3.24271506 0.5590888 4.93057424 1.4132178 7 4 C7 4.66 7 5.32 7 6 C7.61875 6.2475 8.2375 6.495 8.875 6.75 C11.35068687 8.20628639 11.95125002 9.37812506 13 12 C13.99 12 14.98 12 16 12 C17.66670026 15.52948291 18.13583456 17.28272326 17 21 C16.35933594 20.2265625 15.71867187 19.453125 15.05859375 18.65625 C14.18515031 17.60395539 13.31143367 16.55188751 12.4375 15.5 C11.98584473 14.95625732 11.53418945 14.41251465 11.06884766 13.85229492 C7.8420349 9.97977646 4.54901151 6.17551281 1.1796875 2.42578125 C0 1 0 1 0 0 Z " fill="#40A464" transform="translate(268,31)"/>
<path d="M0 0 C2.64465038 3.1254959 3.84414715 6.08788267 5 10 C5.66 10 6.32 10 7 10 C7.0825 10.5775 7.165 11.155 7.25 11.75 C8.2026631 14.60798931 9.86053074 15.92954588 12 18 C12 18.66 12 19.32 12 20 C12.99 20.33 13.98 20.66 15 21 C15.94921875 23.06640625 15.94921875 23.06640625 16.6875 25.5625 C16.93886719 26.38878906 17.19023438 27.21507812 17.44921875 28.06640625 C17.63097656 28.70449219 17.81273438 29.34257812 18 30 C9.91858335 22.65325759 4.16870511 13.03237824 0 3 C0 2.01 0 1.02 0 0 Z " fill="#47A46A" transform="translate(89,146)"/>
<path d="M0 0 C0 3 0 3 -1.75 4.82421875 C-2.4925 5.43910156 -3.235 6.05398437 -4 6.6875 C-4.7425 7.31011719 -5.485 7.93273437 -6.25 8.57421875 C-6.8275 9.04472656 -7.405 9.51523438 -8 10 C-4.43954823 11.18681726 -1.56191663 11.09689832 2.1875 11.0625 C3.45980469 11.05347656 4.73210937 11.04445312 6.04296875 11.03515625 C7.01878906 11.02355469 7.99460937 11.01195312 9 11 C9 11.33 9 11.66 9 12 C1.90961228 13.50974035 -4.75002578 14.28307925 -12 14 C-12.33 13.34 -12.66 12.68 -13 12 C-8.87675353 7.74790208 -4.48717034 3.86364295 0 0 Z " fill="#59A173" transform="translate(269,195)"/>
<path d="M0 0 C2.71994778 4.07992167 3.39064757 8.47052621 4.41210938 13.1953125 C5.30445314 17.04909993 6.01708023 19.39599166 9 22 C9.94193717 24.63440181 10.41457053 27.2529848 11 30 C10.34 30 9.68 30 9 30 C8.32845067 28.71086513 7.66291141 27.41859796 7 26.125 C6.62875 25.40570313 6.2575 24.68640625 5.875 23.9453125 C5 22 5 22 5 20 C4.34 20 3.68 20 3 20 C0.55833216 13.16914355 -0.41640288 7.2484945 0 0 Z " fill="#31AF61" transform="translate(85,126)"/>
<path d="M0 0 C0.33 0 0.66 0 1 0 C1.59210952 13.64044893 -0.07877288 27.01848546 -4.37109375 40.0078125 C-5.20007783 42.63378691 -5.64129316 45.27382804 -6 48 C-7.485 48.495 -7.485 48.495 -9 49 C-8.35969757 45.30926803 -7.35273762 41.8001224 -6.23535156 38.22753906 C-2.32017188 25.6296387 -0.83008983 13.15037051 0 0 Z " fill="#5AA675" transform="translate(305,107)"/>
<path d="M0 0 C-0.70125 0.40089844 -1.4025 0.80179687 -2.125 1.21484375 C-9.02983569 5.35211622 -13.9160638 9.81294557 -19 16 C-19.98645782 17.01336122 -20.98154325 18.01880387 -22 19 C-22 17.68 -22 16.36 -22 15 C-21.34 14.67 -20.68 14.34 -20 14 C-19.67 13.34 -19.34 12.68 -19 12 C-18 10 -18 10 -16 9 C-15.7525 8.4225 -15.505 7.845 -15.25 7.25 C-13.41216722 3.941901 -11.06491201 2.18080278 -8 0 C-2.8 -1.4 -2.8 -1.4 0 0 Z " fill="#42A066" transform="translate(159,72)"/>
<path d="M0 0 C0 1.66666667 0 3.33333333 0 5 C6.19668707 5.23731993 11.74590206 4.84181919 17.7734375 3.33984375 C20.17246807 2.97367593 21.71185773 3.25295812 24 4 C18.05171486 6.4874647 12.56971966 7.40575997 6.1875 7.8125 C5.44636963 7.865271 4.70523926 7.91804199 3.94165039 7.97241211 C0.09829655 8.16848822 -2.75348384 8.20694931 -6 6 C-4.02 4.02 -2.04 2.04 0 0 Z " fill="#30AA60" transform="translate(266,199)"/>
<path d="M0 0 C3.1275634 1.5637817 3.71795898 4.6408195 4.9375 7.75 C5.20256348 8.42087646 5.46762695 9.09175293 5.74072266 9.78295898 C8.87791942 17.96724398 11.23596074 26.1776901 11 35 C8.94024052 31.91036078 8.62484175 30.45549909 8.125 26.875 C7.34516893 22.21443481 6.05149046 18.37937893 4.01953125 14.1328125 C1.78548862 9.45929803 0 5.25192697 0 0 Z " fill="#529E70" transform="translate(263,70)"/>
<path d="M0 0 C0.66 0 1.32 0 2 0 C2.20517449 14.68137482 1.58125915 29.33248176 1 44 C0.67 44 0.34 44 0 44 C-0.02468084 38.90967159 -0.04285082 33.81937785 -0.05493164 28.72900391 C-0.05996682 26.99657586 -0.06679532 25.26415208 -0.07543945 23.53173828 C-0.08754065 21.04458567 -0.09323638 18.55748913 -0.09765625 16.0703125 C-0.10281754 15.29317902 -0.10797882 14.51604553 -0.11329651 13.71536255 C-0.11387171 8.22774341 -0.11387171 8.22774341 1 6 C0.34 6 -0.32 6 -1 6 C-1 5.01 -1 4.02 -1 3 C-0.34 3 0.32 3 1 3 C0.67 2.01 0.34 1.02 0 0 Z " fill="#2CB962" transform="translate(82,352)"/>
<path d="M0 0 C2 2 2 2 2 5 C2.66 5 3.32 5 4 5 C4.06058594 5.92683594 4.12117188 6.85367187 4.18359375 7.80859375 C4.26738281 9.00613281 4.35117187 10.20367187 4.4375 11.4375 C4.51871094 12.63246094 4.59992188 13.82742188 4.68359375 15.05859375 C4.67656114 17.88570244 4.67656114 17.88570244 6 19 C7.3111262 24.6177451 8.31267229 30.21556273 8 36 C7.67 36 7.34 36 7 36 C7 34.35 7 32.7 7 31 C6.34 31 5.68 31 5 31 C3.40831321 24.63325284 2.4589153 18.27267163 1.69775391 11.76171875 C1.23674273 7.81847848 0.6871919 3.91030437 0 0 Z " fill="#2EAD5F" transform="translate(334,324)"/>
<path d="M0 0 C5.69474801 0.56819795 10.81659672 1.66596262 16.25 3.4375 C16.94351563 3.65470703 17.63703125 3.87191406 18.3515625 4.09570312 C21.70936814 5.16672734 24.91224073 6.28899937 28 8 C28 8.66 28 9.32 28 10 C26.1128125 9.4121875 26.1128125 9.4121875 24.1875 8.8125 C15.85812332 6.30524913 7.41785945 4.18656924 -1 2 C-0.67 1.34 -0.34 0.68 0 0 Z " fill="#359B5E" transform="translate(212,270)"/>
<path d="M0 0 C4.96940623 7.45410934 4.26926956 17.5368754 4.125 26.1875 C4.11597656 27.23486328 4.10695313 28.28222656 4.09765625 29.36132812 C4.07440075 31.90780514 4.04172569 34.45377031 4 37 C3.67 37 3.34 37 3 37 C2.67 28.42 2.34 19.84 2 11 C1.34 11 0.68 11 0 11 C-1.16461426 7.50615721 -1.13568319 4.66344611 -1 1 C-0.67 0.67 -0.34 0.34 0 0 Z " fill="#4D9F6E" transform="translate(349,89)"/>
<path d="M0 0 C10.93254585 -0.37059477 21.24483069 0.8073259 31 6 C27.66991025 7.11002992 26.34016824 6.68516272 23 6 C22.01 6.495 22.01 6.495 21 7 C19.65022151 6.36729133 18.31647119 5.69937532 17 5 C16.34 5 15.68 5 15 5 C15 4.34 15 3.68 15 3 C7.575 2.01 7.575 2.01 0 1 C0 0.67 0 0.34 0 0 Z " fill="#2BB762" transform="translate(268,23)"/>
<path d="M0 0 C0.66 0.33 1.32 0.66 2 1 C1.67 1.33 1.34 1.66 1 2 C1.04125 2.928125 1.0825 3.85625 1.125 4.8125 C0.98534905 8.37359912 0.48257486 9.51742514 -2 12 C-2.99 12.33 -3.98 12.66 -5 13 C-5.73323796 15.01508358 -5.73323796 15.01508358 -6 17 C-6.66 16.67 -7.32 16.34 -8 16 C-6.78820929 10.24399413 -5.22365022 5.9362144 -2 1 C-1.34 0.67 -0.68 0.34 0 0 Z " fill="#3CAF66" transform="translate(58,296)"/>
<path d="M0 0 C4.10403363 -0.08694042 8.20783129 -0.14037149 12.3125 -0.1875 C13.47974609 -0.21263672 14.64699219 -0.23777344 15.84960938 -0.26367188 C16.96787109 -0.27333984 18.08613281 -0.28300781 19.23828125 -0.29296875 C20.26993408 -0.3086792 21.30158691 -0.32438965 22.36450195 -0.34057617 C25 0 25 0 26.86010742 1.51831055 C27.23627197 2.00726807 27.61243652 2.49622559 28 3 C26.7625 2.835 25.525 2.67 24.25 2.5 C13.59416379 1.3678174 4.36051001 2.192636 -6 5 C-6 4.34 -6 3.68 -6 3 C-4.02 2.67 -2.04 2.34 0 2 C0 1.34 0 0.68 0 0 Z " fill="#429662" transform="translate(166,66)"/>
<path d="M0 0 C1.45606519 4.52092968 0.27032841 7.51648796 -1 12 C-1.66 12 -2.32 12 -3 12 C-3.64730804 14.56213554 -4.29289288 17.12468485 -4.9375 19.6875 C-5.11990234 20.40873047 -5.30230469 21.12996094 -5.49023438 21.87304688 C-6.41825907 25.56827248 -7.29798461 29.25345469 -8 33 C-8.33 33 -8.66 33 -9 33 C-9.47982432 26.54902859 -7.75908916 21.42158596 -5.625 15.375 C-5.30789062 14.446875 -4.99078125 13.51875 -4.6640625 12.5625 C-3.20860441 8.32954271 -1.68376778 4.14813289 0 0 Z " fill="#5AA879" transform="translate(50,308)"/>
<path d="M0 0 C0.98484375 0.11085938 1.9696875 0.22171875 2.984375 0.3359375 C3.73203125 0.43132813 4.4796875 0.52671875 5.25 0.625 C5.25 0.955 5.25 1.285 5.25 1.625 C-1.185 2.12 -1.185 2.12 -7.75 2.625 C-8.08 3.615 -8.41 4.605 -8.75 5.625 C-10.4 5.955 -12.05 6.285 -13.75 6.625 C-13.75 7.285 -13.75 7.945 -13.75 8.625 C-15.73 8.955 -17.71 9.285 -19.75 9.625 C-19.75 10.285 -19.75 10.945 -19.75 11.625 C-20.41 11.295 -21.07 10.965 -21.75 10.625 C-19.19325365 7.64212925 -16.22561059 6.3628053 -12.75 4.625 C-11.7305881 3.64479625 -10.72753644 2.64696992 -9.75 1.625 C-6.34576882 -0.57003594 -3.96509395 -0.47203499 0 0 Z " fill="#37B16B" transform="translate(148.75,26.375)"/>
<path d="M0 0 C1.32 0 2.64 0 4 0 C4 0.66 4 1.32 4 2 C11.59 2 19.18 2 27 2 C23.7594464 5.2405536 20.05423984 5.9632575 15.59765625 6.04296875 C9.54055699 5.64165093 5.24698685 4.01215912 0 1 C0 0.67 0 0.34 0 0 Z " fill="#469A64" transform="translate(392,413)"/>
<path d="M0 0 C0.33 0 0.66 0 1 0 C1.27990605 7.89957062 0.51537186 15.2472493 -1 23 C-1.66 23 -2.32 23 -3 23 C-3 25.31 -3 27.62 -3 30 C-3.99 30.33 -4.98 30.66 -6 31 C-5.5978125 29.205625 -5.5978125 29.205625 -5.1875 27.375 C-4.79125875 25.5834235 -4.39548576 23.79174342 -4 22 C-3.62101562 20.30037109 -3.62101562 20.30037109 -3.234375 18.56640625 C-1.87704695 12.38524074 -0.6299162 6.29916196 0 0 Z " fill="#34AF63" transform="translate(305,121)"/>
<path d="M0 0 C0.80824219 0.11085938 1.61648437 0.22171875 2.44921875 0.3359375 C3.37154297 0.47902344 3.37154297 0.47902344 4.3125 0.625 C3.9825 1.285 3.6525 1.945 3.3125 2.625 C0.82331123 3.23921541 -1.60482252 3.74769063 -4.125 4.1875 C-9.04495373 4.95166155 -9.04495373 4.95166155 -13.6875 6.625 C-15.68710012 6.664992 -17.68797242 6.66846799 -19.6875 6.625 C-19.6875 5.965 -19.6875 5.305 -19.6875 4.625 C-18.85605469 4.43164062 -18.02460938 4.23828125 -17.16796875 4.0390625 C-16.08128906 3.77867187 -14.99460938 3.51828125 -13.875 3.25 C-12.79605469 2.99476563 -11.71710938 2.73953125 -10.60546875 2.4765625 C-1.41604478 -0.20522388 -1.41604478 -0.20522388 0 0 Z " fill="#29BB63" transform="translate(173.6875,266.375)"/>
<path d="M0 0 C1.1914033 3.95134476 0.76708665 6.21338575 -1 10 C-3.125 10.875 -3.125 10.875 -5 11 C-5.12375 11.61875 -5.2475 12.2375 -5.375 12.875 C-6 15 -6 15 -8 17 C-7.86234424 9.42893341 -4.9442784 5.57683621 0 0 Z " fill="#3DAF69" transform="translate(104,55)"/>
<path d="M0 0 C-0.125 1.6875 -0.125 1.6875 -1 4 C-2.97956942 5.69088222 -4.97945196 7.35830472 -7 9 C-7.33 9.99 -7.66 10.98 -8 12 C-9.62332967 13.38576923 -11.28724465 14.72641268 -13 16 C-13.66 15.67 -14.32 15.34 -15 15 C-14.566875 14.608125 -14.13375 14.21625 -13.6875 13.8125 C-11.90812715 12.04683013 -11.90812715 12.04683013 -10.75 9.75 C-8.50232323 6.2179365 -4.52718917 0 0 0 Z " fill="#40AB68" transform="translate(88,260)"/>
<path d="M0 0 C0.99 0.33 1.98 0.66 3 1 C3.33 2.65 3.66 4.3 4 6 C5.65 6.33 7.3 6.66 9 7 C9 7.99 9 8.98 9 10 C9.99 10 10.98 10 12 10 C12 10.66 12 11.32 12 12 C9.9375 12.4375 9.9375 12.4375 7 12 C4.25084718 9.989256 2.010744 7.74915282 0 5 C-0.4375 2.0625 -0.4375 2.0625 0 0 Z " fill="#37AC67" transform="translate(40,403)"/>
<path d="M0 0 C3.3273153 6.17929984 4.28729888 11.47105551 4.125 18.375 C4.11597656 19.11105469 4.10695313 19.84710938 4.09765625 20.60546875 C4.07430144 22.4037888 4.03843836 24.20193911 4 26 C3.67 26 3.34 26 3 26 C-0.44419134 8.14350797 -0.44419134 8.14350797 0 0 Z " fill="#2FB562" transform="translate(268,85)"/>
<path d="M0 0 C4.31424022 -0.33790953 6.9071169 0.64000738 10.6875 2.6875 C12.11642578 3.43580078 12.11642578 3.43580078 13.57421875 4.19921875 C16.34200242 6.25388586 17.04919032 7.73610946 18 11 C14.14308372 9.14945936 10.45576705 7.00656926 6.75 4.875 C6.1003125 4.50246094 5.450625 4.12992187 4.78125 3.74609375 C3.18693776 2.83170879 1.5933921 1.91598744 0 1 C0 0.67 0 0.34 0 0 Z " fill="#3AA063" transform="translate(240,280)"/>
<path d="M0 0 C2.66666667 2 5.33333333 4 8 6 C8.7321875 6.515625 9.464375 7.03125 10.21875 7.5625 C12.33331909 9.26899435 12.63527265 10.35572672 13 13 C11.68 13 10.36 13 9 13 C8.67 12.01 8.34 11.02 8 10 C7.21625 9.54625 6.4325 9.0925 5.625 8.625 C2.6175227 6.76322834 1.53407795 5.14889685 0 2 C0 1.34 0 0.68 0 0 Z " fill="#39A763" transform="translate(371,252)"/>
<path d="M0 0 C1.23459961 0.3393457 1.23459961 0.3393457 2.49414062 0.68554688 C6.97023239 1.96601171 6.97023239 1.96601171 8.6875 2.6875 C9.0175 3.3475 9.3475 4.0075 9.6875 4.6875 C9.0584375 4.55472656 8.429375 4.42195313 7.78125 4.28515625 C-1.41280297 1.73989026 -1.41280297 1.73989026 -10.3125 2.6875 C-10.3125 1.6975 -10.3125 0.7075 -10.3125 -0.3125 C-11.9625 -0.3125 -13.6125 -0.3125 -15.3125 -0.3125 C-15.3125 -0.6425 -15.3125 -0.9725 -15.3125 -1.3125 C-9.65201906 -2.82135195 -5.44537768 -1.61134271 0 0 Z " fill="#28BA60" transform="translate(220.3125,269.3125)"/>
<path d="M0 0 C6.57769905 5.503789 12.80231602 11.13905715 18 18 C17.67 18.66 17.34 19.32 17 20 C12.43588128 17.91354573 10.81001667 15.3020097 8.40234375 11.1328125 C6.43621505 8.14254434 3.98288129 5.85424084 1.35546875 3.4453125 C0 2 0 2 0 0 Z " fill="#44A167" transform="translate(295,261)"/>
<path d="M0 0 C1.20609779 3.61829338 0.39020733 4.76580648 -1.18359375 8.08984375 C-2.17877216 10.26203284 -2.17877216 10.26203284 -2.875 13.8125 C-4 17 -4 17 -6.625 18.4375 C-7.40875 18.623125 -8.1925 18.80875 -9 19 C-7.39369175 14.75707468 -5.4231838 10.72974893 -3.375 6.6875 C-3.05015625 6.04232422 -2.7253125 5.39714844 -2.390625 4.73242188 C-1.59558044 3.15402459 -0.79804366 1.57688306 0 0 Z " fill="#59AA79" transform="translate(295,156)"/>
<path d="M0 0 C3.37674108 1.04358444 4.07807193 2.13513071 5.88671875 5.265625 C6.500088 6.58774706 7.09996159 7.91619821 7.6875 9.25 C7.99494141 9.90613281 8.30238281 10.56226562 8.61914062 11.23828125 C10.39397826 15.14525425 11.49885232 18.69681189 12 23 C8.66226291 19.35883227 8.02135098 15.71392758 7 11 C6.34 11 5.68 11 5 11 C3.15172566 7.3874638 1.44950455 3.7910119 0 0 Z " fill="#4AA16E" transform="translate(337,65)"/>
<path d="M0 0 C2.79872437 2.52788007 4.45773019 4.20411134 5 8 C6.65 8 8.3 8 10 8 C10.33 9.32 10.66 10.64 11 12 C13.97 12.495 13.97 12.495 17 13 C17 13.33 17 13.66 17 14 C11.25 14.125 11.25 14.125 9 13 C9 12.34 9 11.68 9 11 C7.68 11 6.36 11 5 11 C4.16151196 9.54462432 3.32936066 8.08559627 2.5 6.625 C1.80390625 5.40683594 1.80390625 5.40683594 1.09375 4.1640625 C0 2 0 2 0 0 Z " fill="#2FB465" transform="translate(387,402)"/>
<path d="M0 0 C0.33 0 0.66 0 1 0 C1.04898437 0.80824219 1.09796875 1.61648438 1.1484375 2.44921875 C1.22320312 3.51785156 1.29796875 4.58648437 1.375 5.6875 C1.44460938 6.74324219 1.51421875 7.79898437 1.5859375 8.88671875 C1.99166211 11.93730849 2.61875494 14.25731267 4 17 C4.680625 17.309375 5.36125 17.61875 6.0625 17.9375 C7.0215625 18.4634375 7.0215625 18.4634375 8 19 C8.75 22.125 8.75 22.125 9 25 C5.52094954 23.84031651 5.18861128 23.16252073 3.375 20.125 C2.94960938 19.42632812 2.52421875 18.72765625 2.0859375 18.0078125 C-0.07497981 14.0124474 -0.10676732 10.78349938 -0.0625 6.3125 C-0.05347656 5.13300781 -0.04445313 3.95351563 -0.03515625 2.73828125 C-0.02355469 1.83464844 -0.01195312 0.93101562 0 0 Z " fill="#4CA671" transform="translate(296,388)"/>
<path d="M0 0 C1.13732426 3.40401948 0.83989957 5.77456664 0.0625 9.25 C-0.13214844 10.14203125 -0.32679687 11.0340625 -0.52734375 11.953125 C-0.68332031 12.62859375 -0.83929688 13.3040625 -1 14 C-1.66 14 -2.32 14 -3 14 C-3 16.31 -3 18.62 -3 21 C-3.33 21 -3.66 21 -4 21 C-4.738041 6.21867882 -4.738041 6.21867882 0 0 Z " fill="#3FA465" transform="translate(88,341)"/>
<path d="M0 0 C0.33 0.66 0.66 1.32 1 2 C4.3 2 7.6 2 11 2 C10.67 2.66 10.34 3.32 10 4 C-0.89 4.495 -0.89 4.495 -12 5 C-8.0377276 3.0188638 -4.15252251 1.52259159 0 0 Z " fill="#29B55E" transform="translate(160,225)"/>
<path d="M0 0 C0.66 0.33 1.32 0.66 2 1 C-7.54196059 8.20471631 -16.62344399 7.63661557 -28 7 C-28 6.67 -28 6.34 -28 6 C-27.12859375 5.97421875 -26.2571875 5.9484375 -25.359375 5.921875 C-16.32882673 5.49184889 -8.14924974 4.07462487 0 0 Z " fill="#5BA778" transform="translate(202,155)"/>
<path d="M0 0 C0.99 0.33 1.98 0.66 3 1 C3 1.99 3 2.98 3 4 C3.59167969 4.06316406 4.18335938 4.12632812 4.79296875 4.19140625 C7.91999333 5.3370595 8.66758698 7.09257599 10.3125 9.9375 C10.84488281 10.83339844 11.37726563 11.72929687 11.92578125 12.65234375 C12.28027344 13.42707031 12.63476562 14.20179688 13 15 C12.67 15.66 12.34 16.32 12 17 C10.56147125 15.25084555 9.12421802 13.50064205 7.6875 11.75 C6.88699219 10.77546875 6.08648437 9.8009375 5.26171875 8.796875 C0 2.29015544 0 2.29015544 0 0 Z " fill="#419F66" transform="translate(352,294)"/>
<path d="M0 0 C3.33951147 1.19268267 5.22428591 3.01550649 7.1171875 6.00390625 C8.9291996 10.10097786 9.40353536 14.58930094 10 19 C7.33351629 15.66894651 5.3330319 12.12802152 3.3125 8.375 C2.68988281 7.22773437 2.06726563 6.08046875 1.42578125 4.8984375 C0 2 0 2 0 0 Z " fill="#4AA169" transform="translate(286,52)"/>
<path d="M0 0 C3.62666955 1.20888985 3.80287066 1.96453165 5.5 5.25 C6.86042634 7.8475512 8.19640153 10.29798854 9.8125 12.75 C11.18971162 15.3594536 11.24939822 17.09035405 11 20 C8.22229292 16.51253181 6.01518529 12.73866136 3.8125 8.875 C3.44447266 8.24207031 3.07644531 7.60914063 2.69726562 6.95703125 C0 2.24307166 0 2.24307166 0 0 Z " fill="#46A267" transform="translate(341,274)"/>
<path d="M0 0 C1.485 0.99 1.485 0.99 3 2 C3.29296875 4.1640625 3.29296875 4.1640625 3.1875 6.625 C3.16042969 7.44226563 3.13335937 8.25953125 3.10546875 9.1015625 C3.07066406 9.72804688 3.03585937 10.35453125 3 11 C3.66 11 4.32 11 5 11 C6.31626692 14.61973402 7 17.09567131 7 21 C6.34 21 5.68 21 5 21 C4.67 18.36 4.34 15.72 4 13 C3.34 13 2.68 13 2 13 C2 11.02 2 9.04 2 7 C1.34 7 0.68 7 0 7 C0 4.69 0 2.38 0 0 Z " fill="#25BB5F" transform="translate(329,313)"/>
<path d="M0 0 C-0.61875 0.45375 -1.2375 0.9075 -1.875 1.375 C-4.05919833 2.97108919 -4.05919833 2.97108919 -6 5 C-8.31979381 6.03101947 -10.65429915 7.02936517 -13 8 C-14.34013497 8.65288627 -15.67741528 9.31225595 -17 10 C-4.90384615 -2.45192308 -4.90384615 -2.45192308 0 0 Z " fill="#28B25D" transform="translate(107,250)"/>
<path d="M0 0 C3.72114571 2.31537955 6.61229661 4.28579473 9 8 C8.67 8.66 8.34 9.32 8 10 C4.12539202 8.74337038 2.0139745 7.60395437 0 4 C0 2.68 0 1.36 0 0 Z " fill="#39A766" transform="translate(329,54)"/>
<path d="M0 0 C7.79233819 1.66042346 13.65750619 4.16091213 20 9 C19.01 9.495 19.01 9.495 18 10 C15.828125 9.07421875 15.828125 9.07421875 13.25 7.6875 C10.30330769 6.141764 7.68071726 4.8973734 4.5 3.875 C2 3 2 3 0 0 Z " fill="#40A466" transform="translate(216,29)"/>
<path d="M0 0 C10.55808656 1.92710706 10.55808656 1.92710706 15 4 C15 4.33 15 4.66 15 5 C8.07 4.505 8.07 4.505 1 4 C0.67 2.68 0.34 1.36 0 0 Z " fill="#3FAC6B" transform="translate(320,228)"/>
<path d="M0 0 C2.97702066 2.45927793 3.47166482 4.2203714 4 8 C4.068089 10.78075485 4.09478336 13.53364739 4.0625 16.3125 C4.05798828 17.05306641 4.05347656 17.79363281 4.04882812 18.55664062 C4.03712175 20.37112899 4.01918898 22.18557534 4 24 C3.67 24 3.34 24 3 24 C2.92652344 22.46279297 2.92652344 22.46279297 2.8515625 20.89453125 C2.77648929 19.5338294 2.70094345 18.17315356 2.625 16.8125 C2.57859375 15.80219727 2.57859375 15.80219727 2.53125 14.77148438 C2.29647053 10.76066844 1.56059705 7.67311257 0 4 C0 2.68 0 1.36 0 0 Z " fill="#31AB60" transform="translate(381,344)"/>
<path d="M0 0 C2.96175123 0.61277612 4.38058783 1.25372522 7 3 C7 3.66 7 4.32 7 5 C7.5775 5.226875 8.155 5.45375 8.75 5.6875 C11.5663661 7.33038023 13.08077114 9.39533227 15 12 C14.01 12.495 14.01 12.495 13 13 C12.67 12.34 12.34 11.68 12 11 C11.01 10.67 10.02 10.34 9 10 C9 9.01 9 8.02 9 7 C8.443125 6.773125 7.88625 6.54625 7.3125 6.3125 C4.36753316 4.64103234 2.31843456 2.44723648 0 0 Z " fill="#2FB361" transform="translate(313,41)"/>
<path d="M0 0 C0.66 0 1.32 0 2 0 C0.75928315 5.79001199 -2.19738715 8.80580938 -7 12 C-7.66 12 -8.32 12 -9 12 C-8.67 11.01 -8.34 10.02 -8 9 C-7.01 9 -6.02 9 -5 9 C-4.731875 8.443125 -4.46375 7.88625 -4.1875 7.3125 C-2.89100504 4.78774666 -1.57523677 2.36285516 0 0 Z " fill="#449764" transform="translate(428,403)"/>
<path d="M0 0 C0 0.66 0 1.32 0 2 C-1.98 2.33 -3.96 2.66 -6 3 C-6.33 3.99 -6.66 4.98 -7 6 C-8.98 6 -10.96 6 -13 6 C-10.19546793 1.21579823 -5.45909908 -1.81969969 0 0 Z " fill="#2AB75D" transform="translate(166,66)"/>
<path d="M0 0 C3.0466145 1.01553817 5.31143836 2.20762558 8 4 C8 4.66 8 5.32 8 6 C5 7 5 7 1.875 5.75 C-1 4 -1 4 -2 1 C-1.34 0.67 -0.68 0.34 0 0 Z " fill="#29A85D" transform="translate(195,66)"/>
<path d="M0 0 C2.80500965 4.20751447 3.12829139 7.24985414 3.0625 12.25 C3.05347656 13.14203125 3.04445313 14.0340625 3.03515625 14.953125 C3.02355469 15.62859375 3.01195313 16.3040625 3 17 C0.19499035 12.79248553 -0.12829139 9.75014586 -0.0625 4.75 C-0.05347656 3.85796875 -0.04445313 2.9659375 -0.03515625 2.046875 C-0.02355469 1.37140625 -0.01195313 0.6959375 0 0 Z " fill="#44A86B" transform="translate(85,126)"/>
<path d="M0 0 C2.64 0 5.28 0 8 0 C6.68 0.33 5.36 0.66 4 1 C4 1.99 4 2.98 4 4 C4.99 4.33 5.98 4.66 7 5 C8.1875 7.0625 8.1875 7.0625 9 9 C5.55862568 7.4705003 2.7777867 5.54630448 0 3 C0 2.01 0 1.02 0 0 Z " fill="#4D9668" transform="translate(257,20)"/>
<path d="M0 0 C0.33 0 0.66 0 1 0 C0.9127395 2.25071906 0.80455885 4.50063388 0.6875 6.75 C0.62949219 8.00296875 0.57148437 9.2559375 0.51171875 10.546875 C-0.00455901 14.03076463 -0.6253256 15.47889796 -3 18 C-3.42765417 11.58518742 -1.85743168 6.11404596 0 0 Z " fill="#29B95F" transform="translate(89,327)"/>
<path d="M0 0 C2.48982535 2.27745789 4.10368997 4.62335238 5.75 7.5625 C6.19859375 8.34753906 6.6471875 9.13257813 7.109375 9.94140625 C7.40328125 10.62074219 7.6971875 11.30007813 8 12 C7.67 12.66 7.34 13.32 7 14 C6.67 13.01 6.34 12.02 6 11 C5.34 11 4.68 11 4 11 C0 4.5 0 4.5 0 0 Z " fill="#459D67" transform="translate(407,290)"/>
<path d="M0 0 C0.67417969 0.16371094 1.34835937 0.32742187 2.04296875 0.49609375 C5.51367906 1.0875358 8.79322124 1.09539046 12.3125 1.0625 C13.56675781 1.05347656 14.82101562 1.04445312 16.11328125 1.03515625 C17.06589844 1.02355469 18.01851563 1.01195312 19 1 C19 1.33 19 1.66 19 2 C14.71702469 3.05619003 10.57014354 3.11702092 6.1875 3.0625 C5.49462891 3.05798828 4.80175781 3.05347656 4.08789062 3.04882812 C2.39188932 3.03713156 0.69593297 3.01919924 -1 3 C-0.67 2.01 -0.34 1.02 0 0 Z " fill="#48A36B" transform="translate(259,205)"/>
<path d="M0 0 C5.63281599 -0.2396943 10.54538831 0.61470179 16 2 C16 2.33 16 2.66 16 3 C14.083412 3.02712153 12.1667127 3.04645097 10.25 3.0625 C8.64898437 3.07990234 8.64898437 3.07990234 7.015625 3.09765625 C4.46631499 3.01510087 2.42066409 2.74617558 0 2 C0 1.34 0 0.68 0 0 Z " fill="#329D5D" transform="translate(155,204)"/>
<path d="M0 0 C0.66 0.33 1.32 0.66 2 1 C1.44570312 1.53109375 0.89140625 2.0621875 0.3203125 2.609375 C-0.40414062 3.31578125 -1.12859375 4.0221875 -1.875 4.75 C-2.59429687 5.44609375 -3.31359375 6.1421875 -4.0546875 6.859375 C-5.86479679 8.85122217 -6.94848086 10.5427658 -8 13 C-8.99 13 -9.98 13 -11 13 C-9.46356148 9.31930113 -7.21849055 7.01224796 -4.375 4.25 C-3.55773437 3.45078125 -2.74046875 2.6515625 -1.8984375 1.828125 C-0.95871094 0.92320313 -0.95871094 0.92320313 0 0 Z " fill="#52A372" transform="translate(116,42)"/>
<path d="M0 0 C0.33 0 0.66 0 1 0 C1.602537 6.98942918 1.602537 6.98942918 -0.11328125 9.8671875 C-1.33745588 11.30861002 -2.66278229 12.66278229 -4 14 C-4.66 13.67 -5.32 13.34 -6 13 C-5.34 11.68 -4.68 10.36 -4 9 C-3.34 9 -2.68 9 -2 9 C-1.34 6.03 -0.68 3.06 0 0 Z " fill="#2EB664" transform="translate(81,397)"/>
<path d="M0 0 C0.66 0 1.32 0 2 0 C2.86604534 1.76505435 3.71748642 3.53728074 4.5625 5.3125 C5.27599609 6.79169922 5.27599609 6.79169922 6.00390625 8.30078125 C7 11 7 11 6 14 C5.67 13.01 5.34 12.02 5 11 C4.34 11 3.68 11 3 11 C2.51171875 9.01432292 2.0234375 7.02864583 1.53515625 5.04296875 C1.08989295 3.34316798 0.55566015 1.66698046 0 0 Z " fill="#29AF5E" transform="translate(415,310)"/>
<path d="M0 0 C1 3 1 3 -0.36328125 5.8828125 C-1.00652344 6.95273438 -1.64976562 8.02265625 -2.3125 9.125 C-2.94800781 10.20007813 -3.58351563 11.27515625 -4.23828125 12.3828125 C-6 15 -6 15 -8 16 C-6.8905928 12.51329166 -5.73662334 9.22515763 -4 6 C-3.34 6 -2.68 6 -2 6 C-1.34 4.02 -0.68 2.04 0 0 Z " fill="#479867" transform="translate(266,150)"/>
<path d="M0 0 C0.33 0 0.66 0 1 0 C0.54775239 5.91492272 -0.1582605 11.35199888 -2 17 C-2.98235258 13.81658676 -3.02156168 11.24321485 -2.6875 7.9375 C-2.60886719 7.08027344 -2.53023438 6.22304687 -2.44921875 5.33984375 C-2 3 -2 3 0 0 Z " fill="#499B6C" transform="translate(273,125)"/>
<path d="M0 0 C0.66 0.33 1.32 0.66 2 1 C-4.75 5 -4.75 5 -7 5 C-7.66 6.32 -8.32 7.64 -9 9 C-10.32 8.67 -11.64 8.34 -13 8 C-11.58531689 7.03874097 -10.1681636 6.08111675 -8.75 5.125 C-7.96109375 4.59132813 -7.1721875 4.05765625 -6.359375 3.5078125 C-4.26684277 2.17053197 -2.30109848 0.93420665 0 0 Z " fill="#4FA673" transform="translate(135,30)"/>
<path d="M0 0 C0.99 0.495 0.99 0.495 2 1 C2 1.99 2 2.98 2 4 C2.66 4 3.32 4 4 4 C4.96070434 6.88211302 5.10581883 8.69850044 5.0625 11.6875 C5.05347656 12.49574219 5.04445313 13.30398438 5.03515625 14.13671875 C5.02355469 14.75160156 5.01195312 15.36648438 5 16 C3.15209462 12.68983906 2.25458513 9.42826509 1.375 5.75 C0.98441406 4.13351562 0.98441406 4.13351562 0.5859375 2.484375 C0.39257812 1.66453125 0.19921875 0.8446875 0 0 Z " fill="#4AA46E" transform="translate(376,332)"/>
<path d="M0 0 C2.4375 0.6875 2.4375 0.6875 5 2 C6.16113293 5.30476295 6.09942995 8.51995162 6 12 C4.0549 9.08235 3.54723683 7.37462715 3 4 C2.34 4 1.68 4 1 4 C0.67 2.68 0.34 1.36 0 0 Z " fill="#32AA62" transform="translate(287,329)"/>
<path d="M0 0 C-2.57404971 3.86107457 -4.61020259 3.94319692 -9 5 C-9.66 4.34 -10.32 3.68 -11 3 C-7.14243493 0.84694043 -4.44870215 -0.39253254 0 0 Z " fill="#41AE6A" transform="translate(127,237)"/>
<path d="M0 0 C0.66 0 1.32 0 2 0 C0.4943193 3.83264178 -1.76831262 5.537762 -5 8 C-6.35147138 9.31494512 -7.69112542 10.64264858 -9 12 C-7.60090738 7.54834166 -5.39864635 5.14374788 -2 2 C-1.34 1.34 -0.68 0.68 0 0 Z " fill="#28B95C" transform="translate(274,192)"/>
<path d="M0 0 C2.73961599 1.369808 3.27531568 3.3370115 4.40234375 6.078125 C5.23605798 8.7590884 5.20345414 11.21946008 5 14 C1.34133706 9.67612562 0 5.65076098 0 0 Z " fill="#45A067" transform="translate(263,70)"/>
<path d="M0 0 C0.99 0 1.98 0 3 0 C3 0.66 3 1.32 3 2 C2.34 2 1.68 2 1 2 C1 3.32 1 4.64 1 6 C-0.98 6 -2.96 6 -5 6 C-5 5.34 -5 4.68 -5 4 C-4.34 4 -3.68 4 -3 4 C-2.67 3.34 -2.34 2.68 -2 2 C-1.34 1.34 -0.68 0.68 0 0 Z " fill="#2DB860" transform="translate(119,289)"/>
<path d="M0 0 C0.66 0.33 1.32 0.66 2 1 C-0.97 3.97 -3.94 6.94 -7 10 C-7.33 9.01 -7.66 8.02 -8 7 C-5.36 4.69 -2.72 2.38 0 0 Z " fill="#45A16A" transform="translate(328,175)"/>
<path d="M0 0 C-0.5 1.8125 -0.5 1.8125 -2 4 C-5.31738334 5.81213892 -8.46663529 7.28916393 -12.2578125 6.57421875 C-12.83273438 6.38472656 -13.40765625 6.19523438 -14 6 C-12.04414675 4.99515796 -10.08523763 3.99626195 -8.125 3 C-6.48917969 2.1646875 -6.48917969 2.1646875 -4.8203125 1.3125 C-2 0 -2 0 0 0 Z " fill="#30B162" transform="translate(208,154)"/>
<path d="M0 0 C0.33 0 0.66 0 1 0 C1.05394705 2.60444348 1.09364469 5.20776998 1.125 7.8125 C1.14175781 8.55048828 1.15851563 9.28847656 1.17578125 10.04882812 C1.21074628 13.91246426 1.19397555 15.70903668 -1 19 C-1 17.02 -1 15.04 -1 13 C-1.66 12.67 -2.32 12.34 -3 12 C-2.34 11.67 -1.68 11.34 -1 11 C-0.5316735 8.41394668 -0.5316735 8.41394668 -0.375 5.4375 C-0.30023438 4.42558594 -0.22546875 3.41367188 -0.1484375 2.37109375 C-0.09945312 1.58863281 -0.05046875 0.80617188 0 0 Z " fill="#27B865" transform="translate(228,110)"/>
<path d="M0 0 C6.47511312 1.3438914 6.47511312 1.3438914 9 4.5 C9.33 5.325 9.66 6.15 10 7 C9.67 7.66 9.34 8.32 9 9 C8.67 8.01 8.34 7.02 8 6 C7.030625 5.690625 6.06125 5.38125 5.0625 5.0625 C2 4 2 4 0.625 1.875 C0.41875 1.25625 0.2125 0.6375 0 0 Z " fill="#2AAE5D" transform="translate(264,26)"/>
<path d="M0 0 C5.66104589 0.49658297 9.87674471 1.54510684 15 4 C15 4.33 15 4.66 15 5 C9.54520815 4.43179252 5.08940744 3.05362055 0 1 C0 0.67 0 0.34 0 0 Z " fill="#2DB662" transform="translate(133,195)"/>
<path d="M0 0 C0.33 0.99 0.66 1.98 1 3 C1.66 3 2.32 3 3 3 C3.66 5.64 4.32 8.28 5 11 C2.4000702 8.48972295 0.00908773 6.0136316 -2 3 C-2 2.34 -2 1.68 -2 1 C-1.34 0.67 -0.68 0.34 0 0 Z " fill="#27B05E" transform="translate(218,81)"/>
<path d="M0 0 C2.5654594 2.5654594 2.54046087 4.47686668 3 8 C3.66 8 4.32 8 5 8 C5.33 9.65 5.66 11.3 6 13 C5.34 13 4.68 13 4 13 C-0.59225513 4.738041 -0.59225513 4.738041 0 0 Z " fill="#2EAF5F" transform="translate(294,61)"/>
<path d="M0 0 C0.33 1.32 0.66 2.64 1 4 C0.01 4 -0.98 4 -2 4 C-2.33 5.32 -2.66 6.64 -3 8 C-4.32 8.33 -5.64 8.66 -7 9 C-5.03681826 5.46627288 -2.95929119 2.75520215 0 0 Z " fill="#28AE5C" transform="translate(115,45)"/>
<path d="M0 0 C0.66 0 1.32 0 2 0 C4.84984298 4.65474354 6.7023817 8.70139194 8 14 C7.01 13.67 6.02 13.34 5 13 C4.12109375 11.07421875 4.12109375 11.07421875 3.4375 8.6875 C2.53460417 5.60133064 1.51484461 2.84114634 0 0 Z " fill="#28B85F" transform="translate(347,281)"/>
<path d="M0 0 C0.99 0.495 0.99 0.495 2 1 C2 1.66 2 2.32 2 3 C2.99 3.33 3.98 3.66 5 4 C6.6900877 7.80269732 7.19873962 10.05272168 6 14 C4.99515796 12.04414675 3.99626195 10.08523763 3 8.125 C2.1646875 6.48917969 2.1646875 6.48917969 1.3125 4.8203125 C0 2 0 2 0 0 Z " fill="#2DB362" transform="translate(258,66)"/>
<path d="M0 0 C2.31 0.66 4.62 1.32 7 2 C6.67 2.99 6.34 3.98 6 5 C4.35 4.67 2.7 4.34 1 4 C0.67 2.68 0.34 1.36 0 0 Z " fill="#25C163" transform="translate(295,225)"/>
<path d="M0 0 C1 2 1 2 0.22265625 4.6015625 C-0.16019531 5.59929687 -0.54304687 6.59703125 -0.9375 7.625 C-1.50791016 9.12933594 -1.50791016 9.12933594 -2.08984375 10.6640625 C-2.39019531 11.43492188 -2.69054687 12.20578125 -3 13 C-3.33 13 -3.66 13 -4 13 C-4.29380531 4.18584071 -4.29380531 4.18584071 -2 1 C-1.34 0.67 -0.68 0.34 0 0 Z " fill="#469B69" transform="translate(136,91)"/>
<path d="M0 0 C2 1.375 2 1.375 4 3 C4 3.66 4 4.32 4 5 C5.32 5.66 6.64 6.32 8 7 C7.67 7.66 7.34 8.32 7 9 C4.37098712 7.47793991 2.15634036 6.15634036 0 4 C0 2.68 0 1.36 0 0 Z " fill="#2BA85C" transform="translate(242,45)"/>
<path d="M0 0 C1.98 0 3.96 0 6 0 C3.11912454 2.40072955 0.43595166 4.47291037 -3 6 C-2.67 4.68 -2.34 3.36 -2 2 C-1.34 2 -0.68 2 0 2 C0 1.34 0 0.68 0 0 Z " fill="#40A062" transform="translate(131,282)"/>
<path d="M0 0 C2.475 0.99 2.475 0.99 5 2 C5 2.66 5 3.32 5 4 C6.65 4.33 8.3 4.66 10 5 C8.3125 5.6875 8.3125 5.6875 6 6 C3.3125 4.75 3.3125 4.75 1 3 C0.67 2.01 0.34 1.02 0 0 Z " fill="#2DB361" transform="translate(263,241)"/>
<path d="M0 0 C0.66 0.33 1.32 0.66 2 1 C2 1.66 2 2.32 2 3 C1.01 3.33 0.02 3.66 -1 4 C-1.33 4.66 -1.66 5.32 -2 6 C-3.65 6 -5.3 6 -7 6 C-4.87944386 2.8191658 -3.36949443 1.68474722 0 0 Z " fill="#27B762" transform="translate(421,409)"/>
<path d="M0 0 C-1.4562545 0.67119549 -2.91507867 1.33681807 -4.375 2 C-5.59316406 2.556875 -5.59316406 2.556875 -6.8359375 3.125 C-9 4 -9 4 -11 4 C-11 3.34 -11 2.68 -11 2 C-7.06425135 -0.62383243 -4.54354105 -1.51451368 0 0 Z " fill="#3FA663" transform="translate(148,278)"/>
<path d="M0 0 C-3.36423277 2.96052484 -6.69159287 3.92289822 -11 5 C-10 2 -10 2 -7.75 0.8125 C-5.00208853 0.00061706 -2.84552111 -0.16260121 0 0 Z " fill="#459D65" transform="translate(224,197)"/>
<path d="M0 0 C0.33 1.32 0.66 2.64 1 4 C-1.97 6.475 -1.97 6.475 -5 9 C-5.66 8.67 -6.32 8.34 -7 8 C-4.69 5.36 -2.38 2.72 0 0 Z " fill="#47A868" transform="translate(277,186)"/>
<path d="M0 0 C0.33 1.32 0.66 2.64 1 4 C-1.475 5.485 -1.475 5.485 -4 7 C-4.33 6.34 -4.66 5.68 -5 5 C-3.35 3.35 -1.7 1.7 0 0 Z " fill="#43AE69" transform="translate(291,168)"/>
<path d="M0 0 C0.33 0 0.66 0 1 0 C1.40178571 8.03571429 1.40178571 8.03571429 -2 12 C-1.85962479 10.18706911 -1.71255111 8.3746557 -1.5625 6.5625 C-1.48128906 5.55316406 -1.40007812 4.54382813 -1.31640625 3.50390625 C-1 1 -1 1 0 0 Z " fill="#3AA864" transform="translate(345,143)"/>
<path d="M0 0 C1 3 1 3 0.00390625 5.04296875 C-0.47175781 5.75066406 -0.94742188 6.45835938 -1.4375 7.1875 C-1.91058594 7.90292969 -2.38367188 8.61835937 -2.87109375 9.35546875 C-3.24363281 9.89816406 -3.61617188 10.44085938 -4 11 C-4.66 10.34 -5.32 9.68 -6 9 C-4.68 6.69 -3.36 4.38 -2 2 C-1.34 2 -0.68 2 0 2 C0 1.34 0 0.68 0 0 Z " fill="#25B45D" transform="translate(97,70)"/>
<path d="M0 0 C0.33 0.66 0.66 1.32 1 2 C1.66 2 2.32 2 3 2 C3.33 3.32 3.66 4.64 4 6 C4.66 6 5.32 6 6 6 C6.33 7.32 6.66 8.64 7 10 C4.0625 8.375 4.0625 8.375 1 6 C0.125 2.75 0.125 2.75 0 0 Z " fill="#35BA66" transform="translate(251,55)"/>
<path d="M0 0 C1.64936913 0.78427352 3.29441127 1.57765259 4.9375 2.375 C5.85402344 2.81585938 6.77054687 3.25671875 7.71484375 3.7109375 C10 5 10 5 11 7 C9.35 6.67 7.7 6.34 6 6 C6 5.34 6 4.68 6 4 C4.02 3.34 2.04 2.68 0 2 C0 1.34 0 0.68 0 0 Z " fill="#46A76B" transform="translate(300,30)"/>
<path d="M0 0 C0.6875 1.6875 0.6875 1.6875 1 4 C-0.4375 6.75 -0.4375 6.75 -2 9 C-3.26710868 6.46578263 -3.28056176 4.80561762 -3 2 C-2.01 1.34 -1.02 0.68 0 0 Z " fill="#24BC5F" transform="translate(427,400)"/>
<path d="M0 0 C1.485 0.99 1.485 0.99 3 2 C3.1875 5.625 3.1875 5.625 3 9 C2.34 9 1.68 9 1 9 C0.67 6.03 0.34 3.06 0 0 Z " fill="#2FB462" transform="translate(293,341)"/>
<path d="M0 0 C0.66 0.33 1.32 0.66 2 1 C2 2.32 2 3.64 2 5 C0.35 5 -1.3 5 -3 5 C-3 3.68 -3 2.36 -3 1 C-2.01 0.67 -1.02 0.34 0 0 Z " fill="#24BA56" transform="translate(307,232)"/>
<path d="M0 0 C4.12751449 0.60698743 7.3321148 2.03810791 11 4 C8 5 8 5 5.95703125 4.22265625 C5.24933594 3.83980469 4.54164063 3.45695312 3.8125 3.0625 C3.09707031 2.68222656 2.38164062 2.30195313 1.64453125 1.91015625 C1.10183594 1.60980469 0.55914062 1.30945313 0 1 C0 0.67 0 0.34 0 0 Z " fill="#499A6C" transform="translate(305,413)"/>
<path d="M0 0 C4.875 4.625 4.875 4.625 6 8 C5.34 8 4.68 8 4 8 C4 7.34 4 6.68 4 6 C2.68 5.34 1.36 4.68 0 4 C0 2.68 0 1.36 0 0 Z " fill="#44A167" transform="translate(313,281)"/>
<path d="M0 0 C0.99 0 1.98 0 3 0 C2.67 2.31 2.34 4.62 2 7 C0.68 7 -0.64 7 -2 7 C-2 6.34 -2 5.68 -2 5 C-1.34 5 -0.68 5 0 5 C0 3.35 0 1.7 0 0 Z " fill="#23B65A" transform="translate(257,160)"/>
<path d="M0 0 C0.33 0 0.66 0 1 0 C0.88590407 1.45922693 0.75834456 2.91740598 0.625 4.375 C0.55539062 5.18710938 0.48578125 5.99921875 0.4140625 6.8359375 C0 9 0 9 -2 11 C-1.85892253 9.54119891 -1.71197585 8.08296449 -1.5625 6.625 C-1.48128906 5.81289062 -1.40007812 5.00078125 -1.31640625 4.1640625 C-1 2 -1 2 0 0 Z " fill="#27BC64" transform="translate(268,135)"/>
<path d="M0 0 C0.66 0 1.32 0 2 0 C2.33 0.66 2.66 1.32 3 2 C4.65 2 6.3 2 8 2 C8 2.99 8 3.98 8 5 C2.46153846 4.38461538 2.46153846 4.38461538 0.125 2.4375 C-0.24625 1.963125 -0.6175 1.48875 -1 1 C-0.67 0.67 -0.34 0.34 0 0 Z " fill="#2BBB69" transform="translate(304,34)"/>
<path d="M0 0 C4.38889325 0.66498383 7.9811485 2.18757677 12 4 C8.64474971 5.11841676 8.02910146 4.91538821 4.875 3.6875 C4.17117188 3.42324219 3.46734375 3.15898437 2.7421875 2.88671875 C1 2 1 2 0 0 Z " fill="#50A36E" transform="translate(287,25)"/>
<path d="M0 0 C-2.71182212 2.60334924 -3.89133813 2.99456691 -7.75 3.1875 C-8.8225 3.125625 -9.895 3.06375 -11 3 C-7.63114177 -0.36885823 -4.54278442 -0.10095076 0 0 Z " fill="#4EA96F" transform="translate(155,24)"/>
<path d="M0 0 C1.45606519 4.52092968 0.27032841 7.51648796 -1 12 C-1.33 12 -1.66 12 -2 12 C-2.17835515 7.45194365 -1.99785435 4.1205746 0 0 Z " fill="#4FAA71" transform="translate(50,308)"/>
<path d="M0 0 C3.86107457 2.57404971 3.94319692 4.61020259 5 9 C2 8 2 8 0.8125 6.1875 C0 4 0 4 0 0 Z " fill="#2BB561" transform="translate(404,288)"/>
<path d="M0 0 C3.94727588 -0.17942163 6.5980513 -0.09350689 10 2 C10 2.66 10 3.32 10 4 C6.7 3.01 3.4 2.02 0 1 C0 0.67 0 0.34 0 0 Z " fill="#419B65" transform="translate(230,276)"/>
<path d="M0 0 C0.75 1.75 0.75 1.75 1 4 C-0.9375 6.25 -0.9375 6.25 -3 8 C-3.33 7.34 -3.66 6.68 -4 6 C-3.0625 3.875 -3.0625 3.875 -2 2 C-1.34 2 -0.68 2 0 2 C0 1.34 0 0.68 0 0 Z " fill="#31B665" transform="translate(299,153)"/>
<path d="M0 0 C0.99 0.33 1.98 0.66 3 1 C2.67 2.98 2.34 4.96 2 7 C1.01 6.67 0.02 6.34 -1 6 C-0.67 4.02 -0.34 2.04 0 0 Z " fill="#40B576" transform="translate(89,79)"/>
<path d="M0 0 C2.375 -0.1875 2.375 -0.1875 5 0 C5.66 0.99 6.32 1.98 7 3 C6.67 3.99 6.34 4.98 6 6 C3.97945196 4.35830472 1.97956942 2.69088222 0 1 C0 0.67 0 0.34 0 0 Z " fill="#48A06A" transform="translate(207,76)"/>
<path d="M0 0 C2.64 0.66 5.28 1.32 8 2 C8 2.66 8 3.32 8 4 C5.6875 4.25 5.6875 4.25 3 4 C1.1875 2 1.1875 2 0 0 Z " fill="#3FA267" transform="translate(44,411)"/>
<path d="M0 0 C0.598125 0.20625 1.19625 0.4125 1.8125 0.625 C-3.9375 4.625 -3.9375 4.625 -6.1875 4.625 C-5.03076352 1.15479057 -3.91311293 -0.67081936 0 0 Z " fill="#4B9A65" transform="translate(230.1875,192.375)"/>
<path d="M0 0 C0.33 0.99 0.66 1.98 1 3 C-0.98 4.32 -2.96 5.64 -5 7 C-4.60196439 4.11424181 -4.20990931 3.17810487 -1.9375 1.25 C-1.298125 0.8375 -0.65875 0.425 0 0 Z " fill="#399C60" transform="translate(245,179)"/>
<path d="M0 0 C1.60031344 3.20062687 0.03173691 5.72271806 -1 9 C-1.66 9 -2.32 9 -3 9 C-2.5020163 5.26512223 -2.12508244 3.18762365 0 0 Z " fill="#2CB665" transform="translate(265,147)"/>
<path d="M0 0 C0.66 0 1.32 0 2 0 C1.67 0.99 1.34 1.98 1 3 C0.34 3 -0.32 3 -1 3 C-1.33 4.65 -1.66 6.3 -2 8 C-2.66 8 -3.32 8 -4 8 C-2.25 2.25 -2.25 2.25 0 0 Z " fill="#28B25E" transform="translate(138,84)"/>
<path d="M0 0 C0.33 0.99 0.66 1.98 1 3 C-0.98 3.33 -2.96 3.66 -5 4 C-5 4.66 -5 5.32 -5 6 C-5.66 5.67 -6.32 5.34 -7 5 C-4.87219421 2.65941363 -2.88437779 1.29299694 0 0 Z " fill="#29AB5D" transform="translate(134,32)"/>
</svg>
