<?xml version="1.0" encoding="UTF-8"?>
<svg version="1.1" xmlns="http://www.w3.org/2000/svg" width="500" height="500">
<path d="M0 0 C0.59586914 0.27972656 1.19173828 0.55945313 1.80566406 0.84765625 C9.69282624 4.5526577 17.22417902 8.56607704 24.5 13.375 C25.15323242 13.80385498 25.80646484 14.23270996 26.47949219 14.67456055 C28.02689762 15.725664 29.51998024 16.85596174 31 18 C31 18.66 31 19.32 31 20 C31.58652344 20.26941406 32.17304688 20.53882813 32.77734375 20.81640625 C36.70501998 22.90794561 39.75096463 25.99163392 43 29 C43.82757813 29.75023437 44.65515625 30.50046875 45.5078125 31.2734375 C73.42849025 57.72889018 85.82537746 93.64887501 90 131 C90.09498779 131.77456543 90.18997559 132.54913086 90.2878418 133.34716797 C91.15003669 140.88690289 91.25619002 148.41692314 91.3125 156 C91.34150391 157.30195313 91.37050781 158.60390625 91.40039062 159.9453125 C91.46282379 169.45436399 90.01058072 176.30703593 84.875 184.3125 C79.07725657 189.73212973 73.41668649 192.29186093 65.4375 192.5625 C56.7986766 192.19662042 50.02627235 189.16641821 44 183 C39.29928161 175.76348123 39.41891574 169.15477263 39.375 160.6875 C39.32717628 157.9893192 39.26339507 155.29158542 39.19921875 152.59375 C39.15547119 150.63695312 39.15547119 150.63695312 39.11083984 148.640625 C38.13272487 116.51364154 28.3122983 86.82263755 4.62890625 64.21484375 C-4.62362103 55.77086378 -15.52562068 48.9684548 -27 44 C-27.84175781 43.63519531 -28.68351563 43.27039063 -29.55078125 42.89453125 C-32.3369601 41.79105222 -35.1349154 40.8787712 -38 40 C-39.13050781 39.62617188 -40.26101562 39.25234375 -41.42578125 38.8671875 C-66.6413988 31.45139202 -99.47370486 33.58776345 -123 45 C-124.26384229 45.57137679 -125.52819844 46.14161786 -126.79296875 46.7109375 C-144.05284344 54.68456624 -158.79432489 66.84860792 -169 83 C-169.66 84.02738281 -170.32 85.05476563 -171 86.11328125 C-185.05471629 109.19176425 -187.06387722 134.81165616 -187.4296875 161.26757812 C-187.67695592 171.41073466 -188.84193243 178.65875349 -196 186.234375 C-202.15316944 191.6664699 -208.71748221 192.72792118 -216.78125 192.4453125 C-224.52079558 191.37455013 -230.09444932 187.75073663 -234.84375 181.6484375 C-239.033232 175.67559492 -239.15367273 170.36497466 -239.1328125 163.21484375 C-239.13376923 162.47730362 -239.13472595 161.73976349 -239.13571167 160.97987366 C-239.13638948 159.42253534 -239.13456311 157.86519415 -239.13037109 156.30786133 C-239.12507103 153.96884506 -239.13030171 151.63002556 -239.13671875 149.29101562 C-239.16042563 110.91772936 -229.31746814 75.70518082 -206 45 C-205.30132812 44.05382812 -204.60265625 43.10765625 -203.8828125 42.1328125 C-200.43692336 37.54305974 -200.43692336 37.54305974 -199 36 C-198.34 36 -197.68 36 -197 36 C-196.773125 35.443125 -196.54625 34.88625 -196.3125 34.3125 C-194.62449964 31.33840412 -192.53323483 29.27991135 -190 27 C-189.34 27 -188.68 27 -188 27 C-188 26.34 -188 25.68 -188 25 C-184.53846154 22 -184.53846154 22 -182 22 C-182 21.34 -182 20.68 -182 20 C-179.7669213 18.22585747 -177.54199778 16.60056339 -175.1875 15 C-174.47335938 14.51378174 -173.75921875 14.02756348 -173.0234375 13.52661133 C-123.65720268 -19.36822541 -53.9193838 -26.07688083 0 0 Z " fill="#DB302E" transform="translate(277,271)"/>
<path d="M0 0 C0.75410156 0.53109375 1.50820312 1.0621875 2.28515625 1.609375 C24.22717609 17.86272303 37.56243379 41.29699993 42.54199219 67.89501953 C46.57592447 95.24232807 39.92122659 121.59096679 24 144 C23.43925781 144.80566406 22.87851562 145.61132812 22.30078125 146.44140625 C19.3766411 150.51254569 19.3766411 150.51254569 18 152 C17.34 152 16.68 152 16 152 C16 152.66 16 153.32 16 154 C15.34 154 14.68 154 14 154 C13.76925781 154.57234375 13.53851563 155.1446875 13.30078125 155.734375 C6.35012767 167.84061848 -14.14900958 177.78981092 -27.11425781 181.62548828 C-46.20892537 186.7221226 -64.7393512 187.70318168 -84 183 C-85.09570312 182.73316406 -86.19140625 182.46632812 -87.3203125 182.19140625 C-105.45003333 177.18011978 -119.90988943 167.19937382 -133.1875 154.1875 C-134.01737427 153.37889526 -134.01737427 153.37889526 -134.86401367 152.55395508 C-137.80399876 149.5770181 -139.78643846 147.02783308 -141 143 C-141.66 143 -142.32 143 -143 143 C-158.36149926 117.3292279 -165.72797638 90.03343562 -159.09375 60.109375 C-154.12127402 40.39028132 -143.92813296 22.83749311 -129 9 C-128.01 8.67 -127.02 8.34 -126 8 C-126 7.34 -126 6.68 -126 6 C-90.59703455 -24.28083428 -38.00826371 -27.00107054 0 0 Z M-98.3125 49.375 C-106.73524299 60.13468903 -110.22076802 70.10199327 -110.3125 83.6875 C-110.31813965 84.48341553 -110.3237793 85.27933105 -110.32958984 86.09936523 C-110.15258732 100.53707084 -103.79393541 111.69377838 -94.171875 122.015625 C-92.24423178 124.2248404 -92.24423178 124.2248404 -90 124 C-90 124.66 -90 125.32 -90 126 C-87.98407347 127.1337692 -85.96200253 128.25661641 -83.9375 129.375 C-82.81214844 130.00148438 -81.68679687 130.62796875 -80.52734375 131.2734375 C-73.14496028 134.88696296 -66.63680983 135.33846241 -58.5625 135.3125 C-57.56412109 135.32861328 -56.56574219 135.34472656 -55.53710938 135.36132812 C-42.47705895 135.36991461 -31.23781429 129.42119738 -21.875 120.375 C-18.96598188 117.4233589 -17.33752449 114.92984 -16 111 C-15.34 111 -14.68 111 -14 111 C-7.33980085 95.97642101 -4.00558398 81.98510938 -10 66 C-15.45627076 52.56917967 -24.48138546 42.02930841 -37.6796875 35.71875 C-44.64518841 32.8250701 -50.7612086 31.81914142 -58.3125 31.8125 C-59.03373047 31.80025391 -59.75496094 31.78800781 -60.49804688 31.77539062 C-74.95767867 31.73648579 -88.65849633 38.68483364 -98.3125 49.375 Z " fill="#DA2F2D" transform="translate(249,55)"/>
<path d="M0 0 C10.70591659 -0.41531573 20.55716904 0.57336166 31 3 C31.7532959 3.17160645 32.5065918 3.34321289 33.28271484 3.52001953 C55.67226442 8.71684716 75.80510743 17.86111174 94 32 C94.76957031 32.56589844 95.53914063 33.13179688 96.33203125 33.71484375 C108.13287261 42.65843331 120.48718713 54.09970949 128 67 C128 67.66 128 68.32 128 69 C128.66 69 129.32 69 130 69 C132.6589683 72.79441963 134.79178996 76.93038556 137 81 C137.50055908 81.91507324 137.50055908 81.91507324 138.01123047 82.84863281 C152.34414895 109.33801508 157.15242287 137.89560339 157.24023438 167.80639648 C157.25008037 169.82901071 157.2813302 171.85066268 157.3125 173.87304688 C157.35405501 184.40204819 156.46995915 192.47276138 149 200.26953125 C142.79334361 205.63974371 136.29810297 206.72293515 128.21875 206.44921875 C121.31277414 205.4853993 114.91343993 202.0616557 110.28309631 196.79469299 C106.05641369 190.88274577 105.54566839 183.60074964 105.41015625 176.56640625 C105.34711751 174.76366794 105.28396262 172.9609337 105.22070312 171.15820312 C105.1391909 168.37486462 105.06324709 165.59146708 104.99145508 162.80786133 C104.21499054 134.65159874 97.5203961 107.0713461 77.29296875 86.2421875 C72.74652062 81.50074499 70.00521137 76.30364627 67.19824219 70.42993164 C64.68287852 65.22013839 61.88333669 60.27733253 58.8125 55.375 C58.40862061 54.72466797 58.00474121 54.07433594 57.58862305 53.40429688 C55.62573285 50.31247392 53.588574 47.44253892 51.19921875 44.6640625 C49 42 49 42 49 40 C48.34 40 47.68 40 47 40 C45.66015625 38.63671875 45.66015625 38.63671875 44.0625 36.6875 C33.22686356 24.01607391 21.19281254 14.23035733 6.8125 5.82421875 C4.15655966 4.10154633 2.13400971 2.32381346 0 0 Z " fill="#DB302E" transform="translate(305,257)"/>
<path d="M0 0 C24.81216899 -0.89086245 45.67437382 5.73227869 65.46875 21.046875 C67.26295257 22.43129056 69.114388 23.74292534 71 25 C71 25.66 71 26.32 71 27 C71.66 27 72.32 27 73 27 C73 27.66 73 28.32 73 29 C73.66 29 74.32 29 75 29 C75 29.66 75 30.32 75 31 C75.66 31 76.32 31 77 31 C81 35.47058824 81 35.47058824 81 38 C81.66 38 82.32 38 83 38 C84.55577656 40.30663397 85.98238723 42.59714905 87.375 45 C87.78202148 45.69480469 88.18904297 46.38960937 88.60839844 47.10546875 C102.11345763 70.30674691 107.78828939 97.70714861 101.4375 124.3125 C96.90030438 141.28559346 88.11922918 157.27011198 76 170 C75.01 170.33 74.02 170.66 73 171 C72.73445313 171.57234375 72.46890625 172.1446875 72.1953125 172.734375 C65.0565146 186.26542984 43.0823977 193.79121781 29.37890625 198.03515625 C28.26386719 198.35355469 27.14882813 198.67195312 26 199 C24.71416016 199.36931641 24.71416016 199.36931641 23.40234375 199.74609375 C15.73056993 201.60320093 7.83710924 201.17502229 0 201 C0.99 199.02 0.99 199.02 2 197 C2.66 197 3.32 197 4 197 C4 196.34 4 195.68 4 195 C5.57421875 193.484375 5.57421875 193.484375 7.6875 191.75 C10.35349133 189.49924272 12.71010091 187.29950455 14.875 184.5625 C15.57625 183.716875 16.2775 182.87125 17 182 C17.66 182 18.32 182 19 182 C19.226875 181.484375 19.45375 180.96875 19.6875 180.4375 C21.48217618 177.10452995 23.49965015 173.85296329 26 171 C26.66 171 27.32 171 28 171 C28.23074219 170.3503125 28.46148437 169.700625 28.69921875 169.03125 C30.42909366 165.00007004 32.62800369 161.29898499 34.8125 157.5 C38.95322996 150.1690174 42.33831579 143.0069595 45 135 C45.28230469 134.21238281 45.56460938 133.42476562 45.85546875 132.61328125 C54.57559207 106.54144047 52.18463532 76.8590202 40.18359375 52.171875 C35.5700928 43.07901317 30.25815095 34.16635798 23.765625 26.2890625 C22 24 22 24 22 22 C21.34 22 20.68 22 20 22 C18.66015625 20.6015625 18.66015625 20.6015625 17.0625 18.625 C12.43760757 13.17074923 6.47308634 6.23654317 0 3 C0 2.01 0 1.02 0 0 Z " fill="#DA2F2D" transform="translate(274,38)"/>
<path d="M0 0 C16.12233292 -0.57886036 30.09251558 1.54179185 45 8 C43.02 8.99 43.02 8.99 41 10 C40.01 9.34 39.02 8.68 38 8 C35.9507906 7.54860541 35.9507906 7.54860541 33.8125 7.375 C32.554375 7.25125 31.29625 7.1275 30 7 C30 6.34 30 5.68 30 5 C29.030625 5.495 28.06125 5.99 27.0625 6.5 C24 8 24 8 23 8 C22.855625 8.61875 22.71125 9.2375 22.5625 9.875 C22 12 22 12 21 14 C20.34 13.67 19.68 13.34 19 13 C18.67 13.33 18.34 13.66 18 14 C19.2375 15.423125 19.2375 15.423125 20.5 16.875 C23 19.75 23 19.75 23 22 C23.99 21.67 24.98 21.34 26 21 C26 21.99 26 22.98 26 24 C25.34 24.66 24.68 25.32 24 26 C23.34 24.68 22.68 23.36 22 22 C21.34 22 20.68 22 20 22 C18.66015625 20.6015625 18.66015625 20.6015625 17.0625 18.625 C12.43760757 13.17074923 6.47308634 6.23654317 0 3 C0 2.01 0 1.02 0 0 Z " fill="#D43732" transform="translate(274,38)"/>
<path d="M0 0 C10.70591659 -0.41531573 20.55716904 0.57336166 31 3 C31.7532959 3.17160645 32.5065918 3.34321289 33.28271484 3.52001953 C46.65367947 6.62354772 60.32668315 10.56333096 72 18 C71.34 18.66 70.68 19.32 70 20 C67.69 19.34 65.38 18.68 63 18 C63 17.34 63 16.68 63 16 C61.72382813 15.82791016 61.72382813 15.82791016 60.421875 15.65234375 C56.82116855 14.9659077 53.66460715 13.88821729 50.25 12.5625 C49.12078125 12.13066406 47.9915625 11.69882812 46.828125 11.25390625 C44 10 44 10 42 8 C38.90019593 7.28711195 35.72491666 7.06647437 32.5625 6.75 C31.69044922 6.646875 30.81839844 6.54375 29.91992188 6.4375 C29.08138672 6.34984375 28.24285156 6.2621875 27.37890625 6.171875 C26.6113501 6.0903418 25.84379395 6.00880859 25.05297852 5.92480469 C22.68436528 5.83207039 22.68436528 5.83207039 20 8 C20.66 8.66 21.32 9.32 22 10 C24 12 24 12 24.125 14.625 C24.08375 15.40875 24.0425 16.1925 24 17 C23.58492188 16.6596875 23.16984375 16.319375 22.7421875 15.96875 C17.69640949 11.99968612 12.39066453 8.83601773 6.74951172 5.8046875 C3.61754138 4.08645976 2.0229043 3.03435645 0 0 Z " fill="#CF4240" transform="translate(305,257)"/>
<path d="M0 0 C0.33 0 0.66 0 1 0 C1.07455448 5.40768471 1.12879227 10.81506548 1.16479492 16.22314453 C1.17981496 18.06011166 1.20023709 19.89704334 1.22631836 21.73388672 C1.26300202 24.38518054 1.27979438 27.03599732 1.29296875 29.6875 C1.30845261 30.49928711 1.32393646 31.31107422 1.33988953 32.14746094 C1.34233388 40.56384226 -1.17301083 47.06747813 -7 53.234375 C-13.28053528 58.77891006 -19.75833485 59.5801338 -27.95703125 59.33984375 C-31.87132155 58.90268938 -34.57776513 57.91008458 -38 56 C-38 55.67 -38 55.34 -38 55 C-36.88625 55.061875 -35.7725 55.12375 -34.625 55.1875 C-33.42875 55.125625 -32.2325 55.06375 -31 55 C-30.34 54.01 -29.68 53.02 -29 52 C-27.824375 52.495 -27.824375 52.495 -26.625 53 C-24.15667503 54.11866511 -24.15667503 54.11866511 -22 54 C-22 53.34 -22 52.68 -22 52 C-20.35 52 -18.7 52 -17 52 C-17 52.99 -17 53.98 -17 55 C-14.525 54.505 -14.525 54.505 -12 54 C-12 53.34 -12 52.68 -12 52 C-10.68 52 -9.36 52 -8 52 C-7.731875 51.195625 -7.46375 50.39125 -7.1875 49.5625 C-6.795625 48.716875 -6.40375 47.87125 -6 47 C-5.01 46.67 -4.02 46.34 -3 46 C-3.020625 44.865625 -3.04125 43.73125 -3.0625 42.5625 C-3 39 -3 39 -2 38 C-1.85223034 35.27463995 -1.76497632 32.57137709 -1.71875 29.84375 C-1.70034058 29.02628296 -1.68193115 28.20881592 -1.66296387 27.36657715 C-1.60402723 24.74446009 -1.55128563 22.12227723 -1.5 19.5 C-1.43256395 16.0519381 -1.35889576 12.60409538 -1.28125 9.15625 C-1.26767456 8.35521851 -1.25409912 7.55418701 -1.2401123 6.72888184 C-1.11280181 1.11280181 -1.11280181 1.11280181 0 0 Z " fill="#C54F4F" transform="translate(88,404)"/>
<path d="M0 0 C0.33 0 0.66 0 1 0 C3.06302797 13.62549505 4.32816218 27.15922581 4.4375 40.9375 C4.45941406 42.18547363 4.48132813 43.43344727 4.50390625 44.71923828 C4.4842047 53.84967354 2.80683712 60.62463626 -2.125 68.3125 C-7.92274343 73.73212973 -13.58331351 76.29186093 -21.5625 76.5625 C-27.41262042 76.34762591 -31.95502628 74.92008815 -37 72 C-33.24838997 70.93266296 -30.86610681 71.29707149 -27 72 C-25.06460497 72.22705752 -23.12679382 72.43408506 -21.1875 72.625 C-20.23230469 72.72039062 -19.27710938 72.81578125 -18.29296875 72.9140625 C-17.53628906 72.94242187 -16.77960938 72.97078125 -16 73 C-15.67 72.67 -15.34 72.34 -15 72 C-13.33382885 71.95936168 -11.66611905 71.957279 -10 72 C-10 71.34 -10 70.68 -10 70 C-8.68 70 -7.36 70 -6 70 C-5.505 68.515 -5.505 68.515 -5 67 C-4.34 67 -3.68 67 -3 67 C-2.855625 66.401875 -2.71125 65.80375 -2.5625 65.1875 C-2.1127561 63.43849596 -1.57107659 61.71322977 -1 60 C-0.34 60 0.32 60 1 60 C1.10582448 48.03694929 1.05367671 36.13073482 0.35791016 24.18554688 C-0.09432484 16.12041742 -0.09413851 8.07499251 0 0 Z " fill="#CE6A69" transform="translate(364,387)"/>
<path d="M0 0 C-0.99 0.66 -1.98 1.32 -3 2 C-3 1.34 -3 0.68 -3 0 C-5.97 0 -8.94 0 -12 0 C-12 -0.66 -12 -1.32 -12 -2 C-35.05196575 -3.87649154 -35.05196575 -3.87649154 -58 -2 C-58.33 -1.34 -58.66 -0.68 -59 0 C-60.32 -0.33 -61.64 -0.66 -63 -1 C-62.67 0.32 -62.34 1.64 -62 3 C-63.98 3.33 -65.96 3.66 -68 4 C-68 3.34 -68 2.68 -68 2 C-69.918125 2.433125 -69.918125 2.433125 -71.875 2.875 C-72.59429687 3.03742187 -73.31359375 3.19984375 -74.0546875 3.3671875 C-76.20719964 3.90474428 -76.20719964 3.90474428 -78 6 C-81.625 6.125 -81.625 6.125 -85 6 C-63.53182674 -11.22446459 -24.1469431 -10.32875023 0 0 Z M-62 0 C-59 1 -59 1 -59 1 Z " fill="#C95A57" transform="translate(227,43)"/>
<path d="M0 0 C1 3 1 3 -0.3359375 6.15234375 C-1.00189125 7.42136499 -1.68257121 8.68272844 -2.375 9.9375 C-2.73352051 10.59758057 -3.09204102 11.25766113 -3.46142578 11.93774414 C-7.03557882 18.34856328 -11.08784356 24.52732778 -16 30 C-16.66 30 -17.32 30 -18 30 C-18 30.66 -18 31.32 -18 32 C-18.66 32 -19.32 32 -20 32 C-20.226875 32.56976563 -20.45375 33.13953125 -20.6875 33.7265625 C-25.19175613 41.52857758 -35.30817705 46.74530401 -43 51 C-42.67 49.35 -42.34 47.7 -42 46 C-40.35 46 -38.7 46 -37 46 C-37 45.34 -37 44.68 -37 44 C-36.34 44 -35.68 44 -35 44 C-35 43.34 -35 42.68 -35 42 C-34.0409375 41.8453125 -34.0409375 41.8453125 -33.0625 41.6875 C-32.381875 41.460625 -31.70125 41.23375 -31 41 C-30.67 40.01 -30.34 39.02 -30 38 C-29.01 38 -28.02 38 -27 38 C-26.67 37.01 -26.34 36.02 -26 35 C-25.01 35 -24.02 35 -23 35 C-23 34.01 -23 33.02 -23 32 C-21.68 31.67 -20.36 31.34 -19 31 C-19 29.68 -19 28.36 -19 27 C-18.38125 26.95875 -17.7625 26.9175 -17.125 26.875 C-16.073125 26.441875 -16.073125 26.441875 -15 26 C-13.6954344 23.00384054 -13.6954344 23.00384054 -13 20 C-13.66 19.67 -14.32 19.34 -15 19 C-13.125 17.9375 -13.125 17.9375 -11 17 C-10.34 17.33 -9.68 17.66 -9 18 C-8.67 16.02 -8.34 14.04 -8 12 C-7.34 12 -6.68 12 -6 12 C-5.855625 11.4225 -5.71125 10.845 -5.5625 10.25 C-5.04166667 8.16666667 -4.52083333 6.08333333 -4 4 C-3.34 4 -2.68 4 -2 4 C-2 3.01 -2 2.02 -2 1 C-1.34 0.67 -0.68 0.34 0 0 Z " fill="#CB5554" transform="translate(283,177)"/>
<path d="M0 0 C1.8871875 0.0309375 1.8871875 0.0309375 3.8125 0.0625 C0.47871702 1.93623204 -2.77807044 2.78964331 -6.5 3.625 C-8.13388672 3.99818359 -8.13388672 3.99818359 -9.80078125 4.37890625 C-25.11967652 7.47095547 -40.04804323 6.57067757 -55.1875 3.0625 C-55.1875 2.7325 -55.1875 2.4025 -55.1875 2.0625 C-54.12426514 2.06773682 -53.06103027 2.07297363 -51.96557617 2.07836914 C-47.97160708 2.09664785 -43.97764158 2.1080145 -39.98364258 2.11743164 C-38.26423518 2.12242009 -36.54483194 2.12921324 -34.82543945 2.13793945 C-23.18343394 2.19548935 -11.33183522 -0.18576779 0 0 Z " fill="#CB5C59" transform="translate(220.1875,234.9375)"/>
<path d="M0 0 C13.14043583 14.60048425 16.36745692 36.32526349 16.125 55.125 C16.11494282 56.47655581 16.10582184 57.82811893 16.09765625 59.1796875 C16.07427319 62.45331558 16.04150061 65.72655994 16 69 C15.67 69 15.34 69 15 69 C14.98541748 68.44763672 14.97083496 67.89527344 14.95581055 67.32617188 C14.4340959 46.73002448 14.4340959 46.73002448 9 27 C8.51929317 25.01307842 8.03862016 23.02614858 7.55859375 21.0390625 C6.08583667 15.6629842 3.41886329 10.76652387 0.76953125 5.89453125 C0 4 0 4 0 0 Z " fill="#C65959" transform="translate(361,84)"/>
<path d="M0 0 C0.33 0 0.66 0 1 0 C3.37239852 10.72742132 3.18663282 21.97626829 3.18530273 32.91625977 C3.18752517 34.96065052 3.20588557 37.00452945 3.22460938 39.04882812 C3.22654297 40.36173828 3.22847656 41.67464844 3.23046875 43.02734375 C3.23457764 44.20031006 3.23868652 45.37327637 3.24291992 46.58178711 C2.97431067 50.36148371 2.15655666 53.4042748 1 57 C0.67 57 0.34 57 0 57 C0 38.19 0 19.38 0 0 Z " fill="#C6504F" transform="translate(459,392)"/>
<path d="M0 0 C-0.71285156 0.47308594 -1.42570312 0.94617188 -2.16015625 1.43359375 C-8.69430421 5.94505796 -13.60329914 10.38688008 -18 17 C-18.39832031 17.57363281 -18.79664063 18.14726563 -19.20703125 18.73828125 C-24.71308142 27.37886186 -25.40458692 37.0903437 -25.0625 47.0625 C-25.0027636 49.09480861 -24.9515323 51.12739096 -24.91015625 53.16015625 C-24.88058838 54.04324463 -24.85102051 54.92633301 -24.82055664 55.83618164 C-25 58 -25 58 -27 60 C-27.07505712 56.05315009 -27.12902215 52.10658573 -27.16479492 48.15917969 C-27.18701479 46.16847095 -27.22516595 44.17796032 -27.26367188 42.1875 C-27.32124246 34.58818336 -26.78825267 28.10632453 -24 21 C-23.34 21 -22.68 21 -22 21 C-21.855625 20.21625 -21.71125 19.4325 -21.5625 18.625 C-21 16 -21 16 -20 14 C-19.34 14 -18.68 14 -18 14 C-18 12.68 -18 11.36 -18 10 C-17.01 10 -16.02 10 -15 10 C-15.226875 9.401875 -15.45375 8.80375 -15.6875 8.1875 C-16 6 -16 6 -14.875 4.25 C-12.46145349 2.64096899 -10.84326464 2.76946503 -8 3 C-8 2.34 -8 1.68 -8 1 C-4.85571151 -0.9090323 -3.47925125 -1.04523725 0 0 Z " fill="#D88587" transform="translate(165,94)"/>
<path d="M0 0 C2.92992604 2.92992604 2.70060896 6.23092884 3.0625 10.1875 C3.14483887 11.03795898 3.22717773 11.88841797 3.31201172 12.76464844 C4.49181281 26.13261246 4.68143645 39.58925134 5 53 C6.32 53.66 7.64 54.32 9 55 C8.67 55.66 8.34 56.32 8 57 C8.99 57.33 9.98 57.66 11 58 C11 59.65 11 61.3 11 63 C5.32370007 59.08966005 3.53624267 55.66317154 2 49 C1.52204186 45.13638471 1.3767505 41.29209305 1.26953125 37.40234375 C1.229384 36.32747208 1.18923676 35.2526004 1.14787292 34.14515686 C1.02363393 30.74290907 0.91777854 27.34038189 0.8125 23.9375 C0.73103582 21.61779544 0.64836566 19.29813291 0.56445312 16.97851562 C0.36235276 11.31942158 0.17530436 5.65998413 0 0 Z " fill="#C56260" transform="translate(409,394)"/>
<path d="M0 0 C6.17839296 0.57615966 12.00540307 1.53310008 18 3.125 C18.81162598 3.33946777 19.62325195 3.55393555 20.45947266 3.77490234 C30.66218394 6.5873277 41.04099721 10.29252718 50 16 C49.34 16.66 48.68 17.32 48 18 C45.69 17.34 43.38 16.68 41 16 C41 15.34 41 14.68 41 14 C39.72382813 13.82791016 39.72382813 13.82791016 38.421875 13.65234375 C34.82116855 12.9659077 31.66460715 11.88821729 28.25 10.5625 C27.12078125 10.13066406 25.9915625 9.69882812 24.828125 9.25390625 C22 8 22 8 20 6 C18.17489972 5.42605701 18.17489972 5.42605701 16.0625 5.0625 C10.6361488 3.95778681 5.33018424 2.49444418 0 1 C0 0.67 0 0.34 0 0 Z " fill="#CE6363" transform="translate(327,259)"/>
<path d="M0 0 C2.80045623 3.14591933 3.35261589 5.067064 3.1875 9.25 C3.16042969 10.14203125 3.13335937 11.0340625 3.10546875 11.953125 C3.07066406 12.62859375 3.03585937 13.3040625 3 14 C3.66 14 4.32 14 5 14 C5.33 27.2 5.66 40.4 6 54 C5.01 54.495 5.01 54.495 4 55 C2.64447118 52.28894235 2.819904 50.0846779 2.75390625 47.05078125 C2.72224365 45.8198877 2.69058105 44.58899414 2.65795898 43.32080078 C2.64256073 42.66629944 2.62716248 42.0117981 2.61129761 41.33746338 C2.27778203 27.4975054 1.39400176 13.7776096 0 0 Z " fill="#C44D47" transform="translate(314,393)"/>
<path d="M0 0 C0.66 0.33 1.32 0.66 2 1 C0.35 2.98 -1.3 4.96 -3 7 C-2.34 7.33 -1.68 7.66 -1 8 C-5.69565217 10.86956522 -5.69565217 10.86956522 -8.1875 11.9375 C-10.49834277 13.29213197 -10.8720862 14.60318318 -12 17 C-13.31266518 18.35368596 -14.64567325 19.68799596 -16 21 C-16.66 21.99 -17.32 22.98 -18 24 C-18.66 24 -19.32 24 -20 24 C-20.3403125 24.928125 -20.3403125 24.928125 -20.6875 25.875 C-22.38277796 28.61973575 -24.02945954 28.93463654 -27 30 C-20.07432432 19.40371622 -20.07432432 19.40371622 -17 16 C-16.34 16 -15.68 16 -15 16 C-14.773125 15.443125 -14.54625 14.88625 -14.3125 14.3125 C-12.62449964 11.33840412 -10.53323483 9.27991135 -8 7 C-7.34 7 -6.68 7 -6 7 C-6 6.34 -6 5.68 -6 5 C-2.53846154 2 -2.53846154 2 0 2 C0 1.34 0 0.68 0 0 Z " fill="#D06260" transform="translate(95,291)"/>
<path d="M0 0 C34.717912 -0.96459255 34.717912 -0.96459255 51 6 C50.01 6.66 49.02 7.32 48 8 C48 7.34 48 6.68 48 6 C45.03 6 42.06 6 39 6 C39 5.34 39 4.68 39 4 C26.00865083 3.11379766 13.01013024 2.5318284 0 2 C0 1.34 0 0.68 0 0 Z " fill="#C7605F" transform="translate(176,37)"/>
<path d="M0 0 C0.33 0 0.66 0 1 0 C0.99777939 0.67572052 0.99555878 1.35144104 0.99327087 2.04763794 C0.97112697 9.08806835 0.95605534 16.12848884 0.94506836 23.16894531 C0.94004333 25.79557701 0.93322226 28.42220591 0.92456055 31.04882812 C0.91241493 34.82682993 0.90675333 38.60479471 0.90234375 42.3828125 C0.89718246 43.55490265 0.89202118 44.7269928 0.88670349 45.93460083 C0.88662796 47.035289 0.88655243 48.13597717 0.88647461 49.27001953 C0.884254 50.23376495 0.88203339 51.19751038 0.87974548 52.19046021 C1.00830034 55.1939231 1.44907999 58.04717242 2 61 C-0.26167378 59.22999443 -0.9527027 58.21111368 -1.58935547 55.36938477 C-2.04423506 51.63704632 -2.14376158 47.96779219 -2.1328125 44.21484375 C-2.13376923 43.47730362 -2.13472595 42.73976349 -2.13571167 41.97987366 C-2.13638948 40.42253534 -2.13456311 38.86519415 -2.13037109 37.30786133 C-2.12507103 34.96884506 -2.13030171 32.63002556 -2.13671875 30.29101562 C-2.14816061 7.60872629 -2.14816061 7.60872629 0 0 Z " fill="#C6625F" transform="translate(40,390)"/>
<path d="M0 0 C-0.33 0.99 -0.66 1.98 -1 3 C3.38082212 3.28570579 6.64029393 2.90391768 10.8125 1.5 C15.9599582 -0.18419139 20.62705495 -0.30865855 26 0 C15.06774274 6.12868968 2.18294808 6.58322624 -10 6 C-9.34 4.68 -8.68 3.36 -8 2 C-7.34 2 -6.68 2 -6 2 C-6 1.34 -6 0.68 -6 0 C-3.50907189 -1.24546405 -2.58919267 -0.7767578 0 0 Z " fill="#C95D5A" transform="translate(284,233)"/>
<path d="M0 0 C1.65 0 3.3 0 5 0 C3.29911475 6.42556652 -1.68861365 9.61316819 -7.125 12.875 C-13.39978466 15.21570619 -20.8269082 15.16562556 -27.0625 12.875 C-29.45357996 11.67946002 -31.74110189 10.42774599 -34 9 C-31.3333581 7.66667905 -29.83319697 8.32897967 -27 9 C-27 9.66 -27 10.32 -27 11 C-21.39 11.33 -15.78 11.66 -10 12 C-10 11.34 -10 10.68 -10 10 C-9.01 10 -8.02 10 -7 10 C-7 9.34 -7 8.68 -7 8 C-5.02 7.67 -3.04 7.34 -1 7 C-1.020625 6.21625 -1.04125 5.4325 -1.0625 4.625 C-1 2 -1 2 0 0 Z " fill="#CF6F6A" transform="translate(454,449)"/>
<path d="M0 0 C13.446005 -1.00218671 27.17945297 2.11710581 40 6 C40 6.33 40 6.66 40 7 C36.99943916 7.08166849 34.0011461 7.14081551 31 7.1875 C29.74123047 7.22520508 29.74123047 7.22520508 28.45703125 7.26367188 C22.56976939 7.33212841 18.39687754 6.3585478 13 4 C8.66456882 2.40739263 4.58872003 1.5506464 0 1 C0 0.67 0 0.34 0 0 Z " fill="#CB4845" transform="translate(216,257)"/>
<path d="M0 0 C3.9492568 0.55105909 7.34920174 1.38935371 11 3 C11.12375 4.8253125 11.12375 4.8253125 11.25 6.6875 C11.74788195 10.83895685 13.20929181 12.86045329 16 16 C16.35169068 17.32860925 16.68770276 18.66158328 17 20 C17.98020375 21.0194119 18.97803008 22.02246356 20 23 C20 23.66 20 24.32 20 25 C20.66 25 21.32 25 22 25 C21.34 26.32 20.68 27.64 20 29 C19.33613281 27.91460937 18.67226563 26.82921875 17.98828125 25.7109375 C17.09659913 24.26547386 16.20465825 22.82016982 15.3125 21.375 C14.87744141 20.66214844 14.44238281 19.94929688 13.99414062 19.21484375 C11.89305306 15.82197642 9.7759552 12.62811468 7.16796875 9.6015625 C5 7 5 7 5 5 C4.34 5 3.68 5 3 5 C1.375 2.5 1.375 2.5 0 0 Z " fill="#D14948" transform="translate(349,292)"/>
<path d="M0 0 C8.12470566 6.56891096 15.32025946 14.20556303 21 23 C21 23.66 21 24.32 21 25 C21.66 25 22.32 25 23 25 C22.67 25.66 22.34 26.32 22 27 C21.34 27 20.68 27 20 27 C20 26.34 20 25.68 20 25 C19.34 25 18.68 25 18 25 C18 24.34 18 23.68 18 23 C17.34 23 16.68 23 16 23 C15.773125 22.21625 15.54625 21.4325 15.3125 20.625 C13.66562962 17.33125925 12.35641647 17.20486745 9 16 C8.67 15.01 8.34 14.02 8 13 C7.484375 12.505 6.96875 12.01 6.4375 11.5 C5 10 5 10 5 7 C4.34 7 3.68 7 3 7 C3 6.01 3 5.02 3 4 C2.01 3.67 1.02 3.34 0 3 C0 2.01 0 1.02 0 0 Z " fill="#CE4E4D" transform="translate(412,301)"/>
<path d="M0 0 C0 0.66 0 1.32 0 2 C-3.7615584 5.64757179 -7.03533083 6.83184255 -12 8 C-12 8.66 -12 9.32 -12 10 C-13.32 10 -14.64 10 -16 10 C-16.33 11.65 -16.66 13.3 -17 15 C-18.1446875 14.938125 -18.1446875 14.938125 -19.3125 14.875 C-22.22718416 14.77919176 -22.22718416 14.77919176 -25 17 C-27.1875 16.625 -27.1875 16.625 -29 16 C-22.98309798 11.40231811 -16.67786254 7.60115424 -10 4.0625 C-9.245979 3.6610376 -8.49195801 3.2595752 -7.71508789 2.84594727 C-2.261335 0 -2.261335 0 0 0 Z " fill="#CD5755" transform="translate(130,271)"/>
<path d="M0 0 C1.85044922 0.00676758 1.85044922 0.00676758 3.73828125 0.01367188 C6.74224069 0.02531513 9.74609266 0.04166624 12.75 0.0625 C12.75 0.3925 12.75 0.7225 12.75 1.0625 C12.05849854 1.08755615 11.36699707 1.1126123 10.65454102 1.13842773 C7.54032134 1.25402161 4.42643211 1.37691242 1.3125 1.5 C-0.32041992 1.55897461 -0.32041992 1.55897461 -1.98632812 1.61914062 C-3.02080078 1.66103516 -4.05527344 1.70292969 -5.12109375 1.74609375 C-6.07943115 1.78275146 -7.03776855 1.81940918 -8.02514648 1.85717773 C-10.22138925 1.82084424 -10.22138925 1.82084424 -11.25 3.0625 C-12.85963895 3.29046818 -14.47801154 3.45744906 -16.09765625 3.59765625 C-17.09603516 3.68466797 -18.09441406 3.77167969 -19.12304688 3.86132812 C-20.17556641 3.94833984 -21.22808594 4.03535156 -22.3125 4.125 C-23.33794922 4.21587891 -24.36339844 4.30675781 -25.41992188 4.40039062 C-31.05315804 4.8797383 -36.5969714 5.16429523 -42.25 5.0625 C-39.11156207 3.29342768 -36.29909308 2.56766408 -32.75 2 C-31.8115625 1.84402344 -30.873125 1.68804687 -29.90625 1.52734375 C-19.92040367 0.25777568 -10.0604868 -0.07100235 0 0 Z " fill="#CF6E68" transform="translate(203.25,255.9375)"/>
<path d="M0 0 C0.78375 0.33 1.5675 0.66 2.375 1 C4.84332497 2.11866511 4.84332497 2.11866511 7 2 C7 1.34 7 0.68 7 0 C8.65 0 10.3 0 12 0 C12 0.99 12 1.98 12 3 C12.66 3.33 13.32 3.66 14 4 C13.01 4 12.02 4 11 4 C11 4.99 11 5.98 11 7 C-2.6332574 7.55353075 -2.6332574 7.55353075 -9 4 C-9 3.67 -9 3.34 -9 3 C-7.88625 3.061875 -6.7725 3.12375 -5.625 3.1875 C-4.42875 3.125625 -3.2325 3.06375 -2 3 C-1.34 2.01 -0.68 1.02 0 0 Z " fill="#D23630" transform="translate(59,456)"/>
<path d="M0 0 C2.475 0.495 2.475 0.495 5 1 C5.48828125 3.01822917 5.9765625 5.03645833 6.46484375 7.0546875 C6.94846992 9.0585657 6.94846992 9.0585657 8 11 C8.08559118 13.17824961 8.10713412 15.35915255 8.09765625 17.5390625 C8.09443359 18.84101563 8.09121094 20.14296875 8.08789062 21.484375 C8.07953466 22.86458399 8.07106971 24.24479232 8.0625 25.625 C8.05748501 27.01301926 8.0529221 28.40104022 8.04882812 29.7890625 C8.03700976 33.19275132 8.02053434 36.59635439 8 40 C5.47527733 36.212916 5.89752873 33.35637608 6.0625 29 C6.19948707 21.83126242 5.40838697 15.8020659 3 9 C2.71382812 8.11957031 2.42765625 7.23914063 2.1328125 6.33203125 C1.44297682 4.21325025 0.73260271 2.10428437 0 0 Z " fill="#C65452" transform="translate(235,112)"/>
<path d="M0 0 C2 3 2 3 1.57421875 5.59375 C1.28160156 6.5528125 0.98898438 7.511875 0.6875 8.5 C0.40261719 9.4590625 0.11773437 10.418125 -0.17578125 11.40625 C-0.76973622 13.27537845 -1.37980457 15.13941372 -2 17 C-2.66 17 -3.32 17 -4 17 C-4.28875 17.928125 -4.5775 18.85625 -4.875 19.8125 C-6 23 -6 23 -8 26 C-8.66 26 -9.32 26 -10 26 C-9.41988697 20.38015502 -7.3369686 15.81615571 -5 10.75 C-4.63132812 9.9353125 -4.26265625 9.120625 -3.8828125 8.28125 C-1.35993304 2.71986607 -1.35993304 2.71986607 0 0 Z " fill="#CC4D4C" transform="translate(57,337)"/>
<path d="M0 0 C4.10415117 -0.02944154 8.20827456 -0.04694527 12.3125 -0.0625 C13.46041016 -0.07087891 14.60832031 -0.07925781 15.79101562 -0.08789062 C22.92131349 -0.10808977 29.91344572 0.20281881 37 1 C37 1.66 37 2.32 37 3 C38.05960938 3.09796875 39.11921875 3.1959375 40.2109375 3.296875 C41.59906397 3.44694273 42.98707963 3.59803792 44.375 3.75 C45.07367188 3.811875 45.77234375 3.87375 46.4921875 3.9375 C48.5234375 4.171875 48.5234375 4.171875 52 5 C53.4765625 7.078125 53.4765625 7.078125 54 9 C53.36578125 8.82984375 52.7315625 8.6596875 52.078125 8.484375 C48.72829591 7.61452988 45.36792641 6.79617326 42 6 C41.28166992 5.82887695 40.56333984 5.65775391 39.82324219 5.48144531 C26.54468752 2.38593512 13.6213226 1.2266313 0 1 C0 0.67 0 0.34 0 0 Z " fill="#BC3937" transform="translate(192,304)"/>
<path d="M0 0 C0.33 0 0.66 0 1 0 C1.50963542 16.86893255 1.77721008 33.21703778 -5 49 C-5.33 49 -5.66 49 -6 49 C-6 46.69 -6 44.38 -6 42 C-5.34 42 -4.68 42 -4 42 C-3.95101563 40.99839844 -3.90203125 39.99679688 -3.8515625 38.96484375 C-3.77645921 37.62237241 -3.70091474 36.2799257 -3.625 34.9375 C-3.55539062 33.62652344 -3.48578125 32.31554687 -3.4140625 30.96484375 C-3 27 -3 27 -2 23.65625 C-0.71031034 18.94082219 -0.54318175 14.42925931 -0.375 9.5625 C-0.31699219 8.17901367 -0.31699219 8.17901367 -0.2578125 6.76757812 C-0.16431324 4.51190857 -0.0785609 2.25623084 0 0 Z " fill="#CA6967" transform="translate(291,126)"/>
<path d="M0 0 C0.33 0 0.66 0 1 0 C1 5.61 1 11.22 1 17 C0.01 17.33 -0.98 17.66 -2 18 C-2.33 25.92 -2.66 33.84 -3 42 C-3.33 42 -3.66 42 -4 42 C-4.8357494 9.6714988 -4.8357494 9.6714988 0 0 Z " fill="#D56663" transform="translate(92,109)"/>
<path d="M0 0 C0.99 0.33 1.98 0.66 3 1 C2.34 1 1.68 1 1 1 C0.71382813 1.81597656 0.71382813 1.81597656 0.421875 2.6484375 C-1.66527794 6.10026736 -4.58521279 8.17948261 -7.75 10.625 C-8.66265625 11.35976562 -8.66265625 11.35976562 -9.59375 12.109375 C-13.25232472 14.97056805 -16.43140546 16.80880204 -21 18 C-21 17.01 -21 16.02 -21 15 C-19.68 15 -18.36 15 -17 15 C-16.7834375 14.0409375 -16.7834375 14.0409375 -16.5625 13.0625 C-16 11 -16 11 -15 10 C-13.33382885 9.95936168 -11.66611905 9.957279 -10 10 C-10 9.34 -10 8.68 -10 8 C-9.38125 7.9175 -8.7625 7.835 -8.125 7.75 C-5.84276697 7.21351879 -5.84276697 7.21351879 -5 5.125 C-4.67 4.42375 -4.34 3.7225 -4 3 C-2.0625 1.1875 -2.0625 1.1875 0 0 Z " fill="#D1585A" transform="translate(346,208)"/>
<path d="M0 0 C8.33494133 6.97413458 14.97551219 13.89917798 21 23 C20.34 23.33 19.68 23.66 19 24 C19 23.34 19 22.68 19 22 C17.68 21.67 16.36 21.34 15 21 C14.67 19.35 14.34 17.7 14 16 C13.34 16 12.68 16 12 16 C10.6875 14.8125 10.6875 14.8125 9 13 C8.13375 12.195625 7.2675 11.39125 6.375 10.5625 C4.04349318 8.04692685 3.67798495 7.16392977 3 4 C2.01 3.67 1.02 3.34 0 3 C0 2.01 0 1.02 0 0 Z " fill="#CA5D54" transform="translate(317,298)"/>
<path d="M0 0 C0.99 0 1.98 0 3 0 C3.33 0.99 3.66 1.98 4 3 C3.06640625 4.5859375 3.06640625 4.5859375 1.5625 6.375 C-2.1737117 11.06495193 -5.19271546 16.10876111 -8.265625 21.2421875 C-10 24 -10 24 -12 26 C-12.33 24.68 -12.66 23.36 -13 22 C-12.34 22 -11.68 22 -11 22 C-11 20.68 -11 19.36 -11 18 C-10.34 18 -9.68 18 -9 18 C-9 16.35 -9 14.7 -9 13 C-7.68 13 -6.36 13 -5 13 C-5 11.68 -5 10.36 -5 9 C-4.34 9 -3.68 9 -3 9 C-2.34 7.35 -1.68 5.7 -1 4 C-0.34 4 0.32 4 1 4 C0.67 2.68 0.34 1.36 0 0 Z " fill="#D06362" transform="translate(112,340)"/>
<path d="M0 0 C7.32627475 -0.47266289 12.37384327 0.90133798 19 4 C19 5.65 19 7.3 19 9 C19.66 9.33 20.32 9.66 21 10 C17.13661983 10 15.46152726 8.64295391 12.1875 6.625 C8.18877575 4.1619075 4.50999043 2.33479537 0 1 C0 0.67 0 0.34 0 0 Z " fill="#CE3E3E" transform="translate(204,88)"/>
<path d="M0 0 C0.495 1.485 0.495 1.485 1 3 C0.37544922 2.98952637 -0.24910156 2.97905273 -0.89257812 2.96826172 C-3.76167671 2.92631894 -6.63071048 2.90055347 -9.5 2.875 C-10.48226562 2.85824219 -11.46453125 2.84148437 -12.4765625 2.82421875 C-18.37818559 2.7848746 -23.34673539 3.29901773 -29 5 C-30.1446875 5.31324219 -30.1446875 5.31324219 -31.3125 5.6328125 C-31.869375 5.79523438 -32.42625 5.95765625 -33 6.125 C-33.99 6.41375 -34.98 6.7025 -36 7 C-35.5 5.125 -35.5 5.125 -34 3 C-28.1353164 1.16523865 -22.55356528 0.6092946 -16.4375 0.375 C-15.62603516 0.33632812 -14.81457031 0.29765625 -13.97851562 0.2578125 C-9.31480869 0.04702349 -4.66811462 -0.03759555 0 0 Z " fill="#CB6B6C" transform="translate(203,85)"/>
<path d="M0 0 C5.18550921 -0.19378836 9.50394676 0.43445639 14.5 1.8125 C15.7478125 2.14894531 16.995625 2.48539063 18.28125 2.83203125 C22.01041462 4.00327098 25.44009907 5.39896208 29 7 C27.02 7.99 27.02 7.99 25 9 C24.01 8.34 23.02 7.68 22 7 C19.9507906 6.54860541 19.9507906 6.54860541 17.8125 6.375 C16.554375 6.25125 15.29625 6.1275 14 6 C14 5.34 14 4.68 14 4 C13.15695312 3.87882812 12.31390625 3.75765625 11.4453125 3.6328125 C10.34960938 3.46523438 9.25390625 3.29765625 8.125 3.125 C6.48917969 2.88136719 6.48917969 2.88136719 4.8203125 2.6328125 C2 2 2 2 0 0 Z " fill="#C8625F" transform="translate(290,39)"/>
<path d="M0 0 C3.63 0.33 7.26 0.66 11 1 C11.33 1.99 11.66 2.98 12 4 C10.9375 5.5625 10.9375 5.5625 9 7 C2.66666667 6.66666667 2.66666667 6.66666667 0 4 C0 2.68 0 1.36 0 0 Z " fill="#D62C29" transform="translate(314,258)"/>
<path d="M0 0 C0.66 0 1.32 0 2 0 C2 0.66 2 1.32 2 2 C2.99 2.33 3.98 2.66 5 3 C5.94921875 4.70703125 5.94921875 4.70703125 6.6875 6.8125 C6.93886719 7.49957031 7.19023437 8.18664062 7.44921875 8.89453125 C8 11 8 11 8 15 C9.32 15.33 10.64 15.66 12 16 C12.25 22.625 12.25 22.625 10 26 C9.61328125 24.7934375 9.2265625 23.586875 8.828125 22.34375 C8.30241187 20.72905967 7.7763516 19.11448232 7.25 17.5 C6.99734375 16.70851563 6.7446875 15.91703125 6.484375 15.1015625 C4.7422574 9.78810383 2.60963705 4.94696415 0 0 Z " fill="#CA6060" transform="translate(396,361)"/>
<path d="M0 0 C0.33 0 0.66 0 1 0 C1.5830196 3.67555832 2.03796618 7.27389077 2 11 C0.3125 13.1875 0.3125 13.1875 -2 15 C-3.49942061 17.58990832 -4.75814906 20.27849687 -6 23 C-7.32 22.67 -8.64 22.34 -10 22 C-8.625 19.5 -8.625 19.5 -7 17 C-6.34 17 -5.68 17 -5 17 C-4.896875 16.319375 -4.79375 15.63875 -4.6875 14.9375 C-3.86288548 11.41414706 -2.42388576 8.3224001 -1 5 C-0.30859478 2.22111387 -0.30859478 2.22111387 0 0 Z " fill="#D16664" transform="translate(240,149)"/>
<path d="M0 0 C2.91094718 3.43387183 4.50071425 7.2285821 6.125 11.375 C6.38925781 12.02210938 6.65351563 12.66921875 6.92578125 13.3359375 C8.46319677 17.2067908 9.47569527 20.86950179 10 25 C9.01 25 8.02 25 7 25 C5.33333333 20 3.66666667 15 2 10 C1.62875 8.96875 1.2575 7.9375 0.875 6.875 C0 4 0 4 0 0 Z " fill="#CA5657" transform="translate(350,342)"/>
<path d="M0 0 C3.125 -0.1875 3.125 -0.1875 6 0 C0.64911031 5.70761567 -5.49494976 10.66329984 -12 15 C-11.42415568 12.61435923 -10.77772405 10.33317216 -10 8 C-9.01 8 -8.02 8 -7 8 C-7 7.34 -7 6.68 -7 6 C-5.33720673 4.9935725 -3.67016516 3.99414593 -2 3 C-1.34 2.01 -0.68 1.02 0 0 Z " fill="#CD5B5A" transform="translate(132,323)"/>
<path d="M0 0 C3.32366742 3.05099404 5.54224226 6.23449516 7.8125 10.125 C8.43769531 11.17945312 9.06289063 12.23390625 9.70703125 13.3203125 C10.13371094 14.20460938 10.56039063 15.08890625 11 16 C10.67 16.66 10.34 17.32 10 18 C9.236875 17.319375 8.47375 16.63875 7.6875 15.9375 C6.800625 15.298125 5.91375 14.65875 5 14 C4.01 14.33 3.02 14.66 2 15 C2.52268466 12.23723823 3.10869587 9.6739124 4 7 C3.01 7 2.02 7 1 7 C0.67 4.69 0.34 2.38 0 0 Z " fill="#D25452" transform="translate(271,77)"/>
<path d="M0 0 C2.0837194 2.0837194 2.55757486 3.15907834 3.47265625 5.88671875 C3.73240234 6.66080078 3.99214844 7.43488281 4.25976562 8.23242188 C4.65711914 9.44768555 4.65711914 9.44768555 5.0625 10.6875 C5.33126953 11.47833984 5.60003906 12.26917969 5.87695312 13.08398438 C7.41633805 17.73285008 8.4719631 22.13032635 9 27 C7 25.5625 7 25.5625 5 23 C4.64557555 19.97175582 4.76652765 17.03514061 5 14 C4.34 14 3.68 14 3 14 C0.96006486 9.07015675 -0.40652968 5.42039575 0 0 Z " fill="#C95E5C" transform="translate(448,352)"/>
<path d="M0 0 C0 0.66 0 1.32 0 2 C-1.32 2.33 -2.64 2.66 -4 3 C-4 3.66 -4 4.32 -4 5 C-4.66 5 -5.32 5 -6 5 C-6 5.66 -6 6.32 -6 7 C-15.24 7 -24.48 7 -34 7 C-34 6.67 -34 6.34 -34 6 C-33.43603516 5.98541748 -32.87207031 5.97083496 -32.29101562 5.95581055 C-29.69338054 5.88055146 -27.09692357 5.78415516 -24.5 5.6875 C-23.1696875 5.65366211 -23.1696875 5.65366211 -21.8125 5.61914062 C-14.9593965 5.34199306 -9.78772338 3.89386169 -3.625 0.8125 C-2 0 -2 0 0 0 Z " fill="#D97875" transform="translate(216,184)"/>
<path d="M0 0 C0.66 0 1.32 0 2 0 C1.66211453 5.40616753 -1.41344594 9.1825519 -5 13 C-8.53134871 15.77177559 -11.43272629 18 -16 18 C-16 17.34 -16 16.68 -16 16 C-15.01 16 -14.02 16 -13 16 C-13 15.34 -13 14.68 -13 14 C-12.01 14 -11.02 14 -10 14 C-10 13.34 -10 12.68 -10 12 C-8.68 12 -7.36 12 -6 12 C-5.731875 11.195625 -5.46375 10.39125 -5.1875 9.5625 C-4.795625 8.716875 -4.40375 7.87125 -4 7 C-3.01 6.67 -2.02 6.34 -1 6 C-0.67 4.02 -0.34 2.04 0 0 Z " fill="#CB5B5C" transform="translate(86,444)"/>
<path d="M0 0 C2.97 0.495 2.97 0.495 6 1 C6 2.32 6 3.64 6 5 C6.763125 5.2475 7.52625 5.495 8.3125 5.75 C11.26080945 7.12130672 12.35834532 8.2351079 14 11 C14 11.66 14 12.32 14 13 C14.99 12.67 15.98 12.34 17 12 C17 12.99 17 13.98 17 15 C16.34 15.66 15.68 16.32 15 17 C14.34 15.68 13.68 14.36 13 13 C12.34 13 11.68 13 11 13 C9.4140625 11.42578125 9.4140625 11.42578125 7.625 9.3125 C6.69880859 8.22388672 6.69880859 8.22388672 5.75390625 7.11328125 C3.80538537 4.76550888 1.8784002 2.40435225 0 0 Z " fill="#C85557" transform="translate(283,47)"/>
<path d="M0 0 C2.97 0 5.94 0 9 0 C5.77788997 2.14807336 2.44138278 3.92802253 -1 5.6875 C-1.6290625 6.02072266 -2.258125 6.35394531 -2.90625 6.69726562 C-4.56650706 7.54322288 -6.28169446 8.27922039 -8 9 C-8.99 8.67 -9.98 8.34 -11 8 C-9.68 6.35 -8.36 4.7 -7 3 C-5.35 3.33 -3.7 3.66 -2 4 C-2 3.34 -2 2.68 -2 2 C-1.34 2 -0.68 2 0 2 C0 1.34 0 0.68 0 0 Z " fill="#CB4C4C" transform="translate(150,313)"/>
<path d="M0 0 C0.33 0.99 0.66 1.98 1 3 C-0.98 3.33 -2.96 3.66 -5 4 C-5 3.34 -5 2.68 -5 2 C-6.918125 2.433125 -6.918125 2.433125 -8.875 2.875 C-9.59429687 3.03742187 -10.31359375 3.19984375 -11.0546875 3.3671875 C-13.20719964 3.90474428 -13.20719964 3.90474428 -15 6 C-18.625 6.125 -18.625 6.125 -22 6 C-15.03131859 0.52460746 -8.83066534 -0.18021766 0 0 Z " fill="#CC352E" transform="translate(164,43)"/>
<path d="M0 0 C4.606789 0.63396179 8.74730601 1.81491467 13.125 3.375 C14.92324219 4.00535156 14.92324219 4.00535156 16.7578125 4.6484375 C19.61078297 5.83774808 21.66332596 7.01208328 24 9 C22.68 9.33 21.36 9.66 20 10 C19.67 9.01 19.34 8.02 19 7 C18.01 7.33 17.02 7.66 16 8 C16 7.34 16 6.68 16 6 C15.43152344 5.96261719 14.86304688 5.92523438 14.27734375 5.88671875 C8.91564807 5.43021378 4.8330492 4.36510918 0 2 C0 1.34 0 0.68 0 0 Z " fill="#CD6868" transform="translate(256,264)"/>
<path d="M0 0 C9.70835475 -0.49644996 18.56403855 0.98827218 28 3 C26 5 26 5 24.13647461 5.05932617 C23.39921143 4.97142822 22.66194824 4.88353027 21.90234375 4.79296875 C21.10119141 4.70080078 20.30003906 4.60863281 19.47460938 4.51367188 C18.21874023 4.3522168 18.21874023 4.3522168 16.9375 4.1875 C16.09638672 4.09146484 15.25527344 3.99542969 14.38867188 3.89648438 C8.14709249 3.14709249 8.14709249 3.14709249 7 2 C4.67182036 1.63239269 2.3381615 1.29758419 0 1 C0 0.67 0 0.34 0 0 Z " fill="#C85E5D" transform="translate(216,257)"/>
<path d="M0 0 C-0.74765625 0.54269531 -1.4953125 1.08539063 -2.265625 1.64453125 C-3.25046875 2.35996094 -4.2353125 3.07539062 -5.25 3.8125 C-6.22453125 4.52019531 -7.1990625 5.22789063 -8.203125 5.95703125 C-10.48189009 7.62154821 -12.74765822 9.30001823 -15 11 C-15.6875 8.6875 -15.6875 8.6875 -16 6 C-14.875 4.1875 -14.875 4.1875 -13 3 C-10.3125 2.8125 -10.3125 2.8125 -8 3 C-8 2.34 -8 1.68 -8 1 C-4.85571151 -0.9090323 -3.47925125 -1.04523725 0 0 Z " fill="#CD433F" transform="translate(165,94)"/>
<path d="M0 0 C-4.81174443 2.80685092 -9.67505783 4.03131793 -15.08203125 5.30078125 C-17.46744876 5.87238732 -19.78555078 6.51922865 -22.125 7.25 C-25 8 -25 8 -27 7 C-5.58134296 -2.08963323 -5.58134296 -2.08963323 0 0 Z " fill="#C96D6C" transform="translate(160,262)"/>
<path d="M0 0 C1 3 1 3 -0.58203125 6.5390625 C-1.31507119 7.90669419 -2.0590375 9.26851252 -2.8125 10.625 C-3.36647461 11.66527344 -3.36647461 11.66527344 -3.93164062 12.7265625 C-6.72542547 17.86271273 -6.72542547 17.86271273 -9 19 C-8.67 16.69 -8.34 14.38 -8 12 C-7.34 12 -6.68 12 -6 12 C-5.855625 11.4225 -5.71125 10.845 -5.5625 10.25 C-5.04166667 8.16666667 -4.52083333 6.08333333 -4 4 C-3.34 4 -2.68 4 -2 4 C-2 3.01 -2 2.02 -2 1 C-1.34 0.67 -0.68 0.34 0 0 Z " fill="#C75551" transform="translate(283,177)"/>
<path d="M0 0 C3.05107089 3.05107089 3.56351206 6.7825311 4.6875 10.875 C4.92533203 11.69097656 5.16316406 12.50695312 5.40820312 13.34765625 C5.62798828 14.13785156 5.84777344 14.92804688 6.07421875 15.7421875 C6.27619873 16.4626123 6.47817871 17.18303711 6.6862793 17.92529297 C7.03672151 20.24284779 6.71241772 21.78573713 6 24 C1.79203055 16.98671758 -0.31889707 8.15465359 0 0 Z " fill="#CA615E" transform="translate(284,100)"/>
<path d="M0 0 C0.66 0.33 1.32 0.66 2 1 C1.58427734 2.62808594 1.58427734 2.62808594 1.16015625 4.2890625 C0.7941437 5.73434281 0.4282654 7.17965712 0.0625 8.625 C-0.11990234 9.33785156 -0.30230469 10.05070312 -0.49023438 10.78515625 C-1.51316799 14.83969313 -2.37957367 18.85947059 -3 23 C-3.33 23 -3.66 23 -4 23 C-4 17.39 -4 11.78 -4 6 C-2.68 5.67 -1.36 5.34 0 5 C0 3.35 0 1.7 0 0 Z " fill="#D26160" transform="translate(95,373)"/>
<path d="M0 0 C0.33 0.99 0.66 1.98 1 3 C-4.28018728 7.82104056 -9.7868189 11.47461354 -16 15 C-15.67 13.35 -15.34 11.7 -15 10 C-13.35 10 -11.7 10 -10 10 C-10 9.34 -10 8.68 -10 8 C-9.34 8 -8.68 8 -8 8 C-8 7.34 -8 6.68 -8 6 C-7.360625 5.896875 -6.72125 5.79375 -6.0625 5.6875 C-5.0415625 5.3471875 -5.0415625 5.3471875 -4 5 C-3.67 4.01 -3.34 3.02 -3 2 C-2.01 2 -1.02 2 0 2 C0 1.34 0 0.68 0 0 Z " fill="#C85553" transform="translate(256,213)"/>
<path d="M0 0 C0.99 0 1.98 0 3 0 C5.14185965 2.79090803 6.76797653 5.4131171 8.0625 8.6875 C9.04456661 11.10993097 10.1393664 12.22394065 12 14 C12 14.66 12 15.32 12 16 C12.66 16 13.32 16 14 16 C13.34 17.32 12.68 18.64 12 20 C10.37276975 17.41804795 8.74814795 14.83451657 7.125 12.25 C6.66480469 11.52039063 6.20460938 10.79078125 5.73046875 10.0390625 C5.28574219 9.33007812 4.84101563 8.62109375 4.3828125 7.890625 C3.97434082 7.24125977 3.56586914 6.59189453 3.14501953 5.92285156 C1.99408567 3.99006796 0.98041811 2.02383498 0 0 Z " fill="#CE605F" transform="translate(357,301)"/>
<path d="M0 0 C3.10902615 1.49529353 6.0618279 3.1944566 9 5 C8.34 5.66 7.68 6.32 7 7 C4.69 6.34 2.38 5.68 0 5 C0 4.34 0 3.68 0 3 C-0.928125 2.87625 -1.85625 2.7525 -2.8125 2.625 C-6 2 -6 2 -9 0 C-5.92657895 -1.53671052 -3.19043988 -0.90216559 0 0 Z " fill="#CB5B59" transform="translate(368,270)"/>
<path d="M0 0 C-0.66 1.32 -1.32 2.64 -2 4 C-0.68 4.66 0.64 5.32 2 6 C-1.96 6 -5.92 6 -10 6 C-9.34 4.68 -8.68 3.36 -8 2 C-7.34 2 -6.68 2 -6 2 C-6 1.34 -6 0.68 -6 0 C-3.50907189 -1.24546405 -2.58919267 -0.7767578 0 0 Z " fill="#BE3735" transform="translate(284,233)"/>
<path d="M0 0 C1.65 0 3.3 0 5 0 C3.62523555 5.19355461 0.25658407 8.00427491 -4 11 C-4.99 11.33 -5.98 11.66 -7 12 C-7 10.68 -7 9.36 -7 8 C-5.02 7.67 -3.04 7.34 -1 7 C-1.020625 6.21625 -1.04125 5.4325 -1.0625 4.625 C-1 2 -1 2 0 0 Z " fill="#CF5856" transform="translate(454,449)"/>
<path d="M0 0 C0.99 0.33 1.98 0.66 3 1 C3.87890625 2.85546875 3.87890625 2.85546875 4.5625 5.1875 C4.80742187 6.00605469 5.05234375 6.82460938 5.3046875 7.66796875 C5.53414063 8.43753906 5.76359375 9.20710938 6 10 C6.391875 10.99 6.78375 11.98 7.1875 13 C8.28047885 17.03561421 8.16616487 20.84587826 8 25 C7.67 25 7.34 25 7 25 C6.74476563 23.76636719 6.74476563 23.76636719 6.484375 22.5078125 C5.07833599 16.03105833 3.42545515 10.00356966 0.76953125 3.92578125 C0 2 0 2 0 0 Z " fill="#CF7271" transform="translate(306,368)"/>
<path d="M0 0 C-0.33 1.32 -0.66 2.64 -1 4 C-1.99 3.67 -2.98 3.34 -4 3 C-4 3.66 -4 4.32 -4 5 C-8.62730711 6.0448758 -13.28853878 6.51756279 -18 7 C-18 6.34 -18 5.68 -18 5 C-3.3 0 -3.3 0 0 0 Z " fill="#CF342E" transform="translate(151,265)"/>
<path d="M0 0 C4.95 0 9.9 0 15 0 C15 0.33 15 0.66 15 1 C13.02 1 11.04 1 9 1 C10.39759905 4.54518884 10.39759905 4.54518884 12 8 C7.44328408 6.48109469 3.68276708 4.04597738 0 1 C0 0.67 0 0.34 0 0 Z " fill="#C57A76" transform="translate(305,257)"/>
<path d="M0 0 C1.2065625 0.0309375 1.2065625 0.0309375 2.4375 0.0625 C2.7675 1.7125 3.0975 3.3625 3.4375 5.0625 C2.7775 4.4025 2.1175 3.7425 1.4375 3.0625 C0.4475 3.3925 -0.5425 3.7225 -1.5625 4.0625 C-0.5725 4.7225 0.4175 5.3825 1.4375 6.0625 C1.1075 7.3825 0.7775 8.7025 0.4375 10.0625 C-2.2025 7.7525 -4.8425 5.4425 -7.5625 3.0625 C-6.2425 2.4025 -4.9225 1.7425 -3.5625 1.0625 C-2.5625 0.0625 -2.5625 0.0625 0 0 Z " fill="#D74B4A" transform="translate(339.5625,273.9375)"/>
<path d="M0 0 C0 -0.66 0 -1.32 0 -2 C0.99 -2 1.98 -2 3 -2 C3 -1.34 3 -0.68 3 0 C0.87959258 1.03033882 -1.24647908 2.04902854 -3.375 3.0625 C-5.15003906 3.91521484 -5.15003906 3.91521484 -6.9609375 4.78515625 C-7.96382812 5.18605469 -8.96671875 5.58695313 -10 6 C-10.66 5.67 -11.32 5.34 -12 5 C-10.74458443 2.48916886 -9.49936512 2.12874554 -7 1 C-7.66 0.34 -8.32 -0.32 -9 -1 C-5.22102349 -2.0497157 -3.35080929 -2.10976881 0 0 Z " fill="#D24948" transform="translate(236,229)"/>
<path d="M0 0 C0.66 0 1.32 0 2 0 C1.44512849 4.16153636 -0.86280154 6.59537652 -3.5 9.75 C-4.3146875 10.73484375 -5.129375 11.7196875 -5.96875 12.734375 C-6.97421875 13.85585937 -6.97421875 13.85585937 -8 15 C-8.33 15 -8.66 15 -9 15 C-9 13.35 -9 11.7 -9 10 C-8.01 10 -7.02 10 -6 10 C-4.76078698 7.02588876 -3.69941596 4.14737182 -3 1 C-3 1.66 -3 2.32 -3 3 C-2.01 3 -1.02 3 0 3 C0 2.01 0 1.02 0 0 Z " fill="#CB6766" transform="translate(358,193)"/>
<path d="M0 0 C0.66 0.33 1.32 0.66 2 1 C0.7260411 3.03833424 -0.61061923 5.03852126 -2 7 C-2.66 7 -3.32 7 -4 7 C-4.226875 7.61875 -4.45375 8.2375 -4.6875 8.875 C-6.38277796 11.61973575 -8.02945954 11.93463654 -11 13 C-5.03416856 3.40546697 -5.03416856 3.40546697 0 0 Z " fill="#C84244" transform="translate(79,308)"/>
<path d="M0 0 C2 3 2 3 1.609375 5.2265625 C1.32578125 6.01804687 1.0421875 6.80953125 0.75 7.625 C0.47671875 8.42164062 0.2034375 9.21828125 -0.078125 10.0390625 C-1 12 -1 12 -3 13 C-3.2165625 13.99 -3.2165625 13.99 -3.4375 15 C-3.623125 15.66 -3.80875 16.32 -4 17 C-4.99 17.33 -5.98 17.66 -7 18 C-5.06375702 11.79522136 -2.74390859 5.89174281 0 0 Z " fill="#CF6464" transform="translate(100,89)"/>
<path d="M0 0 C2.475 0.495 2.475 0.495 5 1 C5 1.66 5 2.32 5 3 C7.64 3.66 10.28 4.32 13 5 C13.33 6.32 13.66 7.64 14 9 C14.66 9.33 15.32 9.66 16 10 C15.01 10.495 15.01 10.495 14 11 C11.6638026 9.35810616 9.33099647 7.7117475 7 6.0625 C6.33226562 5.59392578 5.66453125 5.12535156 4.9765625 4.64257812 C3.29970233 3.45337627 1.64761213 2.22940446 0 1 C0 0.67 0 0.34 0 0 Z " fill="#D16061" transform="translate(264,321)"/>
<path d="M0 0 C3.88397689 1.55002747 6.02979619 4.00476621 8.75 7.125 C9.94882813 8.49011719 9.94882813 8.49011719 11.171875 9.8828125 C12.07679687 10.93082031 12.07679687 10.93082031 13 12 C12.34 12.66 11.68 13.32 11 14 C9.53238987 12.61392377 8.07625811 11.21568805 6.625 9.8125 C5.81289062 9.03519531 5.00078125 8.25789062 4.1640625 7.45703125 C2.01140148 5.012945 0.99367294 3.07383443 0 0 Z " fill="#CE6D6B" transform="translate(108,198)"/>
<path d="M0 0 C0.33 0 0.66 0 1 0 C1.29973431 6.89388918 0.89839291 14.15241063 -3 20 C-3.66 20 -4.32 20 -5 20 C-3.56390017 13.26137773 -1.85991713 6.63370443 0 0 Z " fill="#CC6765" transform="translate(323,159)"/>
<path d="M0 0 C2.25 -0.375 2.25 -0.375 5 0 C7.97029474 3.66918762 9.97569515 7.74895982 12 12 C11.01 12 10.02 12 9 12 C7.5 10.390625 7.5 10.390625 6 8.25 C5.505 7.55390625 5.01 6.8578125 4.5 6.140625 C4.005 5.43421875 3.51 4.7278125 3 4 C2.00443026 2.66335544 1.00573778 1.32901064 0 0 Z " fill="#D06564" transform="translate(224,99)"/>
<path d="M0 0 C7.34918342 -0.43230491 13.90215087 1.18225815 21 3 C21 3.33 21 3.66 21 4 C18.62429457 4.0816082 16.25144159 4.14077222 13.875 4.1875 C13.20984375 4.21263672 12.5446875 4.23777344 11.859375 4.26367188 C7.13097708 4.33320714 4.04878521 3.40278375 0 1 C0 0.67 0 0.34 0 0 Z " fill="#C94C49" transform="translate(327,458)"/>
<path d="M0 0 C0.33 0 0.66 0 1 0 C1 6.93 1 13.86 1 21 C0.34 21 -0.32 21 -1 21 C-0.67 22.32 -0.34 23.64 0 25 C-0.66 25 -1.32 25 -2 25 C-1.42754306 16.65674459 -0.79850617 8.32485153 0 0 Z " fill="#C85D5A" transform="translate(326,134)"/>
<path d="M0 0 C0.33 0.66 0.66 1.32 1 2 C-0.26934731 5.80804192 -1.97751317 7.38051141 -5 10 C-8.1875 11.375 -8.1875 11.375 -11 12 C-11.66 11.67 -12.32 11.34 -13 11 C-12.48050781 10.62488281 -11.96101562 10.24976563 -11.42578125 9.86328125 C-7.27747551 6.81914561 -3.52678314 3.74720709 0 0 Z " fill="#CF716A" transform="translate(229,172)"/>
<path d="M0 0 C5.28 0 10.56 0 16 0 C16 0.33 16 0.66 16 1 C12.04 1 8.08 1 4 1 C4.99 1.33 5.98 1.66 7 2 C7 3.65 7 5.3 7 7 C4.50638429 5.79618552 2.31856917 4.54571278 0 3 C0 2.01 0 1.02 0 0 Z " fill="#C76B6C" transform="translate(274,38)"/>
<path d="M0 0 C0.33 0 0.66 0 1 0 C1.02690844 2.62506802 1.04679404 5.24986173 1.0625 7.875 C1.07087891 8.62136719 1.07925781 9.36773437 1.08789062 10.13671875 C1.11328125 15.7734375 1.11328125 15.7734375 0 18 C-0.99 18 -1.98 18 -3 18 C-2.41509121 11.85845775 -1.45933748 5.99320151 0 0 Z " fill="#D1605F" transform="translate(44,369)"/>
<path d="M0 0 C2.9178516 2.9178516 4.04674235 4.8621727 5.6875 8.5625 C6.12449219 9.53316406 6.56148438 10.50382812 7.01171875 11.50390625 C8 14 8 14 8 16 C7.01 16 6.02 16 5 16 C4.67 14.02 4.34 12.04 4 10 C3.01 9.67 2.02 9.34 1 9 C0.67 6.03 0.34 3.06 0 0 Z " fill="#CC6060" transform="translate(440,336)"/>
<path d="M0 0 C0.33 0.66 0.66 1.32 1 2 C3.52733235 2.65555119 3.52733235 2.65555119 6 3 C5.67 3.99 5.34 4.98 5 6 C5.99 6.33 6.98 6.66 8 7 C8 8.65 8 10.3 8 12 C1.23529412 6.70588235 1.23529412 6.70588235 0 3 C0 2.01 0 1.02 0 0 Z " fill="#D56060" transform="translate(412,445)"/>
<path d="M0 0 C1.65 0 3.3 0 5 0 C4.67 1.65 4.34 3.3 4 5 C4.99 5.33 5.98 5.66 7 6 C6.67 7.65 6.34 9.3 6 11 C3.34730103 8.52414762 1.31989897 6.40973899 0 3 C0 2.01 0 1.02 0 0 Z " fill="#CF4F50" transform="translate(375,330)"/>
<path d="M0 0 C0.99 0.33 1.98 0.66 3 1 C2.34 1 1.68 1 1 1 C0.7421875 1.59296875 0.484375 2.1859375 0.21875 2.796875 C-1.09769895 5.17660965 -2.42580782 6.50978792 -4.5 8.25 C-5.1084375 8.77078125 -5.716875 9.2915625 -6.34375 9.828125 C-8 11 -8 11 -10 11 C-10 10.01 -10 9.02 -10 8 C-9.38125 7.9175 -8.7625 7.835 -8.125 7.75 C-5.84276697 7.21351879 -5.84276697 7.21351879 -5 5.125 C-4.67 4.42375 -4.34 3.7225 -4 3 C-2.0625 1.1875 -2.0625 1.1875 0 0 Z " fill="#CE6361" transform="translate(346,208)"/>
<path d="M0 0 C0.66 0 1.32 0 2 0 C2 0.66 2 1.32 2 2 C2.66 2.2475 3.32 2.495 4 2.75 C7.76470374 4.31862656 11.36708395 6.15104074 15 8 C16.3328694 8.66759372 17.66607302 9.33452195 19 10 C12.75276774 10.82200425 8.28682163 7.92551394 3 5 C3 4.34 3 3.68 3 3 C2.01 3 1.02 3 0 3 C0 2.01 0 1.02 0 0 Z " fill="#CE6B6A" transform="translate(157,179)"/>
<path d="M0 0 C1.41764994 0.93601246 2.83407568 1.8738792 4.25 2.8125 C5.03890625 3.33457031 5.8278125 3.85664062 6.640625 4.39453125 C8.81092481 5.87134122 10.91413768 7.40689873 13 9 C12.67 9.66 12.34 10.32 12 11 C10.02 10.01 8.04 9.02 6 8 C6 7.34 6 6.68 6 6 C4.35 5.67 2.7 5.34 1 5 C0.67 3.35 0.34 1.7 0 0 Z " fill="#CD5C5E" transform="translate(332,54)"/>
<path d="M0 0 C2.8125 0.125 2.8125 0.125 6 1 C7.75 3.75 7.75 3.75 9 7 C9.391875 7.94875 9.78375 8.8975 10.1875 9.875 C10.455625 10.57625 10.72375 11.2775 11 12 C10.01 12.495 10.01 12.495 9 13 C7.8745809 11.39612733 6.74968028 9.79189084 5.625 8.1875 C4.99851562 7.29417969 4.37203125 6.40085937 3.7265625 5.48046875 C2.46449761 3.66732122 1.22541192 1.83811789 0 0 Z " fill="#CE5F5E" transform="translate(289,342)"/>
<path d="M0 0 C1.32 0.33 2.64 0.66 4 1 C-4.93283582 6.12810945 -4.93283582 6.12810945 -11.625 6.0625 C-12.81351562 6.05347656 -14.00203125 6.04445313 -15.2265625 6.03515625 C-16.14179688 6.02355469 -17.05703125 6.01195312 -18 6 C-18 5.67 -18 5.34 -18 5 C-14.04 5 -10.08 5 -6 5 C-5.67 4.01 -5.34 3.02 -5 2 C-3.35 2 -1.7 2 0 2 C0 1.34 0 0.68 0 0 Z " fill="#D87370" transform="translate(354,457)"/>
<path d="M0 0 C1.27609323 0.90933009 2.54565553 1.82782853 3.8125 2.75 C4.87404297 3.51570313 4.87404297 3.51570313 5.95703125 4.296875 C8.02977691 6.02482358 9.47375854 7.78526476 11 10 C10.01 10.495 10.01 10.495 9 11 C9 10.34 9 9.68 9 9 C7.35 8.67 5.7 8.34 4 8 C4 7.34 4 6.68 4 6 C3.34 6 2.68 6 2 6 C2 5.01 2 4.02 2 3 C1.34 3 0.68 3 0 3 C0 2.01 0 1.02 0 0 Z " fill="#D05E5E" transform="translate(401,291)"/>
<path d="M0 0 C6.68993219 0.53951066 12.63460728 1.88706171 19 4 C19 4.66 19 5.32 19 6 C16.20612238 5.38379145 13.41519074 4.75750305 10.625 4.125 C9.8309375 3.95097656 9.036875 3.77695312 8.21875 3.59765625 C7.45820313 3.42363281 6.69765625 3.24960937 5.9140625 3.0703125 C5.2123291 2.91320801 4.5105957 2.75610352 3.78759766 2.59423828 C2 2 2 2 0 0 Z " fill="#C25A5C" transform="translate(327,259)"/>
<path d="M0 0 C0.66 0 1.32 0 2 0 C3.96611502 4.04479388 4.11331236 6.86885748 3.625 11.3125 C3.51414062 12.38113281 3.40328125 13.44976562 3.2890625 14.55078125 C3.19367188 15.35902344 3.09828125 16.16726562 3 17 C2.67 17 2.34 17 2 17 C1.34 11.39 0.68 5.78 0 0 Z " fill="#D06B69" transform="translate(323,114)"/>
<path d="M0 0 C0.33 0.66 0.66 1.32 1 2 C-1.625 5.875 -1.625 5.875 -5 7 C-5 7.99 -5 8.98 -5 10 C-6.98 10.33 -8.96 10.66 -11 11 C-9.38405168 8.95880212 -7.7143618 6.95927063 -6 5 C-5.34 5 -4.68 5 -4 5 C-4 4.34 -4 3.68 -4 3 C-2 1.375 -2 1.375 0 0 Z " fill="#CE605B" transform="translate(127,58)"/>
<path d="M0 0 C-1.43315025 3.61773603 -3.04587964 4.969107 -6.4375 6.8125 C-7.21996094 7.25207031 -8.00242188 7.69164062 -8.80859375 8.14453125 C-11 9 -11 9 -14 8 C-12.04532248 6.66101601 -10.0866421 5.32870953 -8.125 4 C-7.03445312 3.2575 -5.94390625 2.515 -4.8203125 1.75 C-2 0 -2 0 0 0 Z " fill="#CE6C6A" transform="translate(142,49)"/>
<path d="M0 0 C4.52063311 -0.20548332 8.82580535 0.13449676 13.3125 0.75 C14.33988281 0.88921875 15.36726562 1.0284375 16.42578125 1.171875 C19 2 19 2 20.35546875 4.078125 C20.67451172 5.02945312 20.67451172 5.02945312 21 6 C19.85724609 5.70996094 19.85724609 5.70996094 18.69140625 5.4140625 C12.47874359 3.8473236 6.26186932 2.35673835 0 1 C0 0.67 0 0.34 0 0 Z " fill="#CE6467" transform="translate(225,307)"/>
<path d="M0 0 C2.64 0 5.28 0 8 0 C8 0.66 8 1.32 8 2 C8.66 2.33 9.32 2.66 10 3 C10 4.65 10 6.3 10 8 C8.70684939 7.04367001 7.41553147 6.08486149 6.125 5.125 C5.40570313 4.59132813 4.68640625 4.05765625 3.9453125 3.5078125 C2 2 2 2 0 0 Z " fill="#D36866" transform="translate(319,266)"/>
<path d="M0 0 C1.32830615 3.98491845 0.23204404 5.40048548 -1.4375 9.1875 C-1.91058594 10.27417969 -2.38367188 11.36085937 -2.87109375 12.48046875 C-3.42990234 13.72763672 -3.42990234 13.72763672 -4 15 C-4.33 15 -4.66 15 -5 15 C-4.58997722 4.44191344 -4.58997722 4.44191344 0 0 Z " fill="#CD6362" transform="translate(372,167)"/>
<path d="M0 0 C1.98 0.99 3.96 1.98 6 3 C6 3.66 6 4.32 6 5 C6.598125 5.268125 7.19625 5.53625 7.8125 5.8125 C9.97224808 6.98493467 11.35790256 8.19369282 13 10 C10 10 10 10 8 9 C8 8.34 8 7.68 8 7 C7.01 7 6.02 7 5 7 C5 6.34 5 5.68 5 5 C4.01 5 3.02 5 2 5 C2 4.01 2 3.02 2 2 C1.34 2 0.68 2 0 2 C0 1.34 0 0.68 0 0 Z " fill="#CE6C64" transform="translate(302,286)"/>
<path d="M0 0 C1.98 0 3.96 0 6 0 C4.48523802 3.02952396 2.14631984 3.37093771 -0.9375 4.625 C-2.01902344 5.07101563 -3.10054688 5.51703125 -4.21484375 5.9765625 C-7 7 -7 7 -9 7 C-9 6.34 -9 5.68 -9 5 C-7.68 5 -6.36 5 -5 5 C-5 4.34 -5 3.68 -5 3 C-3.35 2.67 -1.7 2.34 0 2 C0 1.34 0 0.68 0 0 Z " fill="#CC6563" transform="translate(319,226)"/>
<path d="M0 0 C0.33 0 0.66 0 1 0 C1.44041451 5.28497409 1.44041451 5.28497409 1 8 C-1.5 10.5 -1.5 10.5 -4 12 C-5 9 -5 9 -4.00390625 6.73828125 C-3.52824219 5.93777344 -3.05257813 5.13726562 -2.5625 4.3125 C-2.08941406 3.50425781 -1.61632812 2.69601563 -1.12890625 1.86328125 C-0.75636719 1.24839844 -0.38382812 0.63351563 0 0 Z " fill="#D26A69" transform="translate(313,188)"/>
<path d="M0 0 C3.19198274 4.7879741 5.60248394 9.1697645 6 15 C5.34 15.66 4.68 16.32 4 17 C2.33333333 12 0.66666667 7 -1 2 C-0.67 1.34 -0.34 0.68 0 0 Z " fill="#CB5F5F" transform="translate(316,89)"/>
<path d="M0 0 C7.48291572 6.15034169 7.48291572 6.15034169 10 10 C5.25 9.25 5.25 9.25 3 7 C3 6.01 3 5.02 3 4 C2.01 3.67 1.02 3.34 0 3 C0 2.01 0 1.02 0 0 Z " fill="#D16967" transform="translate(317,298)"/>
<path d="M0 0 C1.9668026 1.9668026 2.9371637 3.5444659 4.1875 6 C4.55230469 6.70125 4.91710937 7.4025 5.29296875 8.125 C5.52628906 8.74375 5.75960937 9.3625 6 10 C5.67 10.66 5.34 11.32 5 12 C4.34 12 3.68 12 3 12 C3 11.34 3 10.68 3 10 C2.34 10 1.68 10 1 10 C-0.1577506 6.52674819 -0.06866652 3.63932552 0 0 Z " fill="#CC5B5B" transform="translate(140,154)"/>
<path d="M0 0 C5.625 -0.25 5.625 -0.25 9 2 C11.73872955 2.45772063 11.73872955 2.45772063 14.6875 2.625 C15.68136719 2.69976562 16.67523438 2.77453125 17.69921875 2.8515625 C18.45847656 2.90054687 19.21773437 2.94953125 20 3 C20 3.33 20 3.66 20 4 C6.3667426 4.55353075 6.3667426 4.55353075 0 1 C0 0.67 0 0.34 0 0 Z " fill="#D97D7F" transform="translate(50,459)"/>
<path d="M0 0 C3.63 0.33 7.26 0.66 11 1 C11 1.99 11 2.98 11 4 C10.67 3.67 10.34 3.34 10 3 C7.67182036 2.63239269 5.3381615 2.29758419 3 2 C2.67 3.32 2.34 4.64 2 6 C1.34 5.34 0.68 4.68 0 4 C0 2.68 0 1.36 0 0 Z " fill="#C53130" transform="translate(314,258)"/>
<path d="M0 0 C0.33 0 0.66 0 1 0 C1.1875 2.3125 1.1875 2.3125 1 5 C0.02351983 6.02297922 -0.98131338 7.01904252 -2 8 C-3.142525 10.29019651 -4.05568695 12.61673372 -5 15 C-7 12 -7 12 -7 10 C-6.34 10 -5.68 10 -5 10 C-4.731875 9.278125 -4.46375 8.55625 -4.1875 7.8125 C-3.00645167 5.01528026 -1.66638302 2.53580025 0 0 Z " fill="#CB6661" transform="translate(307,199)"/>
<path d="M0 0 C2.64 0.33 5.28 0.66 8 1 C8 1.66 8 2.32 8 3 C8.763125 2.938125 9.52625 2.87625 10.3125 2.8125 C13 3 13 3 14.8125 4.5 C15.204375 4.995 15.59625 5.49 16 6 C15.01 6.33 14.02 6.66 13 7 C11.26610821 6.05126676 9.53521751 5.09386247 7.8515625 4.05859375 C5.35268129 2.6299085 2.7536509 1.80594661 0 1 C0 0.67 0 0.34 0 0 Z " fill="#D17273" transform="translate(204,88)"/>
<path d="M0 0 C0.66 0.33 1.32 0.66 2 1 C2.61528766 6.07612318 0.61658349 8.82982006 -2 13 C-2.66 11.68 -3.32 10.36 -4 9 C-3.34 9 -2.68 9 -2 9 C-2 7.68 -2 6.36 -2 5 C-1.34 5 -0.68 5 0 5 C0 3.35 0 1.7 0 0 Z " fill="#CC4F50" transform="translate(103,353)"/>
<path d="M0 0 C0.99 0 1.98 0 3 0 C3 0.99 3 1.98 3 3 C1.25 4.60546875 1.25 4.60546875 -1 6.1875 C-1.7425 6.71730469 -2.485 7.24710937 -3.25 7.79296875 C-3.8275 8.19128906 -4.405 8.58960938 -5 9 C-4.42415568 6.61435923 -3.77772405 4.33317216 -3 2 C-2.01 2 -1.02 2 0 2 C0 1.34 0 0.68 0 0 Z " fill="#CA5351" transform="translate(125,329)"/>
<path d="M0 0 C0.33 0 0.66 0 1 0 C1 4.29 1 8.58 1 13 C-0.32 11.68 -1.64 10.36 -3 9 C-2.01 6.03 -1.02 3.06 0 0 Z " fill="#D35B57" transform="translate(317,179)"/>
<path d="M0 0 C1.32 0 2.64 0 4 0 C4.144375 1.11375 4.28875 2.2275 4.4375 3.375 C4.78372035 6.82142047 4.78372035 6.82142047 6 9 C5.34 9.66 4.68 10.32 4 11 C3.32880451 9.5437455 2.66318193 8.08492133 2 6.625 C1.62875 5.81289062 1.2575 5.00078125 0.875 4.1640625 C0 2 0 2 0 0 Z " fill="#D05758" transform="translate(96,177)"/>
<path d="M0 0 C1.485 0.99 1.485 0.99 3 2 C3 2.66 3 3.32 3 4 C3.66 4 4.32 4 5 4 C5.66 6.64 6.32 9.28 7 12 C6.01 11.67 5.02 11.34 4 11 C3.67 9.35 3.34 7.7 3 6 C2.34 6 1.68 6 1 6 C0.67 4.02 0.34 2.04 0 0 Z " fill="#CC4F4F" transform="translate(352,72)"/>
<path d="M0 0 C2.31 0.33 4.62 0.66 7 1 C6.67 2.32 6.34 3.64 6 5 C4.35 4.67 2.7 4.34 1 4 C0.67 2.68 0.34 1.36 0 0 Z " fill="#D92828" transform="translate(281,40)"/>
<path d="M0 0 C0.66 0 1.32 0 2 0 C2.19658808 1.41543415 2.38187546 2.83244031 2.5625 4.25 C2.66691406 5.03890625 2.77132812 5.8278125 2.87890625 6.640625 C3.00027349 9.00532874 2.69633257 10.7511037 2 13 C1.34 13 0.68 13 0 13 C0 8.71 0 4.42 0 0 Z " fill="#C3302E" transform="translate(41,387)"/>
<path d="M0 0 C3.2436285 3.707004 6 8.97506166 6 14 C5.01 13.67 4.02 13.34 3 13 C2.05078125 11.07421875 2.05078125 11.07421875 1.3125 8.6875 C0.93544922 7.51767578 0.93544922 7.51767578 0.55078125 6.32421875 C0 4 0 4 0 0 Z " fill="#CB6768" transform="translate(350,342)"/>
<path d="M0 0 C2.97 0 5.94 0 9 0 C1.5 5 1.5 5 -2 5 C-2 4.01 -2 3.02 -2 2 C-1.34 2 -0.68 2 0 2 C0 1.34 0 0.68 0 0 Z " fill="#D15B5B" transform="translate(150,313)"/>
<path d="M0 0 C-3.16566573 2.11044382 -5.51197415 2.75552077 -9.1875 3.625 C-10.27417969 3.88539063 -11.36085937 4.14578125 -12.48046875 4.4140625 C-13.31191406 4.60742188 -14.14335937 4.80078125 -15 5 C-14.67 4.01 -14.34 3.02 -14 2 C-9.18912503 0.45073518 -5.08003559 -0.25400178 0 0 Z " fill="#C85E5B" transform="translate(174,308)"/>
<path d="M0 0 C2.31 0.66 4.62 1.32 7 2 C7.33 3.98 7.66 5.96 8 8 C6.85073734 7.04578192 5.70569459 6.08647955 4.5625 5.125 C3.92441406 4.59132813 3.28632813 4.05765625 2.62890625 3.5078125 C1 2 1 2 0 0 Z " fill="#D56A6B" transform="translate(341,284)"/>
<path d="M0 0 C1.04449911 3.13349732 0.93423645 3.98968256 0 7 C-0.66 7 -1.32 7 -2 7 C-2.33 7.99 -2.66 8.98 -3 10 C-3.66 10 -4.32 10 -5 10 C-5 10.66 -5 11.32 -5 12 C-5.66 11.67 -6.32 11.34 -7 11 C-4.69 7.37 -2.38 3.74 0 0 Z " fill="#CE6D6B" transform="translate(108,77)"/>
<path d="M0 0 C0.99 0 1.98 0 3 0 C3 0.66 3 1.32 3 2 C3.66 2 4.32 2 5 2 C5.33 4.97 5.66 7.94 6 11 C3.13546142 7.58983503 1.65296434 4.09305456 0 0 Z " fill="#D16669" transform="translate(299,355)"/>
<path d="M0 0 C3.10712212 0.78637041 6.09244107 1.63924116 9 3 C10.5625 5.6875 10.5625 5.6875 11 8 C6.40378078 6.5129879 3.53027653 4.20187872 0 1 C0 0.67 0 0.34 0 0 Z " fill="#D27573" transform="translate(124,216)"/>
<path d="M0 0 C0.66 0.33 1.32 0.66 2 1 C1.88512252 2.58409994 1.75765492 4.16728963 1.625 5.75 C1.52058594 7.07257813 1.52058594 7.07257813 1.4140625 8.421875 C1.00149945 10.99066382 0.28839043 12.75841015 -1 15 C-1.02685412 12.68756208 -1.04632841 10.3750373 -1.0625 8.0625 C-1.07410156 6.77472656 -1.08570313 5.48695313 -1.09765625 4.16015625 C-1 1 -1 1 0 0 Z " fill="#CD6363" transform="translate(374,152)"/>
<path d="M0 0 C2.475 0.495 2.475 0.495 5 1 C5 2.98 5 4.96 5 7 C4.01 6.67 3.02 6.34 2 6 C0.8125 2.9375 0.8125 2.9375 0 0 Z " fill="#CC4846" transform="translate(235,112)"/>
<path d="M0 0 C3 1 3 1 4.16796875 2.84765625 C4.50441406 3.57855469 4.84085937 4.30945313 5.1875 5.0625 C5.53167969 5.79597656 5.87585938 6.52945312 6.23046875 7.28515625 C6.48441406 7.85105469 6.73835938 8.41695313 7 9 C3.68743072 7.46006593 1.92228767 6.17177465 0 3 C0 2.01 0 1.02 0 0 Z " fill="#CF6E6C" transform="translate(319,448)"/>
<path d="M0 0 C0.99 0 1.98 0 3 0 C3 0.66 3 1.32 3 2 C3.99 2 4.98 2 6 2 C6.125 5.375 6.125 5.375 6 9 C5.34 9.66 4.68 10.32 4 11 C2.875 5.25 2.875 5.25 4 3 C3.34 3 2.68 3 2 3 C2 2.34 2 1.68 2 1 C1.34 0.67 0.68 0.34 0 0 Z " fill="#CA463F" transform="translate(367,314)"/>
<path d="M0 0 C0.33 1.98 0.66 3.96 1 6 C1.99 6.33 2.98 6.66 4 7 C3.67 7.66 3.34 8.32 3 9 C1.68 8.67 0.36 8.34 -1 8 C-1.103125 7.38125 -1.20625 6.7625 -1.3125 6.125 C-1.87525373 3.63473516 -1.87525373 3.63473516 -5 2 C-1.125 0 -1.125 0 0 0 Z " fill="#D13632" transform="translate(342,276)"/>
<path d="M0 0 C1.32 0.33 2.64 0.66 4 1 C4 2.32 4 3.64 4 5 C4.99 5.33 5.98 5.66 7 6 C7 7.65 7 9.3 7 11 C4.18515955 9.59257978 3.72516601 7.74442408 2.375 4.9375 C1.92898438 4.01839844 1.48296875 3.09929687 1.0234375 2.15234375 C0.51683594 1.08693359 0.51683594 1.08693359 0 0 Z " fill="#D47776" transform="translate(306,75)"/>
<path d="M0 0 C0.66 0.33 1.32 0.66 2 1 C2.25 7.625 2.25 7.625 0 11 C-0.19406478 9.35492782 -0.38007935 7.70890406 -0.5625 6.0625 C-0.66691406 5.14597656 -0.77132813 4.22945313 -0.87890625 3.28515625 C-0.91886719 2.53105469 -0.95882813 1.77695312 -1 1 C-0.67 0.67 -0.34 0.34 0 0 Z " fill="#CE5453" transform="translate(406,376)"/>
<path d="M0 0 C0.66 0.33 1.32 0.66 2 1 C0.9375 3 0.9375 3 -1 5 C-4.6875 5.25 -4.6875 5.25 -8 5 C-5.45378681 2.99940392 -3.01962385 1.20784954 0 0 Z " fill="#D2726E" transform="translate(150,44)"/>
<path d="M0 0 C2.0625 0.4375 2.0625 0.4375 4 1 C4 2.65 4 4.3 4 6 C3.01 6.33 2.02 6.66 1 7 C0.67 6.01 0.34 5.02 0 4 C0.33 3.34 0.66 2.68 1 2 C0.34 1.67 -0.32 1.34 -1 1 C-0.67 0.67 -0.34 0.34 0 0 Z " fill="#D52C25" transform="translate(353,361)"/>
<path d="M0 0 C2.25245881 2.68841859 3.88213958 4.64641875 5 8 C4.01 8.495 4.01 8.495 3 9 C2.01 8.34 1.02 7.68 0 7 C-0.1875 3.375 -0.1875 3.375 0 0 Z " fill="#CD5659" transform="translate(435,328)"/>
<path d="M0 0 C0.33 1.32 0.66 2.64 1 4 C0.01 4.495 0.01 4.495 -1 5 C-0.67 5.66 -0.34 6.32 0 7 C-1.98 7.33 -3.96 7.66 -6 8 C-4.02 5.36 -2.04 2.72 0 0 Z " fill="#D4716E" transform="translate(115,69)"/>
<path d="M0 0 C1.32 0 2.64 0 4 0 C4 0.99 4 1.98 4 3 C4.66 3 5.32 3 6 3 C6.33 4.98 6.66 6.96 7 9 C4.04070881 6.24479785 1.96318174 3.53372712 0 0 Z " fill="#D36F6F" transform="translate(299,65)"/>
<path d="M0 0 C0.66 0 1.32 0 2 0 C2 0.99 2 1.98 2 3 C2.66 3 3.32 3 4 3 C4.33 5.31 4.66 7.62 5 10 C2.75972706 7.11964908 0.83827868 4.15133488 -1 1 C-0.67 0.67 -0.34 0.34 0 0 Z " fill="#CE6965" transform="translate(391,351)"/>
<path d="M0 0 C0.99 0.33 1.98 0.66 3 1 C2.34 1 1.68 1 1 1 C0.7525 1.598125 0.505 2.19625 0.25 2.8125 C-1.16370012 5.28647521 -2.65055383 6.43370255 -5 8 C-5 6.68 -5 5.36 -5 4 C-4.01 4 -3.02 4 -2 4 C-2 3.01 -2 2.02 -2 1 C-1.34 0.67 -0.68 0.34 0 0 Z " fill="#D27374" transform="translate(262,208)"/>
<path d="M0 0 C2.64 0.66 5.28 1.32 8 2 C8 2.66 8 3.32 8 4 C8.99 4.33 9.98 4.66 11 5 C7.31733897 4.40049704 3.65456815 3.75241109 0 3 C0 2.01 0 1.02 0 0 Z " fill="#D03233" transform="translate(162,185)"/>
<path d="M0 0 C0.66 0 1.32 0 2 0 C1.71640113 1.4391134 1.42278601 2.87625518 1.125 4.3125 C0.88136719 5.51326172 0.88136719 5.51326172 0.6328125 6.73828125 C0 9 0 9 -2 12 C-2 9.69 -2 7.38 -2 5 C-1.34 5 -0.68 5 0 5 C0 3.35 0 1.7 0 0 Z " fill="#CB6566" transform="translate(287,163)"/>
<path d="M0 0 C0.99 0 1.98 0 3 0 C3.66 1.98 4.32 3.96 5 6 C4.34 6 3.68 6 3 6 C2.67 6.99 2.34 7.98 2 9 C1.34 6.03 0.68 3.06 0 0 Z " fill="#D36763" transform="translate(238,119)"/>
<path d="M0 0 C0.33 0 0.66 0 1 0 C1.08096803 1.45742463 1.13917774 2.91612807 1.1875 4.375 C1.22230469 5.18710938 1.25710937 5.99921875 1.29296875 6.8359375 C1.19628906 7.55007812 1.09960938 8.26421875 1 9 C0.01 9.66 -0.98 10.32 -2 11 C-1.85892253 9.54119891 -1.71197585 8.08296449 -1.5625 6.625 C-1.48128906 5.81289062 -1.40007812 5.00078125 -1.31640625 4.1640625 C-1 2 -1 2 0 0 Z " fill="#CD6663" transform="translate(92,109)"/>
<path d="M0 0 C0.99 0 1.98 0 3 0 C2.42647107 3.87132028 0.51295648 6.08172796 -2 9 C-2 7.35 -2 5.7 -2 4 C-1.34 4 -0.68 4 0 4 C0 2.68 0 1.36 0 0 Z " fill="#D05D5D" transform="translate(147,104)"/>
<path d="M0 0 C2.31 0.33 4.62 0.66 7 1 C7 1.66 7 2.32 7 3 C8.32 3.33 9.64 3.66 11 4 C8 5 8 5 5.95703125 4.22265625 C5.24933594 3.83980469 4.54164063 3.45695312 3.8125 3.0625 C3.09707031 2.68222656 2.38164062 2.30195313 1.64453125 1.91015625 C1.10183594 1.60980469 0.55914062 1.30945313 0 1 C0 0.67 0 0.34 0 0 Z " fill="#CF645E" transform="translate(420,457)"/>
<path d="M0 0 C0.66 0 1.32 0 2 0 C2 0.66 2 1.32 2 2 C2.61875 2.061875 3.2375 2.12375 3.875 2.1875 C6 3 6 3 7.25 5.5625 C7.4975 6.366875 7.745 7.17125 8 8 C4.20645982 6.50968064 2.3521464 4.27620391 0 1 C0 0.67 0 0.34 0 0 Z " fill="#D06A66" transform="translate(42,451)"/>
<path d="M0 0 C0.33 0 0.66 0 1 0 C1.33 3.96 1.66 7.92 2 12 C1.01 12.495 1.01 12.495 0 13 C-0.96661363 9.87819599 -0.98988909 7.47916205 -0.5625 4.25 C-0.46066406 3.45078125 -0.35882813 2.6515625 -0.25390625 1.828125 C-0.17011719 1.22484375 -0.08632813 0.6215625 0 0 Z " fill="#D1504D" transform="translate(318,435)"/>
<path d="M0 0 C0.66 0.33 1.32 0.66 2 1 C2.125 4.375 2.125 4.375 2 8 C1.34 8.66 0.68 9.32 0 10 C-0.19412181 8.52168779 -0.38012131 7.04230684 -0.5625 5.5625 C-0.66691406 4.73878906 -0.77132813 3.91507812 -0.87890625 3.06640625 C-0.91886719 2.38449219 -0.95882813 1.70257813 -1 1 C-0.67 0.67 -0.34 0.34 0 0 Z " fill="#CD5856" transform="translate(408,386)"/>
<path d="M0 0 C0.66 0.99 1.32 1.98 2 3 C0.625 5.5 0.625 5.5 -1 8 C-1.66 8 -2.32 8 -3 8 C-2.45276317 4.62537285 -1.9451 2.91765 0 0 Z " fill="#C84E4B" transform="translate(67,321)"/>
<path d="M0 0 C1 2 1 2 0.375 4.5 C-1 7 -1 7 -6 9 C-4.02 6.03 -2.04 3.06 0 0 Z " fill="#CE6564" transform="translate(74,312)"/>
<path d="M0 0 C0.66 0 1.32 0 2 0 C1.43628586 3.26954202 0.50037734 4.82575883 -2 7 C-2.66 6.34 -3.32 5.68 -4 5 C-3.625 2.875 -3.625 2.875 -3 1 C-3 1.66 -3 2.32 -3 3 C-2.01 3 -1.02 3 0 3 C0 2.01 0 1.02 0 0 Z " fill="#CF4F4F" transform="translate(358,193)"/>
<path d="M0 0 C2.375 -0.125 2.375 -0.125 5 0 C5.66 0.66 6.32 1.32 7 2 C6.67 2.99 6.34 3.98 6 5 C1.125 2.25 1.125 2.25 0 0 Z " fill="#CD4E49" transform="translate(224,99)"/>
<path d="M0 0 C0.81210937 0.29003906 1.62421875 0.58007812 2.4609375 0.87890625 C3.27820313 1.16636719 4.09546875 1.45382813 4.9375 1.75 C5.56398438 1.97816406 6.19046875 2.20632812 6.8359375 2.44140625 C4.8559375 3.43140625 4.8559375 3.43140625 2.8359375 4.44140625 C1.8459375 3.78140625 0.8559375 3.12140625 -0.1640625 2.44140625 C-1.48973449 1.75963209 -2.82159938 1.08949189 -4.1640625 0.44140625 C-2.1640625 -0.55859375 -2.1640625 -0.55859375 0 0 Z " fill="#D46E6D" transform="translate(312.1640625,43.55859375)"/>
<path d="M0 0 C3 1 3 1 5 3 C5 3.99 5 4.98 5 6 C2.5625 5.1875 2.5625 5.1875 0 4 C-0.33 3.01 -0.66 2.02 -1 1 C-0.67 0.67 -0.34 0.34 0 0 Z " fill="#D72A27" transform="translate(324,450)"/>
<path d="M0 0 C2.6855594 2.6855594 3.06049974 5.37621328 4 9 C3.01 9 2.02 9 1 9 C0.67 6.03 0.34 3.06 0 0 Z " fill="#D37779" transform="translate(448,352)"/>
<path d="M0 0 C2.72426311 2.35277269 3.8141763 4.62496331 5 8 C3.125 7.8125 3.125 7.8125 1 7 C-0.3125 4.5625 -0.3125 4.5625 -1 2 C-0.67 1.34 -0.34 0.68 0 0 Z " fill="#D0716C" transform="translate(342,328)"/>
<path d="M0 0 C2.97 0 5.94 0 9 0 C9.33 1.32 9.66 2.64 10 4 C6.7 3.01 3.4 2.02 0 1 C0 0.67 0 0.34 0 0 Z " fill="#D46E6D" transform="translate(246,313)"/>
<path d="M0 0 C1.125 3.75 1.125 3.75 0 6 C-2.5625 6.625 -2.5625 6.625 -5 7 C-5 6.34 -5 5.68 -5 5 C-4.34 5 -3.68 5 -3 5 C-2.5359375 4.0409375 -2.5359375 4.0409375 -2.0625 3.0625 C-1 1 -1 1 0 0 Z " fill="#D17F7D" transform="translate(83,302)"/>
<path d="M0 0 C3.465 1.485 3.465 1.485 7 3 C6.67 3.66 6.34 4.32 6 5 C3.03 4.505 3.03 4.505 0 4 C0 2.68 0 1.36 0 0 Z " fill="#CF6564" transform="translate(284,275)"/>
<path d="M0 0 C1.65 0 3.3 0 5 0 C5 0.66 5 1.32 5 2 C7.31 2 9.62 2 12 2 C12 2.99 12 3.98 12 5 C9.36 4.34 6.72 3.68 4 3 C4 2.34 4 1.68 4 1 C2.68 0.67 1.36 0.34 0 0 Z " fill="#C74945" transform="translate(364,272)"/>
<path d="M0 0 C-3.69172595 3.53790403 -7.09390595 3.59115883 -12 4 C-11 2 -11 2 -9.00390625 1.11328125 C-7.79541016 0.71689453 -7.79541016 0.71689453 -6.5625 0.3125 C-5.75941406 0.04050781 -4.95632812 -0.23148437 -4.12890625 -0.51171875 C-2 -1 -2 -1 0 0 Z " fill="#D6827D" transform="translate(145,266)"/>
<path d="M0 0 C0.33 0.66 0.66 1.32 1 2 C0.67 2.66 0.34 3.32 0 4 C-0.99 4 -1.98 4 -3 4 C-2.67 4.99 -2.34 5.98 -2 7 C-3.32 7 -4.64 7 -6 7 C-5.34 5.68 -4.68 4.36 -4 3 C-3.34 3 -2.68 3 -2 3 C-2 2.34 -2 1.68 -2 1 C-1.34 0.67 -0.68 0.34 0 0 Z " fill="#BD6863" transform="translate(280,232)"/>
<path d="M0 0 C0 2.33333333 0 4.66666667 0 7 C-1.65 6.67 -3.3 6.34 -5 6 C-3.35 4.02 -1.7 2.04 0 0 Z " fill="#D45B59" transform="translate(286,226)"/>
<path d="M0 0 C6.625 0.75 6.625 0.75 10 3 C8.375 3.6875 8.375 3.6875 6 4 C2.75 2.5625 2.75 2.5625 0 1 C0 0.67 0 0.34 0 0 Z " fill="#CF6168" transform="translate(146,230)"/>
<path d="M0 0 C3.91211733 1.15585285 6.8745041 2.35534962 10 5 C9.01 5.33 8.02 5.66 7 6 C7 5.34 7 4.68 7 4 C4.03 3.505 4.03 3.505 1 3 C0.67 2.01 0.34 1.02 0 0 Z " fill="#CE726E" transform="translate(228,44)"/>
<path d="M0 0 C0.33 0 0.66 0 1 0 C1.25 5.625 1.25 5.625 -1 9 C-1.66 9 -2.32 9 -3 9 C-2.01 6.03 -1.02 3.06 0 0 Z " fill="#CF6B67" transform="translate(53,345)"/>
<path d="M0 0 C1.37562854 1.28965176 2.70766393 2.62689293 4 4 C4 4.66 4 5.32 4 6 C4.66 6 5.32 6 6 6 C5.67 6.66 5.34 7.32 5 8 C4.34 8 3.68 8 3 8 C3 7.34 3 6.68 3 6 C2.34 6 1.68 6 1 6 C0.67 4.02 0.34 2.04 0 0 Z " fill="#CA6C69" transform="translate(429,320)"/>
<path d="M0 0 C1.98 1.65 3.96 3.3 6 5 C5.67 5.99 5.34 6.98 5 8 C4.34 7.67 3.68 7.34 3 7 C3 6.01 3 5.02 3 4 C2.01 3.67 1.02 3.34 0 3 C0 2.01 0 1.02 0 0 Z " fill="#C64F50" transform="translate(412,301)"/>
<path d="M0 0 C0.66 0.33 1.32 0.66 2 1 C2 1.99 2 2.98 2 4 C-0.31 4.33 -2.62 4.66 -5 5 C-3.35 3.35 -1.7 1.7 0 0 Z " fill="#D97973" transform="translate(106,283)"/>
<path d="M0 0 C0.66 0 1.32 0 2 0 C1.34 2.31 0.68 4.62 0 7 C-1.32 6.34 -2.64 5.68 -4 5 C-2.71937515 3.2925002 -1.38232443 1.62626404 0 0 Z " fill="#CE6060" transform="translate(291,220)"/>
<path d="M0 0 C0.99 0 1.98 0 3 0 C2.25 1.9375 2.25 1.9375 1 4 C-1.125 4.75 -1.125 4.75 -3 5 C-1.125 1.125 -1.125 1.125 0 0 Z " fill="#CB5553" transform="translate(296,215)"/>
<path d="M0 0 C2.5 2.3125 2.5 2.3125 5 5 C5 5.99 5 6.98 5 8 C2.5 6.25 2.5 6.25 0 4 C0 2.68 0 1.36 0 0 Z " fill="#C54D4C" transform="translate(115,204)"/>
<path d="M0 0 C0.6875 1.625 0.6875 1.625 1 4 C-0.4375 7.25 -0.4375 7.25 -2 10 C-2.33 10 -2.66 10 -3 10 C-3 8.35 -3 6.7 -3 5 C-2.34 5 -1.68 5 -1 5 C-0.67 3.35 -0.34 1.7 0 0 Z " fill="#C3514F" transform="translate(144,110)"/>
<path d="M0 0 C-2.64 1.65 -5.28 3.3 -8 5 C-8 3.68 -8 2.36 -8 1 C-4.59449725 -1.06762667 -4.18836538 -1.04709135 0 0 Z " fill="#D07474" transform="translate(165,94)"/>
<path d="M0 0 C2.31 0 4.62 0 7 0 C7.33 0.99 7.66 1.98 8 3 C3.44615385 3.36923077 3.44615385 3.36923077 1.1875 1.5 C0.5996875 0.7575 0.5996875 0.7575 0 0 Z " fill="#CC5253" transform="translate(196,85)"/>
<path d="M0 0 C2.52588702 2.36292656 3.88820837 3.66462511 5 7 C3.68 7 2.36 7 1 7 C0.67 4.69 0.34 2.38 0 0 Z " fill="#D0605F" transform="translate(271,77)"/>
<path d="M0 0 C2.475 0.495 2.475 0.495 5 1 C5.625 3.375 5.625 3.375 6 6 C5.34 6.66 4.68 7.32 4 8 C4 7.34 4 6.68 4 6 C3.34 5.67 2.68 5.34 2 5 C2.66 4.67 3.32 4.34 4 4 C3.67 3.01 3.34 2.02 3 1 C2.01 0.67 1.02 0.34 0 0 Z " fill="#CB403E" transform="translate(326,52)"/>
<path d="M0 0 C2.97 0.495 2.97 0.495 6 1 C6.33 2.32 6.66 3.64 7 5 C4.11424181 4.60196439 3.17810487 4.20990931 1.25 1.9375 C0.8375 1.298125 0.425 0.65875 0 0 Z " fill="#D15151" transform="translate(289,342)"/>
<path d="M0 0 C2.475 0.495 2.475 0.495 5 1 C4.67 2.65 4.34 4.3 4 6 C2.62437146 4.71034824 1.29233607 3.37310707 0 2 C0 1.34 0 0.68 0 0 Z " fill="#D35B52" transform="translate(377,335)"/>
<path d="M0 0 C3.71888239 0.50712033 6.73454239 1.11608215 10 3 C5.94568308 4.15837626 3.78187881 3.83691257 0 2 C0 1.34 0 0.68 0 0 Z " fill="#D17976" transform="translate(256,264)"/>
<path d="M0 0 C-2.93828597 2.50298434 -5.17902761 3.46930939 -9 4 C-8.67 3.01 -8.34 2.02 -8 1 C-5.07175348 0.02391783 -3.04386724 -0.08226668 0 0 Z " fill="#D4786E" transform="translate(233,231)"/>
<path d="M0 0 C1.32 0.33 2.64 0.66 4 1 C4.33 2.98 4.66 4.96 5 7 C4.34 7 3.68 7 3 7 C2.01 4.69 1.02 2.38 0 0 Z " fill="#D16960" transform="translate(103,191)"/>
<path d="M0 0 C0.66 0 1.32 0 2 0 C2 0.66 2 1.32 2 2 C2.99 1.67 3.98 1.34 5 1 C5 1.99 5 2.98 5 4 C4.34 4.66 3.68 5.32 3 6 C0 1.125 0 1.125 0 0 Z " fill="#CE4B48" transform="translate(295,58)"/>
<path d="M0 0 C2.97 0.495 2.97 0.495 6 1 C6 2.65 6 4.3 6 6 C3.97945196 4.35830472 1.97956942 2.69088222 0 1 C0 0.67 0 0.34 0 0 Z " fill="#D4716F" transform="translate(283,47)"/>
</svg>
